G75*
%MOIN*%
%OFA0B0*%
%FSLAX25Y25*%
%IPPOS*%
%LPD*%
%AMOC8*
5,1,8,0,0,1.08239X$1,22.5*
%
%ADD10C,0.00039*%
%ADD11C,0.00000*%
%ADD12C,0.00600*%
%ADD13C,0.00200*%
%ADD14C,0.00800*%
%ADD15C,0.00500*%
%ADD16C,0.00400*%
%ADD17C,0.00300*%
%ADD18C,0.00100*%
%ADD19C,0.01000*%
D10*
X0001846Y0002245D02*
X0549091Y0002245D01*
X0549091Y0132742D01*
X0549591Y0132742D01*
X0549091Y0132742D02*
X0001846Y0132742D01*
X0001846Y0002245D01*
X0535509Y0119035D02*
X0535511Y0119175D01*
X0535517Y0119315D01*
X0535527Y0119454D01*
X0535541Y0119593D01*
X0535559Y0119732D01*
X0535580Y0119870D01*
X0535606Y0120008D01*
X0535636Y0120145D01*
X0535669Y0120280D01*
X0535707Y0120415D01*
X0535748Y0120549D01*
X0535793Y0120682D01*
X0535841Y0120813D01*
X0535894Y0120942D01*
X0535950Y0121071D01*
X0536009Y0121197D01*
X0536073Y0121322D01*
X0536139Y0121445D01*
X0536210Y0121566D01*
X0536283Y0121685D01*
X0536360Y0121802D01*
X0536441Y0121916D01*
X0536524Y0122028D01*
X0536611Y0122138D01*
X0536701Y0122246D01*
X0536793Y0122350D01*
X0536889Y0122452D01*
X0536988Y0122552D01*
X0537089Y0122648D01*
X0537193Y0122742D01*
X0537300Y0122832D01*
X0537409Y0122919D01*
X0537521Y0123004D01*
X0537635Y0123085D01*
X0537751Y0123163D01*
X0537869Y0123237D01*
X0537990Y0123308D01*
X0538112Y0123376D01*
X0538237Y0123440D01*
X0538363Y0123501D01*
X0538490Y0123558D01*
X0538620Y0123611D01*
X0538751Y0123661D01*
X0538883Y0123706D01*
X0539016Y0123749D01*
X0539151Y0123787D01*
X0539286Y0123821D01*
X0539423Y0123852D01*
X0539560Y0123879D01*
X0539698Y0123901D01*
X0539837Y0123920D01*
X0539976Y0123935D01*
X0540115Y0123946D01*
X0540255Y0123953D01*
X0540395Y0123956D01*
X0540535Y0123955D01*
X0540675Y0123950D01*
X0540814Y0123941D01*
X0540954Y0123928D01*
X0541093Y0123911D01*
X0541231Y0123890D01*
X0541369Y0123866D01*
X0541506Y0123837D01*
X0541642Y0123805D01*
X0541777Y0123768D01*
X0541911Y0123728D01*
X0542044Y0123684D01*
X0542175Y0123636D01*
X0542305Y0123585D01*
X0542434Y0123530D01*
X0542561Y0123471D01*
X0542686Y0123408D01*
X0542809Y0123343D01*
X0542931Y0123273D01*
X0543050Y0123200D01*
X0543168Y0123124D01*
X0543283Y0123045D01*
X0543396Y0122962D01*
X0543506Y0122876D01*
X0543614Y0122787D01*
X0543719Y0122695D01*
X0543822Y0122600D01*
X0543922Y0122502D01*
X0544019Y0122402D01*
X0544113Y0122298D01*
X0544205Y0122192D01*
X0544293Y0122084D01*
X0544378Y0121973D01*
X0544460Y0121859D01*
X0544539Y0121743D01*
X0544614Y0121626D01*
X0544686Y0121506D01*
X0544754Y0121384D01*
X0544819Y0121260D01*
X0544881Y0121134D01*
X0544939Y0121007D01*
X0544993Y0120878D01*
X0545044Y0120747D01*
X0545090Y0120615D01*
X0545133Y0120482D01*
X0545173Y0120348D01*
X0545208Y0120213D01*
X0545240Y0120076D01*
X0545267Y0119939D01*
X0545291Y0119801D01*
X0545311Y0119663D01*
X0545327Y0119524D01*
X0545339Y0119384D01*
X0545347Y0119245D01*
X0545351Y0119105D01*
X0545351Y0118965D01*
X0545347Y0118825D01*
X0545339Y0118686D01*
X0545327Y0118546D01*
X0545311Y0118407D01*
X0545291Y0118269D01*
X0545267Y0118131D01*
X0545240Y0117994D01*
X0545208Y0117857D01*
X0545173Y0117722D01*
X0545133Y0117588D01*
X0545090Y0117455D01*
X0545044Y0117323D01*
X0544993Y0117192D01*
X0544939Y0117063D01*
X0544881Y0116936D01*
X0544819Y0116810D01*
X0544754Y0116686D01*
X0544686Y0116564D01*
X0544614Y0116444D01*
X0544539Y0116327D01*
X0544460Y0116211D01*
X0544378Y0116097D01*
X0544293Y0115986D01*
X0544205Y0115878D01*
X0544113Y0115772D01*
X0544019Y0115668D01*
X0543922Y0115568D01*
X0543822Y0115470D01*
X0543719Y0115375D01*
X0543614Y0115283D01*
X0543506Y0115194D01*
X0543396Y0115108D01*
X0543283Y0115025D01*
X0543168Y0114946D01*
X0543050Y0114870D01*
X0542931Y0114797D01*
X0542809Y0114727D01*
X0542686Y0114662D01*
X0542561Y0114599D01*
X0542434Y0114540D01*
X0542305Y0114485D01*
X0542175Y0114434D01*
X0542044Y0114386D01*
X0541911Y0114342D01*
X0541777Y0114302D01*
X0541642Y0114265D01*
X0541506Y0114233D01*
X0541369Y0114204D01*
X0541231Y0114180D01*
X0541093Y0114159D01*
X0540954Y0114142D01*
X0540814Y0114129D01*
X0540675Y0114120D01*
X0540535Y0114115D01*
X0540395Y0114114D01*
X0540255Y0114117D01*
X0540115Y0114124D01*
X0539976Y0114135D01*
X0539837Y0114150D01*
X0539698Y0114169D01*
X0539560Y0114191D01*
X0539423Y0114218D01*
X0539286Y0114249D01*
X0539151Y0114283D01*
X0539016Y0114321D01*
X0538883Y0114364D01*
X0538751Y0114409D01*
X0538620Y0114459D01*
X0538490Y0114512D01*
X0538363Y0114569D01*
X0538237Y0114630D01*
X0538112Y0114694D01*
X0537990Y0114762D01*
X0537869Y0114833D01*
X0537751Y0114907D01*
X0537635Y0114985D01*
X0537521Y0115066D01*
X0537409Y0115151D01*
X0537300Y0115238D01*
X0537193Y0115328D01*
X0537089Y0115422D01*
X0536988Y0115518D01*
X0536889Y0115618D01*
X0536793Y0115720D01*
X0536701Y0115824D01*
X0536611Y0115932D01*
X0536524Y0116042D01*
X0536441Y0116154D01*
X0536360Y0116268D01*
X0536283Y0116385D01*
X0536210Y0116504D01*
X0536139Y0116625D01*
X0536073Y0116748D01*
X0536009Y0116873D01*
X0535950Y0116999D01*
X0535894Y0117128D01*
X0535841Y0117257D01*
X0535793Y0117388D01*
X0535748Y0117521D01*
X0535707Y0117655D01*
X0535669Y0117790D01*
X0535636Y0117925D01*
X0535606Y0118062D01*
X0535580Y0118200D01*
X0535559Y0118338D01*
X0535541Y0118477D01*
X0535527Y0118616D01*
X0535517Y0118755D01*
X0535511Y0118895D01*
X0535509Y0119035D01*
D11*
X0535475Y0119000D02*
X0535477Y0119140D01*
X0535483Y0119280D01*
X0535493Y0119420D01*
X0535507Y0119559D01*
X0535525Y0119698D01*
X0535546Y0119836D01*
X0535572Y0119974D01*
X0535602Y0120111D01*
X0535635Y0120246D01*
X0535673Y0120381D01*
X0535714Y0120515D01*
X0535759Y0120648D01*
X0535808Y0120779D01*
X0535860Y0120909D01*
X0535916Y0121037D01*
X0535976Y0121164D01*
X0536039Y0121289D01*
X0536106Y0121412D01*
X0536176Y0121533D01*
X0536250Y0121652D01*
X0536327Y0121769D01*
X0536407Y0121884D01*
X0536491Y0121996D01*
X0536578Y0122106D01*
X0536668Y0122213D01*
X0536760Y0122318D01*
X0536856Y0122420D01*
X0536955Y0122519D01*
X0537056Y0122616D01*
X0537160Y0122710D01*
X0537267Y0122800D01*
X0537376Y0122888D01*
X0537488Y0122972D01*
X0537602Y0123053D01*
X0537719Y0123131D01*
X0537837Y0123206D01*
X0537958Y0123277D01*
X0538080Y0123344D01*
X0538205Y0123409D01*
X0538331Y0123469D01*
X0538459Y0123526D01*
X0538588Y0123580D01*
X0538719Y0123629D01*
X0538851Y0123675D01*
X0538985Y0123717D01*
X0539120Y0123756D01*
X0539255Y0123790D01*
X0539392Y0123821D01*
X0539529Y0123847D01*
X0539668Y0123870D01*
X0539806Y0123889D01*
X0539946Y0123904D01*
X0540085Y0123915D01*
X0540225Y0123922D01*
X0540365Y0123925D01*
X0540505Y0123924D01*
X0540645Y0123919D01*
X0540785Y0123910D01*
X0540924Y0123897D01*
X0541063Y0123880D01*
X0541202Y0123859D01*
X0541339Y0123835D01*
X0541476Y0123806D01*
X0541613Y0123773D01*
X0541748Y0123737D01*
X0541882Y0123697D01*
X0542015Y0123653D01*
X0542146Y0123605D01*
X0542277Y0123553D01*
X0542405Y0123498D01*
X0542532Y0123439D01*
X0542658Y0123377D01*
X0542781Y0123311D01*
X0542903Y0123242D01*
X0543022Y0123169D01*
X0543140Y0123093D01*
X0543255Y0123013D01*
X0543368Y0122930D01*
X0543479Y0122844D01*
X0543587Y0122755D01*
X0543692Y0122663D01*
X0543795Y0122568D01*
X0543895Y0122470D01*
X0543992Y0122369D01*
X0544086Y0122266D01*
X0544178Y0122160D01*
X0544266Y0122051D01*
X0544351Y0121940D01*
X0544433Y0121826D01*
X0544512Y0121711D01*
X0544587Y0121593D01*
X0544659Y0121473D01*
X0544728Y0121351D01*
X0544793Y0121227D01*
X0544854Y0121101D01*
X0544912Y0120973D01*
X0544967Y0120844D01*
X0545017Y0120714D01*
X0545064Y0120582D01*
X0545107Y0120448D01*
X0545146Y0120314D01*
X0545182Y0120179D01*
X0545213Y0120042D01*
X0545241Y0119905D01*
X0545265Y0119767D01*
X0545285Y0119628D01*
X0545301Y0119489D01*
X0545313Y0119350D01*
X0545321Y0119210D01*
X0545325Y0119070D01*
X0545325Y0118930D01*
X0545321Y0118790D01*
X0545313Y0118650D01*
X0545301Y0118511D01*
X0545285Y0118372D01*
X0545265Y0118233D01*
X0545241Y0118095D01*
X0545213Y0117958D01*
X0545182Y0117821D01*
X0545146Y0117686D01*
X0545107Y0117552D01*
X0545064Y0117418D01*
X0545017Y0117286D01*
X0544967Y0117156D01*
X0544912Y0117027D01*
X0544854Y0116899D01*
X0544793Y0116773D01*
X0544728Y0116649D01*
X0544659Y0116527D01*
X0544587Y0116407D01*
X0544512Y0116289D01*
X0544433Y0116174D01*
X0544351Y0116060D01*
X0544266Y0115949D01*
X0544178Y0115840D01*
X0544086Y0115734D01*
X0543992Y0115631D01*
X0543895Y0115530D01*
X0543795Y0115432D01*
X0543692Y0115337D01*
X0543587Y0115245D01*
X0543479Y0115156D01*
X0543368Y0115070D01*
X0543255Y0114987D01*
X0543140Y0114907D01*
X0543022Y0114831D01*
X0542903Y0114758D01*
X0542781Y0114689D01*
X0542658Y0114623D01*
X0542532Y0114561D01*
X0542405Y0114502D01*
X0542277Y0114447D01*
X0542146Y0114395D01*
X0542015Y0114347D01*
X0541882Y0114303D01*
X0541748Y0114263D01*
X0541613Y0114227D01*
X0541476Y0114194D01*
X0541339Y0114165D01*
X0541202Y0114141D01*
X0541063Y0114120D01*
X0540924Y0114103D01*
X0540785Y0114090D01*
X0540645Y0114081D01*
X0540505Y0114076D01*
X0540365Y0114075D01*
X0540225Y0114078D01*
X0540085Y0114085D01*
X0539946Y0114096D01*
X0539806Y0114111D01*
X0539668Y0114130D01*
X0539529Y0114153D01*
X0539392Y0114179D01*
X0539255Y0114210D01*
X0539120Y0114244D01*
X0538985Y0114283D01*
X0538851Y0114325D01*
X0538719Y0114371D01*
X0538588Y0114420D01*
X0538459Y0114474D01*
X0538331Y0114531D01*
X0538205Y0114591D01*
X0538080Y0114656D01*
X0537958Y0114723D01*
X0537837Y0114794D01*
X0537719Y0114869D01*
X0537602Y0114947D01*
X0537488Y0115028D01*
X0537376Y0115112D01*
X0537267Y0115200D01*
X0537160Y0115290D01*
X0537056Y0115384D01*
X0536955Y0115481D01*
X0536856Y0115580D01*
X0536760Y0115682D01*
X0536668Y0115787D01*
X0536578Y0115894D01*
X0536491Y0116004D01*
X0536407Y0116116D01*
X0536327Y0116231D01*
X0536250Y0116348D01*
X0536176Y0116467D01*
X0536106Y0116588D01*
X0536039Y0116711D01*
X0535976Y0116836D01*
X0535916Y0116963D01*
X0535860Y0117091D01*
X0535808Y0117221D01*
X0535759Y0117352D01*
X0535714Y0117485D01*
X0535673Y0117619D01*
X0535635Y0117754D01*
X0535602Y0117889D01*
X0535572Y0118026D01*
X0535546Y0118164D01*
X0535525Y0118302D01*
X0535507Y0118441D01*
X0535493Y0118580D01*
X0535483Y0118720D01*
X0535477Y0118860D01*
X0535475Y0119000D01*
X0231975Y0119100D02*
X0231977Y0119240D01*
X0231983Y0119380D01*
X0231993Y0119520D01*
X0232007Y0119659D01*
X0232025Y0119798D01*
X0232046Y0119936D01*
X0232072Y0120074D01*
X0232102Y0120211D01*
X0232135Y0120346D01*
X0232173Y0120481D01*
X0232214Y0120615D01*
X0232259Y0120748D01*
X0232308Y0120879D01*
X0232360Y0121009D01*
X0232416Y0121137D01*
X0232476Y0121264D01*
X0232539Y0121389D01*
X0232606Y0121512D01*
X0232676Y0121633D01*
X0232750Y0121752D01*
X0232827Y0121869D01*
X0232907Y0121984D01*
X0232991Y0122096D01*
X0233078Y0122206D01*
X0233168Y0122313D01*
X0233260Y0122418D01*
X0233356Y0122520D01*
X0233455Y0122619D01*
X0233556Y0122716D01*
X0233660Y0122810D01*
X0233767Y0122900D01*
X0233876Y0122988D01*
X0233988Y0123072D01*
X0234102Y0123153D01*
X0234219Y0123231D01*
X0234337Y0123306D01*
X0234458Y0123377D01*
X0234580Y0123444D01*
X0234705Y0123509D01*
X0234831Y0123569D01*
X0234959Y0123626D01*
X0235088Y0123680D01*
X0235219Y0123729D01*
X0235351Y0123775D01*
X0235485Y0123817D01*
X0235620Y0123856D01*
X0235755Y0123890D01*
X0235892Y0123921D01*
X0236029Y0123947D01*
X0236168Y0123970D01*
X0236306Y0123989D01*
X0236446Y0124004D01*
X0236585Y0124015D01*
X0236725Y0124022D01*
X0236865Y0124025D01*
X0237005Y0124024D01*
X0237145Y0124019D01*
X0237285Y0124010D01*
X0237424Y0123997D01*
X0237563Y0123980D01*
X0237702Y0123959D01*
X0237839Y0123935D01*
X0237976Y0123906D01*
X0238113Y0123873D01*
X0238248Y0123837D01*
X0238382Y0123797D01*
X0238515Y0123753D01*
X0238646Y0123705D01*
X0238777Y0123653D01*
X0238905Y0123598D01*
X0239032Y0123539D01*
X0239158Y0123477D01*
X0239281Y0123411D01*
X0239403Y0123342D01*
X0239522Y0123269D01*
X0239640Y0123193D01*
X0239755Y0123113D01*
X0239868Y0123030D01*
X0239979Y0122944D01*
X0240087Y0122855D01*
X0240192Y0122763D01*
X0240295Y0122668D01*
X0240395Y0122570D01*
X0240492Y0122469D01*
X0240586Y0122366D01*
X0240678Y0122260D01*
X0240766Y0122151D01*
X0240851Y0122040D01*
X0240933Y0121926D01*
X0241012Y0121811D01*
X0241087Y0121693D01*
X0241159Y0121573D01*
X0241228Y0121451D01*
X0241293Y0121327D01*
X0241354Y0121201D01*
X0241412Y0121073D01*
X0241467Y0120944D01*
X0241517Y0120814D01*
X0241564Y0120682D01*
X0241607Y0120548D01*
X0241646Y0120414D01*
X0241682Y0120279D01*
X0241713Y0120142D01*
X0241741Y0120005D01*
X0241765Y0119867D01*
X0241785Y0119728D01*
X0241801Y0119589D01*
X0241813Y0119450D01*
X0241821Y0119310D01*
X0241825Y0119170D01*
X0241825Y0119030D01*
X0241821Y0118890D01*
X0241813Y0118750D01*
X0241801Y0118611D01*
X0241785Y0118472D01*
X0241765Y0118333D01*
X0241741Y0118195D01*
X0241713Y0118058D01*
X0241682Y0117921D01*
X0241646Y0117786D01*
X0241607Y0117652D01*
X0241564Y0117518D01*
X0241517Y0117386D01*
X0241467Y0117256D01*
X0241412Y0117127D01*
X0241354Y0116999D01*
X0241293Y0116873D01*
X0241228Y0116749D01*
X0241159Y0116627D01*
X0241087Y0116507D01*
X0241012Y0116389D01*
X0240933Y0116274D01*
X0240851Y0116160D01*
X0240766Y0116049D01*
X0240678Y0115940D01*
X0240586Y0115834D01*
X0240492Y0115731D01*
X0240395Y0115630D01*
X0240295Y0115532D01*
X0240192Y0115437D01*
X0240087Y0115345D01*
X0239979Y0115256D01*
X0239868Y0115170D01*
X0239755Y0115087D01*
X0239640Y0115007D01*
X0239522Y0114931D01*
X0239403Y0114858D01*
X0239281Y0114789D01*
X0239158Y0114723D01*
X0239032Y0114661D01*
X0238905Y0114602D01*
X0238777Y0114547D01*
X0238646Y0114495D01*
X0238515Y0114447D01*
X0238382Y0114403D01*
X0238248Y0114363D01*
X0238113Y0114327D01*
X0237976Y0114294D01*
X0237839Y0114265D01*
X0237702Y0114241D01*
X0237563Y0114220D01*
X0237424Y0114203D01*
X0237285Y0114190D01*
X0237145Y0114181D01*
X0237005Y0114176D01*
X0236865Y0114175D01*
X0236725Y0114178D01*
X0236585Y0114185D01*
X0236446Y0114196D01*
X0236306Y0114211D01*
X0236168Y0114230D01*
X0236029Y0114253D01*
X0235892Y0114279D01*
X0235755Y0114310D01*
X0235620Y0114344D01*
X0235485Y0114383D01*
X0235351Y0114425D01*
X0235219Y0114471D01*
X0235088Y0114520D01*
X0234959Y0114574D01*
X0234831Y0114631D01*
X0234705Y0114691D01*
X0234580Y0114756D01*
X0234458Y0114823D01*
X0234337Y0114894D01*
X0234219Y0114969D01*
X0234102Y0115047D01*
X0233988Y0115128D01*
X0233876Y0115212D01*
X0233767Y0115300D01*
X0233660Y0115390D01*
X0233556Y0115484D01*
X0233455Y0115581D01*
X0233356Y0115680D01*
X0233260Y0115782D01*
X0233168Y0115887D01*
X0233078Y0115994D01*
X0232991Y0116104D01*
X0232907Y0116216D01*
X0232827Y0116331D01*
X0232750Y0116448D01*
X0232676Y0116567D01*
X0232606Y0116688D01*
X0232539Y0116811D01*
X0232476Y0116936D01*
X0232416Y0117063D01*
X0232360Y0117191D01*
X0232308Y0117321D01*
X0232259Y0117452D01*
X0232214Y0117585D01*
X0232173Y0117719D01*
X0232135Y0117854D01*
X0232102Y0117989D01*
X0232072Y0118126D01*
X0232046Y0118264D01*
X0232025Y0118402D01*
X0232007Y0118541D01*
X0231993Y0118680D01*
X0231983Y0118820D01*
X0231977Y0118960D01*
X0231975Y0119100D01*
X0066700Y0035100D02*
X0066697Y0034864D01*
X0066688Y0034628D01*
X0066674Y0034392D01*
X0066654Y0034157D01*
X0066628Y0033922D01*
X0066597Y0033688D01*
X0066559Y0033454D01*
X0066516Y0033222D01*
X0066468Y0032991D01*
X0066414Y0032761D01*
X0066354Y0032532D01*
X0066289Y0032305D01*
X0066218Y0032080D01*
X0066142Y0031857D01*
X0066060Y0031635D01*
X0065973Y0031415D01*
X0065881Y0031198D01*
X0065783Y0030983D01*
X0065680Y0030770D01*
X0065572Y0030560D01*
X0065459Y0030353D01*
X0065341Y0030148D01*
X0065218Y0029946D01*
X0065090Y0029748D01*
X0064957Y0029552D01*
X0064820Y0029360D01*
X0064678Y0029172D01*
X0064531Y0028986D01*
X0064380Y0028805D01*
X0064224Y0028627D01*
X0064065Y0028453D01*
X0063901Y0028283D01*
X0063733Y0028117D01*
X0063560Y0027955D01*
X0063385Y0027797D01*
X0063205Y0027644D01*
X0063021Y0027495D01*
X0062834Y0027351D01*
X0062644Y0027211D01*
X0062450Y0027076D01*
X0062253Y0026946D01*
X0062053Y0026820D01*
X0061850Y0026700D01*
X0061644Y0026584D01*
X0061435Y0026473D01*
X0061224Y0026368D01*
X0061010Y0026268D01*
X0060794Y0026173D01*
X0060575Y0026083D01*
X0060355Y0025999D01*
X0060132Y0025920D01*
X0059907Y0025846D01*
X0059681Y0025778D01*
X0059453Y0025715D01*
X0059224Y0025658D01*
X0058994Y0025607D01*
X0058762Y0025561D01*
X0058529Y0025521D01*
X0058295Y0025487D01*
X0058061Y0025458D01*
X0057826Y0025435D01*
X0057590Y0025418D01*
X0057354Y0025406D01*
X0057118Y0025401D01*
X0056882Y0025401D01*
X0056646Y0025406D01*
X0056410Y0025418D01*
X0056174Y0025435D01*
X0055939Y0025458D01*
X0055705Y0025487D01*
X0055471Y0025521D01*
X0055238Y0025561D01*
X0055006Y0025607D01*
X0054776Y0025658D01*
X0054547Y0025715D01*
X0054319Y0025778D01*
X0054093Y0025846D01*
X0053868Y0025920D01*
X0053645Y0025999D01*
X0053425Y0026083D01*
X0053206Y0026173D01*
X0052990Y0026268D01*
X0052776Y0026368D01*
X0052565Y0026473D01*
X0052356Y0026584D01*
X0052150Y0026700D01*
X0051947Y0026820D01*
X0051747Y0026946D01*
X0051550Y0027076D01*
X0051356Y0027211D01*
X0051166Y0027351D01*
X0050979Y0027495D01*
X0050795Y0027644D01*
X0050615Y0027797D01*
X0050440Y0027955D01*
X0050267Y0028117D01*
X0050099Y0028283D01*
X0049935Y0028453D01*
X0049776Y0028627D01*
X0049620Y0028805D01*
X0049469Y0028986D01*
X0049322Y0029172D01*
X0049180Y0029360D01*
X0049043Y0029552D01*
X0048910Y0029748D01*
X0048782Y0029946D01*
X0048659Y0030148D01*
X0048541Y0030353D01*
X0048428Y0030560D01*
X0048320Y0030770D01*
X0048217Y0030983D01*
X0048119Y0031198D01*
X0048027Y0031415D01*
X0047940Y0031635D01*
X0047858Y0031857D01*
X0047782Y0032080D01*
X0047711Y0032305D01*
X0047646Y0032532D01*
X0047586Y0032761D01*
X0047532Y0032991D01*
X0047484Y0033222D01*
X0047441Y0033454D01*
X0047403Y0033688D01*
X0047372Y0033922D01*
X0047346Y0034157D01*
X0047326Y0034392D01*
X0047312Y0034628D01*
X0047303Y0034864D01*
X0047300Y0035100D01*
D12*
X0034000Y0050100D02*
X0032000Y0050100D01*
X0034000Y0050100D02*
X0034000Y0052100D01*
X0027000Y0050100D02*
X0025000Y0050100D01*
X0025000Y0052100D01*
X0022000Y0052100D02*
X0022000Y0050100D01*
X0020000Y0050100D01*
X0015000Y0050100D02*
X0013000Y0050100D01*
X0013000Y0052100D01*
X0013000Y0057100D02*
X0013000Y0059100D01*
X0015000Y0059100D01*
X0020000Y0059100D02*
X0022000Y0059100D01*
X0022000Y0057100D01*
X0025000Y0057100D02*
X0025000Y0059100D01*
X0027000Y0059100D01*
X0032000Y0059100D02*
X0034000Y0059100D01*
X0034000Y0057100D01*
X0050500Y0078600D02*
X0048000Y0081100D01*
X0048000Y0086100D01*
X0050500Y0088600D01*
X0048000Y0091100D01*
X0048000Y0096100D01*
X0050500Y0098600D01*
X0048000Y0101100D01*
X0048000Y0106100D01*
X0050500Y0108600D01*
X0048000Y0111100D01*
X0048000Y0116100D01*
X0050500Y0118600D01*
X0048000Y0121100D01*
X0048000Y0126100D01*
X0050500Y0128600D01*
X0055500Y0128600D01*
X0058000Y0126100D01*
X0058000Y0121100D01*
X0055500Y0118600D01*
X0058000Y0116100D01*
X0058000Y0111100D01*
X0055500Y0108600D01*
X0050500Y0108600D01*
X0055500Y0108600D02*
X0058000Y0106100D01*
X0058000Y0101100D01*
X0055500Y0098600D01*
X0058000Y0096100D01*
X0058000Y0091100D01*
X0055500Y0088600D01*
X0058000Y0086100D01*
X0058000Y0081100D01*
X0055500Y0078600D01*
X0050500Y0078600D01*
X0050500Y0088600D02*
X0055500Y0088600D01*
X0032000Y0094700D02*
X0030000Y0094700D01*
X0032000Y0094700D02*
X0032000Y0096700D01*
X0025000Y0094700D02*
X0023000Y0094700D01*
X0023000Y0096700D01*
X0019500Y0096600D02*
X0019500Y0094600D01*
X0017500Y0094600D01*
X0012500Y0094600D02*
X0010500Y0094600D01*
X0010500Y0096600D01*
X0010500Y0101600D02*
X0010500Y0103600D01*
X0012500Y0103600D01*
X0017500Y0103600D02*
X0019500Y0103600D01*
X0019500Y0101600D01*
X0023000Y0101700D02*
X0023000Y0103700D01*
X0025000Y0103700D01*
X0030000Y0103700D02*
X0032000Y0103700D01*
X0032000Y0101700D01*
X0050500Y0098600D02*
X0055500Y0098600D01*
X0055500Y0118600D02*
X0050500Y0118600D01*
X0034951Y0121101D02*
X0032682Y0121101D01*
X0034383Y0122803D01*
X0034383Y0119400D01*
X0031267Y0119400D02*
X0028999Y0119400D01*
X0030133Y0119400D02*
X0030133Y0122803D01*
X0028999Y0121669D01*
X0023901Y0122236D02*
X0023901Y0121101D01*
X0023334Y0120534D01*
X0021633Y0120534D01*
X0021633Y0119400D02*
X0021633Y0122803D01*
X0023334Y0122803D01*
X0023901Y0122236D01*
X0020218Y0122803D02*
X0020218Y0119967D01*
X0019651Y0119400D01*
X0018517Y0119400D01*
X0017949Y0119967D01*
X0017949Y0122803D01*
X0016535Y0122236D02*
X0015968Y0122803D01*
X0014833Y0122803D01*
X0014266Y0122236D01*
X0014266Y0119967D01*
X0014833Y0119400D01*
X0015968Y0119400D01*
X0016535Y0119967D01*
X0016535Y0122236D01*
X0012852Y0122236D02*
X0012852Y0121101D01*
X0012285Y0120534D01*
X0010583Y0120534D01*
X0010583Y0119400D02*
X0010583Y0122803D01*
X0012285Y0122803D01*
X0012852Y0122236D01*
X0011717Y0120534D02*
X0012852Y0119400D01*
X0009169Y0119967D02*
X0009169Y0121101D01*
X0008034Y0121101D01*
X0006900Y0119967D02*
X0007467Y0119400D01*
X0008601Y0119400D01*
X0009169Y0119967D01*
X0009169Y0122236D02*
X0008601Y0122803D01*
X0007467Y0122803D01*
X0006900Y0122236D01*
X0006900Y0119967D01*
X0006900Y0124600D02*
X0006900Y0128003D01*
X0009169Y0128003D01*
X0010583Y0128003D02*
X0011717Y0126869D01*
X0012852Y0128003D01*
X0012852Y0124600D01*
X0010583Y0124600D02*
X0010583Y0128003D01*
X0008034Y0126301D02*
X0006900Y0126301D01*
X0017949Y0125734D02*
X0019651Y0125734D01*
X0020218Y0126301D01*
X0020218Y0127436D01*
X0019651Y0128003D01*
X0017949Y0128003D01*
X0017949Y0124600D01*
X0021633Y0124600D02*
X0021633Y0128003D01*
X0023334Y0128003D01*
X0023901Y0127436D01*
X0023901Y0126301D01*
X0023334Y0125734D01*
X0021633Y0125734D01*
X0022767Y0125734D02*
X0023901Y0124600D01*
X0025316Y0125167D02*
X0025883Y0124600D01*
X0027017Y0124600D01*
X0027584Y0125167D01*
X0027584Y0127436D01*
X0027017Y0128003D01*
X0025883Y0128003D01*
X0025316Y0127436D01*
X0025316Y0125167D01*
X0028999Y0125167D02*
X0029566Y0124600D01*
X0030133Y0124600D01*
X0030700Y0125167D01*
X0030700Y0128003D01*
X0030133Y0128003D02*
X0031267Y0128003D01*
X0032682Y0128003D02*
X0032682Y0124600D01*
X0034951Y0124600D01*
X0036365Y0125167D02*
X0036932Y0124600D01*
X0038067Y0124600D01*
X0038634Y0125167D01*
X0036365Y0125167D02*
X0036365Y0127436D01*
X0036932Y0128003D01*
X0038067Y0128003D01*
X0038634Y0127436D01*
X0040048Y0128003D02*
X0042317Y0128003D01*
X0041183Y0128003D02*
X0041183Y0124600D01*
X0033816Y0126301D02*
X0032682Y0126301D01*
X0032682Y0128003D02*
X0034951Y0128003D01*
X0241900Y0090800D02*
X0241900Y0087500D01*
X0243100Y0087000D02*
X0245700Y0089600D01*
X0245200Y0090800D02*
X0241900Y0090800D01*
X0254200Y0097400D02*
X0254200Y0098400D01*
X0255700Y0098400D01*
X0255700Y0097400D01*
X0273800Y0097400D02*
X0273800Y0098400D01*
X0275300Y0098400D01*
X0275300Y0097400D01*
X0278400Y0090800D02*
X0281700Y0090800D01*
X0281700Y0087500D01*
X0319401Y0073798D02*
X0319401Y0059602D01*
X0337999Y0059602D02*
X0337999Y0073798D01*
X0289300Y0070700D02*
X0289300Y0069200D01*
X0288300Y0069200D01*
X0288300Y0070700D01*
X0235300Y0068700D02*
X0235300Y0067200D01*
X0234300Y0067200D01*
X0234300Y0068700D01*
X0241900Y0054300D02*
X0241900Y0051000D01*
X0245200Y0051000D01*
X0252200Y0044400D02*
X0252200Y0043400D01*
X0253700Y0043400D01*
X0253700Y0044400D01*
X0271900Y0044400D02*
X0271900Y0043400D01*
X0273400Y0043400D01*
X0273400Y0044400D01*
X0278400Y0051000D02*
X0281700Y0051000D01*
X0281700Y0054300D01*
X0268500Y0019100D02*
X0263500Y0019100D01*
X0261000Y0016600D01*
X0258500Y0019100D01*
X0253500Y0019100D01*
X0251000Y0016600D01*
X0251000Y0011600D01*
X0253500Y0009100D01*
X0258500Y0009100D01*
X0261000Y0011600D01*
X0261000Y0016600D01*
X0268500Y0019100D02*
X0271000Y0016600D01*
X0271000Y0011600D01*
X0268500Y0009100D01*
X0263500Y0009100D01*
X0261000Y0011600D01*
X0251000Y0011600D02*
X0248500Y0009100D01*
X0243500Y0009100D01*
X0241000Y0011600D01*
X0238500Y0009100D01*
X0233500Y0009100D01*
X0231000Y0011600D01*
X0228500Y0009100D01*
X0223500Y0009100D01*
X0221000Y0011600D01*
X0221000Y0016600D01*
X0223500Y0019100D01*
X0228500Y0019100D01*
X0231000Y0016600D01*
X0233500Y0019100D01*
X0238500Y0019100D01*
X0241000Y0016600D01*
X0243500Y0019100D01*
X0248500Y0019100D01*
X0251000Y0016600D01*
X0241000Y0016600D02*
X0241000Y0011600D01*
X0231000Y0011600D02*
X0231000Y0016600D01*
X0221000Y0016600D02*
X0218500Y0019100D01*
X0213500Y0019100D01*
X0211000Y0016600D01*
X0208500Y0019100D01*
X0203500Y0019100D01*
X0201000Y0016600D01*
X0198500Y0019100D01*
X0193500Y0019100D01*
X0191000Y0016600D01*
X0191000Y0011600D01*
X0193500Y0009100D01*
X0198500Y0009100D01*
X0201000Y0011600D01*
X0201000Y0016600D01*
X0211000Y0016600D02*
X0211000Y0011600D01*
X0208500Y0009100D01*
X0203500Y0009100D01*
X0201000Y0011600D01*
X0211000Y0011600D02*
X0213500Y0009100D01*
X0218500Y0009100D01*
X0221000Y0011600D01*
X0275500Y0011100D02*
X0278000Y0008600D01*
X0283000Y0008600D01*
X0285500Y0011100D01*
X0288000Y0008600D01*
X0293000Y0008600D01*
X0295500Y0011100D01*
X0295500Y0016100D01*
X0293000Y0018600D01*
X0288000Y0018600D01*
X0285500Y0016100D01*
X0285500Y0011100D01*
X0275500Y0011100D02*
X0275500Y0016100D01*
X0278000Y0018600D01*
X0283000Y0018600D01*
X0285500Y0016100D01*
X0295500Y0016100D02*
X0298000Y0018600D01*
X0303000Y0018600D01*
X0305500Y0016100D01*
X0308000Y0018600D01*
X0313000Y0018600D01*
X0315500Y0016100D01*
X0318000Y0018600D01*
X0323000Y0018600D01*
X0325500Y0016100D01*
X0328000Y0018600D01*
X0333000Y0018600D01*
X0335500Y0016100D01*
X0335500Y0011100D01*
X0333000Y0008600D01*
X0328000Y0008600D01*
X0325500Y0011100D01*
X0323000Y0008600D01*
X0318000Y0008600D01*
X0315500Y0011100D01*
X0313000Y0008600D01*
X0308000Y0008600D01*
X0305500Y0011100D01*
X0303000Y0008600D01*
X0298000Y0008600D01*
X0295500Y0011100D01*
X0305500Y0011100D02*
X0305500Y0016100D01*
X0315500Y0016100D02*
X0315500Y0011100D01*
X0325500Y0011100D02*
X0325500Y0016100D01*
X0346400Y0015300D02*
X0346400Y0017300D01*
X0348400Y0017300D01*
X0353400Y0017300D02*
X0355400Y0017300D01*
X0355400Y0015300D01*
X0355400Y0010300D02*
X0355400Y0008300D01*
X0353400Y0008300D01*
X0348400Y0008300D02*
X0346400Y0008300D01*
X0346400Y0010300D01*
X0389500Y0010600D02*
X0389500Y0015600D01*
X0392000Y0018100D01*
X0397000Y0018100D01*
X0399500Y0015600D01*
X0402000Y0018100D01*
X0407000Y0018100D01*
X0409500Y0015600D01*
X0412000Y0018100D01*
X0417000Y0018100D01*
X0419500Y0015600D01*
X0422000Y0018100D01*
X0427000Y0018100D01*
X0429500Y0015600D01*
X0432000Y0018100D01*
X0437000Y0018100D01*
X0439500Y0015600D01*
X0442000Y0018100D01*
X0447000Y0018100D01*
X0449500Y0015600D01*
X0452000Y0018100D01*
X0457000Y0018100D01*
X0459500Y0015600D01*
X0459500Y0010600D01*
X0457000Y0008100D01*
X0452000Y0008100D01*
X0449500Y0010600D01*
X0447000Y0008100D01*
X0442000Y0008100D01*
X0439500Y0010600D01*
X0439500Y0015600D01*
X0429500Y0015600D02*
X0429500Y0010600D01*
X0427000Y0008100D01*
X0422000Y0008100D01*
X0419500Y0010600D01*
X0417000Y0008100D01*
X0412000Y0008100D01*
X0409500Y0010600D01*
X0409500Y0015600D01*
X0399500Y0015600D02*
X0399500Y0010600D01*
X0397000Y0008100D01*
X0392000Y0008100D01*
X0389500Y0010600D01*
X0399500Y0010600D02*
X0402000Y0008100D01*
X0407000Y0008100D01*
X0409500Y0010600D01*
X0419500Y0010600D02*
X0419500Y0015600D01*
X0429500Y0010600D02*
X0432000Y0008100D01*
X0437000Y0008100D01*
X0439500Y0010600D01*
X0449500Y0010600D02*
X0449500Y0015600D01*
X0470300Y0017100D02*
X0470300Y0009100D01*
X0471300Y0008100D01*
X0479300Y0008100D01*
X0480300Y0009100D01*
X0481300Y0008100D01*
X0489300Y0008100D01*
X0490300Y0009100D01*
X0490300Y0017100D01*
X0489300Y0018100D01*
X0481300Y0018100D01*
X0480300Y0017100D01*
X0479300Y0018100D01*
X0471300Y0018100D01*
X0470300Y0017100D01*
X0491700Y0017100D02*
X0491700Y0009100D01*
X0492700Y0008100D01*
X0500700Y0008100D01*
X0501700Y0009100D01*
X0502700Y0008100D01*
X0510700Y0008100D01*
X0511700Y0009100D01*
X0511700Y0017100D01*
X0510700Y0018100D01*
X0502700Y0018100D01*
X0501700Y0017100D01*
X0500700Y0018100D01*
X0492700Y0018100D01*
X0491700Y0017100D01*
X0516000Y0015600D02*
X0518500Y0018100D01*
X0523500Y0018100D01*
X0526000Y0015600D01*
X0528500Y0018100D01*
X0533500Y0018100D01*
X0536000Y0015600D01*
X0538500Y0018100D01*
X0543500Y0018100D01*
X0546000Y0015600D01*
X0546000Y0010600D01*
X0543500Y0008100D01*
X0538500Y0008100D01*
X0536000Y0010600D01*
X0533500Y0008100D01*
X0528500Y0008100D01*
X0526000Y0010600D01*
X0523500Y0008100D01*
X0518500Y0008100D01*
X0516000Y0010600D01*
X0516000Y0015600D01*
X0526000Y0015600D02*
X0526000Y0010600D01*
X0536000Y0010600D02*
X0536000Y0015600D01*
X0315700Y0120400D02*
X0313200Y0117900D01*
X0308200Y0117900D01*
X0305700Y0120400D01*
X0303200Y0117900D01*
X0298200Y0117900D01*
X0295700Y0120400D01*
X0295700Y0125400D01*
X0298200Y0127900D01*
X0303200Y0127900D01*
X0305700Y0125400D01*
X0308200Y0127900D01*
X0313200Y0127900D01*
X0315700Y0125400D01*
X0315700Y0120400D01*
X0305700Y0120400D02*
X0305700Y0125400D01*
D13*
X0291307Y0128800D02*
X0290206Y0129901D01*
X0289840Y0129534D02*
X0291307Y0131002D01*
X0289840Y0131002D02*
X0289840Y0128800D01*
X0289098Y0129167D02*
X0288731Y0128800D01*
X0287997Y0128800D01*
X0287630Y0129167D01*
X0287630Y0130635D01*
X0287997Y0131002D01*
X0288731Y0131002D01*
X0289098Y0130635D01*
X0286888Y0130635D02*
X0286521Y0131002D01*
X0285787Y0131002D01*
X0285420Y0130635D01*
X0285420Y0129167D01*
X0285787Y0128800D01*
X0286521Y0128800D01*
X0286888Y0129167D01*
X0286888Y0130635D01*
X0283210Y0131002D02*
X0283210Y0128800D01*
X0284678Y0128800D01*
X0282468Y0129167D02*
X0282101Y0128800D01*
X0281367Y0128800D01*
X0281000Y0129167D01*
X0281000Y0130635D01*
X0281367Y0131002D01*
X0282101Y0131002D01*
X0282468Y0130635D01*
X0275858Y0118902D02*
X0274390Y0118902D01*
X0275124Y0118902D02*
X0275124Y0116700D01*
X0273648Y0117067D02*
X0273648Y0118902D01*
X0272180Y0118902D02*
X0272180Y0117067D01*
X0272547Y0116700D01*
X0273281Y0116700D01*
X0273648Y0117067D01*
X0271438Y0117067D02*
X0271438Y0118535D01*
X0271071Y0118902D01*
X0270337Y0118902D01*
X0269970Y0118535D01*
X0269970Y0117067D01*
X0270337Y0116700D01*
X0271071Y0116700D01*
X0271438Y0117067D01*
X0269228Y0117801D02*
X0267760Y0117801D01*
X0267018Y0116700D02*
X0265551Y0116700D01*
X0265551Y0118902D01*
X0263388Y0118735D02*
X0263388Y0117267D01*
X0263021Y0116900D01*
X0261920Y0116900D01*
X0261920Y0119102D01*
X0263021Y0119102D01*
X0263388Y0118735D01*
X0261178Y0119102D02*
X0261178Y0116900D01*
X0259710Y0119102D01*
X0259710Y0116900D01*
X0258968Y0117267D02*
X0258968Y0118001D01*
X0258234Y0118001D01*
X0258968Y0118735D02*
X0258601Y0119102D01*
X0257867Y0119102D01*
X0257500Y0118735D01*
X0257500Y0117267D01*
X0257867Y0116900D01*
X0258601Y0116900D01*
X0258968Y0117267D01*
X0254158Y0117434D02*
X0254158Y0118902D01*
X0252690Y0118902D02*
X0252690Y0117434D01*
X0253424Y0116700D01*
X0254158Y0117434D01*
X0251948Y0117434D02*
X0251948Y0117067D01*
X0251581Y0116700D01*
X0250847Y0116700D01*
X0250480Y0117067D01*
X0249742Y0117067D02*
X0249742Y0116700D01*
X0249375Y0116700D01*
X0249375Y0117067D01*
X0249742Y0117067D01*
X0248633Y0117067D02*
X0248266Y0116700D01*
X0247532Y0116700D01*
X0247165Y0117067D01*
X0247899Y0117801D02*
X0248266Y0117801D01*
X0248633Y0117434D01*
X0248633Y0117067D01*
X0248266Y0117801D02*
X0248633Y0118168D01*
X0248633Y0118535D01*
X0248266Y0118902D01*
X0247532Y0118902D01*
X0247165Y0118535D01*
X0250480Y0118535D02*
X0250847Y0118902D01*
X0251581Y0118902D01*
X0251948Y0118535D01*
X0251948Y0118168D01*
X0251581Y0117801D01*
X0251948Y0117434D01*
X0251581Y0117801D02*
X0251214Y0117801D01*
X0207501Y0128400D02*
X0207501Y0130602D01*
X0206400Y0129501D01*
X0207868Y0129501D01*
X0205658Y0130235D02*
X0205291Y0130602D01*
X0204557Y0130602D01*
X0204190Y0130235D01*
X0204190Y0128767D01*
X0204557Y0128400D01*
X0205291Y0128400D01*
X0205658Y0128767D01*
X0131898Y0126500D02*
X0130430Y0126500D01*
X0131164Y0126500D02*
X0131164Y0128702D01*
X0130430Y0127968D01*
X0129688Y0128702D02*
X0128220Y0128702D01*
X0128954Y0128702D02*
X0128954Y0126500D01*
X0127478Y0126867D02*
X0127111Y0126500D01*
X0126377Y0126500D01*
X0126010Y0126867D01*
X0126010Y0128702D01*
X0125268Y0128335D02*
X0124901Y0128702D01*
X0124167Y0128702D01*
X0123800Y0128335D01*
X0123800Y0126867D01*
X0124167Y0126500D01*
X0124901Y0126500D01*
X0125268Y0126867D01*
X0125268Y0128335D01*
X0127478Y0128702D02*
X0127478Y0126867D01*
X0090300Y0120168D02*
X0090300Y0118700D01*
X0090300Y0119434D02*
X0088098Y0119434D01*
X0088832Y0118700D01*
X0088465Y0117958D02*
X0088098Y0117591D01*
X0088098Y0116857D01*
X0088465Y0116490D01*
X0089933Y0116490D01*
X0090300Y0116857D01*
X0090300Y0117591D01*
X0089933Y0117958D01*
X0074300Y0123157D02*
X0074300Y0123891D01*
X0073933Y0124258D01*
X0074300Y0125000D02*
X0072832Y0126468D01*
X0072465Y0126468D01*
X0072098Y0126101D01*
X0072098Y0125367D01*
X0072465Y0125000D01*
X0072465Y0124258D02*
X0072098Y0123891D01*
X0072098Y0123157D01*
X0072465Y0122790D01*
X0073933Y0122790D01*
X0074300Y0123157D01*
X0074300Y0125000D02*
X0074300Y0126468D01*
X0114590Y0109402D02*
X0115691Y0109402D01*
X0116058Y0109035D01*
X0116058Y0108301D01*
X0115691Y0107934D01*
X0114590Y0107934D01*
X0114590Y0107200D02*
X0114590Y0109402D01*
X0115324Y0107934D02*
X0116058Y0107200D01*
X0116800Y0107567D02*
X0117167Y0107200D01*
X0117901Y0107200D01*
X0118268Y0107567D01*
X0118268Y0109035D01*
X0117901Y0109402D01*
X0117167Y0109402D01*
X0116800Y0109035D01*
X0116800Y0108668D01*
X0117167Y0108301D01*
X0118268Y0108301D01*
X0061500Y0100458D02*
X0060399Y0099357D01*
X0060766Y0098990D02*
X0059298Y0100458D01*
X0059298Y0098990D02*
X0061500Y0098990D01*
X0061133Y0098248D02*
X0061500Y0097881D01*
X0061500Y0097147D01*
X0061133Y0096780D01*
X0059665Y0096780D01*
X0059298Y0097147D01*
X0059298Y0097881D01*
X0059665Y0098248D01*
X0060032Y0096038D02*
X0061500Y0096038D01*
X0060399Y0096038D02*
X0060399Y0094570D01*
X0060032Y0094570D02*
X0059298Y0095304D01*
X0060032Y0096038D01*
X0060032Y0094570D02*
X0061500Y0094570D01*
X0061133Y0093461D02*
X0059298Y0093461D01*
X0059298Y0093094D02*
X0059298Y0093828D01*
X0061133Y0093461D02*
X0061500Y0093094D01*
X0061500Y0092727D01*
X0061133Y0092360D01*
X0061500Y0091618D02*
X0059298Y0090151D01*
X0059298Y0089409D02*
X0061133Y0089409D01*
X0061500Y0089042D01*
X0061500Y0088308D01*
X0061133Y0087941D01*
X0059298Y0087941D01*
X0060032Y0087199D02*
X0061500Y0087199D01*
X0060399Y0087199D02*
X0060399Y0085731D01*
X0060032Y0085731D02*
X0059298Y0086465D01*
X0060032Y0087199D01*
X0060032Y0085731D02*
X0061500Y0085731D01*
X0061500Y0090151D02*
X0059298Y0091618D01*
X0030938Y0104933D02*
X0029470Y0104933D01*
X0027994Y0105300D02*
X0027994Y0107502D01*
X0027260Y0107502D02*
X0028728Y0107502D01*
X0026518Y0106768D02*
X0026518Y0105300D01*
X0026518Y0106401D02*
X0025051Y0106401D01*
X0025051Y0106768D02*
X0025785Y0107502D01*
X0026518Y0106768D01*
X0025051Y0106768D02*
X0025051Y0105300D01*
X0024309Y0105667D02*
X0023942Y0105300D01*
X0022841Y0105300D01*
X0022841Y0107502D01*
X0023942Y0107502D01*
X0024309Y0107135D01*
X0024309Y0106768D01*
X0023942Y0106401D01*
X0022841Y0106401D01*
X0023942Y0106401D02*
X0024309Y0106034D01*
X0024309Y0105667D01*
X0019658Y0106001D02*
X0018190Y0106001D01*
X0017448Y0107102D02*
X0015980Y0107102D01*
X0016714Y0107102D02*
X0016714Y0104900D01*
X0015238Y0104900D02*
X0015238Y0106368D01*
X0014504Y0107102D01*
X0013770Y0106368D01*
X0013770Y0104900D01*
X0013028Y0105267D02*
X0012661Y0104900D01*
X0011560Y0104900D01*
X0011560Y0107102D01*
X0012661Y0107102D01*
X0013028Y0106735D01*
X0013028Y0106368D01*
X0012661Y0106001D01*
X0011560Y0106001D01*
X0012661Y0106001D02*
X0013028Y0105634D01*
X0013028Y0105267D01*
X0013770Y0106001D02*
X0015238Y0106001D01*
X0031680Y0105667D02*
X0032047Y0105300D01*
X0032781Y0105300D01*
X0033148Y0105667D01*
X0033148Y0106401D01*
X0032781Y0106768D01*
X0032414Y0106768D01*
X0031680Y0106401D01*
X0031680Y0107502D01*
X0033148Y0107502D01*
X0033890Y0107502D02*
X0033890Y0106034D01*
X0034624Y0105300D01*
X0035358Y0106034D01*
X0035358Y0107502D01*
X0294198Y0070906D02*
X0294565Y0071273D01*
X0294932Y0071273D01*
X0295299Y0070906D01*
X0295299Y0070172D01*
X0294932Y0069805D01*
X0294565Y0069805D01*
X0294198Y0070172D01*
X0294198Y0070906D01*
X0295299Y0070906D02*
X0295666Y0071273D01*
X0296033Y0071273D01*
X0296400Y0070906D01*
X0296400Y0070172D01*
X0296033Y0069805D01*
X0295666Y0069805D01*
X0295299Y0070172D01*
X0296400Y0069063D02*
X0296400Y0067595D01*
X0296400Y0068329D02*
X0294198Y0068329D01*
X0294932Y0067595D01*
X0294565Y0066853D02*
X0295299Y0066853D01*
X0295666Y0066486D01*
X0295666Y0065385D01*
X0296400Y0065385D02*
X0294198Y0065385D01*
X0294198Y0066486D01*
X0294565Y0066853D01*
X0295666Y0066119D02*
X0296400Y0066853D01*
X0312398Y0066086D02*
X0312398Y0064985D01*
X0314600Y0064985D01*
X0313866Y0064985D02*
X0313866Y0066086D01*
X0313499Y0066453D01*
X0312765Y0066453D01*
X0312398Y0066086D01*
X0313132Y0067195D02*
X0312398Y0067929D01*
X0314600Y0067929D01*
X0314600Y0067195D02*
X0314600Y0068663D01*
X0314233Y0069405D02*
X0314600Y0069772D01*
X0314600Y0070506D01*
X0314233Y0070873D01*
X0313499Y0070873D01*
X0313132Y0070506D01*
X0313132Y0070139D01*
X0313499Y0069405D01*
X0312398Y0069405D01*
X0312398Y0070873D01*
X0314600Y0066453D02*
X0313866Y0065719D01*
X0371198Y0044801D02*
X0371565Y0045168D01*
X0371932Y0045168D01*
X0372299Y0044801D01*
X0372666Y0045168D01*
X0373033Y0045168D01*
X0373400Y0044801D01*
X0373400Y0044067D01*
X0373033Y0043700D01*
X0373033Y0042958D02*
X0373400Y0042591D01*
X0373400Y0041857D01*
X0373033Y0041490D01*
X0371565Y0041490D01*
X0371198Y0041857D01*
X0371198Y0042591D01*
X0371565Y0042958D01*
X0371565Y0043700D02*
X0371198Y0044067D01*
X0371198Y0044801D01*
X0372299Y0044801D02*
X0372299Y0044434D01*
X0323100Y0038773D02*
X0323100Y0037305D01*
X0321632Y0038773D01*
X0321265Y0038773D01*
X0320898Y0038406D01*
X0320898Y0037672D01*
X0321265Y0037305D01*
X0320898Y0035829D02*
X0323100Y0035829D01*
X0323100Y0035095D02*
X0323100Y0036563D01*
X0321632Y0035095D02*
X0320898Y0035829D01*
X0321265Y0034353D02*
X0320898Y0033986D01*
X0320898Y0033252D01*
X0321265Y0032885D01*
X0322733Y0032885D01*
X0323100Y0033252D01*
X0323100Y0033986D01*
X0322733Y0034353D01*
X0293400Y0033886D02*
X0293400Y0033152D01*
X0293033Y0032785D01*
X0291565Y0032785D01*
X0291198Y0033152D01*
X0291198Y0033886D01*
X0291565Y0034253D01*
X0291932Y0034995D02*
X0291198Y0035729D01*
X0293400Y0035729D01*
X0293400Y0034995D02*
X0293400Y0036463D01*
X0293400Y0037205D02*
X0293400Y0038673D01*
X0293400Y0037939D02*
X0291198Y0037939D01*
X0291932Y0037205D01*
X0293033Y0034253D02*
X0293400Y0033886D01*
X0328300Y0022702D02*
X0329401Y0022702D01*
X0329768Y0022335D01*
X0329768Y0021601D01*
X0329401Y0021234D01*
X0328300Y0021234D01*
X0328300Y0020500D02*
X0328300Y0022702D01*
X0330510Y0022702D02*
X0331244Y0022702D01*
X0330877Y0022702D02*
X0330877Y0020500D01*
X0330510Y0020500D02*
X0331244Y0020500D01*
X0331983Y0020867D02*
X0332350Y0020500D01*
X0333084Y0020500D01*
X0333451Y0020867D01*
X0334193Y0020133D02*
X0335661Y0020133D01*
X0336403Y0020500D02*
X0336403Y0022702D01*
X0337504Y0022702D01*
X0337871Y0022335D01*
X0337871Y0021601D01*
X0337504Y0021234D01*
X0336403Y0021234D01*
X0338613Y0021234D02*
X0339714Y0021234D01*
X0340081Y0021601D01*
X0340081Y0022335D01*
X0339714Y0022702D01*
X0338613Y0022702D01*
X0338613Y0020500D01*
X0339347Y0021234D02*
X0340081Y0020500D01*
X0340823Y0020867D02*
X0341190Y0020500D01*
X0341924Y0020500D01*
X0342291Y0020867D01*
X0342291Y0021601D01*
X0341557Y0021601D01*
X0342291Y0022335D02*
X0341924Y0022702D01*
X0341190Y0022702D01*
X0340823Y0022335D01*
X0340823Y0020867D01*
X0333451Y0022335D02*
X0333084Y0022702D01*
X0332350Y0022702D01*
X0331983Y0022335D01*
X0331983Y0020867D01*
X0347170Y0006268D02*
X0347904Y0007002D01*
X0348638Y0006268D01*
X0348638Y0004800D01*
X0349380Y0004800D02*
X0349380Y0007002D01*
X0350848Y0004800D01*
X0350848Y0007002D01*
X0351590Y0007002D02*
X0353058Y0007002D01*
X0352324Y0007002D02*
X0352324Y0004800D01*
X0348638Y0005901D02*
X0347170Y0005901D01*
X0347170Y0006268D02*
X0347170Y0004800D01*
X0421941Y0020300D02*
X0421941Y0021768D01*
X0422675Y0022502D01*
X0423409Y0021768D01*
X0423409Y0020300D01*
X0424151Y0020300D02*
X0424151Y0022502D01*
X0425251Y0022502D01*
X0425618Y0022135D01*
X0425618Y0021401D01*
X0425251Y0021034D01*
X0424151Y0021034D01*
X0424885Y0021034D02*
X0425618Y0020300D01*
X0426360Y0019933D02*
X0427828Y0019933D01*
X0428570Y0020300D02*
X0428570Y0022502D01*
X0429671Y0022502D01*
X0430038Y0022135D01*
X0430038Y0021401D01*
X0429671Y0021034D01*
X0428570Y0021034D01*
X0430780Y0021034D02*
X0431881Y0021034D01*
X0432248Y0021401D01*
X0432248Y0022135D01*
X0431881Y0022502D01*
X0430780Y0022502D01*
X0430780Y0020300D01*
X0431514Y0021034D02*
X0432248Y0020300D01*
X0432990Y0020667D02*
X0433357Y0020300D01*
X0434091Y0020300D01*
X0434458Y0020667D01*
X0434458Y0021401D01*
X0433724Y0021401D01*
X0432990Y0022135D02*
X0432990Y0020667D01*
X0432990Y0022135D02*
X0433357Y0022502D01*
X0434091Y0022502D01*
X0434458Y0022135D01*
X0423409Y0021401D02*
X0421941Y0021401D01*
X0455490Y0023700D02*
X0455490Y0025902D01*
X0456591Y0025902D01*
X0456958Y0025535D01*
X0456958Y0024801D01*
X0456591Y0024434D01*
X0455490Y0024434D01*
X0456224Y0024434D02*
X0456958Y0023700D01*
X0457700Y0023700D02*
X0457700Y0024067D01*
X0459168Y0025535D01*
X0459168Y0025902D01*
X0457700Y0025902D01*
X0478890Y0026602D02*
X0478890Y0024400D01*
X0478890Y0025134D02*
X0479991Y0025134D01*
X0480358Y0025501D01*
X0480358Y0026235D01*
X0479991Y0026602D01*
X0478890Y0026602D01*
X0479624Y0025134D02*
X0480358Y0024400D01*
X0481100Y0024767D02*
X0481467Y0024400D01*
X0482201Y0024400D01*
X0482568Y0024767D01*
X0482568Y0025134D01*
X0482201Y0025501D01*
X0481100Y0025501D01*
X0481100Y0024767D01*
X0481100Y0025501D02*
X0481834Y0026235D01*
X0482568Y0026602D01*
X0517198Y0027690D02*
X0517198Y0028791D01*
X0517565Y0029158D01*
X0518299Y0029158D01*
X0518666Y0028791D01*
X0518666Y0027690D01*
X0519400Y0027690D02*
X0517198Y0027690D01*
X0518666Y0028424D02*
X0519400Y0029158D01*
X0519033Y0029900D02*
X0519400Y0030267D01*
X0519400Y0031001D01*
X0519033Y0031368D01*
X0518299Y0031368D01*
X0517932Y0031001D01*
X0517932Y0030634D01*
X0518299Y0029900D01*
X0517198Y0029900D01*
X0517198Y0031368D01*
X0531190Y0032800D02*
X0531190Y0035002D01*
X0532291Y0035002D01*
X0532658Y0034635D01*
X0532658Y0033901D01*
X0532291Y0033534D01*
X0531190Y0033534D01*
X0531924Y0033534D02*
X0532658Y0032800D01*
X0533400Y0033167D02*
X0533400Y0033534D01*
X0533767Y0033901D01*
X0534501Y0033901D01*
X0534868Y0033534D01*
X0534868Y0033167D01*
X0534501Y0032800D01*
X0533767Y0032800D01*
X0533400Y0033167D01*
X0533767Y0033901D02*
X0533400Y0034268D01*
X0533400Y0034635D01*
X0533767Y0035002D01*
X0534501Y0035002D01*
X0534868Y0034635D01*
X0534868Y0034268D01*
X0534501Y0033901D01*
X0232000Y0032158D02*
X0232000Y0030690D01*
X0229798Y0030690D01*
X0229798Y0032158D01*
X0230899Y0031424D02*
X0230899Y0030690D01*
X0230899Y0029948D02*
X0231266Y0029581D01*
X0231266Y0028480D01*
X0232000Y0028480D02*
X0229798Y0028480D01*
X0229798Y0029581D01*
X0230165Y0029948D01*
X0230899Y0029948D01*
X0231266Y0029214D02*
X0232000Y0029948D01*
X0232000Y0027738D02*
X0230532Y0027738D01*
X0229798Y0027004D01*
X0230532Y0026270D01*
X0232000Y0026270D01*
X0230899Y0026270D02*
X0230899Y0027738D01*
X0230899Y0025528D02*
X0231266Y0025161D01*
X0231266Y0024060D01*
X0232000Y0024060D02*
X0229798Y0024060D01*
X0229798Y0025161D01*
X0230165Y0025528D01*
X0230899Y0025528D01*
X0231266Y0023318D02*
X0231633Y0023318D01*
X0232000Y0022952D01*
X0232000Y0022218D01*
X0231633Y0021851D01*
X0230899Y0022218D02*
X0230899Y0022952D01*
X0231266Y0023318D01*
X0230165Y0023318D02*
X0229798Y0022952D01*
X0229798Y0022218D01*
X0230165Y0021851D01*
X0230532Y0021851D01*
X0230899Y0022218D01*
X0051000Y0015068D02*
X0051000Y0013600D01*
X0051000Y0014334D02*
X0048798Y0014334D01*
X0049532Y0013600D01*
X0049165Y0012858D02*
X0049899Y0012858D01*
X0050266Y0012491D01*
X0050266Y0011390D01*
X0051000Y0011390D02*
X0048798Y0011390D01*
X0048798Y0012491D01*
X0049165Y0012858D01*
X0050266Y0012124D02*
X0051000Y0012858D01*
X0027468Y0013250D02*
X0026000Y0013250D01*
X0026734Y0013250D02*
X0026734Y0015452D01*
X0026000Y0014718D01*
X0025258Y0015085D02*
X0025258Y0013617D01*
X0024891Y0013250D01*
X0023790Y0013250D01*
X0023790Y0015452D01*
X0024891Y0015452D01*
X0025258Y0015085D01*
X0333860Y0115200D02*
X0334961Y0115200D01*
X0335328Y0115567D01*
X0335328Y0117035D01*
X0334961Y0117402D01*
X0333860Y0117402D01*
X0333860Y0115200D01*
X0336070Y0115200D02*
X0336070Y0116668D01*
X0336804Y0117402D01*
X0337538Y0116668D01*
X0337538Y0115200D01*
X0337538Y0116301D02*
X0336070Y0116301D01*
X0338280Y0117402D02*
X0339748Y0117402D01*
X0339014Y0117402D02*
X0339014Y0115200D01*
X0340490Y0115200D02*
X0340490Y0116668D01*
X0341224Y0117402D01*
X0341958Y0116668D01*
X0341958Y0115200D01*
X0341958Y0116301D02*
X0340490Y0116301D01*
D14*
X0335235Y0070600D02*
X0335237Y0070647D01*
X0335243Y0070694D01*
X0335253Y0070741D01*
X0335266Y0070786D01*
X0335284Y0070830D01*
X0335305Y0070872D01*
X0335329Y0070913D01*
X0335357Y0070951D01*
X0335388Y0070987D01*
X0335422Y0071020D01*
X0335458Y0071050D01*
X0335497Y0071077D01*
X0335538Y0071101D01*
X0335581Y0071121D01*
X0335625Y0071137D01*
X0335671Y0071150D01*
X0335717Y0071159D01*
X0335765Y0071164D01*
X0335812Y0071165D01*
X0335859Y0071162D01*
X0335906Y0071155D01*
X0335952Y0071144D01*
X0335997Y0071130D01*
X0336041Y0071111D01*
X0336082Y0071089D01*
X0336122Y0071064D01*
X0336160Y0071035D01*
X0336195Y0071004D01*
X0336228Y0070969D01*
X0336257Y0070932D01*
X0336283Y0070893D01*
X0336306Y0070851D01*
X0336325Y0070808D01*
X0336341Y0070763D01*
X0336353Y0070717D01*
X0336361Y0070671D01*
X0336365Y0070624D01*
X0336365Y0070576D01*
X0336361Y0070529D01*
X0336353Y0070483D01*
X0336341Y0070437D01*
X0336325Y0070392D01*
X0336306Y0070349D01*
X0336283Y0070307D01*
X0336257Y0070268D01*
X0336228Y0070231D01*
X0336195Y0070196D01*
X0336160Y0070165D01*
X0336122Y0070136D01*
X0336083Y0070111D01*
X0336041Y0070089D01*
X0335997Y0070070D01*
X0335952Y0070056D01*
X0335906Y0070045D01*
X0335859Y0070038D01*
X0335812Y0070035D01*
X0335765Y0070036D01*
X0335717Y0070041D01*
X0335671Y0070050D01*
X0335625Y0070063D01*
X0335581Y0070079D01*
X0335538Y0070099D01*
X0335497Y0070123D01*
X0335458Y0070150D01*
X0335422Y0070180D01*
X0335388Y0070213D01*
X0335357Y0070249D01*
X0335329Y0070287D01*
X0335305Y0070328D01*
X0335284Y0070370D01*
X0335266Y0070414D01*
X0335253Y0070459D01*
X0335243Y0070506D01*
X0335237Y0070553D01*
X0335235Y0070600D01*
X0530110Y0082273D02*
X0530110Y0103927D01*
X0530112Y0103989D01*
X0530118Y0104050D01*
X0530127Y0104111D01*
X0530141Y0104172D01*
X0530158Y0104231D01*
X0530179Y0104289D01*
X0530204Y0104346D01*
X0530232Y0104401D01*
X0530263Y0104454D01*
X0530298Y0104505D01*
X0530336Y0104554D01*
X0530377Y0104601D01*
X0530420Y0104644D01*
X0530467Y0104685D01*
X0530516Y0104723D01*
X0530567Y0104758D01*
X0530620Y0104789D01*
X0530675Y0104817D01*
X0530732Y0104842D01*
X0530790Y0104863D01*
X0530849Y0104880D01*
X0530910Y0104894D01*
X0530971Y0104903D01*
X0531032Y0104909D01*
X0531094Y0104911D01*
X0532669Y0104911D01*
X0541331Y0104911D02*
X0542906Y0104911D01*
X0542968Y0104909D01*
X0543029Y0104903D01*
X0543090Y0104894D01*
X0543151Y0104880D01*
X0543210Y0104863D01*
X0543268Y0104842D01*
X0543325Y0104817D01*
X0543380Y0104789D01*
X0543433Y0104758D01*
X0543484Y0104723D01*
X0543533Y0104685D01*
X0543580Y0104644D01*
X0543623Y0104601D01*
X0543664Y0104554D01*
X0543702Y0104505D01*
X0543737Y0104454D01*
X0543768Y0104401D01*
X0543796Y0104346D01*
X0543821Y0104289D01*
X0543842Y0104231D01*
X0543859Y0104172D01*
X0543873Y0104111D01*
X0543882Y0104050D01*
X0543888Y0103989D01*
X0543890Y0103927D01*
X0543890Y0082273D01*
X0543888Y0082211D01*
X0543882Y0082150D01*
X0543873Y0082089D01*
X0543859Y0082028D01*
X0543842Y0081969D01*
X0543821Y0081911D01*
X0543796Y0081854D01*
X0543768Y0081799D01*
X0543737Y0081746D01*
X0543702Y0081695D01*
X0543664Y0081646D01*
X0543623Y0081599D01*
X0543580Y0081556D01*
X0543533Y0081515D01*
X0543484Y0081477D01*
X0543433Y0081442D01*
X0543380Y0081411D01*
X0543325Y0081383D01*
X0543268Y0081358D01*
X0543210Y0081337D01*
X0543151Y0081320D01*
X0543090Y0081306D01*
X0543029Y0081297D01*
X0542968Y0081291D01*
X0542906Y0081289D01*
X0541331Y0081289D01*
X0532669Y0081289D02*
X0531094Y0081289D01*
X0531032Y0081291D01*
X0530971Y0081297D01*
X0530910Y0081306D01*
X0530849Y0081320D01*
X0530790Y0081337D01*
X0530732Y0081358D01*
X0530675Y0081383D01*
X0530620Y0081411D01*
X0530567Y0081442D01*
X0530516Y0081477D01*
X0530467Y0081515D01*
X0530420Y0081556D01*
X0530377Y0081599D01*
X0530336Y0081646D01*
X0530298Y0081695D01*
X0530263Y0081746D01*
X0530232Y0081799D01*
X0530204Y0081854D01*
X0530179Y0081911D01*
X0530158Y0081969D01*
X0530141Y0082028D01*
X0530127Y0082089D01*
X0530118Y0082150D01*
X0530112Y0082211D01*
X0530110Y0082273D01*
X0534047Y0087194D02*
X0539953Y0087194D01*
X0539953Y0099006D01*
X0534047Y0099006D01*
X0534047Y0087194D01*
X0035349Y0012087D02*
X0035349Y0006713D01*
D15*
X0350430Y0067194D02*
X0354367Y0067194D01*
X0354367Y0061289D01*
X0397674Y0061289D01*
X0397674Y0067194D01*
X0401611Y0067194D01*
X0397674Y0067194D02*
X0397674Y0075069D01*
X0401611Y0075069D01*
X0397674Y0075069D02*
X0397674Y0082943D01*
X0401611Y0082943D01*
X0397674Y0082943D02*
X0397674Y0090817D01*
X0401611Y0090817D01*
X0397674Y0090817D02*
X0397674Y0098691D01*
X0401611Y0098691D01*
X0397674Y0098691D02*
X0397674Y0104596D01*
X0354367Y0104596D01*
X0354367Y0098691D01*
X0350430Y0098691D01*
X0354367Y0098691D02*
X0354367Y0090817D01*
X0350430Y0090817D01*
X0354367Y0090817D02*
X0354367Y0082943D01*
X0350430Y0082943D01*
X0354367Y0082943D02*
X0354367Y0075069D01*
X0350430Y0075069D01*
X0354367Y0075069D02*
X0354367Y0067194D01*
X0429000Y0042820D02*
X0429000Y0106600D01*
X0523882Y0106600D01*
X0523882Y0042820D01*
X0429000Y0042820D01*
D16*
X0472936Y0054887D02*
X0477540Y0054887D01*
X0477540Y0057957D01*
X0476773Y0059491D02*
X0477540Y0060259D01*
X0477540Y0061793D01*
X0476773Y0062561D01*
X0476006Y0062561D01*
X0475238Y0061793D01*
X0475238Y0060259D01*
X0474471Y0059491D01*
X0473704Y0059491D01*
X0472936Y0060259D01*
X0472936Y0061793D01*
X0473704Y0062561D01*
X0472936Y0064095D02*
X0472936Y0066397D01*
X0473704Y0067165D01*
X0475238Y0067165D01*
X0476006Y0066397D01*
X0476006Y0064095D01*
X0477540Y0064095D02*
X0472936Y0064095D01*
X0475238Y0068699D02*
X0475238Y0071768D01*
X0474471Y0073303D02*
X0472936Y0074838D01*
X0477540Y0074838D01*
X0477540Y0076372D02*
X0477540Y0073303D01*
X0477540Y0077907D02*
X0474471Y0080976D01*
X0473704Y0080976D01*
X0472936Y0080209D01*
X0472936Y0078674D01*
X0473704Y0077907D01*
X0477540Y0077907D02*
X0477540Y0080976D01*
X0477540Y0082511D02*
X0472936Y0082511D01*
X0472936Y0085580D01*
X0475238Y0084046D02*
X0475238Y0082511D01*
X0477540Y0082511D02*
X0477540Y0085580D01*
X0472936Y0057957D02*
X0472936Y0054887D01*
X0475238Y0054887D02*
X0475238Y0056422D01*
D17*
X0234786Y0086534D02*
X0231650Y0089670D01*
X0233218Y0089670D02*
X0233218Y0086534D01*
X0231650Y0086534D02*
X0234786Y0089670D01*
X0234786Y0088102D02*
X0231650Y0088102D01*
D18*
X0326784Y0083601D02*
X0327034Y0083851D01*
X0327534Y0083851D01*
X0327785Y0083601D01*
X0327785Y0083351D01*
X0326784Y0082350D01*
X0327785Y0082350D01*
X0328257Y0083101D02*
X0329258Y0083101D01*
X0329730Y0083601D02*
X0329730Y0082600D01*
X0329980Y0082350D01*
X0330481Y0082350D01*
X0330731Y0082600D01*
X0331203Y0082600D02*
X0331454Y0082350D01*
X0331954Y0082350D01*
X0332204Y0082600D01*
X0332204Y0082850D01*
X0331954Y0083101D01*
X0331203Y0083101D01*
X0331203Y0082600D01*
X0331203Y0083101D02*
X0331704Y0083601D01*
X0332204Y0083851D01*
X0332677Y0083101D02*
X0333427Y0083851D01*
X0333427Y0082350D01*
X0333678Y0083101D02*
X0332677Y0083101D01*
X0330731Y0083601D02*
X0330481Y0083851D01*
X0329980Y0083851D01*
X0329730Y0083601D01*
X0329008Y0083851D02*
X0328257Y0083101D01*
X0329008Y0083851D02*
X0329008Y0082350D01*
D19*
X0389800Y0067194D02*
X0389802Y0067282D01*
X0389808Y0067370D01*
X0389818Y0067458D01*
X0389832Y0067546D01*
X0389849Y0067632D01*
X0389871Y0067718D01*
X0389896Y0067802D01*
X0389926Y0067886D01*
X0389958Y0067968D01*
X0389995Y0068048D01*
X0390035Y0068127D01*
X0390079Y0068204D01*
X0390126Y0068279D01*
X0390176Y0068351D01*
X0390230Y0068422D01*
X0390286Y0068489D01*
X0390346Y0068555D01*
X0390408Y0068617D01*
X0390474Y0068677D01*
X0390541Y0068733D01*
X0390612Y0068787D01*
X0390684Y0068837D01*
X0390759Y0068884D01*
X0390836Y0068928D01*
X0390915Y0068968D01*
X0390995Y0069005D01*
X0391077Y0069037D01*
X0391161Y0069067D01*
X0391245Y0069092D01*
X0391331Y0069114D01*
X0391417Y0069131D01*
X0391505Y0069145D01*
X0391593Y0069155D01*
X0391681Y0069161D01*
X0391769Y0069163D01*
X0391857Y0069161D01*
X0391945Y0069155D01*
X0392033Y0069145D01*
X0392121Y0069131D01*
X0392207Y0069114D01*
X0392293Y0069092D01*
X0392377Y0069067D01*
X0392461Y0069037D01*
X0392543Y0069005D01*
X0392623Y0068968D01*
X0392702Y0068928D01*
X0392779Y0068884D01*
X0392854Y0068837D01*
X0392926Y0068787D01*
X0392997Y0068733D01*
X0393064Y0068677D01*
X0393130Y0068617D01*
X0393192Y0068555D01*
X0393252Y0068489D01*
X0393308Y0068422D01*
X0393362Y0068351D01*
X0393412Y0068279D01*
X0393459Y0068204D01*
X0393503Y0068127D01*
X0393543Y0068048D01*
X0393580Y0067968D01*
X0393612Y0067886D01*
X0393642Y0067802D01*
X0393667Y0067718D01*
X0393689Y0067632D01*
X0393706Y0067546D01*
X0393720Y0067458D01*
X0393730Y0067370D01*
X0393736Y0067282D01*
X0393738Y0067194D01*
X0393736Y0067106D01*
X0393730Y0067018D01*
X0393720Y0066930D01*
X0393706Y0066842D01*
X0393689Y0066756D01*
X0393667Y0066670D01*
X0393642Y0066586D01*
X0393612Y0066502D01*
X0393580Y0066420D01*
X0393543Y0066340D01*
X0393503Y0066261D01*
X0393459Y0066184D01*
X0393412Y0066109D01*
X0393362Y0066037D01*
X0393308Y0065966D01*
X0393252Y0065899D01*
X0393192Y0065833D01*
X0393130Y0065771D01*
X0393064Y0065711D01*
X0392997Y0065655D01*
X0392926Y0065601D01*
X0392854Y0065551D01*
X0392779Y0065504D01*
X0392702Y0065460D01*
X0392623Y0065420D01*
X0392543Y0065383D01*
X0392461Y0065351D01*
X0392377Y0065321D01*
X0392293Y0065296D01*
X0392207Y0065274D01*
X0392121Y0065257D01*
X0392033Y0065243D01*
X0391945Y0065233D01*
X0391857Y0065227D01*
X0391769Y0065225D01*
X0391681Y0065227D01*
X0391593Y0065233D01*
X0391505Y0065243D01*
X0391417Y0065257D01*
X0391331Y0065274D01*
X0391245Y0065296D01*
X0391161Y0065321D01*
X0391077Y0065351D01*
X0390995Y0065383D01*
X0390915Y0065420D01*
X0390836Y0065460D01*
X0390759Y0065504D01*
X0390684Y0065551D01*
X0390612Y0065601D01*
X0390541Y0065655D01*
X0390474Y0065711D01*
X0390408Y0065771D01*
X0390346Y0065833D01*
X0390286Y0065899D01*
X0390230Y0065966D01*
X0390176Y0066037D01*
X0390126Y0066109D01*
X0390079Y0066184D01*
X0390035Y0066261D01*
X0389995Y0066340D01*
X0389958Y0066420D01*
X0389926Y0066502D01*
X0389896Y0066586D01*
X0389871Y0066670D01*
X0389849Y0066756D01*
X0389832Y0066842D01*
X0389818Y0066930D01*
X0389808Y0067018D01*
X0389802Y0067106D01*
X0389800Y0067194D01*
M02*
