G75*
%MOIN*%
%OFA0B0*%
%FSLAX25Y25*%
%IPPOS*%
%LPD*%
%AMOC8*
5,1,8,0,0,1.08239X$1,22.5*
%
%ADD10C,0.00039*%
%ADD11C,0.00000*%
%ADD12C,0.10250*%
%ADD13OC8,0.08900*%
%ADD14C,0.06400*%
%ADD15R,0.08510X0.05400*%
%ADD16R,0.05400X0.08510*%
%ADD17R,0.05124X0.05912*%
%ADD18R,0.05124X0.08274*%
%ADD19R,0.08274X0.05124*%
%ADD20R,0.06300X0.06300*%
%ADD21C,0.06300*%
%ADD22R,0.04337X0.04731*%
%ADD23R,0.04731X0.04337*%
%ADD24C,0.00500*%
%ADD25R,0.06699X0.09455*%
%ADD26R,0.06200X0.01500*%
%ADD27R,0.01500X0.06200*%
%ADD28R,0.02800X0.09100*%
%ADD29R,0.09000X0.04600*%
%ADD30C,0.06000*%
D10*
X0001846Y0002245D02*
X0549091Y0002245D01*
X0549091Y0132742D01*
X0549591Y0132742D01*
X0549091Y0132742D02*
X0001846Y0132742D01*
X0001846Y0002245D01*
X0535509Y0119035D02*
X0535511Y0119175D01*
X0535517Y0119315D01*
X0535527Y0119454D01*
X0535541Y0119593D01*
X0535559Y0119732D01*
X0535580Y0119870D01*
X0535606Y0120008D01*
X0535636Y0120145D01*
X0535669Y0120280D01*
X0535707Y0120415D01*
X0535748Y0120549D01*
X0535793Y0120682D01*
X0535841Y0120813D01*
X0535894Y0120942D01*
X0535950Y0121071D01*
X0536009Y0121197D01*
X0536073Y0121322D01*
X0536139Y0121445D01*
X0536210Y0121566D01*
X0536283Y0121685D01*
X0536360Y0121802D01*
X0536441Y0121916D01*
X0536524Y0122028D01*
X0536611Y0122138D01*
X0536701Y0122246D01*
X0536793Y0122350D01*
X0536889Y0122452D01*
X0536988Y0122552D01*
X0537089Y0122648D01*
X0537193Y0122742D01*
X0537300Y0122832D01*
X0537409Y0122919D01*
X0537521Y0123004D01*
X0537635Y0123085D01*
X0537751Y0123163D01*
X0537869Y0123237D01*
X0537990Y0123308D01*
X0538112Y0123376D01*
X0538237Y0123440D01*
X0538363Y0123501D01*
X0538490Y0123558D01*
X0538620Y0123611D01*
X0538751Y0123661D01*
X0538883Y0123706D01*
X0539016Y0123749D01*
X0539151Y0123787D01*
X0539286Y0123821D01*
X0539423Y0123852D01*
X0539560Y0123879D01*
X0539698Y0123901D01*
X0539837Y0123920D01*
X0539976Y0123935D01*
X0540115Y0123946D01*
X0540255Y0123953D01*
X0540395Y0123956D01*
X0540535Y0123955D01*
X0540675Y0123950D01*
X0540814Y0123941D01*
X0540954Y0123928D01*
X0541093Y0123911D01*
X0541231Y0123890D01*
X0541369Y0123866D01*
X0541506Y0123837D01*
X0541642Y0123805D01*
X0541777Y0123768D01*
X0541911Y0123728D01*
X0542044Y0123684D01*
X0542175Y0123636D01*
X0542305Y0123585D01*
X0542434Y0123530D01*
X0542561Y0123471D01*
X0542686Y0123408D01*
X0542809Y0123343D01*
X0542931Y0123273D01*
X0543050Y0123200D01*
X0543168Y0123124D01*
X0543283Y0123045D01*
X0543396Y0122962D01*
X0543506Y0122876D01*
X0543614Y0122787D01*
X0543719Y0122695D01*
X0543822Y0122600D01*
X0543922Y0122502D01*
X0544019Y0122402D01*
X0544113Y0122298D01*
X0544205Y0122192D01*
X0544293Y0122084D01*
X0544378Y0121973D01*
X0544460Y0121859D01*
X0544539Y0121743D01*
X0544614Y0121626D01*
X0544686Y0121506D01*
X0544754Y0121384D01*
X0544819Y0121260D01*
X0544881Y0121134D01*
X0544939Y0121007D01*
X0544993Y0120878D01*
X0545044Y0120747D01*
X0545090Y0120615D01*
X0545133Y0120482D01*
X0545173Y0120348D01*
X0545208Y0120213D01*
X0545240Y0120076D01*
X0545267Y0119939D01*
X0545291Y0119801D01*
X0545311Y0119663D01*
X0545327Y0119524D01*
X0545339Y0119384D01*
X0545347Y0119245D01*
X0545351Y0119105D01*
X0545351Y0118965D01*
X0545347Y0118825D01*
X0545339Y0118686D01*
X0545327Y0118546D01*
X0545311Y0118407D01*
X0545291Y0118269D01*
X0545267Y0118131D01*
X0545240Y0117994D01*
X0545208Y0117857D01*
X0545173Y0117722D01*
X0545133Y0117588D01*
X0545090Y0117455D01*
X0545044Y0117323D01*
X0544993Y0117192D01*
X0544939Y0117063D01*
X0544881Y0116936D01*
X0544819Y0116810D01*
X0544754Y0116686D01*
X0544686Y0116564D01*
X0544614Y0116444D01*
X0544539Y0116327D01*
X0544460Y0116211D01*
X0544378Y0116097D01*
X0544293Y0115986D01*
X0544205Y0115878D01*
X0544113Y0115772D01*
X0544019Y0115668D01*
X0543922Y0115568D01*
X0543822Y0115470D01*
X0543719Y0115375D01*
X0543614Y0115283D01*
X0543506Y0115194D01*
X0543396Y0115108D01*
X0543283Y0115025D01*
X0543168Y0114946D01*
X0543050Y0114870D01*
X0542931Y0114797D01*
X0542809Y0114727D01*
X0542686Y0114662D01*
X0542561Y0114599D01*
X0542434Y0114540D01*
X0542305Y0114485D01*
X0542175Y0114434D01*
X0542044Y0114386D01*
X0541911Y0114342D01*
X0541777Y0114302D01*
X0541642Y0114265D01*
X0541506Y0114233D01*
X0541369Y0114204D01*
X0541231Y0114180D01*
X0541093Y0114159D01*
X0540954Y0114142D01*
X0540814Y0114129D01*
X0540675Y0114120D01*
X0540535Y0114115D01*
X0540395Y0114114D01*
X0540255Y0114117D01*
X0540115Y0114124D01*
X0539976Y0114135D01*
X0539837Y0114150D01*
X0539698Y0114169D01*
X0539560Y0114191D01*
X0539423Y0114218D01*
X0539286Y0114249D01*
X0539151Y0114283D01*
X0539016Y0114321D01*
X0538883Y0114364D01*
X0538751Y0114409D01*
X0538620Y0114459D01*
X0538490Y0114512D01*
X0538363Y0114569D01*
X0538237Y0114630D01*
X0538112Y0114694D01*
X0537990Y0114762D01*
X0537869Y0114833D01*
X0537751Y0114907D01*
X0537635Y0114985D01*
X0537521Y0115066D01*
X0537409Y0115151D01*
X0537300Y0115238D01*
X0537193Y0115328D01*
X0537089Y0115422D01*
X0536988Y0115518D01*
X0536889Y0115618D01*
X0536793Y0115720D01*
X0536701Y0115824D01*
X0536611Y0115932D01*
X0536524Y0116042D01*
X0536441Y0116154D01*
X0536360Y0116268D01*
X0536283Y0116385D01*
X0536210Y0116504D01*
X0536139Y0116625D01*
X0536073Y0116748D01*
X0536009Y0116873D01*
X0535950Y0116999D01*
X0535894Y0117128D01*
X0535841Y0117257D01*
X0535793Y0117388D01*
X0535748Y0117521D01*
X0535707Y0117655D01*
X0535669Y0117790D01*
X0535636Y0117925D01*
X0535606Y0118062D01*
X0535580Y0118200D01*
X0535559Y0118338D01*
X0535541Y0118477D01*
X0535527Y0118616D01*
X0535517Y0118755D01*
X0535511Y0118895D01*
X0535509Y0119035D01*
D11*
X0535475Y0119000D02*
X0535477Y0119140D01*
X0535483Y0119280D01*
X0535493Y0119420D01*
X0535507Y0119559D01*
X0535525Y0119698D01*
X0535546Y0119836D01*
X0535572Y0119974D01*
X0535602Y0120111D01*
X0535635Y0120246D01*
X0535673Y0120381D01*
X0535714Y0120515D01*
X0535759Y0120648D01*
X0535808Y0120779D01*
X0535860Y0120909D01*
X0535916Y0121037D01*
X0535976Y0121164D01*
X0536039Y0121289D01*
X0536106Y0121412D01*
X0536176Y0121533D01*
X0536250Y0121652D01*
X0536327Y0121769D01*
X0536407Y0121884D01*
X0536491Y0121996D01*
X0536578Y0122106D01*
X0536668Y0122213D01*
X0536760Y0122318D01*
X0536856Y0122420D01*
X0536955Y0122519D01*
X0537056Y0122616D01*
X0537160Y0122710D01*
X0537267Y0122800D01*
X0537376Y0122888D01*
X0537488Y0122972D01*
X0537602Y0123053D01*
X0537719Y0123131D01*
X0537837Y0123206D01*
X0537958Y0123277D01*
X0538080Y0123344D01*
X0538205Y0123409D01*
X0538331Y0123469D01*
X0538459Y0123526D01*
X0538588Y0123580D01*
X0538719Y0123629D01*
X0538851Y0123675D01*
X0538985Y0123717D01*
X0539120Y0123756D01*
X0539255Y0123790D01*
X0539392Y0123821D01*
X0539529Y0123847D01*
X0539668Y0123870D01*
X0539806Y0123889D01*
X0539946Y0123904D01*
X0540085Y0123915D01*
X0540225Y0123922D01*
X0540365Y0123925D01*
X0540505Y0123924D01*
X0540645Y0123919D01*
X0540785Y0123910D01*
X0540924Y0123897D01*
X0541063Y0123880D01*
X0541202Y0123859D01*
X0541339Y0123835D01*
X0541476Y0123806D01*
X0541613Y0123773D01*
X0541748Y0123737D01*
X0541882Y0123697D01*
X0542015Y0123653D01*
X0542146Y0123605D01*
X0542277Y0123553D01*
X0542405Y0123498D01*
X0542532Y0123439D01*
X0542658Y0123377D01*
X0542781Y0123311D01*
X0542903Y0123242D01*
X0543022Y0123169D01*
X0543140Y0123093D01*
X0543255Y0123013D01*
X0543368Y0122930D01*
X0543479Y0122844D01*
X0543587Y0122755D01*
X0543692Y0122663D01*
X0543795Y0122568D01*
X0543895Y0122470D01*
X0543992Y0122369D01*
X0544086Y0122266D01*
X0544178Y0122160D01*
X0544266Y0122051D01*
X0544351Y0121940D01*
X0544433Y0121826D01*
X0544512Y0121711D01*
X0544587Y0121593D01*
X0544659Y0121473D01*
X0544728Y0121351D01*
X0544793Y0121227D01*
X0544854Y0121101D01*
X0544912Y0120973D01*
X0544967Y0120844D01*
X0545017Y0120714D01*
X0545064Y0120582D01*
X0545107Y0120448D01*
X0545146Y0120314D01*
X0545182Y0120179D01*
X0545213Y0120042D01*
X0545241Y0119905D01*
X0545265Y0119767D01*
X0545285Y0119628D01*
X0545301Y0119489D01*
X0545313Y0119350D01*
X0545321Y0119210D01*
X0545325Y0119070D01*
X0545325Y0118930D01*
X0545321Y0118790D01*
X0545313Y0118650D01*
X0545301Y0118511D01*
X0545285Y0118372D01*
X0545265Y0118233D01*
X0545241Y0118095D01*
X0545213Y0117958D01*
X0545182Y0117821D01*
X0545146Y0117686D01*
X0545107Y0117552D01*
X0545064Y0117418D01*
X0545017Y0117286D01*
X0544967Y0117156D01*
X0544912Y0117027D01*
X0544854Y0116899D01*
X0544793Y0116773D01*
X0544728Y0116649D01*
X0544659Y0116527D01*
X0544587Y0116407D01*
X0544512Y0116289D01*
X0544433Y0116174D01*
X0544351Y0116060D01*
X0544266Y0115949D01*
X0544178Y0115840D01*
X0544086Y0115734D01*
X0543992Y0115631D01*
X0543895Y0115530D01*
X0543795Y0115432D01*
X0543692Y0115337D01*
X0543587Y0115245D01*
X0543479Y0115156D01*
X0543368Y0115070D01*
X0543255Y0114987D01*
X0543140Y0114907D01*
X0543022Y0114831D01*
X0542903Y0114758D01*
X0542781Y0114689D01*
X0542658Y0114623D01*
X0542532Y0114561D01*
X0542405Y0114502D01*
X0542277Y0114447D01*
X0542146Y0114395D01*
X0542015Y0114347D01*
X0541882Y0114303D01*
X0541748Y0114263D01*
X0541613Y0114227D01*
X0541476Y0114194D01*
X0541339Y0114165D01*
X0541202Y0114141D01*
X0541063Y0114120D01*
X0540924Y0114103D01*
X0540785Y0114090D01*
X0540645Y0114081D01*
X0540505Y0114076D01*
X0540365Y0114075D01*
X0540225Y0114078D01*
X0540085Y0114085D01*
X0539946Y0114096D01*
X0539806Y0114111D01*
X0539668Y0114130D01*
X0539529Y0114153D01*
X0539392Y0114179D01*
X0539255Y0114210D01*
X0539120Y0114244D01*
X0538985Y0114283D01*
X0538851Y0114325D01*
X0538719Y0114371D01*
X0538588Y0114420D01*
X0538459Y0114474D01*
X0538331Y0114531D01*
X0538205Y0114591D01*
X0538080Y0114656D01*
X0537958Y0114723D01*
X0537837Y0114794D01*
X0537719Y0114869D01*
X0537602Y0114947D01*
X0537488Y0115028D01*
X0537376Y0115112D01*
X0537267Y0115200D01*
X0537160Y0115290D01*
X0537056Y0115384D01*
X0536955Y0115481D01*
X0536856Y0115580D01*
X0536760Y0115682D01*
X0536668Y0115787D01*
X0536578Y0115894D01*
X0536491Y0116004D01*
X0536407Y0116116D01*
X0536327Y0116231D01*
X0536250Y0116348D01*
X0536176Y0116467D01*
X0536106Y0116588D01*
X0536039Y0116711D01*
X0535976Y0116836D01*
X0535916Y0116963D01*
X0535860Y0117091D01*
X0535808Y0117221D01*
X0535759Y0117352D01*
X0535714Y0117485D01*
X0535673Y0117619D01*
X0535635Y0117754D01*
X0535602Y0117889D01*
X0535572Y0118026D01*
X0535546Y0118164D01*
X0535525Y0118302D01*
X0535507Y0118441D01*
X0535493Y0118580D01*
X0535483Y0118720D01*
X0535477Y0118860D01*
X0535475Y0119000D01*
X0231975Y0119100D02*
X0231977Y0119240D01*
X0231983Y0119380D01*
X0231993Y0119520D01*
X0232007Y0119659D01*
X0232025Y0119798D01*
X0232046Y0119936D01*
X0232072Y0120074D01*
X0232102Y0120211D01*
X0232135Y0120346D01*
X0232173Y0120481D01*
X0232214Y0120615D01*
X0232259Y0120748D01*
X0232308Y0120879D01*
X0232360Y0121009D01*
X0232416Y0121137D01*
X0232476Y0121264D01*
X0232539Y0121389D01*
X0232606Y0121512D01*
X0232676Y0121633D01*
X0232750Y0121752D01*
X0232827Y0121869D01*
X0232907Y0121984D01*
X0232991Y0122096D01*
X0233078Y0122206D01*
X0233168Y0122313D01*
X0233260Y0122418D01*
X0233356Y0122520D01*
X0233455Y0122619D01*
X0233556Y0122716D01*
X0233660Y0122810D01*
X0233767Y0122900D01*
X0233876Y0122988D01*
X0233988Y0123072D01*
X0234102Y0123153D01*
X0234219Y0123231D01*
X0234337Y0123306D01*
X0234458Y0123377D01*
X0234580Y0123444D01*
X0234705Y0123509D01*
X0234831Y0123569D01*
X0234959Y0123626D01*
X0235088Y0123680D01*
X0235219Y0123729D01*
X0235351Y0123775D01*
X0235485Y0123817D01*
X0235620Y0123856D01*
X0235755Y0123890D01*
X0235892Y0123921D01*
X0236029Y0123947D01*
X0236168Y0123970D01*
X0236306Y0123989D01*
X0236446Y0124004D01*
X0236585Y0124015D01*
X0236725Y0124022D01*
X0236865Y0124025D01*
X0237005Y0124024D01*
X0237145Y0124019D01*
X0237285Y0124010D01*
X0237424Y0123997D01*
X0237563Y0123980D01*
X0237702Y0123959D01*
X0237839Y0123935D01*
X0237976Y0123906D01*
X0238113Y0123873D01*
X0238248Y0123837D01*
X0238382Y0123797D01*
X0238515Y0123753D01*
X0238646Y0123705D01*
X0238777Y0123653D01*
X0238905Y0123598D01*
X0239032Y0123539D01*
X0239158Y0123477D01*
X0239281Y0123411D01*
X0239403Y0123342D01*
X0239522Y0123269D01*
X0239640Y0123193D01*
X0239755Y0123113D01*
X0239868Y0123030D01*
X0239979Y0122944D01*
X0240087Y0122855D01*
X0240192Y0122763D01*
X0240295Y0122668D01*
X0240395Y0122570D01*
X0240492Y0122469D01*
X0240586Y0122366D01*
X0240678Y0122260D01*
X0240766Y0122151D01*
X0240851Y0122040D01*
X0240933Y0121926D01*
X0241012Y0121811D01*
X0241087Y0121693D01*
X0241159Y0121573D01*
X0241228Y0121451D01*
X0241293Y0121327D01*
X0241354Y0121201D01*
X0241412Y0121073D01*
X0241467Y0120944D01*
X0241517Y0120814D01*
X0241564Y0120682D01*
X0241607Y0120548D01*
X0241646Y0120414D01*
X0241682Y0120279D01*
X0241713Y0120142D01*
X0241741Y0120005D01*
X0241765Y0119867D01*
X0241785Y0119728D01*
X0241801Y0119589D01*
X0241813Y0119450D01*
X0241821Y0119310D01*
X0241825Y0119170D01*
X0241825Y0119030D01*
X0241821Y0118890D01*
X0241813Y0118750D01*
X0241801Y0118611D01*
X0241785Y0118472D01*
X0241765Y0118333D01*
X0241741Y0118195D01*
X0241713Y0118058D01*
X0241682Y0117921D01*
X0241646Y0117786D01*
X0241607Y0117652D01*
X0241564Y0117518D01*
X0241517Y0117386D01*
X0241467Y0117256D01*
X0241412Y0117127D01*
X0241354Y0116999D01*
X0241293Y0116873D01*
X0241228Y0116749D01*
X0241159Y0116627D01*
X0241087Y0116507D01*
X0241012Y0116389D01*
X0240933Y0116274D01*
X0240851Y0116160D01*
X0240766Y0116049D01*
X0240678Y0115940D01*
X0240586Y0115834D01*
X0240492Y0115731D01*
X0240395Y0115630D01*
X0240295Y0115532D01*
X0240192Y0115437D01*
X0240087Y0115345D01*
X0239979Y0115256D01*
X0239868Y0115170D01*
X0239755Y0115087D01*
X0239640Y0115007D01*
X0239522Y0114931D01*
X0239403Y0114858D01*
X0239281Y0114789D01*
X0239158Y0114723D01*
X0239032Y0114661D01*
X0238905Y0114602D01*
X0238777Y0114547D01*
X0238646Y0114495D01*
X0238515Y0114447D01*
X0238382Y0114403D01*
X0238248Y0114363D01*
X0238113Y0114327D01*
X0237976Y0114294D01*
X0237839Y0114265D01*
X0237702Y0114241D01*
X0237563Y0114220D01*
X0237424Y0114203D01*
X0237285Y0114190D01*
X0237145Y0114181D01*
X0237005Y0114176D01*
X0236865Y0114175D01*
X0236725Y0114178D01*
X0236585Y0114185D01*
X0236446Y0114196D01*
X0236306Y0114211D01*
X0236168Y0114230D01*
X0236029Y0114253D01*
X0235892Y0114279D01*
X0235755Y0114310D01*
X0235620Y0114344D01*
X0235485Y0114383D01*
X0235351Y0114425D01*
X0235219Y0114471D01*
X0235088Y0114520D01*
X0234959Y0114574D01*
X0234831Y0114631D01*
X0234705Y0114691D01*
X0234580Y0114756D01*
X0234458Y0114823D01*
X0234337Y0114894D01*
X0234219Y0114969D01*
X0234102Y0115047D01*
X0233988Y0115128D01*
X0233876Y0115212D01*
X0233767Y0115300D01*
X0233660Y0115390D01*
X0233556Y0115484D01*
X0233455Y0115581D01*
X0233356Y0115680D01*
X0233260Y0115782D01*
X0233168Y0115887D01*
X0233078Y0115994D01*
X0232991Y0116104D01*
X0232907Y0116216D01*
X0232827Y0116331D01*
X0232750Y0116448D01*
X0232676Y0116567D01*
X0232606Y0116688D01*
X0232539Y0116811D01*
X0232476Y0116936D01*
X0232416Y0117063D01*
X0232360Y0117191D01*
X0232308Y0117321D01*
X0232259Y0117452D01*
X0232214Y0117585D01*
X0232173Y0117719D01*
X0232135Y0117854D01*
X0232102Y0117989D01*
X0232072Y0118126D01*
X0232046Y0118264D01*
X0232025Y0118402D01*
X0232007Y0118541D01*
X0231993Y0118680D01*
X0231983Y0118820D01*
X0231977Y0118960D01*
X0231975Y0119100D01*
D12*
X0236900Y0119100D03*
X0540400Y0119000D03*
D13*
X0347400Y0119300D03*
X0285600Y0124000D03*
X0270500Y0124100D03*
X0260500Y0124100D03*
X0250500Y0124100D03*
X0117500Y0125100D03*
X0027500Y0099200D03*
X0015000Y0099100D03*
X0017500Y0054600D03*
X0029500Y0054600D03*
X0350900Y0012800D03*
D14*
X0330500Y0010600D02*
X0330500Y0016600D01*
X0320500Y0016600D02*
X0320500Y0010600D01*
X0310500Y0010600D02*
X0310500Y0016600D01*
X0300500Y0016600D02*
X0300500Y0010600D01*
X0290500Y0010600D02*
X0290500Y0016600D01*
X0280500Y0016600D02*
X0280500Y0010600D01*
X0266000Y0011100D02*
X0266000Y0017100D01*
X0256000Y0017100D02*
X0256000Y0011100D01*
X0246000Y0011100D02*
X0246000Y0017100D01*
X0236000Y0017100D02*
X0236000Y0011100D01*
X0226000Y0011100D02*
X0226000Y0017100D01*
X0216000Y0017100D02*
X0216000Y0011100D01*
X0206000Y0011100D02*
X0206000Y0017100D01*
X0196000Y0017100D02*
X0196000Y0011100D01*
X0394500Y0010100D02*
X0394500Y0016100D01*
X0404500Y0016100D02*
X0404500Y0010100D01*
X0414500Y0010100D02*
X0414500Y0016100D01*
X0424500Y0016100D02*
X0424500Y0010100D01*
X0434500Y0010100D02*
X0434500Y0016100D01*
X0444500Y0016100D02*
X0444500Y0010100D01*
X0454500Y0010100D02*
X0454500Y0016100D01*
X0521000Y0016100D02*
X0521000Y0010100D01*
X0531000Y0010100D02*
X0531000Y0016100D01*
X0541000Y0016100D02*
X0541000Y0010100D01*
X0516500Y0116100D02*
X0516500Y0122100D01*
X0506500Y0122100D02*
X0506500Y0116100D01*
X0496500Y0116100D02*
X0496500Y0122100D01*
X0486500Y0122100D02*
X0486500Y0116100D01*
X0476500Y0116100D02*
X0476500Y0122100D01*
X0466500Y0122100D02*
X0466500Y0116100D01*
X0456500Y0116100D02*
X0456500Y0122100D01*
X0446500Y0122100D02*
X0446500Y0116100D01*
X0436500Y0116100D02*
X0436500Y0122100D01*
X0426500Y0122100D02*
X0426500Y0116100D01*
X0416500Y0116100D02*
X0416500Y0122100D01*
X0406500Y0122100D02*
X0406500Y0116100D01*
X0396500Y0116100D02*
X0396500Y0122100D01*
X0386500Y0122100D02*
X0386500Y0116100D01*
X0376500Y0116100D02*
X0376500Y0122100D01*
X0366500Y0122100D02*
X0366500Y0116100D01*
X0310700Y0119900D02*
X0310700Y0125900D01*
X0300700Y0125900D02*
X0300700Y0119900D01*
X0056000Y0123600D02*
X0050000Y0123600D01*
X0050000Y0113600D02*
X0056000Y0113600D01*
X0056000Y0103600D02*
X0050000Y0103600D01*
X0050000Y0093600D02*
X0056000Y0093600D01*
X0056000Y0083600D02*
X0050000Y0083600D01*
D15*
X0080500Y0111191D03*
X0097000Y0111191D03*
X0097000Y0125009D03*
X0080500Y0125009D03*
X0379000Y0050509D03*
X0379000Y0036691D03*
X0315300Y0043009D03*
X0299000Y0042909D03*
X0299000Y0029091D03*
X0315300Y0029191D03*
D16*
X0213209Y0122800D03*
X0199391Y0122800D03*
D17*
X0031806Y0009400D03*
X0019994Y0009400D03*
D18*
X0436874Y0042820D03*
X0444748Y0042820D03*
X0452622Y0042820D03*
X0460496Y0042820D03*
X0468370Y0042820D03*
X0476244Y0042820D03*
X0484118Y0042820D03*
X0491992Y0042820D03*
X0491992Y0106600D03*
X0484118Y0106600D03*
X0476244Y0106600D03*
X0468370Y0106600D03*
X0460496Y0106600D03*
X0452622Y0106600D03*
X0444748Y0106600D03*
X0436874Y0106600D03*
D19*
X0429000Y0094789D03*
X0429000Y0086915D03*
X0429000Y0079041D03*
X0429000Y0071167D03*
X0429000Y0063293D03*
X0429000Y0055419D03*
D20*
X0062000Y0040100D03*
D21*
X0052000Y0040100D03*
X0057000Y0030100D03*
D22*
X0045700Y0016846D03*
X0045700Y0010154D03*
X0299800Y0068754D03*
X0308800Y0068754D03*
X0308800Y0075446D03*
X0299800Y0075446D03*
D23*
X0117846Y0112600D03*
X0111154Y0112600D03*
X0451654Y0029600D03*
X0458346Y0029600D03*
X0478154Y0030100D03*
X0484846Y0030100D03*
X0506654Y0029600D03*
X0513346Y0029600D03*
X0530154Y0029600D03*
X0536846Y0029600D03*
D24*
X0220760Y0026690D02*
X0220692Y0026017D01*
X0220493Y0025371D01*
X0220173Y0024775D01*
X0219742Y0024254D01*
X0219218Y0023826D01*
X0218621Y0023509D01*
X0217973Y0023315D01*
X0217300Y0023250D01*
X0217270Y0023230D01*
X0216609Y0023290D01*
X0215973Y0023478D01*
X0215385Y0023787D01*
X0214869Y0024204D01*
X0214445Y0024714D01*
X0214127Y0025297D01*
X0213930Y0025930D01*
X0213860Y0026590D01*
X0220750Y0026590D01*
X0220760Y0026690D02*
X0220750Y0026770D01*
X0220679Y0027435D01*
X0220479Y0028073D01*
X0220159Y0028659D01*
X0219730Y0029172D01*
X0219210Y0029592D01*
X0218617Y0029902D01*
X0217976Y0030090D01*
X0217310Y0030150D01*
X0217340Y0030140D01*
X0216662Y0030079D01*
X0216010Y0029887D01*
X0215407Y0029572D01*
X0214878Y0029145D01*
X0214442Y0028623D01*
X0214116Y0028026D01*
X0213913Y0027377D01*
X0213840Y0026700D01*
X0213860Y0026590D01*
X0213882Y0027089D02*
X0220716Y0027089D01*
X0220631Y0027587D02*
X0213979Y0027587D01*
X0214148Y0028086D02*
X0220472Y0028086D01*
X0220200Y0028584D02*
X0214420Y0028584D01*
X0214826Y0029083D02*
X0219805Y0029083D01*
X0219223Y0029581D02*
X0215425Y0029581D01*
X0216667Y0030080D02*
X0218012Y0030080D01*
X0220699Y0026092D02*
X0213913Y0026092D01*
X0214035Y0025593D02*
X0220562Y0025593D01*
X0220345Y0025095D02*
X0214237Y0025095D01*
X0214543Y0024596D02*
X0220025Y0024596D01*
X0219551Y0024098D02*
X0215001Y0024098D01*
X0215743Y0023599D02*
X0218790Y0023599D01*
X0195092Y0026027D02*
X0194893Y0025381D01*
X0194573Y0024785D01*
X0194142Y0024264D01*
X0193618Y0023836D01*
X0193021Y0023519D01*
X0192373Y0023325D01*
X0191700Y0023260D01*
X0191670Y0023240D01*
X0191009Y0023300D01*
X0190373Y0023488D01*
X0189785Y0023797D01*
X0189269Y0024214D01*
X0188845Y0024724D01*
X0188527Y0025307D01*
X0188330Y0025940D01*
X0188260Y0026600D01*
X0188240Y0026710D01*
X0188313Y0027387D01*
X0188516Y0028036D01*
X0188842Y0028633D01*
X0189278Y0029155D01*
X0189807Y0029582D01*
X0190410Y0029897D01*
X0191062Y0030089D01*
X0191740Y0030150D01*
X0191710Y0030160D01*
X0192376Y0030100D01*
X0193017Y0029912D01*
X0193610Y0029602D01*
X0194130Y0029182D01*
X0194559Y0028669D01*
X0194879Y0028082D01*
X0195079Y0027445D01*
X0195150Y0026780D01*
X0195160Y0026700D01*
X0195092Y0026027D01*
X0195098Y0026092D02*
X0188314Y0026092D01*
X0188261Y0026590D02*
X0195149Y0026590D01*
X0195117Y0027089D02*
X0188281Y0027089D01*
X0188375Y0027587D02*
X0195034Y0027587D01*
X0194877Y0028086D02*
X0188543Y0028086D01*
X0188815Y0028584D02*
X0194605Y0028584D01*
X0194213Y0029083D02*
X0189217Y0029083D01*
X0189806Y0029581D02*
X0193635Y0029581D01*
X0192445Y0030080D02*
X0191030Y0030080D01*
X0188438Y0025593D02*
X0194959Y0025593D01*
X0194740Y0025095D02*
X0188643Y0025095D01*
X0188951Y0024596D02*
X0194417Y0024596D01*
X0193939Y0024098D02*
X0189413Y0024098D01*
X0190162Y0023599D02*
X0193172Y0023599D01*
X0161692Y0027017D02*
X0161493Y0026371D01*
X0161173Y0025775D01*
X0160742Y0025254D01*
X0160218Y0024826D01*
X0159621Y0024509D01*
X0158973Y0024315D01*
X0158300Y0024250D01*
X0158270Y0024230D01*
X0157609Y0024290D01*
X0156973Y0024478D01*
X0156385Y0024787D01*
X0155869Y0025204D01*
X0155445Y0025714D01*
X0155127Y0026297D01*
X0154930Y0026930D01*
X0154860Y0027590D01*
X0154840Y0027700D01*
X0154913Y0028377D01*
X0155116Y0029026D01*
X0155442Y0029623D01*
X0155878Y0030145D01*
X0156407Y0030572D01*
X0157010Y0030887D01*
X0157662Y0031079D01*
X0158340Y0031140D01*
X0158310Y0031150D01*
X0158976Y0031090D01*
X0159617Y0030902D01*
X0160210Y0030592D01*
X0160730Y0030172D01*
X0161159Y0029659D01*
X0161479Y0029073D01*
X0161679Y0028435D01*
X0161750Y0027770D01*
X0161760Y0027690D01*
X0161692Y0027017D01*
X0161699Y0027089D02*
X0154913Y0027089D01*
X0154861Y0027587D02*
X0161749Y0027587D01*
X0161716Y0028086D02*
X0154881Y0028086D01*
X0154978Y0028584D02*
X0161632Y0028584D01*
X0161473Y0029083D02*
X0155147Y0029083D01*
X0155419Y0029581D02*
X0161201Y0029581D01*
X0160807Y0030080D02*
X0155823Y0030080D01*
X0156419Y0030578D02*
X0160227Y0030578D01*
X0159022Y0031077D02*
X0157654Y0031077D01*
X0155036Y0026590D02*
X0161561Y0026590D01*
X0161343Y0026092D02*
X0155239Y0026092D01*
X0155545Y0025593D02*
X0161023Y0025593D01*
X0160547Y0025095D02*
X0156005Y0025095D01*
X0156749Y0024596D02*
X0159785Y0024596D01*
X0136092Y0027027D02*
X0135893Y0026381D01*
X0135573Y0025785D01*
X0135142Y0025264D01*
X0134618Y0024836D01*
X0134021Y0024519D01*
X0133373Y0024325D01*
X0132700Y0024260D01*
X0132670Y0024240D01*
X0132009Y0024300D01*
X0131373Y0024488D01*
X0130785Y0024797D01*
X0130269Y0025214D01*
X0129845Y0025724D01*
X0129527Y0026307D01*
X0129330Y0026940D01*
X0129260Y0027600D01*
X0129240Y0027710D01*
X0129313Y0028387D01*
X0129516Y0029036D01*
X0129842Y0029633D01*
X0130278Y0030155D01*
X0130807Y0030582D01*
X0131410Y0030897D01*
X0132062Y0031089D01*
X0132740Y0031150D01*
X0132710Y0031160D01*
X0133376Y0031100D01*
X0134017Y0030912D01*
X0134610Y0030602D01*
X0135130Y0030182D01*
X0135559Y0029669D01*
X0135879Y0029082D01*
X0136079Y0028445D01*
X0136150Y0027780D01*
X0136160Y0027700D01*
X0136092Y0027027D01*
X0136098Y0027089D02*
X0129314Y0027089D01*
X0129262Y0027587D02*
X0136148Y0027587D01*
X0136117Y0028086D02*
X0129280Y0028086D01*
X0129375Y0028584D02*
X0136035Y0028584D01*
X0135879Y0029083D02*
X0129541Y0029083D01*
X0129813Y0029581D02*
X0135607Y0029581D01*
X0135216Y0030080D02*
X0130215Y0030080D01*
X0130803Y0030578D02*
X0134639Y0030578D01*
X0133456Y0031077D02*
X0132020Y0031077D01*
X0129439Y0026590D02*
X0135958Y0026590D01*
X0135738Y0026092D02*
X0129644Y0026092D01*
X0129953Y0025593D02*
X0135414Y0025593D01*
X0134935Y0025095D02*
X0130417Y0025095D01*
X0131167Y0024596D02*
X0134166Y0024596D01*
X0102760Y0027690D02*
X0102692Y0027017D01*
X0102493Y0026371D01*
X0102173Y0025775D01*
X0101742Y0025254D01*
X0101218Y0024826D01*
X0100621Y0024509D01*
X0099973Y0024315D01*
X0099300Y0024250D01*
X0099270Y0024230D01*
X0098609Y0024290D01*
X0097973Y0024478D01*
X0097385Y0024787D01*
X0096869Y0025204D01*
X0096445Y0025714D01*
X0096127Y0026297D01*
X0095930Y0026930D01*
X0095860Y0027590D01*
X0095840Y0027700D01*
X0095913Y0028377D01*
X0096116Y0029026D01*
X0096442Y0029623D01*
X0096878Y0030145D01*
X0097407Y0030572D01*
X0098010Y0030887D01*
X0098662Y0031079D01*
X0099340Y0031140D01*
X0099310Y0031150D01*
X0099976Y0031090D01*
X0100617Y0030902D01*
X0101210Y0030592D01*
X0101730Y0030172D01*
X0102159Y0029659D01*
X0102479Y0029073D01*
X0102679Y0028435D01*
X0102750Y0027770D01*
X0102760Y0027690D01*
X0102749Y0027587D02*
X0095861Y0027587D01*
X0095881Y0028086D02*
X0102716Y0028086D01*
X0102632Y0028584D02*
X0095978Y0028584D01*
X0096147Y0029083D02*
X0102473Y0029083D01*
X0102201Y0029581D02*
X0096419Y0029581D01*
X0096823Y0030080D02*
X0101807Y0030080D01*
X0101227Y0030578D02*
X0097419Y0030578D01*
X0098654Y0031077D02*
X0100022Y0031077D01*
X0102699Y0027089D02*
X0095913Y0027089D01*
X0096036Y0026590D02*
X0102561Y0026590D01*
X0102343Y0026092D02*
X0096239Y0026092D01*
X0096545Y0025593D02*
X0102023Y0025593D01*
X0101547Y0025095D02*
X0097005Y0025095D01*
X0097749Y0024596D02*
X0100785Y0024596D01*
X0077092Y0027027D02*
X0077160Y0027700D01*
X0077150Y0027780D01*
X0077079Y0028445D01*
X0076879Y0029082D01*
X0076559Y0029669D01*
X0076130Y0030182D01*
X0075610Y0030602D01*
X0075017Y0030912D01*
X0074376Y0031100D01*
X0073710Y0031160D01*
X0073740Y0031150D01*
X0073062Y0031089D01*
X0072410Y0030897D01*
X0071807Y0030582D01*
X0071278Y0030155D01*
X0070842Y0029633D01*
X0070516Y0029036D01*
X0070313Y0028387D01*
X0070240Y0027710D01*
X0070260Y0027600D01*
X0070330Y0026940D01*
X0070527Y0026307D01*
X0070845Y0025724D01*
X0071269Y0025214D01*
X0071785Y0024797D01*
X0072373Y0024488D01*
X0073009Y0024300D01*
X0073670Y0024240D01*
X0073700Y0024260D01*
X0074373Y0024325D01*
X0075021Y0024519D01*
X0075618Y0024836D01*
X0076142Y0025264D01*
X0076573Y0025785D01*
X0076893Y0026381D01*
X0077092Y0027027D01*
X0077098Y0027089D02*
X0070314Y0027089D01*
X0070262Y0027587D02*
X0077148Y0027587D01*
X0077117Y0028086D02*
X0070280Y0028086D01*
X0070375Y0028584D02*
X0077035Y0028584D01*
X0076879Y0029083D02*
X0070541Y0029083D01*
X0070813Y0029581D02*
X0076607Y0029581D01*
X0076216Y0030080D02*
X0071215Y0030080D01*
X0071803Y0030578D02*
X0075639Y0030578D01*
X0074456Y0031077D02*
X0073020Y0031077D01*
X0070439Y0026590D02*
X0076958Y0026590D01*
X0076738Y0026092D02*
X0070644Y0026092D01*
X0070953Y0025593D02*
X0076414Y0025593D01*
X0075935Y0025095D02*
X0071417Y0025095D01*
X0072167Y0024596D02*
X0075166Y0024596D01*
X0043760Y0027690D02*
X0043692Y0027017D01*
X0043493Y0026371D01*
X0043173Y0025775D01*
X0042742Y0025254D01*
X0042218Y0024826D01*
X0041621Y0024509D01*
X0040973Y0024315D01*
X0040300Y0024250D01*
X0040270Y0024230D01*
X0039609Y0024290D01*
X0038973Y0024478D01*
X0038385Y0024787D01*
X0037869Y0025204D01*
X0037445Y0025714D01*
X0037127Y0026297D01*
X0036930Y0026930D01*
X0036860Y0027590D01*
X0036840Y0027700D01*
X0036913Y0028377D01*
X0037116Y0029026D01*
X0037442Y0029623D01*
X0037878Y0030145D01*
X0038407Y0030572D01*
X0039010Y0030887D01*
X0039662Y0031079D01*
X0040340Y0031140D01*
X0040310Y0031150D01*
X0040976Y0031090D01*
X0041617Y0030902D01*
X0042210Y0030592D01*
X0042730Y0030172D01*
X0043159Y0029659D01*
X0043479Y0029073D01*
X0043679Y0028435D01*
X0043750Y0027770D01*
X0043760Y0027690D01*
X0043749Y0027587D02*
X0036861Y0027587D01*
X0036881Y0028086D02*
X0043716Y0028086D01*
X0043632Y0028584D02*
X0036978Y0028584D01*
X0037147Y0029083D02*
X0043473Y0029083D01*
X0043201Y0029581D02*
X0037419Y0029581D01*
X0037823Y0030080D02*
X0042807Y0030080D01*
X0042227Y0030578D02*
X0038419Y0030578D01*
X0039654Y0031077D02*
X0041022Y0031077D01*
X0043699Y0027089D02*
X0036913Y0027089D01*
X0037036Y0026590D02*
X0043561Y0026590D01*
X0043343Y0026092D02*
X0037239Y0026092D01*
X0037545Y0025593D02*
X0043023Y0025593D01*
X0042547Y0025095D02*
X0038005Y0025095D01*
X0038749Y0024596D02*
X0041785Y0024596D01*
X0018092Y0027027D02*
X0017893Y0026381D01*
X0017573Y0025785D01*
X0017142Y0025264D01*
X0016618Y0024836D01*
X0016021Y0024519D01*
X0015373Y0024325D01*
X0014700Y0024260D01*
X0014670Y0024240D01*
X0014009Y0024300D01*
X0013373Y0024488D01*
X0012785Y0024797D01*
X0012269Y0025214D01*
X0011845Y0025724D01*
X0011527Y0026307D01*
X0011330Y0026940D01*
X0011260Y0027600D01*
X0011240Y0027710D01*
X0011313Y0028387D01*
X0011516Y0029036D01*
X0011842Y0029633D01*
X0012278Y0030155D01*
X0012807Y0030582D01*
X0013410Y0030897D01*
X0014062Y0031089D01*
X0014740Y0031150D01*
X0014710Y0031160D01*
X0015376Y0031100D01*
X0016017Y0030912D01*
X0016610Y0030602D01*
X0017130Y0030182D01*
X0017559Y0029669D01*
X0017879Y0029082D01*
X0018079Y0028445D01*
X0018150Y0027780D01*
X0018160Y0027700D01*
X0018092Y0027027D01*
X0018098Y0027089D02*
X0011314Y0027089D01*
X0011262Y0027587D02*
X0018148Y0027587D01*
X0018117Y0028086D02*
X0011280Y0028086D01*
X0011375Y0028584D02*
X0018035Y0028584D01*
X0017879Y0029083D02*
X0011541Y0029083D01*
X0011813Y0029581D02*
X0017607Y0029581D01*
X0017216Y0030080D02*
X0012215Y0030080D01*
X0012803Y0030578D02*
X0016639Y0030578D01*
X0015456Y0031077D02*
X0014020Y0031077D01*
X0011439Y0026590D02*
X0017958Y0026590D01*
X0017738Y0026092D02*
X0011644Y0026092D01*
X0011953Y0025593D02*
X0017414Y0025593D01*
X0016935Y0025095D02*
X0012417Y0025095D01*
X0013167Y0024596D02*
X0016166Y0024596D01*
X0014670Y0042050D02*
X0014009Y0042111D01*
X0013373Y0042298D01*
X0012785Y0042607D01*
X0012269Y0043024D01*
X0011845Y0043534D01*
X0011527Y0044117D01*
X0011330Y0044750D01*
X0011260Y0045410D01*
X0011240Y0045520D01*
X0011313Y0046197D01*
X0011516Y0046846D01*
X0011842Y0047443D01*
X0012278Y0047965D01*
X0012807Y0048392D01*
X0013410Y0048707D01*
X0014062Y0048899D01*
X0014740Y0048960D01*
X0014710Y0048970D01*
X0015376Y0048910D01*
X0016017Y0048722D01*
X0016610Y0048412D01*
X0017130Y0047992D01*
X0017559Y0047479D01*
X0017879Y0046893D01*
X0018079Y0046255D01*
X0018150Y0045590D01*
X0018160Y0045510D01*
X0018092Y0044837D01*
X0017893Y0044191D01*
X0017573Y0043595D01*
X0017142Y0043074D01*
X0016618Y0042646D01*
X0016021Y0042329D01*
X0015373Y0042135D01*
X0014700Y0042070D01*
X0014670Y0042050D01*
X0016423Y0042542D02*
X0012908Y0042542D01*
X0012255Y0043041D02*
X0017102Y0043041D01*
X0017527Y0043539D02*
X0011841Y0043539D01*
X0011570Y0044038D02*
X0017811Y0044038D01*
X0017999Y0044537D02*
X0011397Y0044537D01*
X0011300Y0045035D02*
X0018112Y0045035D01*
X0018157Y0045534D02*
X0011242Y0045534D01*
X0011295Y0046032D02*
X0018103Y0046032D01*
X0017992Y0046531D02*
X0011417Y0046531D01*
X0011616Y0047029D02*
X0017804Y0047029D01*
X0017518Y0047528D02*
X0011912Y0047528D01*
X0012353Y0048026D02*
X0017088Y0048026D01*
X0016394Y0048525D02*
X0013060Y0048525D01*
X0036914Y0046032D02*
X0043724Y0046032D01*
X0043699Y0046265D02*
X0043770Y0045600D01*
X0043780Y0045520D01*
X0043712Y0044847D01*
X0043514Y0044201D01*
X0043193Y0043605D01*
X0042762Y0043084D01*
X0042238Y0042656D01*
X0041641Y0042339D01*
X0040993Y0042145D01*
X0040320Y0042080D01*
X0040290Y0042060D01*
X0039629Y0042120D01*
X0038993Y0042308D01*
X0038405Y0042617D01*
X0037889Y0043034D01*
X0037465Y0043544D01*
X0037147Y0044127D01*
X0036950Y0044760D01*
X0036880Y0045420D01*
X0036860Y0045530D01*
X0036933Y0046207D01*
X0037136Y0046856D01*
X0037462Y0047453D01*
X0037898Y0047975D01*
X0038427Y0048402D01*
X0039030Y0048717D01*
X0039682Y0048909D01*
X0040360Y0048970D01*
X0040330Y0048980D01*
X0040996Y0048920D01*
X0041637Y0048732D01*
X0042230Y0048422D01*
X0042750Y0048002D01*
X0043179Y0047489D01*
X0043499Y0046903D01*
X0043699Y0046265D01*
X0043615Y0046531D02*
X0037034Y0046531D01*
X0037230Y0047029D02*
X0043430Y0047029D01*
X0043147Y0047528D02*
X0037524Y0047528D01*
X0037961Y0048026D02*
X0042720Y0048026D01*
X0042033Y0048525D02*
X0038662Y0048525D01*
X0036861Y0045534D02*
X0043778Y0045534D01*
X0043731Y0045035D02*
X0036921Y0045035D01*
X0037020Y0044537D02*
X0043616Y0044537D01*
X0043426Y0044038D02*
X0037196Y0044038D01*
X0037468Y0043539D02*
X0043139Y0043539D01*
X0042710Y0043041D02*
X0037883Y0043041D01*
X0038547Y0042542D02*
X0042024Y0042542D01*
X0070240Y0045520D02*
X0070313Y0046197D01*
X0070516Y0046846D01*
X0070842Y0047443D01*
X0071278Y0047965D01*
X0071807Y0048392D01*
X0072410Y0048707D01*
X0073062Y0048899D01*
X0073740Y0048960D01*
X0073710Y0048970D01*
X0074376Y0048910D01*
X0075017Y0048722D01*
X0075610Y0048412D01*
X0076130Y0047992D01*
X0076559Y0047479D01*
X0076879Y0046893D01*
X0077079Y0046255D01*
X0077150Y0045590D01*
X0077160Y0045510D01*
X0077092Y0044837D01*
X0076893Y0044191D01*
X0076573Y0043595D01*
X0076142Y0043074D01*
X0075618Y0042646D01*
X0075021Y0042329D01*
X0074373Y0042135D01*
X0073700Y0042070D01*
X0073670Y0042050D01*
X0073009Y0042111D01*
X0072373Y0042298D01*
X0071785Y0042607D01*
X0071269Y0043024D01*
X0070845Y0043534D01*
X0070527Y0044117D01*
X0070330Y0044750D01*
X0070260Y0045410D01*
X0070240Y0045520D01*
X0070242Y0045534D02*
X0077157Y0045534D01*
X0077103Y0046032D02*
X0070295Y0046032D01*
X0070417Y0046531D02*
X0076992Y0046531D01*
X0076804Y0047029D02*
X0070616Y0047029D01*
X0070912Y0047528D02*
X0076518Y0047528D01*
X0076088Y0048026D02*
X0071353Y0048026D01*
X0072060Y0048525D02*
X0075394Y0048525D01*
X0077112Y0045035D02*
X0070300Y0045035D01*
X0070397Y0044537D02*
X0076999Y0044537D01*
X0076811Y0044038D02*
X0070570Y0044038D01*
X0070841Y0043539D02*
X0076527Y0043539D01*
X0076102Y0043041D02*
X0071255Y0043041D01*
X0071908Y0042542D02*
X0075423Y0042542D01*
X0095950Y0044760D02*
X0096147Y0044127D01*
X0096465Y0043544D01*
X0096889Y0043034D01*
X0097405Y0042617D01*
X0097993Y0042308D01*
X0098629Y0042120D01*
X0099290Y0042060D01*
X0099320Y0042080D01*
X0099993Y0042145D01*
X0100641Y0042339D01*
X0101238Y0042656D01*
X0101762Y0043084D01*
X0102193Y0043605D01*
X0102514Y0044201D01*
X0102712Y0044847D01*
X0102780Y0045520D01*
X0102770Y0045600D01*
X0102699Y0046265D01*
X0102499Y0046903D01*
X0102179Y0047489D01*
X0101750Y0048002D01*
X0101230Y0048422D01*
X0100637Y0048732D01*
X0099996Y0048920D01*
X0099330Y0048980D01*
X0099360Y0048970D01*
X0098682Y0048909D01*
X0098030Y0048717D01*
X0097427Y0048402D01*
X0096898Y0047975D01*
X0096462Y0047453D01*
X0096136Y0046856D01*
X0095933Y0046207D01*
X0095860Y0045530D01*
X0095880Y0045420D01*
X0095950Y0044760D01*
X0096020Y0044537D02*
X0102616Y0044537D01*
X0102731Y0045035D02*
X0095921Y0045035D01*
X0095861Y0045534D02*
X0102778Y0045534D01*
X0102724Y0046032D02*
X0095914Y0046032D01*
X0096034Y0046531D02*
X0102615Y0046531D01*
X0102430Y0047029D02*
X0096230Y0047029D01*
X0096524Y0047528D02*
X0102147Y0047528D01*
X0101720Y0048026D02*
X0096961Y0048026D01*
X0097662Y0048525D02*
X0101033Y0048525D01*
X0102426Y0044038D02*
X0096196Y0044038D01*
X0096468Y0043539D02*
X0102139Y0043539D01*
X0101710Y0043041D02*
X0096883Y0043041D01*
X0097547Y0042542D02*
X0101024Y0042542D01*
X0129240Y0045520D02*
X0129313Y0046197D01*
X0129516Y0046846D01*
X0129842Y0047443D01*
X0130278Y0047965D01*
X0130807Y0048392D01*
X0131410Y0048707D01*
X0132062Y0048899D01*
X0132740Y0048960D01*
X0132710Y0048970D01*
X0133376Y0048910D01*
X0134017Y0048722D01*
X0134610Y0048412D01*
X0135130Y0047992D01*
X0135559Y0047479D01*
X0135879Y0046893D01*
X0136079Y0046255D01*
X0136150Y0045590D01*
X0136160Y0045510D01*
X0136092Y0044837D01*
X0135893Y0044191D01*
X0135573Y0043595D01*
X0135142Y0043074D01*
X0134618Y0042646D01*
X0134021Y0042329D01*
X0133373Y0042135D01*
X0132700Y0042070D01*
X0132670Y0042050D01*
X0132009Y0042111D01*
X0131373Y0042298D01*
X0130785Y0042607D01*
X0130269Y0043024D01*
X0129845Y0043534D01*
X0129527Y0044117D01*
X0129330Y0044750D01*
X0129260Y0045410D01*
X0129240Y0045520D01*
X0129242Y0045534D02*
X0136157Y0045534D01*
X0136103Y0046032D02*
X0129295Y0046032D01*
X0129417Y0046531D02*
X0135992Y0046531D01*
X0135804Y0047029D02*
X0129616Y0047029D01*
X0129912Y0047528D02*
X0135518Y0047528D01*
X0135088Y0048026D02*
X0130353Y0048026D01*
X0131060Y0048525D02*
X0134394Y0048525D01*
X0136112Y0045035D02*
X0129300Y0045035D01*
X0129397Y0044537D02*
X0135999Y0044537D01*
X0135811Y0044038D02*
X0129570Y0044038D01*
X0129841Y0043539D02*
X0135527Y0043539D01*
X0135102Y0043041D02*
X0130255Y0043041D01*
X0130908Y0042542D02*
X0134423Y0042542D01*
X0154950Y0044760D02*
X0155147Y0044127D01*
X0155465Y0043544D01*
X0155889Y0043034D01*
X0156405Y0042617D01*
X0156993Y0042308D01*
X0157629Y0042120D01*
X0158290Y0042060D01*
X0158320Y0042080D01*
X0158993Y0042145D01*
X0159641Y0042339D01*
X0160238Y0042656D01*
X0160762Y0043084D01*
X0161193Y0043605D01*
X0161514Y0044201D01*
X0161712Y0044847D01*
X0161780Y0045520D01*
X0161770Y0045600D01*
X0161699Y0046265D01*
X0161499Y0046903D01*
X0161179Y0047489D01*
X0160750Y0048002D01*
X0160230Y0048422D01*
X0159637Y0048732D01*
X0158996Y0048920D01*
X0158330Y0048980D01*
X0158360Y0048970D01*
X0157682Y0048909D01*
X0157030Y0048717D01*
X0156427Y0048402D01*
X0155898Y0047975D01*
X0155462Y0047453D01*
X0155136Y0046856D01*
X0154933Y0046207D01*
X0154860Y0045530D01*
X0154880Y0045420D01*
X0154950Y0044760D01*
X0155020Y0044537D02*
X0161616Y0044537D01*
X0161731Y0045035D02*
X0154921Y0045035D01*
X0154861Y0045534D02*
X0161778Y0045534D01*
X0161724Y0046032D02*
X0154914Y0046032D01*
X0155034Y0046531D02*
X0161615Y0046531D01*
X0161430Y0047029D02*
X0155230Y0047029D01*
X0155524Y0047528D02*
X0161147Y0047528D01*
X0160720Y0048026D02*
X0155961Y0048026D01*
X0156662Y0048525D02*
X0160033Y0048525D01*
X0161426Y0044038D02*
X0155196Y0044038D01*
X0155468Y0043539D02*
X0161139Y0043539D01*
X0160710Y0043041D02*
X0155883Y0043041D01*
X0156547Y0042542D02*
X0160024Y0042542D01*
X0188240Y0044520D02*
X0188260Y0044410D01*
X0188330Y0043750D01*
X0188527Y0043117D01*
X0188845Y0042534D01*
X0189269Y0042024D01*
X0189785Y0041607D01*
X0190373Y0041298D01*
X0191009Y0041111D01*
X0191670Y0041050D01*
X0191700Y0041070D01*
X0192373Y0041135D01*
X0193021Y0041329D01*
X0193618Y0041646D01*
X0194142Y0042074D01*
X0194573Y0042595D01*
X0194893Y0043191D01*
X0195092Y0043837D01*
X0195160Y0044510D01*
X0195150Y0044590D01*
X0195079Y0045255D01*
X0194879Y0045893D01*
X0194559Y0046479D01*
X0194130Y0046992D01*
X0193610Y0047412D01*
X0193017Y0047722D01*
X0192376Y0047910D01*
X0191710Y0047970D01*
X0191740Y0047960D01*
X0191062Y0047899D01*
X0190410Y0047707D01*
X0189807Y0047392D01*
X0189278Y0046965D01*
X0188842Y0046443D01*
X0188516Y0045846D01*
X0188313Y0045197D01*
X0188240Y0044520D01*
X0188242Y0044537D02*
X0195157Y0044537D01*
X0195102Y0045035D02*
X0188295Y0045035D01*
X0188418Y0045534D02*
X0194991Y0045534D01*
X0194803Y0046032D02*
X0188617Y0046032D01*
X0188915Y0046531D02*
X0194516Y0046531D01*
X0194085Y0047029D02*
X0189357Y0047029D01*
X0190066Y0047528D02*
X0193389Y0047528D01*
X0195112Y0044038D02*
X0188300Y0044038D01*
X0188396Y0043539D02*
X0195000Y0043539D01*
X0194813Y0043041D02*
X0188569Y0043041D01*
X0188840Y0042542D02*
X0194529Y0042542D01*
X0194106Y0042044D02*
X0189253Y0042044D01*
X0189902Y0041545D02*
X0193428Y0041545D01*
X0213950Y0043760D02*
X0213880Y0044420D01*
X0213860Y0044530D01*
X0213933Y0045207D01*
X0214136Y0045856D01*
X0214462Y0046453D01*
X0214898Y0046975D01*
X0215427Y0047402D01*
X0216030Y0047717D01*
X0216682Y0047909D01*
X0217360Y0047970D01*
X0217330Y0047980D01*
X0217996Y0047920D01*
X0218637Y0047732D01*
X0219230Y0047422D01*
X0219750Y0047002D01*
X0220179Y0046489D01*
X0220499Y0045903D01*
X0220699Y0045265D01*
X0220770Y0044600D01*
X0220780Y0044520D01*
X0220712Y0043847D01*
X0220514Y0043201D01*
X0220193Y0042605D01*
X0219762Y0042084D01*
X0219238Y0041656D01*
X0218641Y0041339D01*
X0217993Y0041145D01*
X0217320Y0041080D01*
X0217290Y0041060D01*
X0216629Y0041120D01*
X0215993Y0041308D01*
X0215405Y0041617D01*
X0214889Y0042034D01*
X0214465Y0042544D01*
X0214147Y0043127D01*
X0213950Y0043760D01*
X0214019Y0043539D02*
X0220617Y0043539D01*
X0220731Y0044038D02*
X0213921Y0044038D01*
X0213861Y0044537D02*
X0220778Y0044537D01*
X0220723Y0045035D02*
X0213914Y0045035D01*
X0214035Y0045534D02*
X0220614Y0045534D01*
X0220428Y0046032D02*
X0214232Y0046032D01*
X0214527Y0046531D02*
X0220144Y0046531D01*
X0219717Y0047029D02*
X0214965Y0047029D01*
X0215667Y0047528D02*
X0219027Y0047528D01*
X0220428Y0043041D02*
X0214194Y0043041D01*
X0214466Y0042542D02*
X0220141Y0042542D01*
X0219714Y0042044D02*
X0214881Y0042044D01*
X0215541Y0041545D02*
X0219030Y0041545D01*
X0217270Y0064230D02*
X0216609Y0064290D01*
X0215973Y0064478D01*
X0215385Y0064787D01*
X0214869Y0065204D01*
X0214445Y0065714D01*
X0214127Y0066297D01*
X0213930Y0066930D01*
X0213860Y0067590D01*
X0213840Y0067700D01*
X0213913Y0068377D01*
X0214116Y0069026D01*
X0214442Y0069623D01*
X0214878Y0070145D01*
X0215407Y0070572D01*
X0216010Y0070887D01*
X0216662Y0071079D01*
X0217340Y0071140D01*
X0217310Y0071150D01*
X0217976Y0071090D01*
X0218617Y0070902D01*
X0219210Y0070592D01*
X0219730Y0070172D01*
X0220159Y0069659D01*
X0220479Y0069073D01*
X0220679Y0068435D01*
X0220750Y0067770D01*
X0220760Y0067690D01*
X0220692Y0067017D01*
X0220493Y0066371D01*
X0220173Y0065775D01*
X0219742Y0065254D01*
X0219218Y0064826D01*
X0218621Y0064509D01*
X0217973Y0064315D01*
X0217300Y0064250D01*
X0217270Y0064230D01*
X0218514Y0064477D02*
X0215978Y0064477D01*
X0215152Y0064975D02*
X0219401Y0064975D01*
X0219924Y0065474D02*
X0214644Y0065474D01*
X0214304Y0065972D02*
X0220279Y0065972D01*
X0220524Y0066471D02*
X0214073Y0066471D01*
X0213926Y0066970D02*
X0220677Y0066970D01*
X0220737Y0067468D02*
X0213873Y0067468D01*
X0213869Y0067967D02*
X0220729Y0067967D01*
X0220669Y0068465D02*
X0213940Y0068465D01*
X0214096Y0068964D02*
X0220513Y0068964D01*
X0220266Y0069462D02*
X0214354Y0069462D01*
X0214724Y0069961D02*
X0219907Y0069961D01*
X0219374Y0070459D02*
X0215267Y0070459D01*
X0216249Y0070958D02*
X0218427Y0070958D01*
X0195079Y0068445D02*
X0195150Y0067780D01*
X0195160Y0067700D01*
X0195092Y0067027D01*
X0194893Y0066381D01*
X0194573Y0065785D01*
X0194142Y0065264D01*
X0193618Y0064836D01*
X0193021Y0064519D01*
X0192373Y0064325D01*
X0191700Y0064260D01*
X0191670Y0064240D01*
X0191009Y0064300D01*
X0190373Y0064488D01*
X0189785Y0064797D01*
X0189269Y0065214D01*
X0188845Y0065724D01*
X0188527Y0066307D01*
X0188330Y0066940D01*
X0188260Y0067600D01*
X0188240Y0067710D01*
X0188313Y0068387D01*
X0188516Y0069036D01*
X0188842Y0069633D01*
X0189278Y0070155D01*
X0189807Y0070582D01*
X0190410Y0070897D01*
X0191062Y0071089D01*
X0191740Y0071150D01*
X0191710Y0071160D01*
X0192376Y0071100D01*
X0193017Y0070912D01*
X0193610Y0070602D01*
X0194130Y0070182D01*
X0194559Y0069669D01*
X0194879Y0069082D01*
X0195079Y0068445D01*
X0195072Y0068465D02*
X0188337Y0068465D01*
X0188268Y0067967D02*
X0195130Y0067967D01*
X0195136Y0067468D02*
X0188274Y0067468D01*
X0188327Y0066970D02*
X0195074Y0066970D01*
X0194921Y0066471D02*
X0188476Y0066471D01*
X0188709Y0065972D02*
X0194674Y0065972D01*
X0194316Y0065474D02*
X0189053Y0065474D01*
X0189564Y0064975D02*
X0193789Y0064975D01*
X0192881Y0064477D02*
X0190411Y0064477D01*
X0188493Y0068964D02*
X0194916Y0068964D01*
X0194672Y0069462D02*
X0188748Y0069462D01*
X0189115Y0069961D02*
X0194315Y0069961D01*
X0193786Y0070459D02*
X0189655Y0070459D01*
X0190615Y0070958D02*
X0192861Y0070958D01*
X0161760Y0067680D02*
X0161687Y0067003D01*
X0161484Y0066354D01*
X0161158Y0065757D01*
X0160722Y0065235D01*
X0160193Y0064808D01*
X0159590Y0064493D01*
X0158938Y0064301D01*
X0158260Y0064240D01*
X0158290Y0064230D01*
X0157624Y0064290D01*
X0156983Y0064478D01*
X0156390Y0064788D01*
X0155870Y0065208D01*
X0155441Y0065721D01*
X0155121Y0066307D01*
X0154921Y0066945D01*
X0154850Y0067610D01*
X0154840Y0067690D01*
X0154908Y0068363D01*
X0155107Y0069009D01*
X0155427Y0069605D01*
X0155858Y0070126D01*
X0156382Y0070554D01*
X0156979Y0070871D01*
X0157627Y0071065D01*
X0158300Y0071130D01*
X0158330Y0071150D01*
X0158991Y0071089D01*
X0159627Y0070902D01*
X0160215Y0070593D01*
X0160731Y0070176D01*
X0161155Y0069666D01*
X0161473Y0069083D01*
X0161670Y0068450D01*
X0161740Y0067790D01*
X0161760Y0067680D01*
X0161737Y0067468D02*
X0154865Y0067468D01*
X0154868Y0067967D02*
X0161721Y0067967D01*
X0161665Y0068465D02*
X0154940Y0068465D01*
X0155093Y0068964D02*
X0161510Y0068964D01*
X0161266Y0069462D02*
X0155350Y0069462D01*
X0155721Y0069961D02*
X0160910Y0069961D01*
X0160380Y0070459D02*
X0156266Y0070459D01*
X0157268Y0070958D02*
X0159437Y0070958D01*
X0161677Y0066970D02*
X0154919Y0066970D01*
X0155070Y0066471D02*
X0161521Y0066471D01*
X0161276Y0065972D02*
X0155304Y0065972D01*
X0155647Y0065474D02*
X0160922Y0065474D01*
X0160401Y0064975D02*
X0156158Y0064975D01*
X0156987Y0064477D02*
X0159537Y0064477D01*
X0136067Y0066993D02*
X0135864Y0066344D01*
X0135538Y0065747D01*
X0135102Y0065225D01*
X0134573Y0064798D01*
X0133970Y0064483D01*
X0133318Y0064291D01*
X0132640Y0064230D01*
X0132670Y0064220D01*
X0132004Y0064280D01*
X0131363Y0064468D01*
X0130770Y0064778D01*
X0130250Y0065198D01*
X0129821Y0065711D01*
X0129501Y0066297D01*
X0129301Y0066935D01*
X0129230Y0067600D01*
X0129220Y0067680D01*
X0129288Y0068353D01*
X0129486Y0068999D01*
X0129807Y0069595D01*
X0130238Y0070116D01*
X0130762Y0070544D01*
X0131359Y0070861D01*
X0132007Y0071055D01*
X0132680Y0071120D01*
X0132710Y0071140D01*
X0133371Y0071080D01*
X0134007Y0070892D01*
X0134595Y0070583D01*
X0135111Y0070166D01*
X0135535Y0069656D01*
X0135853Y0069073D01*
X0136050Y0068440D01*
X0136120Y0067780D01*
X0136140Y0067670D01*
X0136067Y0066993D01*
X0136060Y0066970D02*
X0129298Y0066970D01*
X0129244Y0067468D02*
X0136118Y0067468D01*
X0136100Y0067967D02*
X0129249Y0067967D01*
X0129323Y0068465D02*
X0136042Y0068465D01*
X0135887Y0068964D02*
X0129475Y0068964D01*
X0129735Y0069462D02*
X0135641Y0069462D01*
X0135282Y0069961D02*
X0130109Y0069961D01*
X0130658Y0070459D02*
X0134748Y0070459D01*
X0133784Y0070958D02*
X0131681Y0070958D01*
X0129447Y0066471D02*
X0135904Y0066471D01*
X0135661Y0065972D02*
X0129678Y0065972D01*
X0130019Y0065474D02*
X0135310Y0065474D01*
X0134793Y0064975D02*
X0130526Y0064975D01*
X0131346Y0064477D02*
X0133951Y0064477D01*
X0102760Y0067690D02*
X0102692Y0067017D01*
X0102493Y0066371D01*
X0102173Y0065775D01*
X0101742Y0065254D01*
X0101218Y0064826D01*
X0100621Y0064509D01*
X0099973Y0064315D01*
X0099300Y0064250D01*
X0099270Y0064230D01*
X0098609Y0064290D01*
X0097973Y0064478D01*
X0097385Y0064787D01*
X0096869Y0065204D01*
X0096445Y0065714D01*
X0096127Y0066297D01*
X0095930Y0066930D01*
X0095860Y0067590D01*
X0095840Y0067700D01*
X0095913Y0068377D01*
X0096116Y0069026D01*
X0096442Y0069623D01*
X0096878Y0070145D01*
X0097407Y0070572D01*
X0098010Y0070887D01*
X0098662Y0071079D01*
X0099340Y0071140D01*
X0099310Y0071150D01*
X0099976Y0071090D01*
X0100617Y0070902D01*
X0101210Y0070592D01*
X0101730Y0070172D01*
X0102159Y0069659D01*
X0102479Y0069073D01*
X0102679Y0068435D01*
X0102750Y0067770D01*
X0102760Y0067690D01*
X0102737Y0067468D02*
X0095873Y0067468D01*
X0095869Y0067967D02*
X0102729Y0067967D01*
X0102669Y0068465D02*
X0095940Y0068465D01*
X0096096Y0068964D02*
X0102513Y0068964D01*
X0102266Y0069462D02*
X0096354Y0069462D01*
X0096724Y0069961D02*
X0101907Y0069961D01*
X0101374Y0070459D02*
X0097267Y0070459D01*
X0098249Y0070958D02*
X0100427Y0070958D01*
X0102677Y0066970D02*
X0095926Y0066970D01*
X0096073Y0066471D02*
X0102524Y0066471D01*
X0102279Y0065972D02*
X0096304Y0065972D01*
X0096644Y0065474D02*
X0101924Y0065474D01*
X0101401Y0064975D02*
X0097152Y0064975D01*
X0097978Y0064477D02*
X0100514Y0064477D01*
X0077092Y0067027D02*
X0077160Y0067700D01*
X0077150Y0067780D01*
X0077079Y0068445D01*
X0076879Y0069082D01*
X0076559Y0069669D01*
X0076130Y0070182D01*
X0075610Y0070602D01*
X0075017Y0070912D01*
X0074376Y0071100D01*
X0073710Y0071160D01*
X0073740Y0071150D01*
X0073062Y0071089D01*
X0072410Y0070897D01*
X0071807Y0070582D01*
X0071278Y0070155D01*
X0070842Y0069633D01*
X0070516Y0069036D01*
X0070313Y0068387D01*
X0070240Y0067710D01*
X0070260Y0067600D01*
X0070330Y0066940D01*
X0070527Y0066307D01*
X0070845Y0065724D01*
X0071269Y0065214D01*
X0071785Y0064797D01*
X0072373Y0064488D01*
X0073009Y0064300D01*
X0073670Y0064240D01*
X0073700Y0064260D01*
X0074373Y0064325D01*
X0075021Y0064519D01*
X0075618Y0064836D01*
X0076142Y0065264D01*
X0076573Y0065785D01*
X0076893Y0066381D01*
X0077092Y0067027D01*
X0077074Y0066970D02*
X0070327Y0066970D01*
X0070274Y0067468D02*
X0077136Y0067468D01*
X0077130Y0067967D02*
X0070268Y0067967D01*
X0070337Y0068465D02*
X0077072Y0068465D01*
X0076916Y0068964D02*
X0070493Y0068964D01*
X0070748Y0069462D02*
X0076672Y0069462D01*
X0076315Y0069961D02*
X0071115Y0069961D01*
X0071655Y0070459D02*
X0075786Y0070459D01*
X0074861Y0070958D02*
X0072615Y0070958D01*
X0070476Y0066471D02*
X0076921Y0066471D01*
X0076674Y0065972D02*
X0070709Y0065972D01*
X0071053Y0065474D02*
X0076316Y0065474D01*
X0075789Y0064975D02*
X0071564Y0064975D01*
X0072411Y0064477D02*
X0074881Y0064477D01*
X0043760Y0067690D02*
X0043692Y0067017D01*
X0043493Y0066371D01*
X0043173Y0065775D01*
X0042742Y0065254D01*
X0042218Y0064826D01*
X0041621Y0064509D01*
X0040973Y0064315D01*
X0040300Y0064250D01*
X0040270Y0064230D01*
X0039609Y0064290D01*
X0038973Y0064478D01*
X0038385Y0064787D01*
X0037869Y0065204D01*
X0037445Y0065714D01*
X0037127Y0066297D01*
X0036930Y0066930D01*
X0036860Y0067590D01*
X0036840Y0067700D01*
X0036913Y0068377D01*
X0037116Y0069026D01*
X0037442Y0069623D01*
X0037878Y0070145D01*
X0038407Y0070572D01*
X0039010Y0070887D01*
X0039662Y0071079D01*
X0040340Y0071140D01*
X0040310Y0071150D01*
X0040976Y0071090D01*
X0041617Y0070902D01*
X0042210Y0070592D01*
X0042730Y0070172D01*
X0043159Y0069659D01*
X0043479Y0069073D01*
X0043679Y0068435D01*
X0043750Y0067770D01*
X0043760Y0067690D01*
X0043737Y0067468D02*
X0036873Y0067468D01*
X0036869Y0067967D02*
X0043729Y0067967D01*
X0043669Y0068465D02*
X0036940Y0068465D01*
X0037096Y0068964D02*
X0043513Y0068964D01*
X0043266Y0069462D02*
X0037354Y0069462D01*
X0037724Y0069961D02*
X0042907Y0069961D01*
X0042374Y0070459D02*
X0038267Y0070459D01*
X0039249Y0070958D02*
X0041427Y0070958D01*
X0043677Y0066970D02*
X0036926Y0066970D01*
X0037073Y0066471D02*
X0043524Y0066471D01*
X0043279Y0065972D02*
X0037304Y0065972D01*
X0037644Y0065474D02*
X0042924Y0065474D01*
X0042401Y0064975D02*
X0038152Y0064975D01*
X0038978Y0064477D02*
X0041514Y0064477D01*
X0018092Y0067027D02*
X0017893Y0066381D01*
X0017573Y0065785D01*
X0017142Y0065264D01*
X0016618Y0064836D01*
X0016021Y0064519D01*
X0015373Y0064325D01*
X0014700Y0064260D01*
X0014670Y0064240D01*
X0014009Y0064300D01*
X0013373Y0064488D01*
X0012785Y0064797D01*
X0012269Y0065214D01*
X0011845Y0065724D01*
X0011527Y0066307D01*
X0011330Y0066940D01*
X0011260Y0067600D01*
X0011240Y0067710D01*
X0011313Y0068387D01*
X0011516Y0069036D01*
X0011842Y0069633D01*
X0012278Y0070155D01*
X0012807Y0070582D01*
X0013410Y0070897D01*
X0014062Y0071089D01*
X0014740Y0071150D01*
X0014710Y0071160D01*
X0015376Y0071100D01*
X0016017Y0070912D01*
X0016610Y0070602D01*
X0017130Y0070182D01*
X0017559Y0069669D01*
X0017879Y0069082D01*
X0018079Y0068445D01*
X0018150Y0067780D01*
X0018160Y0067700D01*
X0018092Y0067027D01*
X0018074Y0066970D02*
X0011327Y0066970D01*
X0011274Y0067468D02*
X0018136Y0067468D01*
X0018130Y0067967D02*
X0011268Y0067967D01*
X0011337Y0068465D02*
X0018072Y0068465D01*
X0017916Y0068964D02*
X0011493Y0068964D01*
X0011748Y0069462D02*
X0017672Y0069462D01*
X0017315Y0069961D02*
X0012115Y0069961D01*
X0012655Y0070459D02*
X0016786Y0070459D01*
X0015861Y0070958D02*
X0013615Y0070958D01*
X0011476Y0066471D02*
X0017921Y0066471D01*
X0017674Y0065972D02*
X0011709Y0065972D01*
X0012053Y0065474D02*
X0017316Y0065474D01*
X0016789Y0064975D02*
X0012564Y0064975D01*
X0013411Y0064477D02*
X0015881Y0064477D01*
X0014670Y0082050D02*
X0014009Y0082111D01*
X0013373Y0082298D01*
X0012785Y0082607D01*
X0012269Y0083024D01*
X0011845Y0083534D01*
X0011527Y0084117D01*
X0011330Y0084750D01*
X0011260Y0085410D01*
X0011240Y0085520D01*
X0011313Y0086197D01*
X0011516Y0086846D01*
X0011842Y0087443D01*
X0012278Y0087965D01*
X0012807Y0088392D01*
X0013410Y0088707D01*
X0014062Y0088899D01*
X0014740Y0088960D01*
X0014710Y0088970D01*
X0015376Y0088910D01*
X0016017Y0088722D01*
X0016610Y0088412D01*
X0017130Y0087992D01*
X0017559Y0087479D01*
X0017879Y0086893D01*
X0018079Y0086255D01*
X0018150Y0085590D01*
X0018160Y0085510D01*
X0018092Y0084837D01*
X0017893Y0084191D01*
X0017573Y0083595D01*
X0017142Y0083074D01*
X0016618Y0082646D01*
X0016021Y0082329D01*
X0015373Y0082135D01*
X0014700Y0082070D01*
X0014670Y0082050D01*
X0016198Y0082423D02*
X0013135Y0082423D01*
X0012396Y0082922D02*
X0016956Y0082922D01*
X0017429Y0083420D02*
X0011939Y0083420D01*
X0011635Y0083919D02*
X0017747Y0083919D01*
X0017963Y0084417D02*
X0011434Y0084417D01*
X0011313Y0084916D02*
X0018100Y0084916D01*
X0018150Y0085414D02*
X0011259Y0085414D01*
X0011282Y0085913D02*
X0018115Y0085913D01*
X0018030Y0086411D02*
X0011380Y0086411D01*
X0011551Y0086910D02*
X0017869Y0086910D01*
X0017597Y0087408D02*
X0011823Y0087408D01*
X0012229Y0087907D02*
X0017201Y0087907D01*
X0016618Y0088405D02*
X0012833Y0088405D01*
X0014114Y0088904D02*
X0015398Y0088904D01*
X0036933Y0086207D02*
X0036860Y0085530D01*
X0036880Y0085420D01*
X0036950Y0084760D01*
X0037147Y0084127D01*
X0037465Y0083544D01*
X0037889Y0083034D01*
X0038405Y0082617D01*
X0038993Y0082308D01*
X0039629Y0082120D01*
X0040290Y0082060D01*
X0040320Y0082080D01*
X0040993Y0082145D01*
X0041641Y0082339D01*
X0042238Y0082656D01*
X0042762Y0083084D01*
X0043193Y0083605D01*
X0043514Y0084201D01*
X0043712Y0084847D01*
X0043780Y0085520D01*
X0043770Y0085600D01*
X0043699Y0086265D01*
X0043499Y0086903D01*
X0043179Y0087489D01*
X0042750Y0088002D01*
X0042230Y0088422D01*
X0041637Y0088732D01*
X0040996Y0088920D01*
X0040330Y0088980D01*
X0040360Y0088970D01*
X0039682Y0088909D01*
X0039030Y0088717D01*
X0038427Y0088402D01*
X0037898Y0087975D01*
X0037462Y0087453D01*
X0037136Y0086856D01*
X0036933Y0086207D01*
X0036997Y0086411D02*
X0043653Y0086411D01*
X0043736Y0085913D02*
X0036901Y0085913D01*
X0036881Y0085414D02*
X0043769Y0085414D01*
X0043719Y0084916D02*
X0036934Y0084916D01*
X0037057Y0084417D02*
X0043580Y0084417D01*
X0043362Y0083919D02*
X0037261Y0083919D01*
X0037567Y0083420D02*
X0043041Y0083420D01*
X0042564Y0082922D02*
X0038028Y0082922D01*
X0038774Y0082423D02*
X0041800Y0082423D01*
X0043495Y0086910D02*
X0037165Y0086910D01*
X0037438Y0087408D02*
X0043223Y0087408D01*
X0042830Y0087907D02*
X0037841Y0087907D01*
X0038434Y0088405D02*
X0042250Y0088405D01*
X0041051Y0088904D02*
X0039665Y0088904D01*
X0070240Y0085520D02*
X0070313Y0086197D01*
X0070516Y0086846D01*
X0070842Y0087443D01*
X0071278Y0087965D01*
X0071807Y0088392D01*
X0072410Y0088707D01*
X0073062Y0088899D01*
X0073740Y0088960D01*
X0073710Y0088970D01*
X0074376Y0088910D01*
X0075017Y0088722D01*
X0075610Y0088412D01*
X0076130Y0087992D01*
X0076559Y0087479D01*
X0076879Y0086893D01*
X0077079Y0086255D01*
X0077150Y0085590D01*
X0077160Y0085510D01*
X0077092Y0084837D01*
X0076893Y0084191D01*
X0076573Y0083595D01*
X0076142Y0083074D01*
X0075618Y0082646D01*
X0075021Y0082329D01*
X0074373Y0082135D01*
X0073700Y0082070D01*
X0073670Y0082050D01*
X0073009Y0082111D01*
X0072373Y0082298D01*
X0071785Y0082607D01*
X0071269Y0083024D01*
X0070845Y0083534D01*
X0070527Y0084117D01*
X0070330Y0084750D01*
X0070260Y0085410D01*
X0070240Y0085520D01*
X0070259Y0085414D02*
X0077150Y0085414D01*
X0077115Y0085913D02*
X0070282Y0085913D01*
X0070380Y0086411D02*
X0077030Y0086411D01*
X0076869Y0086910D02*
X0070551Y0086910D01*
X0070823Y0087408D02*
X0076597Y0087408D01*
X0076201Y0087907D02*
X0071229Y0087907D01*
X0071833Y0088405D02*
X0075618Y0088405D01*
X0074398Y0088904D02*
X0073114Y0088904D01*
X0070313Y0084916D02*
X0077100Y0084916D01*
X0076963Y0084417D02*
X0070434Y0084417D01*
X0070635Y0083919D02*
X0076747Y0083919D01*
X0076429Y0083420D02*
X0070939Y0083420D01*
X0071396Y0082922D02*
X0075956Y0082922D01*
X0075198Y0082423D02*
X0072135Y0082423D01*
X0095860Y0085530D02*
X0095933Y0086207D01*
X0096136Y0086856D01*
X0096462Y0087453D01*
X0096898Y0087975D01*
X0097427Y0088402D01*
X0098030Y0088717D01*
X0098682Y0088909D01*
X0099360Y0088970D01*
X0099330Y0088980D01*
X0099996Y0088920D01*
X0100637Y0088732D01*
X0101230Y0088422D01*
X0101750Y0088002D01*
X0102179Y0087489D01*
X0102499Y0086903D01*
X0102699Y0086265D01*
X0102770Y0085600D01*
X0102780Y0085520D01*
X0102712Y0084847D01*
X0102514Y0084201D01*
X0102193Y0083605D01*
X0101762Y0083084D01*
X0101238Y0082656D01*
X0100641Y0082339D01*
X0099993Y0082145D01*
X0099320Y0082080D01*
X0099290Y0082060D01*
X0098629Y0082120D01*
X0097993Y0082308D01*
X0097405Y0082617D01*
X0096889Y0083034D01*
X0096465Y0083544D01*
X0096147Y0084127D01*
X0095950Y0084760D01*
X0095880Y0085420D01*
X0095860Y0085530D01*
X0095881Y0085414D02*
X0102769Y0085414D01*
X0102736Y0085913D02*
X0095901Y0085913D01*
X0095997Y0086411D02*
X0102653Y0086411D01*
X0102495Y0086910D02*
X0096165Y0086910D01*
X0096438Y0087408D02*
X0102223Y0087408D01*
X0101830Y0087907D02*
X0096841Y0087907D01*
X0097434Y0088405D02*
X0101250Y0088405D01*
X0100051Y0088904D02*
X0098665Y0088904D01*
X0095934Y0084916D02*
X0102719Y0084916D01*
X0102580Y0084417D02*
X0096057Y0084417D01*
X0096261Y0083919D02*
X0102362Y0083919D01*
X0102041Y0083420D02*
X0096567Y0083420D01*
X0097028Y0082922D02*
X0101564Y0082922D01*
X0100800Y0082423D02*
X0097774Y0082423D01*
X0129240Y0085510D02*
X0129308Y0086183D01*
X0129507Y0086829D01*
X0129827Y0087425D01*
X0130258Y0087946D01*
X0130782Y0088374D01*
X0131379Y0088691D01*
X0132027Y0088885D01*
X0132700Y0088950D01*
X0132730Y0088970D01*
X0133391Y0088910D01*
X0134027Y0088722D01*
X0134615Y0088413D01*
X0135131Y0087996D01*
X0135555Y0087486D01*
X0135873Y0086903D01*
X0136070Y0086270D01*
X0136140Y0085610D01*
X0136160Y0085500D01*
X0136087Y0084823D01*
X0135884Y0084174D01*
X0135558Y0083577D01*
X0135122Y0083055D01*
X0134593Y0082628D01*
X0133990Y0082313D01*
X0133338Y0082121D01*
X0132660Y0082060D01*
X0132690Y0082050D01*
X0132024Y0082110D01*
X0131383Y0082298D01*
X0130790Y0082608D01*
X0130270Y0083028D01*
X0129841Y0083541D01*
X0129521Y0084127D01*
X0129321Y0084765D01*
X0129250Y0085430D01*
X0129240Y0085510D01*
X0129252Y0085414D02*
X0136151Y0085414D01*
X0136108Y0085913D02*
X0129281Y0085913D01*
X0129378Y0086411D02*
X0136026Y0086411D01*
X0135869Y0086910D02*
X0129550Y0086910D01*
X0129818Y0087408D02*
X0135598Y0087408D01*
X0135205Y0087907D02*
X0130225Y0087907D01*
X0130841Y0088405D02*
X0134624Y0088405D01*
X0133410Y0088904D02*
X0132223Y0088904D01*
X0129305Y0084916D02*
X0136097Y0084916D01*
X0135960Y0084417D02*
X0129430Y0084417D01*
X0129635Y0083919D02*
X0135745Y0083919D01*
X0135427Y0083420D02*
X0129942Y0083420D01*
X0130401Y0082922D02*
X0134957Y0082922D01*
X0134202Y0082423D02*
X0131144Y0082423D01*
X0154904Y0084916D02*
X0161698Y0084916D01*
X0161687Y0084813D02*
X0161484Y0084164D01*
X0161158Y0083567D01*
X0160722Y0083045D01*
X0160193Y0082618D01*
X0159590Y0082303D01*
X0158938Y0082111D01*
X0158260Y0082050D01*
X0158290Y0082040D01*
X0157624Y0082100D01*
X0156983Y0082288D01*
X0156390Y0082598D01*
X0155870Y0083018D01*
X0155441Y0083531D01*
X0155121Y0084118D01*
X0154921Y0084755D01*
X0154850Y0085420D01*
X0154840Y0085500D01*
X0154908Y0086173D01*
X0155107Y0086819D01*
X0155427Y0087415D01*
X0155858Y0087936D01*
X0156382Y0088364D01*
X0156979Y0088681D01*
X0157627Y0088875D01*
X0158300Y0088940D01*
X0158330Y0088960D01*
X0158991Y0088900D01*
X0159627Y0088712D01*
X0160215Y0088403D01*
X0160731Y0087986D01*
X0161155Y0087476D01*
X0161473Y0086893D01*
X0161670Y0086260D01*
X0161740Y0085600D01*
X0161760Y0085490D01*
X0161687Y0084813D01*
X0161563Y0084417D02*
X0155027Y0084417D01*
X0155230Y0083919D02*
X0161350Y0083919D01*
X0161036Y0083420D02*
X0155534Y0083420D01*
X0155989Y0082922D02*
X0160569Y0082922D01*
X0159821Y0082423D02*
X0156725Y0082423D01*
X0154851Y0085414D02*
X0161752Y0085414D01*
X0161707Y0085913D02*
X0154882Y0085913D01*
X0154981Y0086411D02*
X0161623Y0086411D01*
X0161464Y0086910D02*
X0155155Y0086910D01*
X0155424Y0087408D02*
X0161192Y0087408D01*
X0160797Y0087907D02*
X0155833Y0087907D01*
X0156460Y0088405D02*
X0160211Y0088405D01*
X0158944Y0088904D02*
X0157926Y0088904D01*
X0188240Y0085520D02*
X0188313Y0086197D01*
X0188516Y0086846D01*
X0188842Y0087443D01*
X0189278Y0087965D01*
X0189807Y0088392D01*
X0190410Y0088707D01*
X0191062Y0088899D01*
X0191740Y0088960D01*
X0191710Y0088970D01*
X0192376Y0088910D01*
X0193017Y0088722D01*
X0193610Y0088412D01*
X0194130Y0087992D01*
X0194559Y0087479D01*
X0194879Y0086893D01*
X0195079Y0086255D01*
X0195150Y0085590D01*
X0195160Y0085510D01*
X0195092Y0084837D01*
X0194893Y0084191D01*
X0194573Y0083595D01*
X0194142Y0083074D01*
X0193618Y0082646D01*
X0193021Y0082329D01*
X0192373Y0082135D01*
X0191700Y0082070D01*
X0191670Y0082050D01*
X0191009Y0082111D01*
X0190373Y0082298D01*
X0189785Y0082607D01*
X0189269Y0083024D01*
X0188845Y0083534D01*
X0188527Y0084117D01*
X0188330Y0084750D01*
X0188260Y0085410D01*
X0188240Y0085520D01*
X0188259Y0085414D02*
X0195150Y0085414D01*
X0195115Y0085913D02*
X0188282Y0085913D01*
X0188380Y0086411D02*
X0195030Y0086411D01*
X0194869Y0086910D02*
X0188551Y0086910D01*
X0188823Y0087408D02*
X0194597Y0087408D01*
X0194201Y0087907D02*
X0189229Y0087907D01*
X0189833Y0088405D02*
X0193618Y0088405D01*
X0192398Y0088904D02*
X0191114Y0088904D01*
X0188313Y0084916D02*
X0195100Y0084916D01*
X0194963Y0084417D02*
X0188434Y0084417D01*
X0188635Y0083919D02*
X0194747Y0083919D01*
X0194429Y0083420D02*
X0188939Y0083420D01*
X0189396Y0082922D02*
X0193956Y0082922D01*
X0193198Y0082423D02*
X0190135Y0082423D01*
X0213860Y0085530D02*
X0213933Y0086207D01*
X0214136Y0086856D01*
X0214462Y0087453D01*
X0214898Y0087975D01*
X0215427Y0088402D01*
X0216030Y0088717D01*
X0216682Y0088909D01*
X0217360Y0088970D01*
X0217330Y0088980D01*
X0217996Y0088920D01*
X0218637Y0088732D01*
X0219230Y0088422D01*
X0219750Y0088002D01*
X0220179Y0087489D01*
X0220499Y0086903D01*
X0220699Y0086265D01*
X0220770Y0085600D01*
X0220780Y0085520D01*
X0220712Y0084847D01*
X0220514Y0084201D01*
X0220193Y0083605D01*
X0219762Y0083084D01*
X0219238Y0082656D01*
X0218641Y0082339D01*
X0217993Y0082145D01*
X0217320Y0082080D01*
X0217290Y0082060D01*
X0216629Y0082120D01*
X0215993Y0082308D01*
X0215405Y0082617D01*
X0214889Y0083034D01*
X0214465Y0083544D01*
X0214147Y0084127D01*
X0213950Y0084760D01*
X0213880Y0085420D01*
X0213860Y0085530D01*
X0213881Y0085414D02*
X0220769Y0085414D01*
X0220736Y0085913D02*
X0213901Y0085913D01*
X0213997Y0086411D02*
X0220653Y0086411D01*
X0220495Y0086910D02*
X0214165Y0086910D01*
X0214438Y0087408D02*
X0220223Y0087408D01*
X0219830Y0087907D02*
X0214841Y0087907D01*
X0215434Y0088405D02*
X0219250Y0088405D01*
X0218051Y0088904D02*
X0216665Y0088904D01*
X0213934Y0084916D02*
X0220719Y0084916D01*
X0220580Y0084417D02*
X0214057Y0084417D01*
X0214261Y0083919D02*
X0220362Y0083919D01*
X0220041Y0083420D02*
X0214567Y0083420D01*
X0215028Y0082922D02*
X0219564Y0082922D01*
X0218800Y0082423D02*
X0215774Y0082423D01*
D25*
X0537000Y0080698D03*
X0537000Y0105502D03*
D26*
X0284400Y0085700D03*
X0284400Y0083700D03*
X0284400Y0081700D03*
X0284400Y0079800D03*
X0284400Y0077800D03*
X0284400Y0075800D03*
X0284400Y0073900D03*
X0284400Y0071900D03*
X0284400Y0069900D03*
X0284400Y0067900D03*
X0284400Y0066000D03*
X0284400Y0064000D03*
X0284400Y0062000D03*
X0284400Y0060100D03*
X0284400Y0058100D03*
X0284400Y0056100D03*
X0239200Y0056100D03*
X0239200Y0058100D03*
X0239200Y0060100D03*
X0239200Y0062000D03*
X0239200Y0064000D03*
X0239200Y0066000D03*
X0239200Y0067900D03*
X0239200Y0069900D03*
X0239200Y0071900D03*
X0239200Y0073900D03*
X0239200Y0075800D03*
X0239200Y0077800D03*
X0239200Y0079800D03*
X0239200Y0081700D03*
X0239200Y0083700D03*
X0239200Y0085700D03*
D27*
X0247000Y0093500D03*
X0249000Y0093500D03*
X0251000Y0093500D03*
X0252900Y0093500D03*
X0254900Y0093500D03*
X0256900Y0093500D03*
X0258800Y0093500D03*
X0260800Y0093500D03*
X0262800Y0093500D03*
X0264800Y0093500D03*
X0266700Y0093500D03*
X0268700Y0093500D03*
X0270700Y0093500D03*
X0272600Y0093500D03*
X0274600Y0093500D03*
X0276600Y0093500D03*
X0276600Y0048300D03*
X0274600Y0048300D03*
X0272600Y0048300D03*
X0270700Y0048300D03*
X0268700Y0048300D03*
X0266700Y0048300D03*
X0264800Y0048300D03*
X0262800Y0048300D03*
X0260800Y0048300D03*
X0258800Y0048300D03*
X0256900Y0048300D03*
X0254900Y0048300D03*
X0252900Y0048300D03*
X0251000Y0048300D03*
X0249000Y0048300D03*
X0247000Y0048300D03*
D28*
X0321200Y0056400D03*
X0326200Y0056400D03*
X0331200Y0056400D03*
X0336200Y0056400D03*
X0336200Y0077000D03*
X0331200Y0077000D03*
X0326200Y0077000D03*
X0321200Y0077000D03*
D29*
X0350430Y0075069D03*
X0350430Y0082943D03*
X0350430Y0090817D03*
X0350430Y0098691D03*
X0401611Y0098691D03*
X0401611Y0090817D03*
X0401611Y0082943D03*
X0401611Y0075069D03*
X0401611Y0067194D03*
X0350430Y0067194D03*
D30*
X0475300Y0015900D02*
X0475300Y0010300D01*
X0485300Y0010300D02*
X0485300Y0015900D01*
X0496700Y0015900D02*
X0496700Y0010300D01*
X0506700Y0010300D02*
X0506700Y0015900D01*
M02*
