%
M48
M72
T01C0.02000
T02C0.02362
T03C0.03600
T04C0.03900
T05C0.04000
T06C0.05200
T07C0.09850
%
T01
X513300Y25100
X463700Y29900
X403700Y29100
X386100Y41100
X401300Y46700
X406900Y46700
X414100Y53100
X435700Y61100
X438900Y64300
X479700Y59500
X470100Y49900
X383700Y59500
X359700Y65900
X359700Y69900
X376500Y72300
X345300Y62700
X324500Y63500
X320500Y63500
X308500Y63500
X302100Y60300
X295700Y57800
X290100Y64300
X266100Y72300
X262100Y72300
X262100Y76300
X257800Y67500
X226100Y65100
X207700Y61900
X217300Y52300
X243700Y42700
X260700Y33900
X272500Y33900
X284500Y26700
X304500Y33900
X325300Y34700
X355700Y26700
X323700Y23500
X272500Y11500
X330900Y46700
X363700Y51500
X293300Y73100
X250100Y84300
X242900Y91500
X210900Y86700
X214900Y74700
X302100Y93900
X296500Y99500
X300500Y102700
X281600Y102600
X274900Y105900
X267700Y109100
X242100Y109100
X194100Y125900
X123700Y101100
X322800Y115300
X325300Y127500
X371700Y107500
X333300Y97100
X430100Y109900
X456500Y100300
X479700Y100300
X467700Y88300
X467700Y81900
X437300Y77100
X112500Y49100
X87700Y37100
T02
X524281Y35800
X291294Y59681
X277200Y65600
X255100Y60600
X246700Y63300
X255700Y54419
X281700Y47400
X276200Y23100
X251400Y23700
X272535Y7319
X204300Y94100
X247341Y103759
X271100Y102700
X284500Y109400
X335100Y122800
X382500Y126800
X342100Y108700
X349600Y103500
X382800Y107000
T03
X506700Y13100
X496700Y13100
X485300Y13100
X475300Y13100
T04
X62000Y40100
X52000Y40100
X57000Y30100
T05
X541000Y13100
X531000Y13100
X521000Y13100
X454500Y13100
X444500Y13100
X434500Y13100
X424500Y13100
X414500Y13100
X404500Y13100
X394500Y13100
X350900Y12800
X330500Y13600
X320500Y13600
X310500Y13600
X300500Y13600
X290500Y13600
X280500Y13600
X266000Y14100
X256000Y14100
X246000Y14100
X236000Y14100
X226000Y14100
X216000Y14100
X206000Y14100
X196000Y14100
X191700Y26700
X217300Y26700
X158300Y27700
X132700Y27700
X99300Y27700
X73700Y27700
X40300Y27700
X14700Y27700
X14700Y45500
X40300Y45500
X73700Y45500
X99300Y45500
X132700Y45500
X158300Y45500
X191700Y44500
X217300Y44500
X217300Y67700
X191700Y67700
X158300Y67700
X132700Y67700
X99300Y67700
X73700Y67700
X40300Y67700
X14700Y67700
X17500Y54600
X29500Y54600
X53000Y83600
X40300Y85500
X14700Y85500
X53000Y93600
X27500Y99200
X15000Y99100
X53000Y103600
X53000Y113600
X53000Y123600
X73700Y85500
X99300Y85500
X132700Y85500
X158300Y85500
X191700Y85500
X217300Y85500
X300700Y122900
X310700Y122900
X366500Y119100
X376500Y119100
X386500Y119100
X396500Y119100
X406500Y119100
X416500Y119100
X426500Y119100
X436500Y119100
X446500Y119100
X456500Y119100
X466500Y119100
X476500Y119100
X486500Y119100
X496500Y119100
X506500Y119100
X516500Y119100
T06
X347400Y119300
X285600Y124000
X270500Y124100
X260500Y124100
X250500Y124100
X117500Y125100
T07
X540400Y119000
X236900Y119100
M30
