G75*
%MOIN*%
%OFA0B0*%
%FSLAX25Y25*%
%IPPOS*%
%LPD*%
%AMOC8*
5,1,8,0,0,1.08239X$1,22.5*
%
%ADD10C,0.00039*%
%ADD11C,0.00000*%
%ADD12C,0.00200*%
%ADD13C,0.00600*%
%ADD14C,0.01200*%
%ADD15C,0.00800*%
%ADD16C,0.01000*%
%ADD17C,0.00400*%
D10*
X0001846Y0002245D02*
X0549091Y0002245D01*
X0549091Y0132742D01*
X0549591Y0132742D01*
X0549091Y0132742D02*
X0001846Y0132742D01*
X0001846Y0002245D01*
X0535509Y0119035D02*
X0535511Y0119175D01*
X0535517Y0119315D01*
X0535527Y0119454D01*
X0535541Y0119593D01*
X0535559Y0119732D01*
X0535580Y0119870D01*
X0535606Y0120008D01*
X0535636Y0120145D01*
X0535669Y0120280D01*
X0535707Y0120415D01*
X0535748Y0120549D01*
X0535793Y0120682D01*
X0535841Y0120813D01*
X0535894Y0120942D01*
X0535950Y0121071D01*
X0536009Y0121197D01*
X0536073Y0121322D01*
X0536139Y0121445D01*
X0536210Y0121566D01*
X0536283Y0121685D01*
X0536360Y0121802D01*
X0536441Y0121916D01*
X0536524Y0122028D01*
X0536611Y0122138D01*
X0536701Y0122246D01*
X0536793Y0122350D01*
X0536889Y0122452D01*
X0536988Y0122552D01*
X0537089Y0122648D01*
X0537193Y0122742D01*
X0537300Y0122832D01*
X0537409Y0122919D01*
X0537521Y0123004D01*
X0537635Y0123085D01*
X0537751Y0123163D01*
X0537869Y0123237D01*
X0537990Y0123308D01*
X0538112Y0123376D01*
X0538237Y0123440D01*
X0538363Y0123501D01*
X0538490Y0123558D01*
X0538620Y0123611D01*
X0538751Y0123661D01*
X0538883Y0123706D01*
X0539016Y0123749D01*
X0539151Y0123787D01*
X0539286Y0123821D01*
X0539423Y0123852D01*
X0539560Y0123879D01*
X0539698Y0123901D01*
X0539837Y0123920D01*
X0539976Y0123935D01*
X0540115Y0123946D01*
X0540255Y0123953D01*
X0540395Y0123956D01*
X0540535Y0123955D01*
X0540675Y0123950D01*
X0540814Y0123941D01*
X0540954Y0123928D01*
X0541093Y0123911D01*
X0541231Y0123890D01*
X0541369Y0123866D01*
X0541506Y0123837D01*
X0541642Y0123805D01*
X0541777Y0123768D01*
X0541911Y0123728D01*
X0542044Y0123684D01*
X0542175Y0123636D01*
X0542305Y0123585D01*
X0542434Y0123530D01*
X0542561Y0123471D01*
X0542686Y0123408D01*
X0542809Y0123343D01*
X0542931Y0123273D01*
X0543050Y0123200D01*
X0543168Y0123124D01*
X0543283Y0123045D01*
X0543396Y0122962D01*
X0543506Y0122876D01*
X0543614Y0122787D01*
X0543719Y0122695D01*
X0543822Y0122600D01*
X0543922Y0122502D01*
X0544019Y0122402D01*
X0544113Y0122298D01*
X0544205Y0122192D01*
X0544293Y0122084D01*
X0544378Y0121973D01*
X0544460Y0121859D01*
X0544539Y0121743D01*
X0544614Y0121626D01*
X0544686Y0121506D01*
X0544754Y0121384D01*
X0544819Y0121260D01*
X0544881Y0121134D01*
X0544939Y0121007D01*
X0544993Y0120878D01*
X0545044Y0120747D01*
X0545090Y0120615D01*
X0545133Y0120482D01*
X0545173Y0120348D01*
X0545208Y0120213D01*
X0545240Y0120076D01*
X0545267Y0119939D01*
X0545291Y0119801D01*
X0545311Y0119663D01*
X0545327Y0119524D01*
X0545339Y0119384D01*
X0545347Y0119245D01*
X0545351Y0119105D01*
X0545351Y0118965D01*
X0545347Y0118825D01*
X0545339Y0118686D01*
X0545327Y0118546D01*
X0545311Y0118407D01*
X0545291Y0118269D01*
X0545267Y0118131D01*
X0545240Y0117994D01*
X0545208Y0117857D01*
X0545173Y0117722D01*
X0545133Y0117588D01*
X0545090Y0117455D01*
X0545044Y0117323D01*
X0544993Y0117192D01*
X0544939Y0117063D01*
X0544881Y0116936D01*
X0544819Y0116810D01*
X0544754Y0116686D01*
X0544686Y0116564D01*
X0544614Y0116444D01*
X0544539Y0116327D01*
X0544460Y0116211D01*
X0544378Y0116097D01*
X0544293Y0115986D01*
X0544205Y0115878D01*
X0544113Y0115772D01*
X0544019Y0115668D01*
X0543922Y0115568D01*
X0543822Y0115470D01*
X0543719Y0115375D01*
X0543614Y0115283D01*
X0543506Y0115194D01*
X0543396Y0115108D01*
X0543283Y0115025D01*
X0543168Y0114946D01*
X0543050Y0114870D01*
X0542931Y0114797D01*
X0542809Y0114727D01*
X0542686Y0114662D01*
X0542561Y0114599D01*
X0542434Y0114540D01*
X0542305Y0114485D01*
X0542175Y0114434D01*
X0542044Y0114386D01*
X0541911Y0114342D01*
X0541777Y0114302D01*
X0541642Y0114265D01*
X0541506Y0114233D01*
X0541369Y0114204D01*
X0541231Y0114180D01*
X0541093Y0114159D01*
X0540954Y0114142D01*
X0540814Y0114129D01*
X0540675Y0114120D01*
X0540535Y0114115D01*
X0540395Y0114114D01*
X0540255Y0114117D01*
X0540115Y0114124D01*
X0539976Y0114135D01*
X0539837Y0114150D01*
X0539698Y0114169D01*
X0539560Y0114191D01*
X0539423Y0114218D01*
X0539286Y0114249D01*
X0539151Y0114283D01*
X0539016Y0114321D01*
X0538883Y0114364D01*
X0538751Y0114409D01*
X0538620Y0114459D01*
X0538490Y0114512D01*
X0538363Y0114569D01*
X0538237Y0114630D01*
X0538112Y0114694D01*
X0537990Y0114762D01*
X0537869Y0114833D01*
X0537751Y0114907D01*
X0537635Y0114985D01*
X0537521Y0115066D01*
X0537409Y0115151D01*
X0537300Y0115238D01*
X0537193Y0115328D01*
X0537089Y0115422D01*
X0536988Y0115518D01*
X0536889Y0115618D01*
X0536793Y0115720D01*
X0536701Y0115824D01*
X0536611Y0115932D01*
X0536524Y0116042D01*
X0536441Y0116154D01*
X0536360Y0116268D01*
X0536283Y0116385D01*
X0536210Y0116504D01*
X0536139Y0116625D01*
X0536073Y0116748D01*
X0536009Y0116873D01*
X0535950Y0116999D01*
X0535894Y0117128D01*
X0535841Y0117257D01*
X0535793Y0117388D01*
X0535748Y0117521D01*
X0535707Y0117655D01*
X0535669Y0117790D01*
X0535636Y0117925D01*
X0535606Y0118062D01*
X0535580Y0118200D01*
X0535559Y0118338D01*
X0535541Y0118477D01*
X0535527Y0118616D01*
X0535517Y0118755D01*
X0535511Y0118895D01*
X0535509Y0119035D01*
D11*
X0535475Y0119000D02*
X0535477Y0119140D01*
X0535483Y0119280D01*
X0535493Y0119420D01*
X0535507Y0119559D01*
X0535525Y0119698D01*
X0535546Y0119836D01*
X0535572Y0119974D01*
X0535602Y0120111D01*
X0535635Y0120246D01*
X0535673Y0120381D01*
X0535714Y0120515D01*
X0535759Y0120648D01*
X0535808Y0120779D01*
X0535860Y0120909D01*
X0535916Y0121037D01*
X0535976Y0121164D01*
X0536039Y0121289D01*
X0536106Y0121412D01*
X0536176Y0121533D01*
X0536250Y0121652D01*
X0536327Y0121769D01*
X0536407Y0121884D01*
X0536491Y0121996D01*
X0536578Y0122106D01*
X0536668Y0122213D01*
X0536760Y0122318D01*
X0536856Y0122420D01*
X0536955Y0122519D01*
X0537056Y0122616D01*
X0537160Y0122710D01*
X0537267Y0122800D01*
X0537376Y0122888D01*
X0537488Y0122972D01*
X0537602Y0123053D01*
X0537719Y0123131D01*
X0537837Y0123206D01*
X0537958Y0123277D01*
X0538080Y0123344D01*
X0538205Y0123409D01*
X0538331Y0123469D01*
X0538459Y0123526D01*
X0538588Y0123580D01*
X0538719Y0123629D01*
X0538851Y0123675D01*
X0538985Y0123717D01*
X0539120Y0123756D01*
X0539255Y0123790D01*
X0539392Y0123821D01*
X0539529Y0123847D01*
X0539668Y0123870D01*
X0539806Y0123889D01*
X0539946Y0123904D01*
X0540085Y0123915D01*
X0540225Y0123922D01*
X0540365Y0123925D01*
X0540505Y0123924D01*
X0540645Y0123919D01*
X0540785Y0123910D01*
X0540924Y0123897D01*
X0541063Y0123880D01*
X0541202Y0123859D01*
X0541339Y0123835D01*
X0541476Y0123806D01*
X0541613Y0123773D01*
X0541748Y0123737D01*
X0541882Y0123697D01*
X0542015Y0123653D01*
X0542146Y0123605D01*
X0542277Y0123553D01*
X0542405Y0123498D01*
X0542532Y0123439D01*
X0542658Y0123377D01*
X0542781Y0123311D01*
X0542903Y0123242D01*
X0543022Y0123169D01*
X0543140Y0123093D01*
X0543255Y0123013D01*
X0543368Y0122930D01*
X0543479Y0122844D01*
X0543587Y0122755D01*
X0543692Y0122663D01*
X0543795Y0122568D01*
X0543895Y0122470D01*
X0543992Y0122369D01*
X0544086Y0122266D01*
X0544178Y0122160D01*
X0544266Y0122051D01*
X0544351Y0121940D01*
X0544433Y0121826D01*
X0544512Y0121711D01*
X0544587Y0121593D01*
X0544659Y0121473D01*
X0544728Y0121351D01*
X0544793Y0121227D01*
X0544854Y0121101D01*
X0544912Y0120973D01*
X0544967Y0120844D01*
X0545017Y0120714D01*
X0545064Y0120582D01*
X0545107Y0120448D01*
X0545146Y0120314D01*
X0545182Y0120179D01*
X0545213Y0120042D01*
X0545241Y0119905D01*
X0545265Y0119767D01*
X0545285Y0119628D01*
X0545301Y0119489D01*
X0545313Y0119350D01*
X0545321Y0119210D01*
X0545325Y0119070D01*
X0545325Y0118930D01*
X0545321Y0118790D01*
X0545313Y0118650D01*
X0545301Y0118511D01*
X0545285Y0118372D01*
X0545265Y0118233D01*
X0545241Y0118095D01*
X0545213Y0117958D01*
X0545182Y0117821D01*
X0545146Y0117686D01*
X0545107Y0117552D01*
X0545064Y0117418D01*
X0545017Y0117286D01*
X0544967Y0117156D01*
X0544912Y0117027D01*
X0544854Y0116899D01*
X0544793Y0116773D01*
X0544728Y0116649D01*
X0544659Y0116527D01*
X0544587Y0116407D01*
X0544512Y0116289D01*
X0544433Y0116174D01*
X0544351Y0116060D01*
X0544266Y0115949D01*
X0544178Y0115840D01*
X0544086Y0115734D01*
X0543992Y0115631D01*
X0543895Y0115530D01*
X0543795Y0115432D01*
X0543692Y0115337D01*
X0543587Y0115245D01*
X0543479Y0115156D01*
X0543368Y0115070D01*
X0543255Y0114987D01*
X0543140Y0114907D01*
X0543022Y0114831D01*
X0542903Y0114758D01*
X0542781Y0114689D01*
X0542658Y0114623D01*
X0542532Y0114561D01*
X0542405Y0114502D01*
X0542277Y0114447D01*
X0542146Y0114395D01*
X0542015Y0114347D01*
X0541882Y0114303D01*
X0541748Y0114263D01*
X0541613Y0114227D01*
X0541476Y0114194D01*
X0541339Y0114165D01*
X0541202Y0114141D01*
X0541063Y0114120D01*
X0540924Y0114103D01*
X0540785Y0114090D01*
X0540645Y0114081D01*
X0540505Y0114076D01*
X0540365Y0114075D01*
X0540225Y0114078D01*
X0540085Y0114085D01*
X0539946Y0114096D01*
X0539806Y0114111D01*
X0539668Y0114130D01*
X0539529Y0114153D01*
X0539392Y0114179D01*
X0539255Y0114210D01*
X0539120Y0114244D01*
X0538985Y0114283D01*
X0538851Y0114325D01*
X0538719Y0114371D01*
X0538588Y0114420D01*
X0538459Y0114474D01*
X0538331Y0114531D01*
X0538205Y0114591D01*
X0538080Y0114656D01*
X0537958Y0114723D01*
X0537837Y0114794D01*
X0537719Y0114869D01*
X0537602Y0114947D01*
X0537488Y0115028D01*
X0537376Y0115112D01*
X0537267Y0115200D01*
X0537160Y0115290D01*
X0537056Y0115384D01*
X0536955Y0115481D01*
X0536856Y0115580D01*
X0536760Y0115682D01*
X0536668Y0115787D01*
X0536578Y0115894D01*
X0536491Y0116004D01*
X0536407Y0116116D01*
X0536327Y0116231D01*
X0536250Y0116348D01*
X0536176Y0116467D01*
X0536106Y0116588D01*
X0536039Y0116711D01*
X0535976Y0116836D01*
X0535916Y0116963D01*
X0535860Y0117091D01*
X0535808Y0117221D01*
X0535759Y0117352D01*
X0535714Y0117485D01*
X0535673Y0117619D01*
X0535635Y0117754D01*
X0535602Y0117889D01*
X0535572Y0118026D01*
X0535546Y0118164D01*
X0535525Y0118302D01*
X0535507Y0118441D01*
X0535493Y0118580D01*
X0535483Y0118720D01*
X0535477Y0118860D01*
X0535475Y0119000D01*
X0231975Y0119100D02*
X0231977Y0119240D01*
X0231983Y0119380D01*
X0231993Y0119520D01*
X0232007Y0119659D01*
X0232025Y0119798D01*
X0232046Y0119936D01*
X0232072Y0120074D01*
X0232102Y0120211D01*
X0232135Y0120346D01*
X0232173Y0120481D01*
X0232214Y0120615D01*
X0232259Y0120748D01*
X0232308Y0120879D01*
X0232360Y0121009D01*
X0232416Y0121137D01*
X0232476Y0121264D01*
X0232539Y0121389D01*
X0232606Y0121512D01*
X0232676Y0121633D01*
X0232750Y0121752D01*
X0232827Y0121869D01*
X0232907Y0121984D01*
X0232991Y0122096D01*
X0233078Y0122206D01*
X0233168Y0122313D01*
X0233260Y0122418D01*
X0233356Y0122520D01*
X0233455Y0122619D01*
X0233556Y0122716D01*
X0233660Y0122810D01*
X0233767Y0122900D01*
X0233876Y0122988D01*
X0233988Y0123072D01*
X0234102Y0123153D01*
X0234219Y0123231D01*
X0234337Y0123306D01*
X0234458Y0123377D01*
X0234580Y0123444D01*
X0234705Y0123509D01*
X0234831Y0123569D01*
X0234959Y0123626D01*
X0235088Y0123680D01*
X0235219Y0123729D01*
X0235351Y0123775D01*
X0235485Y0123817D01*
X0235620Y0123856D01*
X0235755Y0123890D01*
X0235892Y0123921D01*
X0236029Y0123947D01*
X0236168Y0123970D01*
X0236306Y0123989D01*
X0236446Y0124004D01*
X0236585Y0124015D01*
X0236725Y0124022D01*
X0236865Y0124025D01*
X0237005Y0124024D01*
X0237145Y0124019D01*
X0237285Y0124010D01*
X0237424Y0123997D01*
X0237563Y0123980D01*
X0237702Y0123959D01*
X0237839Y0123935D01*
X0237976Y0123906D01*
X0238113Y0123873D01*
X0238248Y0123837D01*
X0238382Y0123797D01*
X0238515Y0123753D01*
X0238646Y0123705D01*
X0238777Y0123653D01*
X0238905Y0123598D01*
X0239032Y0123539D01*
X0239158Y0123477D01*
X0239281Y0123411D01*
X0239403Y0123342D01*
X0239522Y0123269D01*
X0239640Y0123193D01*
X0239755Y0123113D01*
X0239868Y0123030D01*
X0239979Y0122944D01*
X0240087Y0122855D01*
X0240192Y0122763D01*
X0240295Y0122668D01*
X0240395Y0122570D01*
X0240492Y0122469D01*
X0240586Y0122366D01*
X0240678Y0122260D01*
X0240766Y0122151D01*
X0240851Y0122040D01*
X0240933Y0121926D01*
X0241012Y0121811D01*
X0241087Y0121693D01*
X0241159Y0121573D01*
X0241228Y0121451D01*
X0241293Y0121327D01*
X0241354Y0121201D01*
X0241412Y0121073D01*
X0241467Y0120944D01*
X0241517Y0120814D01*
X0241564Y0120682D01*
X0241607Y0120548D01*
X0241646Y0120414D01*
X0241682Y0120279D01*
X0241713Y0120142D01*
X0241741Y0120005D01*
X0241765Y0119867D01*
X0241785Y0119728D01*
X0241801Y0119589D01*
X0241813Y0119450D01*
X0241821Y0119310D01*
X0241825Y0119170D01*
X0241825Y0119030D01*
X0241821Y0118890D01*
X0241813Y0118750D01*
X0241801Y0118611D01*
X0241785Y0118472D01*
X0241765Y0118333D01*
X0241741Y0118195D01*
X0241713Y0118058D01*
X0241682Y0117921D01*
X0241646Y0117786D01*
X0241607Y0117652D01*
X0241564Y0117518D01*
X0241517Y0117386D01*
X0241467Y0117256D01*
X0241412Y0117127D01*
X0241354Y0116999D01*
X0241293Y0116873D01*
X0241228Y0116749D01*
X0241159Y0116627D01*
X0241087Y0116507D01*
X0241012Y0116389D01*
X0240933Y0116274D01*
X0240851Y0116160D01*
X0240766Y0116049D01*
X0240678Y0115940D01*
X0240586Y0115834D01*
X0240492Y0115731D01*
X0240395Y0115630D01*
X0240295Y0115532D01*
X0240192Y0115437D01*
X0240087Y0115345D01*
X0239979Y0115256D01*
X0239868Y0115170D01*
X0239755Y0115087D01*
X0239640Y0115007D01*
X0239522Y0114931D01*
X0239403Y0114858D01*
X0239281Y0114789D01*
X0239158Y0114723D01*
X0239032Y0114661D01*
X0238905Y0114602D01*
X0238777Y0114547D01*
X0238646Y0114495D01*
X0238515Y0114447D01*
X0238382Y0114403D01*
X0238248Y0114363D01*
X0238113Y0114327D01*
X0237976Y0114294D01*
X0237839Y0114265D01*
X0237702Y0114241D01*
X0237563Y0114220D01*
X0237424Y0114203D01*
X0237285Y0114190D01*
X0237145Y0114181D01*
X0237005Y0114176D01*
X0236865Y0114175D01*
X0236725Y0114178D01*
X0236585Y0114185D01*
X0236446Y0114196D01*
X0236306Y0114211D01*
X0236168Y0114230D01*
X0236029Y0114253D01*
X0235892Y0114279D01*
X0235755Y0114310D01*
X0235620Y0114344D01*
X0235485Y0114383D01*
X0235351Y0114425D01*
X0235219Y0114471D01*
X0235088Y0114520D01*
X0234959Y0114574D01*
X0234831Y0114631D01*
X0234705Y0114691D01*
X0234580Y0114756D01*
X0234458Y0114823D01*
X0234337Y0114894D01*
X0234219Y0114969D01*
X0234102Y0115047D01*
X0233988Y0115128D01*
X0233876Y0115212D01*
X0233767Y0115300D01*
X0233660Y0115390D01*
X0233556Y0115484D01*
X0233455Y0115581D01*
X0233356Y0115680D01*
X0233260Y0115782D01*
X0233168Y0115887D01*
X0233078Y0115994D01*
X0232991Y0116104D01*
X0232907Y0116216D01*
X0232827Y0116331D01*
X0232750Y0116448D01*
X0232676Y0116567D01*
X0232606Y0116688D01*
X0232539Y0116811D01*
X0232476Y0116936D01*
X0232416Y0117063D01*
X0232360Y0117191D01*
X0232308Y0117321D01*
X0232259Y0117452D01*
X0232214Y0117585D01*
X0232173Y0117719D01*
X0232135Y0117854D01*
X0232102Y0117989D01*
X0232072Y0118126D01*
X0232046Y0118264D01*
X0232025Y0118402D01*
X0232007Y0118541D01*
X0231993Y0118680D01*
X0231983Y0118820D01*
X0231977Y0118960D01*
X0231975Y0119100D01*
D12*
X0203715Y0114402D02*
X0203715Y0112934D01*
X0202981Y0112200D01*
X0202247Y0112934D01*
X0202247Y0114402D01*
X0201505Y0114402D02*
X0200404Y0114402D01*
X0200037Y0114035D01*
X0200037Y0113301D01*
X0200404Y0112934D01*
X0201505Y0112934D01*
X0200771Y0112934D02*
X0200037Y0112200D01*
X0199295Y0113301D02*
X0197827Y0113301D01*
X0198194Y0114402D02*
X0199295Y0113301D01*
X0198194Y0112200D02*
X0198194Y0114402D01*
X0201505Y0114402D02*
X0201505Y0112200D01*
X0176610Y0104535D02*
X0176243Y0104902D01*
X0175509Y0104902D01*
X0175142Y0104535D01*
X0174400Y0104902D02*
X0174400Y0103801D01*
X0173666Y0104168D01*
X0173299Y0104168D01*
X0172932Y0103801D01*
X0172932Y0103067D01*
X0173299Y0102700D01*
X0174033Y0102700D01*
X0174400Y0103067D01*
X0175142Y0103067D02*
X0175509Y0102700D01*
X0176243Y0102700D01*
X0176610Y0103067D01*
X0176610Y0104535D01*
X0174400Y0104902D02*
X0172932Y0104902D01*
X0168981Y0111600D02*
X0168247Y0112334D01*
X0168247Y0113802D01*
X0167505Y0113802D02*
X0166404Y0113802D01*
X0166037Y0113435D01*
X0166037Y0112701D01*
X0166404Y0112334D01*
X0167505Y0112334D01*
X0166771Y0112334D02*
X0166037Y0111600D01*
X0165295Y0111967D02*
X0164928Y0111600D01*
X0164194Y0111600D01*
X0163827Y0111967D01*
X0163827Y0112701D01*
X0164194Y0113068D01*
X0164561Y0113068D01*
X0165295Y0112701D01*
X0165295Y0113802D01*
X0163827Y0113802D01*
X0167505Y0113802D02*
X0167505Y0111600D01*
X0168981Y0111600D02*
X0169715Y0112334D01*
X0169715Y0113802D01*
X0102110Y0093635D02*
X0102110Y0092167D01*
X0101743Y0091800D01*
X0101009Y0091800D01*
X0100642Y0092167D01*
X0099900Y0092167D02*
X0099900Y0091800D01*
X0099900Y0092167D02*
X0098432Y0093635D01*
X0098432Y0094002D01*
X0099900Y0094002D01*
X0100642Y0093635D02*
X0101009Y0094002D01*
X0101743Y0094002D01*
X0102110Y0093635D01*
X0078610Y0093635D02*
X0078610Y0092167D01*
X0078243Y0091800D01*
X0077509Y0091800D01*
X0077142Y0092167D01*
X0076400Y0092167D02*
X0076400Y0092534D01*
X0076033Y0092901D01*
X0075299Y0092901D01*
X0074932Y0092534D01*
X0074932Y0092167D01*
X0075299Y0091800D01*
X0076033Y0091800D01*
X0076400Y0092167D01*
X0076033Y0092901D02*
X0076400Y0093268D01*
X0076400Y0093635D01*
X0076033Y0094002D01*
X0075299Y0094002D01*
X0074932Y0093635D01*
X0074932Y0093268D01*
X0075299Y0092901D01*
X0077142Y0093635D02*
X0077509Y0094002D01*
X0078243Y0094002D01*
X0078610Y0093635D01*
X0108200Y0078906D02*
X0108200Y0078172D01*
X0108567Y0077805D01*
X0110035Y0079273D01*
X0108567Y0079273D01*
X0108200Y0078906D01*
X0108567Y0077805D02*
X0110035Y0077805D01*
X0110402Y0078172D01*
X0110402Y0078906D01*
X0110035Y0079273D01*
X0108200Y0077063D02*
X0108200Y0075595D01*
X0108200Y0076329D02*
X0110402Y0076329D01*
X0109668Y0075595D01*
X0110035Y0074853D02*
X0110402Y0074486D01*
X0110402Y0073752D01*
X0110035Y0073385D01*
X0108567Y0073385D01*
X0108200Y0073752D01*
X0108200Y0074486D01*
X0108567Y0074853D01*
X0060110Y0064635D02*
X0060110Y0063167D01*
X0059743Y0062800D01*
X0059009Y0062800D01*
X0058642Y0063167D01*
X0057900Y0063167D02*
X0057533Y0062800D01*
X0056799Y0062800D01*
X0056432Y0063167D01*
X0056432Y0064635D01*
X0056799Y0065002D01*
X0057533Y0065002D01*
X0057900Y0064635D01*
X0057900Y0064268D01*
X0057533Y0063901D01*
X0056432Y0063901D01*
X0058642Y0064635D02*
X0059009Y0065002D01*
X0059743Y0065002D01*
X0060110Y0064635D01*
X0079301Y0058168D02*
X0079301Y0056700D01*
X0080402Y0057801D01*
X0078200Y0057801D01*
X0078200Y0055958D02*
X0078934Y0055224D01*
X0078934Y0055591D02*
X0078934Y0054490D01*
X0078200Y0054490D02*
X0080402Y0054490D01*
X0080402Y0055591D01*
X0080035Y0055958D01*
X0079301Y0055958D01*
X0078934Y0055591D01*
X0095000Y0055858D02*
X0095734Y0055124D01*
X0095734Y0055491D02*
X0095734Y0054390D01*
X0095000Y0054390D02*
X0097202Y0054390D01*
X0097202Y0055491D01*
X0096835Y0055858D01*
X0096101Y0055858D01*
X0095734Y0055491D01*
X0095367Y0056600D02*
X0095000Y0056967D01*
X0095000Y0057701D01*
X0095367Y0058068D01*
X0095734Y0058068D01*
X0096101Y0057701D01*
X0096101Y0057334D01*
X0096101Y0057701D02*
X0096468Y0058068D01*
X0096835Y0058068D01*
X0097202Y0057701D01*
X0097202Y0056967D01*
X0096835Y0056600D01*
X0107200Y0056829D02*
X0109402Y0056829D01*
X0108668Y0056095D01*
X0109035Y0055353D02*
X0108301Y0055353D01*
X0107934Y0054986D01*
X0107934Y0053885D01*
X0107200Y0053885D02*
X0109402Y0053885D01*
X0109402Y0054986D01*
X0109035Y0055353D01*
X0107934Y0054619D02*
X0107200Y0055353D01*
X0107200Y0056095D02*
X0107200Y0057563D01*
X0107567Y0058305D02*
X0109035Y0059773D01*
X0107567Y0059773D01*
X0107200Y0059406D01*
X0107200Y0058672D01*
X0107567Y0058305D01*
X0109035Y0058305D01*
X0109402Y0058672D01*
X0109402Y0059406D01*
X0109035Y0059773D01*
X0117200Y0059406D02*
X0119402Y0059406D01*
X0118301Y0058305D01*
X0118301Y0059773D01*
X0117200Y0057563D02*
X0117200Y0056095D01*
X0117200Y0056829D02*
X0119402Y0056829D01*
X0118668Y0056095D01*
X0119035Y0055353D02*
X0118301Y0055353D01*
X0117934Y0054986D01*
X0117934Y0053885D01*
X0117200Y0053885D02*
X0119402Y0053885D01*
X0119402Y0054986D01*
X0119035Y0055353D01*
X0117934Y0054619D02*
X0117200Y0055353D01*
X0162700Y0055595D02*
X0162700Y0057063D01*
X0162700Y0056329D02*
X0164902Y0056329D01*
X0164168Y0055595D01*
X0164535Y0054853D02*
X0163801Y0054853D01*
X0163434Y0054486D01*
X0163434Y0053385D01*
X0162700Y0053385D02*
X0164902Y0053385D01*
X0164902Y0054486D01*
X0164535Y0054853D01*
X0163434Y0054119D02*
X0162700Y0054853D01*
X0162700Y0057805D02*
X0164168Y0059273D01*
X0164535Y0059273D01*
X0164902Y0058906D01*
X0164902Y0058172D01*
X0164535Y0057805D01*
X0162700Y0057805D02*
X0162700Y0059273D01*
X0181600Y0059273D02*
X0181600Y0057805D01*
X0181600Y0058539D02*
X0183802Y0058539D01*
X0183068Y0057805D01*
X0181600Y0057063D02*
X0181600Y0055595D01*
X0181600Y0056329D02*
X0183802Y0056329D01*
X0183068Y0055595D01*
X0183435Y0054853D02*
X0182701Y0054853D01*
X0182334Y0054486D01*
X0182334Y0053385D01*
X0181600Y0053385D02*
X0183802Y0053385D01*
X0183802Y0054486D01*
X0183435Y0054853D01*
X0182334Y0054119D02*
X0181600Y0054853D01*
X0226827Y0079567D02*
X0227194Y0079200D01*
X0227928Y0079200D01*
X0228295Y0079567D01*
X0229037Y0079200D02*
X0230505Y0079200D01*
X0229771Y0079200D02*
X0229771Y0081402D01*
X0230505Y0080668D01*
X0231247Y0081035D02*
X0231247Y0080301D01*
X0231614Y0079934D01*
X0232715Y0079934D01*
X0232715Y0079200D02*
X0232715Y0081402D01*
X0231614Y0081402D01*
X0231247Y0081035D01*
X0231981Y0079934D02*
X0231247Y0079200D01*
X0227561Y0080301D02*
X0227194Y0080301D01*
X0226827Y0079934D01*
X0226827Y0079567D01*
X0227194Y0080301D02*
X0226827Y0080668D01*
X0226827Y0081035D01*
X0227194Y0081402D01*
X0227928Y0081402D01*
X0228295Y0081035D01*
X0227932Y0085800D02*
X0229400Y0085800D01*
X0227932Y0087268D01*
X0227932Y0087635D01*
X0228299Y0088002D01*
X0229033Y0088002D01*
X0229400Y0087635D01*
X0230142Y0087635D02*
X0230142Y0086901D01*
X0230509Y0086534D01*
X0231610Y0086534D01*
X0231610Y0085800D02*
X0231610Y0088002D01*
X0230509Y0088002D01*
X0230142Y0087635D01*
X0230876Y0086534D02*
X0230142Y0085800D01*
X0206610Y0089567D02*
X0206243Y0089200D01*
X0205509Y0089200D01*
X0205142Y0089567D01*
X0205142Y0089934D01*
X0205509Y0090301D01*
X0206243Y0090301D01*
X0206610Y0090668D01*
X0206610Y0091035D01*
X0206243Y0091402D01*
X0205509Y0091402D01*
X0205142Y0091035D01*
X0204400Y0091402D02*
X0202932Y0091402D01*
X0202932Y0091035D01*
X0204400Y0089567D01*
X0204400Y0089200D01*
X0177110Y0084535D02*
X0177110Y0083067D01*
X0176743Y0082700D01*
X0176009Y0082700D01*
X0175642Y0083067D01*
X0174900Y0083067D02*
X0174533Y0082700D01*
X0173799Y0082700D01*
X0173432Y0083067D01*
X0173432Y0083434D01*
X0173799Y0083801D01*
X0174900Y0083801D01*
X0174900Y0083067D01*
X0174900Y0083801D02*
X0174166Y0084535D01*
X0173432Y0084902D01*
X0175642Y0084535D02*
X0176009Y0084902D01*
X0176743Y0084902D01*
X0177110Y0084535D01*
X0060402Y0057773D02*
X0060402Y0056305D01*
X0060402Y0057773D02*
X0060035Y0057773D01*
X0058567Y0056305D01*
X0058200Y0056305D01*
X0058200Y0055563D02*
X0058200Y0054095D01*
X0058200Y0054829D02*
X0060402Y0054829D01*
X0059668Y0054095D01*
X0060035Y0053353D02*
X0059301Y0053353D01*
X0058934Y0052986D01*
X0058934Y0051885D01*
X0058200Y0051885D02*
X0060402Y0051885D01*
X0060402Y0052986D01*
X0060035Y0053353D01*
X0058934Y0052619D02*
X0058200Y0053353D01*
X0049902Y0052986D02*
X0049902Y0051885D01*
X0047700Y0051885D01*
X0048434Y0051885D02*
X0048434Y0052986D01*
X0048801Y0053353D01*
X0049535Y0053353D01*
X0049902Y0052986D01*
X0049168Y0054095D02*
X0049902Y0054829D01*
X0047700Y0054829D01*
X0047700Y0054095D02*
X0047700Y0055563D01*
X0048067Y0056305D02*
X0047700Y0056672D01*
X0047700Y0057406D01*
X0048067Y0057773D01*
X0048434Y0057773D01*
X0048801Y0057406D01*
X0048801Y0056305D01*
X0048067Y0056305D01*
X0048801Y0056305D02*
X0049535Y0057039D01*
X0049902Y0057773D01*
X0047700Y0053353D02*
X0048434Y0052619D01*
X0109827Y0026535D02*
X0109827Y0026168D01*
X0110194Y0025801D01*
X0109827Y0025434D01*
X0109827Y0025067D01*
X0110194Y0024700D01*
X0110928Y0024700D01*
X0111295Y0025067D01*
X0112037Y0024700D02*
X0112771Y0025434D01*
X0112404Y0025434D02*
X0113505Y0025434D01*
X0113505Y0024700D02*
X0113505Y0026902D01*
X0112404Y0026902D01*
X0112037Y0026535D01*
X0112037Y0025801D01*
X0112404Y0025434D01*
X0111295Y0026535D02*
X0110928Y0026902D01*
X0110194Y0026902D01*
X0109827Y0026535D01*
X0110194Y0025801D02*
X0110561Y0025801D01*
X0114247Y0025434D02*
X0114247Y0026902D01*
X0115715Y0026902D02*
X0115715Y0025434D01*
X0114981Y0024700D01*
X0114247Y0025434D01*
X0172561Y0007502D02*
X0172561Y0005300D01*
X0173295Y0005300D02*
X0171827Y0005300D01*
X0174037Y0005300D02*
X0174771Y0006034D01*
X0174404Y0006034D02*
X0175505Y0006034D01*
X0175505Y0005300D02*
X0175505Y0007502D01*
X0174404Y0007502D01*
X0174037Y0007135D01*
X0174037Y0006401D01*
X0174404Y0006034D01*
X0173295Y0006768D02*
X0172561Y0007502D01*
X0176247Y0007502D02*
X0176247Y0006034D01*
X0176981Y0005300D01*
X0177715Y0006034D01*
X0177715Y0007502D01*
X0343842Y0055000D02*
X0343842Y0057202D01*
X0345310Y0057202D02*
X0343842Y0055000D01*
X0345310Y0055000D02*
X0345310Y0057202D01*
X0346052Y0057202D02*
X0346052Y0055000D01*
X0346786Y0055734D01*
X0347520Y0055000D01*
X0347520Y0057202D01*
X0348262Y0056835D02*
X0348629Y0057202D01*
X0349363Y0057202D01*
X0349730Y0056835D01*
X0349730Y0055367D01*
X0349363Y0055000D01*
X0348629Y0055000D01*
X0348262Y0055367D01*
X0348262Y0056835D01*
X0350472Y0056835D02*
X0350839Y0057202D01*
X0351940Y0057202D01*
X0351940Y0055000D01*
X0350839Y0055000D01*
X0350472Y0055367D01*
X0350472Y0056835D01*
X0354149Y0057202D02*
X0354149Y0055000D01*
X0352682Y0055000D01*
X0354891Y0055367D02*
X0355258Y0055000D01*
X0355992Y0055000D01*
X0356359Y0055367D01*
X0356359Y0056835D01*
X0355992Y0057202D01*
X0355258Y0057202D01*
X0354891Y0056835D01*
X0354891Y0055367D01*
X0357101Y0055734D02*
X0357101Y0057202D01*
X0357101Y0055734D02*
X0357835Y0055000D01*
X0358569Y0055734D01*
X0358569Y0057202D01*
X0324842Y0056900D02*
X0324842Y0059102D01*
X0323742Y0059102D01*
X0323375Y0058735D01*
X0323375Y0058001D01*
X0323742Y0057634D01*
X0324842Y0057634D01*
X0322633Y0057634D02*
X0321532Y0057634D01*
X0321165Y0058001D01*
X0321165Y0058735D01*
X0321532Y0059102D01*
X0322633Y0059102D01*
X0322633Y0056900D01*
X0321899Y0057634D02*
X0321165Y0056900D01*
X0320423Y0056900D02*
X0318955Y0056900D01*
X0318213Y0057634D02*
X0317479Y0056900D01*
X0316745Y0057634D01*
X0316745Y0059102D01*
X0316003Y0059102D02*
X0315269Y0059102D01*
X0315636Y0059102D02*
X0315636Y0056900D01*
X0316003Y0056900D02*
X0315269Y0056900D01*
X0314530Y0057267D02*
X0314163Y0056900D01*
X0313429Y0056900D01*
X0313062Y0057267D01*
X0313062Y0058735D01*
X0313429Y0059102D01*
X0314163Y0059102D01*
X0314530Y0058735D01*
X0314530Y0057267D01*
X0312320Y0057267D02*
X0312320Y0059102D01*
X0310852Y0059102D02*
X0310852Y0057267D01*
X0311219Y0056900D01*
X0311953Y0056900D01*
X0312320Y0057267D01*
X0310110Y0057267D02*
X0309743Y0056900D01*
X0309009Y0056900D01*
X0308642Y0057267D01*
X0308642Y0057634D01*
X0309009Y0058001D01*
X0309743Y0058001D01*
X0310110Y0058368D01*
X0310110Y0058735D01*
X0309743Y0059102D01*
X0309009Y0059102D01*
X0308642Y0058735D01*
X0318213Y0059102D02*
X0318213Y0057634D01*
X0319689Y0058001D02*
X0320423Y0058001D01*
X0320423Y0059102D02*
X0320423Y0056900D01*
X0320423Y0059102D02*
X0318955Y0059102D01*
X0422676Y0029002D02*
X0422676Y0026800D01*
X0423410Y0026800D02*
X0421942Y0026800D01*
X0424152Y0027534D02*
X0424152Y0029002D01*
X0423410Y0028268D02*
X0422676Y0029002D01*
X0424152Y0027534D02*
X0424886Y0026800D01*
X0425620Y0027534D01*
X0425620Y0029002D01*
X0426362Y0028268D02*
X0426362Y0026800D01*
X0426362Y0027901D02*
X0427830Y0027901D01*
X0427830Y0028268D02*
X0427830Y0026800D01*
X0429306Y0027901D02*
X0430040Y0027901D01*
X0430040Y0029002D02*
X0428572Y0029002D01*
X0427830Y0028268D02*
X0427096Y0029002D01*
X0426362Y0028268D01*
X0430040Y0029002D02*
X0430040Y0026800D01*
X0477002Y0077580D02*
X0477002Y0079048D01*
X0477002Y0078314D02*
X0474800Y0078314D01*
X0474800Y0079790D02*
X0475167Y0079790D01*
X0476635Y0081258D01*
X0477002Y0081258D01*
X0477002Y0079790D01*
X0428240Y0105600D02*
X0428240Y0107802D01*
X0427506Y0107068D01*
X0426772Y0107802D01*
X0426772Y0105600D01*
X0426030Y0105967D02*
X0425663Y0105600D01*
X0424929Y0105600D01*
X0424562Y0105967D01*
X0424562Y0107802D01*
X0423820Y0107802D02*
X0422352Y0107802D01*
X0423086Y0107802D02*
X0423086Y0105600D01*
X0421610Y0105600D02*
X0420142Y0105600D01*
X0420876Y0106701D02*
X0421610Y0106701D01*
X0421610Y0107802D02*
X0421610Y0105600D01*
X0426030Y0105967D02*
X0426030Y0107802D01*
X0421610Y0107802D02*
X0420142Y0107802D01*
X0365749Y0107802D02*
X0365749Y0106334D01*
X0365015Y0105600D01*
X0364282Y0106334D01*
X0364282Y0107802D01*
X0363540Y0107435D02*
X0363540Y0105967D01*
X0363173Y0105600D01*
X0362439Y0105600D01*
X0362072Y0105967D01*
X0362072Y0107435D01*
X0362439Y0107802D01*
X0363173Y0107802D01*
X0363540Y0107435D01*
X0361330Y0107802D02*
X0361330Y0105600D01*
X0359862Y0105600D01*
X0359120Y0105967D02*
X0358753Y0105600D01*
X0358019Y0105600D01*
X0357652Y0105967D01*
X0357652Y0107802D01*
X0356910Y0107802D02*
X0355809Y0107802D01*
X0355442Y0107435D01*
X0355442Y0106701D01*
X0355809Y0106334D01*
X0356910Y0106334D01*
X0356910Y0105600D02*
X0356910Y0107802D01*
X0359120Y0107802D02*
X0359120Y0105967D01*
X0315440Y0106702D02*
X0315440Y0104500D01*
X0313972Y0104500D02*
X0313972Y0106702D01*
X0313230Y0106702D02*
X0313230Y0104500D01*
X0311762Y0104500D01*
X0311020Y0104500D02*
X0309552Y0106702D01*
X0308810Y0106702D02*
X0307342Y0106702D01*
X0308076Y0106702D02*
X0308076Y0104500D01*
X0309552Y0104500D02*
X0311020Y0106702D01*
X0311762Y0106702D02*
X0313230Y0106702D01*
X0313230Y0105601D02*
X0312496Y0105601D01*
X0313972Y0104500D02*
X0315440Y0106702D01*
D13*
X0361500Y0116600D02*
X0364000Y0114100D01*
X0369000Y0114100D01*
X0371500Y0116600D01*
X0374000Y0114100D01*
X0379000Y0114100D01*
X0381500Y0116600D01*
X0384000Y0114100D01*
X0389000Y0114100D01*
X0391500Y0116600D01*
X0394000Y0114100D01*
X0399000Y0114100D01*
X0401500Y0116600D01*
X0404000Y0114100D01*
X0409000Y0114100D01*
X0411500Y0116600D01*
X0414000Y0114100D01*
X0419000Y0114100D01*
X0421500Y0116600D01*
X0424000Y0114100D01*
X0429000Y0114100D01*
X0431500Y0116600D01*
X0434000Y0114100D01*
X0439000Y0114100D01*
X0441500Y0116600D01*
X0444000Y0114100D01*
X0449000Y0114100D01*
X0451500Y0116600D01*
X0454000Y0114100D01*
X0459000Y0114100D01*
X0461500Y0116600D01*
X0464000Y0114100D01*
X0469000Y0114100D01*
X0471500Y0116600D01*
X0474000Y0114100D01*
X0479000Y0114100D01*
X0481500Y0116600D01*
X0484000Y0114100D01*
X0489000Y0114100D01*
X0491500Y0116600D01*
X0494000Y0114100D01*
X0499000Y0114100D01*
X0501500Y0116600D01*
X0504000Y0114100D01*
X0509000Y0114100D01*
X0511500Y0116600D01*
X0514000Y0114100D01*
X0519000Y0114100D01*
X0521500Y0116600D01*
X0521500Y0121600D01*
X0519000Y0124100D01*
X0514000Y0124100D01*
X0511500Y0121600D01*
X0509000Y0124100D01*
X0504000Y0124100D01*
X0501500Y0121600D01*
X0501500Y0116600D01*
X0511500Y0116600D02*
X0511500Y0121600D01*
X0501500Y0121600D02*
X0499000Y0124100D01*
X0494000Y0124100D01*
X0491500Y0121600D01*
X0489000Y0124100D01*
X0484000Y0124100D01*
X0481500Y0121600D01*
X0479000Y0124100D01*
X0474000Y0124100D01*
X0471500Y0121600D01*
X0471500Y0116600D01*
X0461500Y0116600D02*
X0461500Y0121600D01*
X0459000Y0124100D01*
X0454000Y0124100D01*
X0451500Y0121600D01*
X0449000Y0124100D01*
X0444000Y0124100D01*
X0441500Y0121600D01*
X0441500Y0116600D01*
X0451500Y0116600D02*
X0451500Y0121600D01*
X0441500Y0121600D02*
X0439000Y0124100D01*
X0434000Y0124100D01*
X0431500Y0121600D01*
X0429000Y0124100D01*
X0424000Y0124100D01*
X0421500Y0121600D01*
X0419000Y0124100D01*
X0414000Y0124100D01*
X0411500Y0121600D01*
X0411500Y0116600D01*
X0401500Y0116600D02*
X0401500Y0121600D01*
X0399000Y0124100D01*
X0394000Y0124100D01*
X0391500Y0121600D01*
X0389000Y0124100D01*
X0384000Y0124100D01*
X0381500Y0121600D01*
X0381500Y0116600D01*
X0371500Y0116600D02*
X0371500Y0121600D01*
X0369000Y0124100D01*
X0364000Y0124100D01*
X0361500Y0121600D01*
X0361500Y0116600D01*
X0371500Y0121600D02*
X0374000Y0124100D01*
X0379000Y0124100D01*
X0381500Y0121600D01*
X0391500Y0121600D02*
X0391500Y0116600D01*
X0401500Y0121600D02*
X0404000Y0124100D01*
X0409000Y0124100D01*
X0411500Y0121600D01*
X0421500Y0121600D02*
X0421500Y0116600D01*
X0431500Y0116600D02*
X0431500Y0121600D01*
X0461500Y0121600D02*
X0464000Y0124100D01*
X0469000Y0124100D01*
X0471500Y0121600D01*
X0481500Y0121600D02*
X0481500Y0116600D01*
X0491500Y0116600D02*
X0491500Y0121600D01*
X0148098Y0112899D02*
X0133902Y0112899D01*
X0133902Y0094301D02*
X0148098Y0094301D01*
D14*
X0524500Y0122100D02*
X0524502Y0122189D01*
X0524508Y0122278D01*
X0524518Y0122367D01*
X0524532Y0122455D01*
X0524549Y0122542D01*
X0524571Y0122628D01*
X0524597Y0122714D01*
X0524626Y0122798D01*
X0524659Y0122881D01*
X0524695Y0122962D01*
X0524736Y0123042D01*
X0524779Y0123119D01*
X0524826Y0123195D01*
X0524877Y0123268D01*
X0524930Y0123339D01*
X0524987Y0123408D01*
X0525047Y0123474D01*
X0525110Y0123538D01*
X0525175Y0123598D01*
X0525243Y0123656D01*
X0525314Y0123710D01*
X0525387Y0123761D01*
X0525462Y0123809D01*
X0525539Y0123854D01*
X0525618Y0123895D01*
X0525699Y0123932D01*
X0525781Y0123966D01*
X0525865Y0123997D01*
X0525950Y0124023D01*
X0526036Y0124046D01*
X0526123Y0124064D01*
X0526211Y0124079D01*
X0526300Y0124090D01*
X0526389Y0124097D01*
X0526478Y0124100D01*
X0526567Y0124099D01*
X0526656Y0124094D01*
X0526744Y0124085D01*
X0526833Y0124072D01*
X0526920Y0124055D01*
X0527007Y0124035D01*
X0527093Y0124010D01*
X0527177Y0123982D01*
X0527260Y0123950D01*
X0527342Y0123914D01*
X0527422Y0123875D01*
X0527500Y0123832D01*
X0527576Y0123786D01*
X0527650Y0123736D01*
X0527722Y0123683D01*
X0527791Y0123627D01*
X0527858Y0123568D01*
X0527922Y0123506D01*
X0527983Y0123442D01*
X0528042Y0123374D01*
X0528097Y0123304D01*
X0528149Y0123232D01*
X0528198Y0123157D01*
X0528243Y0123081D01*
X0528285Y0123002D01*
X0528323Y0122922D01*
X0528358Y0122840D01*
X0528389Y0122756D01*
X0528417Y0122671D01*
X0528440Y0122585D01*
X0528460Y0122498D01*
X0528476Y0122411D01*
X0528488Y0122322D01*
X0528496Y0122234D01*
X0528500Y0122145D01*
X0528500Y0122055D01*
X0528496Y0121966D01*
X0528488Y0121878D01*
X0528476Y0121789D01*
X0528460Y0121702D01*
X0528440Y0121615D01*
X0528417Y0121529D01*
X0528389Y0121444D01*
X0528358Y0121360D01*
X0528323Y0121278D01*
X0528285Y0121198D01*
X0528243Y0121119D01*
X0528198Y0121043D01*
X0528149Y0120968D01*
X0528097Y0120896D01*
X0528042Y0120826D01*
X0527983Y0120758D01*
X0527922Y0120694D01*
X0527858Y0120632D01*
X0527791Y0120573D01*
X0527722Y0120517D01*
X0527650Y0120464D01*
X0527576Y0120414D01*
X0527500Y0120368D01*
X0527422Y0120325D01*
X0527342Y0120286D01*
X0527260Y0120250D01*
X0527177Y0120218D01*
X0527093Y0120190D01*
X0527007Y0120165D01*
X0526920Y0120145D01*
X0526833Y0120128D01*
X0526744Y0120115D01*
X0526656Y0120106D01*
X0526567Y0120101D01*
X0526478Y0120100D01*
X0526389Y0120103D01*
X0526300Y0120110D01*
X0526211Y0120121D01*
X0526123Y0120136D01*
X0526036Y0120154D01*
X0525950Y0120177D01*
X0525865Y0120203D01*
X0525781Y0120234D01*
X0525699Y0120268D01*
X0525618Y0120305D01*
X0525539Y0120346D01*
X0525462Y0120391D01*
X0525387Y0120439D01*
X0525314Y0120490D01*
X0525243Y0120544D01*
X0525175Y0120602D01*
X0525110Y0120662D01*
X0525047Y0120726D01*
X0524987Y0120792D01*
X0524930Y0120861D01*
X0524877Y0120932D01*
X0524826Y0121005D01*
X0524779Y0121081D01*
X0524736Y0121158D01*
X0524695Y0121238D01*
X0524659Y0121319D01*
X0524626Y0121402D01*
X0524597Y0121486D01*
X0524571Y0121572D01*
X0524549Y0121658D01*
X0524532Y0121745D01*
X0524518Y0121833D01*
X0524508Y0121922D01*
X0524502Y0122011D01*
X0524500Y0122100D01*
D15*
X0432100Y0104300D02*
X0418100Y0104300D01*
X0418100Y0078500D01*
X0432100Y0078500D01*
X0432100Y0104300D01*
X0373800Y0101100D02*
X0359800Y0101100D01*
X0359800Y0075300D01*
X0373800Y0075300D01*
X0373800Y0101100D01*
X0313600Y0100900D02*
X0299600Y0100900D01*
X0299600Y0075100D01*
X0313600Y0075100D01*
X0313600Y0100900D01*
X0216500Y0080647D02*
X0216500Y0072600D01*
X0197500Y0076600D02*
X0197502Y0076772D01*
X0197508Y0076943D01*
X0197519Y0077115D01*
X0197534Y0077286D01*
X0197553Y0077457D01*
X0197576Y0077627D01*
X0197603Y0077797D01*
X0197635Y0077966D01*
X0197670Y0078134D01*
X0197710Y0078301D01*
X0197754Y0078467D01*
X0197801Y0078632D01*
X0197853Y0078796D01*
X0197909Y0078958D01*
X0197969Y0079119D01*
X0198033Y0079279D01*
X0198101Y0079437D01*
X0198172Y0079593D01*
X0198247Y0079747D01*
X0198327Y0079900D01*
X0198409Y0080050D01*
X0198496Y0080199D01*
X0198586Y0080345D01*
X0198680Y0080489D01*
X0198777Y0080631D01*
X0198878Y0080770D01*
X0198982Y0080907D01*
X0199089Y0081041D01*
X0199200Y0081172D01*
X0199313Y0081301D01*
X0199430Y0081427D01*
X0199550Y0081550D01*
X0199673Y0081670D01*
X0199799Y0081787D01*
X0199928Y0081900D01*
X0200059Y0082011D01*
X0200193Y0082118D01*
X0200330Y0082222D01*
X0200469Y0082323D01*
X0200611Y0082420D01*
X0200755Y0082514D01*
X0200901Y0082604D01*
X0201050Y0082691D01*
X0201200Y0082773D01*
X0201353Y0082853D01*
X0201507Y0082928D01*
X0201663Y0082999D01*
X0201821Y0083067D01*
X0201981Y0083131D01*
X0202142Y0083191D01*
X0202304Y0083247D01*
X0202468Y0083299D01*
X0202633Y0083346D01*
X0202799Y0083390D01*
X0202966Y0083430D01*
X0203134Y0083465D01*
X0203303Y0083497D01*
X0203473Y0083524D01*
X0203643Y0083547D01*
X0203814Y0083566D01*
X0203985Y0083581D01*
X0204157Y0083592D01*
X0204328Y0083598D01*
X0204500Y0083600D01*
X0204672Y0083598D01*
X0204843Y0083592D01*
X0205015Y0083581D01*
X0205186Y0083566D01*
X0205357Y0083547D01*
X0205527Y0083524D01*
X0205697Y0083497D01*
X0205866Y0083465D01*
X0206034Y0083430D01*
X0206201Y0083390D01*
X0206367Y0083346D01*
X0206532Y0083299D01*
X0206696Y0083247D01*
X0206858Y0083191D01*
X0207019Y0083131D01*
X0207179Y0083067D01*
X0207337Y0082999D01*
X0207493Y0082928D01*
X0207647Y0082853D01*
X0207800Y0082773D01*
X0207950Y0082691D01*
X0208099Y0082604D01*
X0208245Y0082514D01*
X0208389Y0082420D01*
X0208531Y0082323D01*
X0208670Y0082222D01*
X0208807Y0082118D01*
X0208941Y0082011D01*
X0209072Y0081900D01*
X0209201Y0081787D01*
X0209327Y0081670D01*
X0209450Y0081550D01*
X0209570Y0081427D01*
X0209687Y0081301D01*
X0209800Y0081172D01*
X0209911Y0081041D01*
X0210018Y0080907D01*
X0210122Y0080770D01*
X0210223Y0080631D01*
X0210320Y0080489D01*
X0210414Y0080345D01*
X0210504Y0080199D01*
X0210591Y0080050D01*
X0210673Y0079900D01*
X0210753Y0079747D01*
X0210828Y0079593D01*
X0210899Y0079437D01*
X0210967Y0079279D01*
X0211031Y0079119D01*
X0211091Y0078958D01*
X0211147Y0078796D01*
X0211199Y0078632D01*
X0211246Y0078467D01*
X0211290Y0078301D01*
X0211330Y0078134D01*
X0211365Y0077966D01*
X0211397Y0077797D01*
X0211424Y0077627D01*
X0211447Y0077457D01*
X0211466Y0077286D01*
X0211481Y0077115D01*
X0211492Y0076943D01*
X0211498Y0076772D01*
X0211500Y0076600D01*
X0211498Y0076428D01*
X0211492Y0076257D01*
X0211481Y0076085D01*
X0211466Y0075914D01*
X0211447Y0075743D01*
X0211424Y0075573D01*
X0211397Y0075403D01*
X0211365Y0075234D01*
X0211330Y0075066D01*
X0211290Y0074899D01*
X0211246Y0074733D01*
X0211199Y0074568D01*
X0211147Y0074404D01*
X0211091Y0074242D01*
X0211031Y0074081D01*
X0210967Y0073921D01*
X0210899Y0073763D01*
X0210828Y0073607D01*
X0210753Y0073453D01*
X0210673Y0073300D01*
X0210591Y0073150D01*
X0210504Y0073001D01*
X0210414Y0072855D01*
X0210320Y0072711D01*
X0210223Y0072569D01*
X0210122Y0072430D01*
X0210018Y0072293D01*
X0209911Y0072159D01*
X0209800Y0072028D01*
X0209687Y0071899D01*
X0209570Y0071773D01*
X0209450Y0071650D01*
X0209327Y0071530D01*
X0209201Y0071413D01*
X0209072Y0071300D01*
X0208941Y0071189D01*
X0208807Y0071082D01*
X0208670Y0070978D01*
X0208531Y0070877D01*
X0208389Y0070780D01*
X0208245Y0070686D01*
X0208099Y0070596D01*
X0207950Y0070509D01*
X0207800Y0070427D01*
X0207647Y0070347D01*
X0207493Y0070272D01*
X0207337Y0070201D01*
X0207179Y0070133D01*
X0207019Y0070069D01*
X0206858Y0070009D01*
X0206696Y0069953D01*
X0206532Y0069901D01*
X0206367Y0069854D01*
X0206201Y0069810D01*
X0206034Y0069770D01*
X0205866Y0069735D01*
X0205697Y0069703D01*
X0205527Y0069676D01*
X0205357Y0069653D01*
X0205186Y0069634D01*
X0205015Y0069619D01*
X0204843Y0069608D01*
X0204672Y0069602D01*
X0204500Y0069600D01*
X0204328Y0069602D01*
X0204157Y0069608D01*
X0203985Y0069619D01*
X0203814Y0069634D01*
X0203643Y0069653D01*
X0203473Y0069676D01*
X0203303Y0069703D01*
X0203134Y0069735D01*
X0202966Y0069770D01*
X0202799Y0069810D01*
X0202633Y0069854D01*
X0202468Y0069901D01*
X0202304Y0069953D01*
X0202142Y0070009D01*
X0201981Y0070069D01*
X0201821Y0070133D01*
X0201663Y0070201D01*
X0201507Y0070272D01*
X0201353Y0070347D01*
X0201200Y0070427D01*
X0201050Y0070509D01*
X0200901Y0070596D01*
X0200755Y0070686D01*
X0200611Y0070780D01*
X0200469Y0070877D01*
X0200330Y0070978D01*
X0200193Y0071082D01*
X0200059Y0071189D01*
X0199928Y0071300D01*
X0199799Y0071413D01*
X0199673Y0071530D01*
X0199550Y0071650D01*
X0199430Y0071773D01*
X0199313Y0071899D01*
X0199200Y0072028D01*
X0199089Y0072159D01*
X0198982Y0072293D01*
X0198878Y0072430D01*
X0198777Y0072569D01*
X0198680Y0072711D01*
X0198586Y0072855D01*
X0198496Y0073001D01*
X0198409Y0073150D01*
X0198327Y0073300D01*
X0198247Y0073453D01*
X0198172Y0073607D01*
X0198101Y0073763D01*
X0198033Y0073921D01*
X0197969Y0074081D01*
X0197909Y0074242D01*
X0197853Y0074404D01*
X0197801Y0074568D01*
X0197754Y0074733D01*
X0197710Y0074899D01*
X0197670Y0075066D01*
X0197635Y0075234D01*
X0197603Y0075403D01*
X0197576Y0075573D01*
X0197553Y0075743D01*
X0197534Y0075914D01*
X0197519Y0076085D01*
X0197508Y0076257D01*
X0197502Y0076428D01*
X0197500Y0076600D01*
X0192500Y0080529D02*
X0192500Y0072600D01*
X0196000Y0064600D02*
X0213000Y0064600D01*
X0157500Y0072671D02*
X0157500Y0080600D01*
X0138500Y0076600D02*
X0138502Y0076772D01*
X0138508Y0076943D01*
X0138519Y0077115D01*
X0138534Y0077286D01*
X0138553Y0077457D01*
X0138576Y0077627D01*
X0138603Y0077797D01*
X0138635Y0077966D01*
X0138670Y0078134D01*
X0138710Y0078301D01*
X0138754Y0078467D01*
X0138801Y0078632D01*
X0138853Y0078796D01*
X0138909Y0078958D01*
X0138969Y0079119D01*
X0139033Y0079279D01*
X0139101Y0079437D01*
X0139172Y0079593D01*
X0139247Y0079747D01*
X0139327Y0079900D01*
X0139409Y0080050D01*
X0139496Y0080199D01*
X0139586Y0080345D01*
X0139680Y0080489D01*
X0139777Y0080631D01*
X0139878Y0080770D01*
X0139982Y0080907D01*
X0140089Y0081041D01*
X0140200Y0081172D01*
X0140313Y0081301D01*
X0140430Y0081427D01*
X0140550Y0081550D01*
X0140673Y0081670D01*
X0140799Y0081787D01*
X0140928Y0081900D01*
X0141059Y0082011D01*
X0141193Y0082118D01*
X0141330Y0082222D01*
X0141469Y0082323D01*
X0141611Y0082420D01*
X0141755Y0082514D01*
X0141901Y0082604D01*
X0142050Y0082691D01*
X0142200Y0082773D01*
X0142353Y0082853D01*
X0142507Y0082928D01*
X0142663Y0082999D01*
X0142821Y0083067D01*
X0142981Y0083131D01*
X0143142Y0083191D01*
X0143304Y0083247D01*
X0143468Y0083299D01*
X0143633Y0083346D01*
X0143799Y0083390D01*
X0143966Y0083430D01*
X0144134Y0083465D01*
X0144303Y0083497D01*
X0144473Y0083524D01*
X0144643Y0083547D01*
X0144814Y0083566D01*
X0144985Y0083581D01*
X0145157Y0083592D01*
X0145328Y0083598D01*
X0145500Y0083600D01*
X0145672Y0083598D01*
X0145843Y0083592D01*
X0146015Y0083581D01*
X0146186Y0083566D01*
X0146357Y0083547D01*
X0146527Y0083524D01*
X0146697Y0083497D01*
X0146866Y0083465D01*
X0147034Y0083430D01*
X0147201Y0083390D01*
X0147367Y0083346D01*
X0147532Y0083299D01*
X0147696Y0083247D01*
X0147858Y0083191D01*
X0148019Y0083131D01*
X0148179Y0083067D01*
X0148337Y0082999D01*
X0148493Y0082928D01*
X0148647Y0082853D01*
X0148800Y0082773D01*
X0148950Y0082691D01*
X0149099Y0082604D01*
X0149245Y0082514D01*
X0149389Y0082420D01*
X0149531Y0082323D01*
X0149670Y0082222D01*
X0149807Y0082118D01*
X0149941Y0082011D01*
X0150072Y0081900D01*
X0150201Y0081787D01*
X0150327Y0081670D01*
X0150450Y0081550D01*
X0150570Y0081427D01*
X0150687Y0081301D01*
X0150800Y0081172D01*
X0150911Y0081041D01*
X0151018Y0080907D01*
X0151122Y0080770D01*
X0151223Y0080631D01*
X0151320Y0080489D01*
X0151414Y0080345D01*
X0151504Y0080199D01*
X0151591Y0080050D01*
X0151673Y0079900D01*
X0151753Y0079747D01*
X0151828Y0079593D01*
X0151899Y0079437D01*
X0151967Y0079279D01*
X0152031Y0079119D01*
X0152091Y0078958D01*
X0152147Y0078796D01*
X0152199Y0078632D01*
X0152246Y0078467D01*
X0152290Y0078301D01*
X0152330Y0078134D01*
X0152365Y0077966D01*
X0152397Y0077797D01*
X0152424Y0077627D01*
X0152447Y0077457D01*
X0152466Y0077286D01*
X0152481Y0077115D01*
X0152492Y0076943D01*
X0152498Y0076772D01*
X0152500Y0076600D01*
X0152498Y0076428D01*
X0152492Y0076257D01*
X0152481Y0076085D01*
X0152466Y0075914D01*
X0152447Y0075743D01*
X0152424Y0075573D01*
X0152397Y0075403D01*
X0152365Y0075234D01*
X0152330Y0075066D01*
X0152290Y0074899D01*
X0152246Y0074733D01*
X0152199Y0074568D01*
X0152147Y0074404D01*
X0152091Y0074242D01*
X0152031Y0074081D01*
X0151967Y0073921D01*
X0151899Y0073763D01*
X0151828Y0073607D01*
X0151753Y0073453D01*
X0151673Y0073300D01*
X0151591Y0073150D01*
X0151504Y0073001D01*
X0151414Y0072855D01*
X0151320Y0072711D01*
X0151223Y0072569D01*
X0151122Y0072430D01*
X0151018Y0072293D01*
X0150911Y0072159D01*
X0150800Y0072028D01*
X0150687Y0071899D01*
X0150570Y0071773D01*
X0150450Y0071650D01*
X0150327Y0071530D01*
X0150201Y0071413D01*
X0150072Y0071300D01*
X0149941Y0071189D01*
X0149807Y0071082D01*
X0149670Y0070978D01*
X0149531Y0070877D01*
X0149389Y0070780D01*
X0149245Y0070686D01*
X0149099Y0070596D01*
X0148950Y0070509D01*
X0148800Y0070427D01*
X0148647Y0070347D01*
X0148493Y0070272D01*
X0148337Y0070201D01*
X0148179Y0070133D01*
X0148019Y0070069D01*
X0147858Y0070009D01*
X0147696Y0069953D01*
X0147532Y0069901D01*
X0147367Y0069854D01*
X0147201Y0069810D01*
X0147034Y0069770D01*
X0146866Y0069735D01*
X0146697Y0069703D01*
X0146527Y0069676D01*
X0146357Y0069653D01*
X0146186Y0069634D01*
X0146015Y0069619D01*
X0145843Y0069608D01*
X0145672Y0069602D01*
X0145500Y0069600D01*
X0145328Y0069602D01*
X0145157Y0069608D01*
X0144985Y0069619D01*
X0144814Y0069634D01*
X0144643Y0069653D01*
X0144473Y0069676D01*
X0144303Y0069703D01*
X0144134Y0069735D01*
X0143966Y0069770D01*
X0143799Y0069810D01*
X0143633Y0069854D01*
X0143468Y0069901D01*
X0143304Y0069953D01*
X0143142Y0070009D01*
X0142981Y0070069D01*
X0142821Y0070133D01*
X0142663Y0070201D01*
X0142507Y0070272D01*
X0142353Y0070347D01*
X0142200Y0070427D01*
X0142050Y0070509D01*
X0141901Y0070596D01*
X0141755Y0070686D01*
X0141611Y0070780D01*
X0141469Y0070877D01*
X0141330Y0070978D01*
X0141193Y0071082D01*
X0141059Y0071189D01*
X0140928Y0071300D01*
X0140799Y0071413D01*
X0140673Y0071530D01*
X0140550Y0071650D01*
X0140430Y0071773D01*
X0140313Y0071899D01*
X0140200Y0072028D01*
X0140089Y0072159D01*
X0139982Y0072293D01*
X0139878Y0072430D01*
X0139777Y0072569D01*
X0139680Y0072711D01*
X0139586Y0072855D01*
X0139496Y0073001D01*
X0139409Y0073150D01*
X0139327Y0073300D01*
X0139247Y0073453D01*
X0139172Y0073607D01*
X0139101Y0073763D01*
X0139033Y0073921D01*
X0138969Y0074081D01*
X0138909Y0074242D01*
X0138853Y0074404D01*
X0138801Y0074568D01*
X0138754Y0074733D01*
X0138710Y0074899D01*
X0138670Y0075066D01*
X0138635Y0075234D01*
X0138603Y0075403D01*
X0138576Y0075573D01*
X0138553Y0075743D01*
X0138534Y0075914D01*
X0138519Y0076085D01*
X0138508Y0076257D01*
X0138502Y0076428D01*
X0138500Y0076600D01*
X0133500Y0080600D02*
X0133500Y0072553D01*
X0137000Y0064600D02*
X0154000Y0064600D01*
X0098500Y0072600D02*
X0098500Y0080647D01*
X0079500Y0076600D02*
X0079502Y0076772D01*
X0079508Y0076943D01*
X0079519Y0077115D01*
X0079534Y0077286D01*
X0079553Y0077457D01*
X0079576Y0077627D01*
X0079603Y0077797D01*
X0079635Y0077966D01*
X0079670Y0078134D01*
X0079710Y0078301D01*
X0079754Y0078467D01*
X0079801Y0078632D01*
X0079853Y0078796D01*
X0079909Y0078958D01*
X0079969Y0079119D01*
X0080033Y0079279D01*
X0080101Y0079437D01*
X0080172Y0079593D01*
X0080247Y0079747D01*
X0080327Y0079900D01*
X0080409Y0080050D01*
X0080496Y0080199D01*
X0080586Y0080345D01*
X0080680Y0080489D01*
X0080777Y0080631D01*
X0080878Y0080770D01*
X0080982Y0080907D01*
X0081089Y0081041D01*
X0081200Y0081172D01*
X0081313Y0081301D01*
X0081430Y0081427D01*
X0081550Y0081550D01*
X0081673Y0081670D01*
X0081799Y0081787D01*
X0081928Y0081900D01*
X0082059Y0082011D01*
X0082193Y0082118D01*
X0082330Y0082222D01*
X0082469Y0082323D01*
X0082611Y0082420D01*
X0082755Y0082514D01*
X0082901Y0082604D01*
X0083050Y0082691D01*
X0083200Y0082773D01*
X0083353Y0082853D01*
X0083507Y0082928D01*
X0083663Y0082999D01*
X0083821Y0083067D01*
X0083981Y0083131D01*
X0084142Y0083191D01*
X0084304Y0083247D01*
X0084468Y0083299D01*
X0084633Y0083346D01*
X0084799Y0083390D01*
X0084966Y0083430D01*
X0085134Y0083465D01*
X0085303Y0083497D01*
X0085473Y0083524D01*
X0085643Y0083547D01*
X0085814Y0083566D01*
X0085985Y0083581D01*
X0086157Y0083592D01*
X0086328Y0083598D01*
X0086500Y0083600D01*
X0086672Y0083598D01*
X0086843Y0083592D01*
X0087015Y0083581D01*
X0087186Y0083566D01*
X0087357Y0083547D01*
X0087527Y0083524D01*
X0087697Y0083497D01*
X0087866Y0083465D01*
X0088034Y0083430D01*
X0088201Y0083390D01*
X0088367Y0083346D01*
X0088532Y0083299D01*
X0088696Y0083247D01*
X0088858Y0083191D01*
X0089019Y0083131D01*
X0089179Y0083067D01*
X0089337Y0082999D01*
X0089493Y0082928D01*
X0089647Y0082853D01*
X0089800Y0082773D01*
X0089950Y0082691D01*
X0090099Y0082604D01*
X0090245Y0082514D01*
X0090389Y0082420D01*
X0090531Y0082323D01*
X0090670Y0082222D01*
X0090807Y0082118D01*
X0090941Y0082011D01*
X0091072Y0081900D01*
X0091201Y0081787D01*
X0091327Y0081670D01*
X0091450Y0081550D01*
X0091570Y0081427D01*
X0091687Y0081301D01*
X0091800Y0081172D01*
X0091911Y0081041D01*
X0092018Y0080907D01*
X0092122Y0080770D01*
X0092223Y0080631D01*
X0092320Y0080489D01*
X0092414Y0080345D01*
X0092504Y0080199D01*
X0092591Y0080050D01*
X0092673Y0079900D01*
X0092753Y0079747D01*
X0092828Y0079593D01*
X0092899Y0079437D01*
X0092967Y0079279D01*
X0093031Y0079119D01*
X0093091Y0078958D01*
X0093147Y0078796D01*
X0093199Y0078632D01*
X0093246Y0078467D01*
X0093290Y0078301D01*
X0093330Y0078134D01*
X0093365Y0077966D01*
X0093397Y0077797D01*
X0093424Y0077627D01*
X0093447Y0077457D01*
X0093466Y0077286D01*
X0093481Y0077115D01*
X0093492Y0076943D01*
X0093498Y0076772D01*
X0093500Y0076600D01*
X0093498Y0076428D01*
X0093492Y0076257D01*
X0093481Y0076085D01*
X0093466Y0075914D01*
X0093447Y0075743D01*
X0093424Y0075573D01*
X0093397Y0075403D01*
X0093365Y0075234D01*
X0093330Y0075066D01*
X0093290Y0074899D01*
X0093246Y0074733D01*
X0093199Y0074568D01*
X0093147Y0074404D01*
X0093091Y0074242D01*
X0093031Y0074081D01*
X0092967Y0073921D01*
X0092899Y0073763D01*
X0092828Y0073607D01*
X0092753Y0073453D01*
X0092673Y0073300D01*
X0092591Y0073150D01*
X0092504Y0073001D01*
X0092414Y0072855D01*
X0092320Y0072711D01*
X0092223Y0072569D01*
X0092122Y0072430D01*
X0092018Y0072293D01*
X0091911Y0072159D01*
X0091800Y0072028D01*
X0091687Y0071899D01*
X0091570Y0071773D01*
X0091450Y0071650D01*
X0091327Y0071530D01*
X0091201Y0071413D01*
X0091072Y0071300D01*
X0090941Y0071189D01*
X0090807Y0071082D01*
X0090670Y0070978D01*
X0090531Y0070877D01*
X0090389Y0070780D01*
X0090245Y0070686D01*
X0090099Y0070596D01*
X0089950Y0070509D01*
X0089800Y0070427D01*
X0089647Y0070347D01*
X0089493Y0070272D01*
X0089337Y0070201D01*
X0089179Y0070133D01*
X0089019Y0070069D01*
X0088858Y0070009D01*
X0088696Y0069953D01*
X0088532Y0069901D01*
X0088367Y0069854D01*
X0088201Y0069810D01*
X0088034Y0069770D01*
X0087866Y0069735D01*
X0087697Y0069703D01*
X0087527Y0069676D01*
X0087357Y0069653D01*
X0087186Y0069634D01*
X0087015Y0069619D01*
X0086843Y0069608D01*
X0086672Y0069602D01*
X0086500Y0069600D01*
X0086328Y0069602D01*
X0086157Y0069608D01*
X0085985Y0069619D01*
X0085814Y0069634D01*
X0085643Y0069653D01*
X0085473Y0069676D01*
X0085303Y0069703D01*
X0085134Y0069735D01*
X0084966Y0069770D01*
X0084799Y0069810D01*
X0084633Y0069854D01*
X0084468Y0069901D01*
X0084304Y0069953D01*
X0084142Y0070009D01*
X0083981Y0070069D01*
X0083821Y0070133D01*
X0083663Y0070201D01*
X0083507Y0070272D01*
X0083353Y0070347D01*
X0083200Y0070427D01*
X0083050Y0070509D01*
X0082901Y0070596D01*
X0082755Y0070686D01*
X0082611Y0070780D01*
X0082469Y0070877D01*
X0082330Y0070978D01*
X0082193Y0071082D01*
X0082059Y0071189D01*
X0081928Y0071300D01*
X0081799Y0071413D01*
X0081673Y0071530D01*
X0081550Y0071650D01*
X0081430Y0071773D01*
X0081313Y0071899D01*
X0081200Y0072028D01*
X0081089Y0072159D01*
X0080982Y0072293D01*
X0080878Y0072430D01*
X0080777Y0072569D01*
X0080680Y0072711D01*
X0080586Y0072855D01*
X0080496Y0073001D01*
X0080409Y0073150D01*
X0080327Y0073300D01*
X0080247Y0073453D01*
X0080172Y0073607D01*
X0080101Y0073763D01*
X0080033Y0073921D01*
X0079969Y0074081D01*
X0079909Y0074242D01*
X0079853Y0074404D01*
X0079801Y0074568D01*
X0079754Y0074733D01*
X0079710Y0074899D01*
X0079670Y0075066D01*
X0079635Y0075234D01*
X0079603Y0075403D01*
X0079576Y0075573D01*
X0079553Y0075743D01*
X0079534Y0075914D01*
X0079519Y0076085D01*
X0079508Y0076257D01*
X0079502Y0076428D01*
X0079500Y0076600D01*
X0074500Y0080529D02*
X0074500Y0072600D01*
X0078000Y0064600D02*
X0095000Y0064600D01*
X0039500Y0072600D02*
X0039500Y0080647D01*
X0020500Y0076600D02*
X0020502Y0076772D01*
X0020508Y0076943D01*
X0020519Y0077115D01*
X0020534Y0077286D01*
X0020553Y0077457D01*
X0020576Y0077627D01*
X0020603Y0077797D01*
X0020635Y0077966D01*
X0020670Y0078134D01*
X0020710Y0078301D01*
X0020754Y0078467D01*
X0020801Y0078632D01*
X0020853Y0078796D01*
X0020909Y0078958D01*
X0020969Y0079119D01*
X0021033Y0079279D01*
X0021101Y0079437D01*
X0021172Y0079593D01*
X0021247Y0079747D01*
X0021327Y0079900D01*
X0021409Y0080050D01*
X0021496Y0080199D01*
X0021586Y0080345D01*
X0021680Y0080489D01*
X0021777Y0080631D01*
X0021878Y0080770D01*
X0021982Y0080907D01*
X0022089Y0081041D01*
X0022200Y0081172D01*
X0022313Y0081301D01*
X0022430Y0081427D01*
X0022550Y0081550D01*
X0022673Y0081670D01*
X0022799Y0081787D01*
X0022928Y0081900D01*
X0023059Y0082011D01*
X0023193Y0082118D01*
X0023330Y0082222D01*
X0023469Y0082323D01*
X0023611Y0082420D01*
X0023755Y0082514D01*
X0023901Y0082604D01*
X0024050Y0082691D01*
X0024200Y0082773D01*
X0024353Y0082853D01*
X0024507Y0082928D01*
X0024663Y0082999D01*
X0024821Y0083067D01*
X0024981Y0083131D01*
X0025142Y0083191D01*
X0025304Y0083247D01*
X0025468Y0083299D01*
X0025633Y0083346D01*
X0025799Y0083390D01*
X0025966Y0083430D01*
X0026134Y0083465D01*
X0026303Y0083497D01*
X0026473Y0083524D01*
X0026643Y0083547D01*
X0026814Y0083566D01*
X0026985Y0083581D01*
X0027157Y0083592D01*
X0027328Y0083598D01*
X0027500Y0083600D01*
X0027672Y0083598D01*
X0027843Y0083592D01*
X0028015Y0083581D01*
X0028186Y0083566D01*
X0028357Y0083547D01*
X0028527Y0083524D01*
X0028697Y0083497D01*
X0028866Y0083465D01*
X0029034Y0083430D01*
X0029201Y0083390D01*
X0029367Y0083346D01*
X0029532Y0083299D01*
X0029696Y0083247D01*
X0029858Y0083191D01*
X0030019Y0083131D01*
X0030179Y0083067D01*
X0030337Y0082999D01*
X0030493Y0082928D01*
X0030647Y0082853D01*
X0030800Y0082773D01*
X0030950Y0082691D01*
X0031099Y0082604D01*
X0031245Y0082514D01*
X0031389Y0082420D01*
X0031531Y0082323D01*
X0031670Y0082222D01*
X0031807Y0082118D01*
X0031941Y0082011D01*
X0032072Y0081900D01*
X0032201Y0081787D01*
X0032327Y0081670D01*
X0032450Y0081550D01*
X0032570Y0081427D01*
X0032687Y0081301D01*
X0032800Y0081172D01*
X0032911Y0081041D01*
X0033018Y0080907D01*
X0033122Y0080770D01*
X0033223Y0080631D01*
X0033320Y0080489D01*
X0033414Y0080345D01*
X0033504Y0080199D01*
X0033591Y0080050D01*
X0033673Y0079900D01*
X0033753Y0079747D01*
X0033828Y0079593D01*
X0033899Y0079437D01*
X0033967Y0079279D01*
X0034031Y0079119D01*
X0034091Y0078958D01*
X0034147Y0078796D01*
X0034199Y0078632D01*
X0034246Y0078467D01*
X0034290Y0078301D01*
X0034330Y0078134D01*
X0034365Y0077966D01*
X0034397Y0077797D01*
X0034424Y0077627D01*
X0034447Y0077457D01*
X0034466Y0077286D01*
X0034481Y0077115D01*
X0034492Y0076943D01*
X0034498Y0076772D01*
X0034500Y0076600D01*
X0034498Y0076428D01*
X0034492Y0076257D01*
X0034481Y0076085D01*
X0034466Y0075914D01*
X0034447Y0075743D01*
X0034424Y0075573D01*
X0034397Y0075403D01*
X0034365Y0075234D01*
X0034330Y0075066D01*
X0034290Y0074899D01*
X0034246Y0074733D01*
X0034199Y0074568D01*
X0034147Y0074404D01*
X0034091Y0074242D01*
X0034031Y0074081D01*
X0033967Y0073921D01*
X0033899Y0073763D01*
X0033828Y0073607D01*
X0033753Y0073453D01*
X0033673Y0073300D01*
X0033591Y0073150D01*
X0033504Y0073001D01*
X0033414Y0072855D01*
X0033320Y0072711D01*
X0033223Y0072569D01*
X0033122Y0072430D01*
X0033018Y0072293D01*
X0032911Y0072159D01*
X0032800Y0072028D01*
X0032687Y0071899D01*
X0032570Y0071773D01*
X0032450Y0071650D01*
X0032327Y0071530D01*
X0032201Y0071413D01*
X0032072Y0071300D01*
X0031941Y0071189D01*
X0031807Y0071082D01*
X0031670Y0070978D01*
X0031531Y0070877D01*
X0031389Y0070780D01*
X0031245Y0070686D01*
X0031099Y0070596D01*
X0030950Y0070509D01*
X0030800Y0070427D01*
X0030647Y0070347D01*
X0030493Y0070272D01*
X0030337Y0070201D01*
X0030179Y0070133D01*
X0030019Y0070069D01*
X0029858Y0070009D01*
X0029696Y0069953D01*
X0029532Y0069901D01*
X0029367Y0069854D01*
X0029201Y0069810D01*
X0029034Y0069770D01*
X0028866Y0069735D01*
X0028697Y0069703D01*
X0028527Y0069676D01*
X0028357Y0069653D01*
X0028186Y0069634D01*
X0028015Y0069619D01*
X0027843Y0069608D01*
X0027672Y0069602D01*
X0027500Y0069600D01*
X0027328Y0069602D01*
X0027157Y0069608D01*
X0026985Y0069619D01*
X0026814Y0069634D01*
X0026643Y0069653D01*
X0026473Y0069676D01*
X0026303Y0069703D01*
X0026134Y0069735D01*
X0025966Y0069770D01*
X0025799Y0069810D01*
X0025633Y0069854D01*
X0025468Y0069901D01*
X0025304Y0069953D01*
X0025142Y0070009D01*
X0024981Y0070069D01*
X0024821Y0070133D01*
X0024663Y0070201D01*
X0024507Y0070272D01*
X0024353Y0070347D01*
X0024200Y0070427D01*
X0024050Y0070509D01*
X0023901Y0070596D01*
X0023755Y0070686D01*
X0023611Y0070780D01*
X0023469Y0070877D01*
X0023330Y0070978D01*
X0023193Y0071082D01*
X0023059Y0071189D01*
X0022928Y0071300D01*
X0022799Y0071413D01*
X0022673Y0071530D01*
X0022550Y0071650D01*
X0022430Y0071773D01*
X0022313Y0071899D01*
X0022200Y0072028D01*
X0022089Y0072159D01*
X0021982Y0072293D01*
X0021878Y0072430D01*
X0021777Y0072569D01*
X0021680Y0072711D01*
X0021586Y0072855D01*
X0021496Y0073001D01*
X0021409Y0073150D01*
X0021327Y0073300D01*
X0021247Y0073453D01*
X0021172Y0073607D01*
X0021101Y0073763D01*
X0021033Y0073921D01*
X0020969Y0074081D01*
X0020909Y0074242D01*
X0020853Y0074404D01*
X0020801Y0074568D01*
X0020754Y0074733D01*
X0020710Y0074899D01*
X0020670Y0075066D01*
X0020635Y0075234D01*
X0020603Y0075403D01*
X0020576Y0075573D01*
X0020553Y0075743D01*
X0020534Y0075914D01*
X0020519Y0076085D01*
X0020508Y0076257D01*
X0020502Y0076428D01*
X0020500Y0076600D01*
X0015500Y0080529D02*
X0015500Y0072600D01*
X0019000Y0064600D02*
X0036000Y0064600D01*
X0036000Y0048600D02*
X0019000Y0048600D01*
X0015500Y0040529D02*
X0015500Y0032600D01*
X0020500Y0036600D02*
X0020502Y0036772D01*
X0020508Y0036943D01*
X0020519Y0037115D01*
X0020534Y0037286D01*
X0020553Y0037457D01*
X0020576Y0037627D01*
X0020603Y0037797D01*
X0020635Y0037966D01*
X0020670Y0038134D01*
X0020710Y0038301D01*
X0020754Y0038467D01*
X0020801Y0038632D01*
X0020853Y0038796D01*
X0020909Y0038958D01*
X0020969Y0039119D01*
X0021033Y0039279D01*
X0021101Y0039437D01*
X0021172Y0039593D01*
X0021247Y0039747D01*
X0021327Y0039900D01*
X0021409Y0040050D01*
X0021496Y0040199D01*
X0021586Y0040345D01*
X0021680Y0040489D01*
X0021777Y0040631D01*
X0021878Y0040770D01*
X0021982Y0040907D01*
X0022089Y0041041D01*
X0022200Y0041172D01*
X0022313Y0041301D01*
X0022430Y0041427D01*
X0022550Y0041550D01*
X0022673Y0041670D01*
X0022799Y0041787D01*
X0022928Y0041900D01*
X0023059Y0042011D01*
X0023193Y0042118D01*
X0023330Y0042222D01*
X0023469Y0042323D01*
X0023611Y0042420D01*
X0023755Y0042514D01*
X0023901Y0042604D01*
X0024050Y0042691D01*
X0024200Y0042773D01*
X0024353Y0042853D01*
X0024507Y0042928D01*
X0024663Y0042999D01*
X0024821Y0043067D01*
X0024981Y0043131D01*
X0025142Y0043191D01*
X0025304Y0043247D01*
X0025468Y0043299D01*
X0025633Y0043346D01*
X0025799Y0043390D01*
X0025966Y0043430D01*
X0026134Y0043465D01*
X0026303Y0043497D01*
X0026473Y0043524D01*
X0026643Y0043547D01*
X0026814Y0043566D01*
X0026985Y0043581D01*
X0027157Y0043592D01*
X0027328Y0043598D01*
X0027500Y0043600D01*
X0027672Y0043598D01*
X0027843Y0043592D01*
X0028015Y0043581D01*
X0028186Y0043566D01*
X0028357Y0043547D01*
X0028527Y0043524D01*
X0028697Y0043497D01*
X0028866Y0043465D01*
X0029034Y0043430D01*
X0029201Y0043390D01*
X0029367Y0043346D01*
X0029532Y0043299D01*
X0029696Y0043247D01*
X0029858Y0043191D01*
X0030019Y0043131D01*
X0030179Y0043067D01*
X0030337Y0042999D01*
X0030493Y0042928D01*
X0030647Y0042853D01*
X0030800Y0042773D01*
X0030950Y0042691D01*
X0031099Y0042604D01*
X0031245Y0042514D01*
X0031389Y0042420D01*
X0031531Y0042323D01*
X0031670Y0042222D01*
X0031807Y0042118D01*
X0031941Y0042011D01*
X0032072Y0041900D01*
X0032201Y0041787D01*
X0032327Y0041670D01*
X0032450Y0041550D01*
X0032570Y0041427D01*
X0032687Y0041301D01*
X0032800Y0041172D01*
X0032911Y0041041D01*
X0033018Y0040907D01*
X0033122Y0040770D01*
X0033223Y0040631D01*
X0033320Y0040489D01*
X0033414Y0040345D01*
X0033504Y0040199D01*
X0033591Y0040050D01*
X0033673Y0039900D01*
X0033753Y0039747D01*
X0033828Y0039593D01*
X0033899Y0039437D01*
X0033967Y0039279D01*
X0034031Y0039119D01*
X0034091Y0038958D01*
X0034147Y0038796D01*
X0034199Y0038632D01*
X0034246Y0038467D01*
X0034290Y0038301D01*
X0034330Y0038134D01*
X0034365Y0037966D01*
X0034397Y0037797D01*
X0034424Y0037627D01*
X0034447Y0037457D01*
X0034466Y0037286D01*
X0034481Y0037115D01*
X0034492Y0036943D01*
X0034498Y0036772D01*
X0034500Y0036600D01*
X0034498Y0036428D01*
X0034492Y0036257D01*
X0034481Y0036085D01*
X0034466Y0035914D01*
X0034447Y0035743D01*
X0034424Y0035573D01*
X0034397Y0035403D01*
X0034365Y0035234D01*
X0034330Y0035066D01*
X0034290Y0034899D01*
X0034246Y0034733D01*
X0034199Y0034568D01*
X0034147Y0034404D01*
X0034091Y0034242D01*
X0034031Y0034081D01*
X0033967Y0033921D01*
X0033899Y0033763D01*
X0033828Y0033607D01*
X0033753Y0033453D01*
X0033673Y0033300D01*
X0033591Y0033150D01*
X0033504Y0033001D01*
X0033414Y0032855D01*
X0033320Y0032711D01*
X0033223Y0032569D01*
X0033122Y0032430D01*
X0033018Y0032293D01*
X0032911Y0032159D01*
X0032800Y0032028D01*
X0032687Y0031899D01*
X0032570Y0031773D01*
X0032450Y0031650D01*
X0032327Y0031530D01*
X0032201Y0031413D01*
X0032072Y0031300D01*
X0031941Y0031189D01*
X0031807Y0031082D01*
X0031670Y0030978D01*
X0031531Y0030877D01*
X0031389Y0030780D01*
X0031245Y0030686D01*
X0031099Y0030596D01*
X0030950Y0030509D01*
X0030800Y0030427D01*
X0030647Y0030347D01*
X0030493Y0030272D01*
X0030337Y0030201D01*
X0030179Y0030133D01*
X0030019Y0030069D01*
X0029858Y0030009D01*
X0029696Y0029953D01*
X0029532Y0029901D01*
X0029367Y0029854D01*
X0029201Y0029810D01*
X0029034Y0029770D01*
X0028866Y0029735D01*
X0028697Y0029703D01*
X0028527Y0029676D01*
X0028357Y0029653D01*
X0028186Y0029634D01*
X0028015Y0029619D01*
X0027843Y0029608D01*
X0027672Y0029602D01*
X0027500Y0029600D01*
X0027328Y0029602D01*
X0027157Y0029608D01*
X0026985Y0029619D01*
X0026814Y0029634D01*
X0026643Y0029653D01*
X0026473Y0029676D01*
X0026303Y0029703D01*
X0026134Y0029735D01*
X0025966Y0029770D01*
X0025799Y0029810D01*
X0025633Y0029854D01*
X0025468Y0029901D01*
X0025304Y0029953D01*
X0025142Y0030009D01*
X0024981Y0030069D01*
X0024821Y0030133D01*
X0024663Y0030201D01*
X0024507Y0030272D01*
X0024353Y0030347D01*
X0024200Y0030427D01*
X0024050Y0030509D01*
X0023901Y0030596D01*
X0023755Y0030686D01*
X0023611Y0030780D01*
X0023469Y0030877D01*
X0023330Y0030978D01*
X0023193Y0031082D01*
X0023059Y0031189D01*
X0022928Y0031300D01*
X0022799Y0031413D01*
X0022673Y0031530D01*
X0022550Y0031650D01*
X0022430Y0031773D01*
X0022313Y0031899D01*
X0022200Y0032028D01*
X0022089Y0032159D01*
X0021982Y0032293D01*
X0021878Y0032430D01*
X0021777Y0032569D01*
X0021680Y0032711D01*
X0021586Y0032855D01*
X0021496Y0033001D01*
X0021409Y0033150D01*
X0021327Y0033300D01*
X0021247Y0033453D01*
X0021172Y0033607D01*
X0021101Y0033763D01*
X0021033Y0033921D01*
X0020969Y0034081D01*
X0020909Y0034242D01*
X0020853Y0034404D01*
X0020801Y0034568D01*
X0020754Y0034733D01*
X0020710Y0034899D01*
X0020670Y0035066D01*
X0020635Y0035234D01*
X0020603Y0035403D01*
X0020576Y0035573D01*
X0020553Y0035743D01*
X0020534Y0035914D01*
X0020519Y0036085D01*
X0020508Y0036257D01*
X0020502Y0036428D01*
X0020500Y0036600D01*
X0039500Y0032600D02*
X0039500Y0040647D01*
X0074500Y0040529D02*
X0074500Y0032600D01*
X0079500Y0036600D02*
X0079502Y0036772D01*
X0079508Y0036943D01*
X0079519Y0037115D01*
X0079534Y0037286D01*
X0079553Y0037457D01*
X0079576Y0037627D01*
X0079603Y0037797D01*
X0079635Y0037966D01*
X0079670Y0038134D01*
X0079710Y0038301D01*
X0079754Y0038467D01*
X0079801Y0038632D01*
X0079853Y0038796D01*
X0079909Y0038958D01*
X0079969Y0039119D01*
X0080033Y0039279D01*
X0080101Y0039437D01*
X0080172Y0039593D01*
X0080247Y0039747D01*
X0080327Y0039900D01*
X0080409Y0040050D01*
X0080496Y0040199D01*
X0080586Y0040345D01*
X0080680Y0040489D01*
X0080777Y0040631D01*
X0080878Y0040770D01*
X0080982Y0040907D01*
X0081089Y0041041D01*
X0081200Y0041172D01*
X0081313Y0041301D01*
X0081430Y0041427D01*
X0081550Y0041550D01*
X0081673Y0041670D01*
X0081799Y0041787D01*
X0081928Y0041900D01*
X0082059Y0042011D01*
X0082193Y0042118D01*
X0082330Y0042222D01*
X0082469Y0042323D01*
X0082611Y0042420D01*
X0082755Y0042514D01*
X0082901Y0042604D01*
X0083050Y0042691D01*
X0083200Y0042773D01*
X0083353Y0042853D01*
X0083507Y0042928D01*
X0083663Y0042999D01*
X0083821Y0043067D01*
X0083981Y0043131D01*
X0084142Y0043191D01*
X0084304Y0043247D01*
X0084468Y0043299D01*
X0084633Y0043346D01*
X0084799Y0043390D01*
X0084966Y0043430D01*
X0085134Y0043465D01*
X0085303Y0043497D01*
X0085473Y0043524D01*
X0085643Y0043547D01*
X0085814Y0043566D01*
X0085985Y0043581D01*
X0086157Y0043592D01*
X0086328Y0043598D01*
X0086500Y0043600D01*
X0086672Y0043598D01*
X0086843Y0043592D01*
X0087015Y0043581D01*
X0087186Y0043566D01*
X0087357Y0043547D01*
X0087527Y0043524D01*
X0087697Y0043497D01*
X0087866Y0043465D01*
X0088034Y0043430D01*
X0088201Y0043390D01*
X0088367Y0043346D01*
X0088532Y0043299D01*
X0088696Y0043247D01*
X0088858Y0043191D01*
X0089019Y0043131D01*
X0089179Y0043067D01*
X0089337Y0042999D01*
X0089493Y0042928D01*
X0089647Y0042853D01*
X0089800Y0042773D01*
X0089950Y0042691D01*
X0090099Y0042604D01*
X0090245Y0042514D01*
X0090389Y0042420D01*
X0090531Y0042323D01*
X0090670Y0042222D01*
X0090807Y0042118D01*
X0090941Y0042011D01*
X0091072Y0041900D01*
X0091201Y0041787D01*
X0091327Y0041670D01*
X0091450Y0041550D01*
X0091570Y0041427D01*
X0091687Y0041301D01*
X0091800Y0041172D01*
X0091911Y0041041D01*
X0092018Y0040907D01*
X0092122Y0040770D01*
X0092223Y0040631D01*
X0092320Y0040489D01*
X0092414Y0040345D01*
X0092504Y0040199D01*
X0092591Y0040050D01*
X0092673Y0039900D01*
X0092753Y0039747D01*
X0092828Y0039593D01*
X0092899Y0039437D01*
X0092967Y0039279D01*
X0093031Y0039119D01*
X0093091Y0038958D01*
X0093147Y0038796D01*
X0093199Y0038632D01*
X0093246Y0038467D01*
X0093290Y0038301D01*
X0093330Y0038134D01*
X0093365Y0037966D01*
X0093397Y0037797D01*
X0093424Y0037627D01*
X0093447Y0037457D01*
X0093466Y0037286D01*
X0093481Y0037115D01*
X0093492Y0036943D01*
X0093498Y0036772D01*
X0093500Y0036600D01*
X0093498Y0036428D01*
X0093492Y0036257D01*
X0093481Y0036085D01*
X0093466Y0035914D01*
X0093447Y0035743D01*
X0093424Y0035573D01*
X0093397Y0035403D01*
X0093365Y0035234D01*
X0093330Y0035066D01*
X0093290Y0034899D01*
X0093246Y0034733D01*
X0093199Y0034568D01*
X0093147Y0034404D01*
X0093091Y0034242D01*
X0093031Y0034081D01*
X0092967Y0033921D01*
X0092899Y0033763D01*
X0092828Y0033607D01*
X0092753Y0033453D01*
X0092673Y0033300D01*
X0092591Y0033150D01*
X0092504Y0033001D01*
X0092414Y0032855D01*
X0092320Y0032711D01*
X0092223Y0032569D01*
X0092122Y0032430D01*
X0092018Y0032293D01*
X0091911Y0032159D01*
X0091800Y0032028D01*
X0091687Y0031899D01*
X0091570Y0031773D01*
X0091450Y0031650D01*
X0091327Y0031530D01*
X0091201Y0031413D01*
X0091072Y0031300D01*
X0090941Y0031189D01*
X0090807Y0031082D01*
X0090670Y0030978D01*
X0090531Y0030877D01*
X0090389Y0030780D01*
X0090245Y0030686D01*
X0090099Y0030596D01*
X0089950Y0030509D01*
X0089800Y0030427D01*
X0089647Y0030347D01*
X0089493Y0030272D01*
X0089337Y0030201D01*
X0089179Y0030133D01*
X0089019Y0030069D01*
X0088858Y0030009D01*
X0088696Y0029953D01*
X0088532Y0029901D01*
X0088367Y0029854D01*
X0088201Y0029810D01*
X0088034Y0029770D01*
X0087866Y0029735D01*
X0087697Y0029703D01*
X0087527Y0029676D01*
X0087357Y0029653D01*
X0087186Y0029634D01*
X0087015Y0029619D01*
X0086843Y0029608D01*
X0086672Y0029602D01*
X0086500Y0029600D01*
X0086328Y0029602D01*
X0086157Y0029608D01*
X0085985Y0029619D01*
X0085814Y0029634D01*
X0085643Y0029653D01*
X0085473Y0029676D01*
X0085303Y0029703D01*
X0085134Y0029735D01*
X0084966Y0029770D01*
X0084799Y0029810D01*
X0084633Y0029854D01*
X0084468Y0029901D01*
X0084304Y0029953D01*
X0084142Y0030009D01*
X0083981Y0030069D01*
X0083821Y0030133D01*
X0083663Y0030201D01*
X0083507Y0030272D01*
X0083353Y0030347D01*
X0083200Y0030427D01*
X0083050Y0030509D01*
X0082901Y0030596D01*
X0082755Y0030686D01*
X0082611Y0030780D01*
X0082469Y0030877D01*
X0082330Y0030978D01*
X0082193Y0031082D01*
X0082059Y0031189D01*
X0081928Y0031300D01*
X0081799Y0031413D01*
X0081673Y0031530D01*
X0081550Y0031650D01*
X0081430Y0031773D01*
X0081313Y0031899D01*
X0081200Y0032028D01*
X0081089Y0032159D01*
X0080982Y0032293D01*
X0080878Y0032430D01*
X0080777Y0032569D01*
X0080680Y0032711D01*
X0080586Y0032855D01*
X0080496Y0033001D01*
X0080409Y0033150D01*
X0080327Y0033300D01*
X0080247Y0033453D01*
X0080172Y0033607D01*
X0080101Y0033763D01*
X0080033Y0033921D01*
X0079969Y0034081D01*
X0079909Y0034242D01*
X0079853Y0034404D01*
X0079801Y0034568D01*
X0079754Y0034733D01*
X0079710Y0034899D01*
X0079670Y0035066D01*
X0079635Y0035234D01*
X0079603Y0035403D01*
X0079576Y0035573D01*
X0079553Y0035743D01*
X0079534Y0035914D01*
X0079519Y0036085D01*
X0079508Y0036257D01*
X0079502Y0036428D01*
X0079500Y0036600D01*
X0098500Y0032600D02*
X0098500Y0040647D01*
X0095000Y0048600D02*
X0078000Y0048600D01*
X0133500Y0040529D02*
X0133500Y0032600D01*
X0138500Y0036600D02*
X0138502Y0036772D01*
X0138508Y0036943D01*
X0138519Y0037115D01*
X0138534Y0037286D01*
X0138553Y0037457D01*
X0138576Y0037627D01*
X0138603Y0037797D01*
X0138635Y0037966D01*
X0138670Y0038134D01*
X0138710Y0038301D01*
X0138754Y0038467D01*
X0138801Y0038632D01*
X0138853Y0038796D01*
X0138909Y0038958D01*
X0138969Y0039119D01*
X0139033Y0039279D01*
X0139101Y0039437D01*
X0139172Y0039593D01*
X0139247Y0039747D01*
X0139327Y0039900D01*
X0139409Y0040050D01*
X0139496Y0040199D01*
X0139586Y0040345D01*
X0139680Y0040489D01*
X0139777Y0040631D01*
X0139878Y0040770D01*
X0139982Y0040907D01*
X0140089Y0041041D01*
X0140200Y0041172D01*
X0140313Y0041301D01*
X0140430Y0041427D01*
X0140550Y0041550D01*
X0140673Y0041670D01*
X0140799Y0041787D01*
X0140928Y0041900D01*
X0141059Y0042011D01*
X0141193Y0042118D01*
X0141330Y0042222D01*
X0141469Y0042323D01*
X0141611Y0042420D01*
X0141755Y0042514D01*
X0141901Y0042604D01*
X0142050Y0042691D01*
X0142200Y0042773D01*
X0142353Y0042853D01*
X0142507Y0042928D01*
X0142663Y0042999D01*
X0142821Y0043067D01*
X0142981Y0043131D01*
X0143142Y0043191D01*
X0143304Y0043247D01*
X0143468Y0043299D01*
X0143633Y0043346D01*
X0143799Y0043390D01*
X0143966Y0043430D01*
X0144134Y0043465D01*
X0144303Y0043497D01*
X0144473Y0043524D01*
X0144643Y0043547D01*
X0144814Y0043566D01*
X0144985Y0043581D01*
X0145157Y0043592D01*
X0145328Y0043598D01*
X0145500Y0043600D01*
X0145672Y0043598D01*
X0145843Y0043592D01*
X0146015Y0043581D01*
X0146186Y0043566D01*
X0146357Y0043547D01*
X0146527Y0043524D01*
X0146697Y0043497D01*
X0146866Y0043465D01*
X0147034Y0043430D01*
X0147201Y0043390D01*
X0147367Y0043346D01*
X0147532Y0043299D01*
X0147696Y0043247D01*
X0147858Y0043191D01*
X0148019Y0043131D01*
X0148179Y0043067D01*
X0148337Y0042999D01*
X0148493Y0042928D01*
X0148647Y0042853D01*
X0148800Y0042773D01*
X0148950Y0042691D01*
X0149099Y0042604D01*
X0149245Y0042514D01*
X0149389Y0042420D01*
X0149531Y0042323D01*
X0149670Y0042222D01*
X0149807Y0042118D01*
X0149941Y0042011D01*
X0150072Y0041900D01*
X0150201Y0041787D01*
X0150327Y0041670D01*
X0150450Y0041550D01*
X0150570Y0041427D01*
X0150687Y0041301D01*
X0150800Y0041172D01*
X0150911Y0041041D01*
X0151018Y0040907D01*
X0151122Y0040770D01*
X0151223Y0040631D01*
X0151320Y0040489D01*
X0151414Y0040345D01*
X0151504Y0040199D01*
X0151591Y0040050D01*
X0151673Y0039900D01*
X0151753Y0039747D01*
X0151828Y0039593D01*
X0151899Y0039437D01*
X0151967Y0039279D01*
X0152031Y0039119D01*
X0152091Y0038958D01*
X0152147Y0038796D01*
X0152199Y0038632D01*
X0152246Y0038467D01*
X0152290Y0038301D01*
X0152330Y0038134D01*
X0152365Y0037966D01*
X0152397Y0037797D01*
X0152424Y0037627D01*
X0152447Y0037457D01*
X0152466Y0037286D01*
X0152481Y0037115D01*
X0152492Y0036943D01*
X0152498Y0036772D01*
X0152500Y0036600D01*
X0152498Y0036428D01*
X0152492Y0036257D01*
X0152481Y0036085D01*
X0152466Y0035914D01*
X0152447Y0035743D01*
X0152424Y0035573D01*
X0152397Y0035403D01*
X0152365Y0035234D01*
X0152330Y0035066D01*
X0152290Y0034899D01*
X0152246Y0034733D01*
X0152199Y0034568D01*
X0152147Y0034404D01*
X0152091Y0034242D01*
X0152031Y0034081D01*
X0151967Y0033921D01*
X0151899Y0033763D01*
X0151828Y0033607D01*
X0151753Y0033453D01*
X0151673Y0033300D01*
X0151591Y0033150D01*
X0151504Y0033001D01*
X0151414Y0032855D01*
X0151320Y0032711D01*
X0151223Y0032569D01*
X0151122Y0032430D01*
X0151018Y0032293D01*
X0150911Y0032159D01*
X0150800Y0032028D01*
X0150687Y0031899D01*
X0150570Y0031773D01*
X0150450Y0031650D01*
X0150327Y0031530D01*
X0150201Y0031413D01*
X0150072Y0031300D01*
X0149941Y0031189D01*
X0149807Y0031082D01*
X0149670Y0030978D01*
X0149531Y0030877D01*
X0149389Y0030780D01*
X0149245Y0030686D01*
X0149099Y0030596D01*
X0148950Y0030509D01*
X0148800Y0030427D01*
X0148647Y0030347D01*
X0148493Y0030272D01*
X0148337Y0030201D01*
X0148179Y0030133D01*
X0148019Y0030069D01*
X0147858Y0030009D01*
X0147696Y0029953D01*
X0147532Y0029901D01*
X0147367Y0029854D01*
X0147201Y0029810D01*
X0147034Y0029770D01*
X0146866Y0029735D01*
X0146697Y0029703D01*
X0146527Y0029676D01*
X0146357Y0029653D01*
X0146186Y0029634D01*
X0146015Y0029619D01*
X0145843Y0029608D01*
X0145672Y0029602D01*
X0145500Y0029600D01*
X0145328Y0029602D01*
X0145157Y0029608D01*
X0144985Y0029619D01*
X0144814Y0029634D01*
X0144643Y0029653D01*
X0144473Y0029676D01*
X0144303Y0029703D01*
X0144134Y0029735D01*
X0143966Y0029770D01*
X0143799Y0029810D01*
X0143633Y0029854D01*
X0143468Y0029901D01*
X0143304Y0029953D01*
X0143142Y0030009D01*
X0142981Y0030069D01*
X0142821Y0030133D01*
X0142663Y0030201D01*
X0142507Y0030272D01*
X0142353Y0030347D01*
X0142200Y0030427D01*
X0142050Y0030509D01*
X0141901Y0030596D01*
X0141755Y0030686D01*
X0141611Y0030780D01*
X0141469Y0030877D01*
X0141330Y0030978D01*
X0141193Y0031082D01*
X0141059Y0031189D01*
X0140928Y0031300D01*
X0140799Y0031413D01*
X0140673Y0031530D01*
X0140550Y0031650D01*
X0140430Y0031773D01*
X0140313Y0031899D01*
X0140200Y0032028D01*
X0140089Y0032159D01*
X0139982Y0032293D01*
X0139878Y0032430D01*
X0139777Y0032569D01*
X0139680Y0032711D01*
X0139586Y0032855D01*
X0139496Y0033001D01*
X0139409Y0033150D01*
X0139327Y0033300D01*
X0139247Y0033453D01*
X0139172Y0033607D01*
X0139101Y0033763D01*
X0139033Y0033921D01*
X0138969Y0034081D01*
X0138909Y0034242D01*
X0138853Y0034404D01*
X0138801Y0034568D01*
X0138754Y0034733D01*
X0138710Y0034899D01*
X0138670Y0035066D01*
X0138635Y0035234D01*
X0138603Y0035403D01*
X0138576Y0035573D01*
X0138553Y0035743D01*
X0138534Y0035914D01*
X0138519Y0036085D01*
X0138508Y0036257D01*
X0138502Y0036428D01*
X0138500Y0036600D01*
X0157500Y0032600D02*
X0157500Y0040647D01*
X0154000Y0048600D02*
X0137000Y0048600D01*
X0192500Y0039529D02*
X0192500Y0031600D01*
X0197500Y0035600D02*
X0197502Y0035772D01*
X0197508Y0035943D01*
X0197519Y0036115D01*
X0197534Y0036286D01*
X0197553Y0036457D01*
X0197576Y0036627D01*
X0197603Y0036797D01*
X0197635Y0036966D01*
X0197670Y0037134D01*
X0197710Y0037301D01*
X0197754Y0037467D01*
X0197801Y0037632D01*
X0197853Y0037796D01*
X0197909Y0037958D01*
X0197969Y0038119D01*
X0198033Y0038279D01*
X0198101Y0038437D01*
X0198172Y0038593D01*
X0198247Y0038747D01*
X0198327Y0038900D01*
X0198409Y0039050D01*
X0198496Y0039199D01*
X0198586Y0039345D01*
X0198680Y0039489D01*
X0198777Y0039631D01*
X0198878Y0039770D01*
X0198982Y0039907D01*
X0199089Y0040041D01*
X0199200Y0040172D01*
X0199313Y0040301D01*
X0199430Y0040427D01*
X0199550Y0040550D01*
X0199673Y0040670D01*
X0199799Y0040787D01*
X0199928Y0040900D01*
X0200059Y0041011D01*
X0200193Y0041118D01*
X0200330Y0041222D01*
X0200469Y0041323D01*
X0200611Y0041420D01*
X0200755Y0041514D01*
X0200901Y0041604D01*
X0201050Y0041691D01*
X0201200Y0041773D01*
X0201353Y0041853D01*
X0201507Y0041928D01*
X0201663Y0041999D01*
X0201821Y0042067D01*
X0201981Y0042131D01*
X0202142Y0042191D01*
X0202304Y0042247D01*
X0202468Y0042299D01*
X0202633Y0042346D01*
X0202799Y0042390D01*
X0202966Y0042430D01*
X0203134Y0042465D01*
X0203303Y0042497D01*
X0203473Y0042524D01*
X0203643Y0042547D01*
X0203814Y0042566D01*
X0203985Y0042581D01*
X0204157Y0042592D01*
X0204328Y0042598D01*
X0204500Y0042600D01*
X0204672Y0042598D01*
X0204843Y0042592D01*
X0205015Y0042581D01*
X0205186Y0042566D01*
X0205357Y0042547D01*
X0205527Y0042524D01*
X0205697Y0042497D01*
X0205866Y0042465D01*
X0206034Y0042430D01*
X0206201Y0042390D01*
X0206367Y0042346D01*
X0206532Y0042299D01*
X0206696Y0042247D01*
X0206858Y0042191D01*
X0207019Y0042131D01*
X0207179Y0042067D01*
X0207337Y0041999D01*
X0207493Y0041928D01*
X0207647Y0041853D01*
X0207800Y0041773D01*
X0207950Y0041691D01*
X0208099Y0041604D01*
X0208245Y0041514D01*
X0208389Y0041420D01*
X0208531Y0041323D01*
X0208670Y0041222D01*
X0208807Y0041118D01*
X0208941Y0041011D01*
X0209072Y0040900D01*
X0209201Y0040787D01*
X0209327Y0040670D01*
X0209450Y0040550D01*
X0209570Y0040427D01*
X0209687Y0040301D01*
X0209800Y0040172D01*
X0209911Y0040041D01*
X0210018Y0039907D01*
X0210122Y0039770D01*
X0210223Y0039631D01*
X0210320Y0039489D01*
X0210414Y0039345D01*
X0210504Y0039199D01*
X0210591Y0039050D01*
X0210673Y0038900D01*
X0210753Y0038747D01*
X0210828Y0038593D01*
X0210899Y0038437D01*
X0210967Y0038279D01*
X0211031Y0038119D01*
X0211091Y0037958D01*
X0211147Y0037796D01*
X0211199Y0037632D01*
X0211246Y0037467D01*
X0211290Y0037301D01*
X0211330Y0037134D01*
X0211365Y0036966D01*
X0211397Y0036797D01*
X0211424Y0036627D01*
X0211447Y0036457D01*
X0211466Y0036286D01*
X0211481Y0036115D01*
X0211492Y0035943D01*
X0211498Y0035772D01*
X0211500Y0035600D01*
X0211498Y0035428D01*
X0211492Y0035257D01*
X0211481Y0035085D01*
X0211466Y0034914D01*
X0211447Y0034743D01*
X0211424Y0034573D01*
X0211397Y0034403D01*
X0211365Y0034234D01*
X0211330Y0034066D01*
X0211290Y0033899D01*
X0211246Y0033733D01*
X0211199Y0033568D01*
X0211147Y0033404D01*
X0211091Y0033242D01*
X0211031Y0033081D01*
X0210967Y0032921D01*
X0210899Y0032763D01*
X0210828Y0032607D01*
X0210753Y0032453D01*
X0210673Y0032300D01*
X0210591Y0032150D01*
X0210504Y0032001D01*
X0210414Y0031855D01*
X0210320Y0031711D01*
X0210223Y0031569D01*
X0210122Y0031430D01*
X0210018Y0031293D01*
X0209911Y0031159D01*
X0209800Y0031028D01*
X0209687Y0030899D01*
X0209570Y0030773D01*
X0209450Y0030650D01*
X0209327Y0030530D01*
X0209201Y0030413D01*
X0209072Y0030300D01*
X0208941Y0030189D01*
X0208807Y0030082D01*
X0208670Y0029978D01*
X0208531Y0029877D01*
X0208389Y0029780D01*
X0208245Y0029686D01*
X0208099Y0029596D01*
X0207950Y0029509D01*
X0207800Y0029427D01*
X0207647Y0029347D01*
X0207493Y0029272D01*
X0207337Y0029201D01*
X0207179Y0029133D01*
X0207019Y0029069D01*
X0206858Y0029009D01*
X0206696Y0028953D01*
X0206532Y0028901D01*
X0206367Y0028854D01*
X0206201Y0028810D01*
X0206034Y0028770D01*
X0205866Y0028735D01*
X0205697Y0028703D01*
X0205527Y0028676D01*
X0205357Y0028653D01*
X0205186Y0028634D01*
X0205015Y0028619D01*
X0204843Y0028608D01*
X0204672Y0028602D01*
X0204500Y0028600D01*
X0204328Y0028602D01*
X0204157Y0028608D01*
X0203985Y0028619D01*
X0203814Y0028634D01*
X0203643Y0028653D01*
X0203473Y0028676D01*
X0203303Y0028703D01*
X0203134Y0028735D01*
X0202966Y0028770D01*
X0202799Y0028810D01*
X0202633Y0028854D01*
X0202468Y0028901D01*
X0202304Y0028953D01*
X0202142Y0029009D01*
X0201981Y0029069D01*
X0201821Y0029133D01*
X0201663Y0029201D01*
X0201507Y0029272D01*
X0201353Y0029347D01*
X0201200Y0029427D01*
X0201050Y0029509D01*
X0200901Y0029596D01*
X0200755Y0029686D01*
X0200611Y0029780D01*
X0200469Y0029877D01*
X0200330Y0029978D01*
X0200193Y0030082D01*
X0200059Y0030189D01*
X0199928Y0030300D01*
X0199799Y0030413D01*
X0199673Y0030530D01*
X0199550Y0030650D01*
X0199430Y0030773D01*
X0199313Y0030899D01*
X0199200Y0031028D01*
X0199089Y0031159D01*
X0198982Y0031293D01*
X0198878Y0031430D01*
X0198777Y0031569D01*
X0198680Y0031711D01*
X0198586Y0031855D01*
X0198496Y0032001D01*
X0198409Y0032150D01*
X0198327Y0032300D01*
X0198247Y0032453D01*
X0198172Y0032607D01*
X0198101Y0032763D01*
X0198033Y0032921D01*
X0197969Y0033081D01*
X0197909Y0033242D01*
X0197853Y0033404D01*
X0197801Y0033568D01*
X0197754Y0033733D01*
X0197710Y0033899D01*
X0197670Y0034066D01*
X0197635Y0034234D01*
X0197603Y0034403D01*
X0197576Y0034573D01*
X0197553Y0034743D01*
X0197534Y0034914D01*
X0197519Y0035085D01*
X0197508Y0035257D01*
X0197502Y0035428D01*
X0197500Y0035600D01*
X0216500Y0031600D02*
X0216500Y0039647D01*
X0213000Y0047600D02*
X0196000Y0047600D01*
X0154000Y0024600D02*
X0137000Y0024600D01*
X0095000Y0024600D02*
X0078000Y0024600D01*
X0036000Y0024600D02*
X0019000Y0024600D01*
X0196000Y0023600D02*
X0213000Y0023600D01*
X0299300Y0030100D02*
X0299300Y0055900D01*
X0313300Y0055900D01*
X0313300Y0030100D01*
X0299300Y0030100D01*
X0359900Y0029800D02*
X0359900Y0055600D01*
X0373900Y0055600D01*
X0373900Y0029800D01*
X0359900Y0029800D01*
X0419600Y0030600D02*
X0419600Y0056400D01*
X0433600Y0056400D01*
X0433600Y0030600D01*
X0419600Y0030600D01*
X0470300Y0059000D02*
X0470300Y0084800D01*
X0484300Y0084800D01*
X0484300Y0059000D01*
X0470300Y0059000D01*
X0213000Y0088600D02*
X0196000Y0088600D01*
X0154000Y0088600D02*
X0137000Y0088600D01*
X0136535Y0096500D02*
X0136537Y0096547D01*
X0136543Y0096594D01*
X0136553Y0096641D01*
X0136566Y0096686D01*
X0136584Y0096730D01*
X0136605Y0096772D01*
X0136629Y0096813D01*
X0136657Y0096851D01*
X0136688Y0096887D01*
X0136722Y0096920D01*
X0136758Y0096950D01*
X0136797Y0096977D01*
X0136838Y0097001D01*
X0136881Y0097021D01*
X0136925Y0097037D01*
X0136971Y0097050D01*
X0137017Y0097059D01*
X0137065Y0097064D01*
X0137112Y0097065D01*
X0137159Y0097062D01*
X0137206Y0097055D01*
X0137252Y0097044D01*
X0137297Y0097030D01*
X0137341Y0097011D01*
X0137382Y0096989D01*
X0137422Y0096964D01*
X0137460Y0096935D01*
X0137495Y0096904D01*
X0137528Y0096869D01*
X0137557Y0096832D01*
X0137583Y0096793D01*
X0137606Y0096751D01*
X0137625Y0096708D01*
X0137641Y0096663D01*
X0137653Y0096617D01*
X0137661Y0096571D01*
X0137665Y0096524D01*
X0137665Y0096476D01*
X0137661Y0096429D01*
X0137653Y0096383D01*
X0137641Y0096337D01*
X0137625Y0096292D01*
X0137606Y0096249D01*
X0137583Y0096207D01*
X0137557Y0096168D01*
X0137528Y0096131D01*
X0137495Y0096096D01*
X0137460Y0096065D01*
X0137422Y0096036D01*
X0137383Y0096011D01*
X0137341Y0095989D01*
X0137297Y0095970D01*
X0137252Y0095956D01*
X0137206Y0095945D01*
X0137159Y0095938D01*
X0137112Y0095935D01*
X0137065Y0095936D01*
X0137017Y0095941D01*
X0136971Y0095950D01*
X0136925Y0095963D01*
X0136881Y0095979D01*
X0136838Y0095999D01*
X0136797Y0096023D01*
X0136758Y0096050D01*
X0136722Y0096080D01*
X0136688Y0096113D01*
X0136657Y0096149D01*
X0136629Y0096187D01*
X0136605Y0096228D01*
X0136584Y0096270D01*
X0136566Y0096314D01*
X0136553Y0096359D01*
X0136543Y0096406D01*
X0136537Y0096453D01*
X0136535Y0096500D01*
X0095000Y0088600D02*
X0078000Y0088600D01*
X0036000Y0088600D02*
X0019000Y0088600D01*
D16*
X0159610Y0116391D02*
X0159610Y0118754D01*
X0159610Y0116391D02*
X0168075Y0116391D01*
X0193610Y0110309D02*
X0193610Y0107946D01*
X0193610Y0110309D02*
X0202075Y0110309D01*
X0193610Y0101254D02*
X0193610Y0098891D01*
X0202075Y0098891D01*
X0159610Y0125446D02*
X0159610Y0127809D01*
X0168075Y0127809D01*
X0121890Y0022309D02*
X0113425Y0022309D01*
X0121890Y0022309D02*
X0121890Y0019946D01*
X0121890Y0013254D02*
X0121890Y0010891D01*
X0113425Y0010891D01*
X0172925Y0009391D02*
X0181390Y0009391D01*
X0181390Y0011754D01*
X0181390Y0018446D02*
X0181390Y0020809D01*
X0172925Y0020809D01*
D17*
X0293300Y0034155D02*
X0296102Y0034155D01*
X0294701Y0032753D01*
X0294701Y0034622D01*
X0320300Y0036702D02*
X0320767Y0036235D01*
X0320300Y0036702D02*
X0320300Y0037636D01*
X0320767Y0038103D01*
X0321234Y0038103D01*
X0321701Y0037636D01*
X0321701Y0037169D01*
X0321701Y0037636D02*
X0322168Y0038103D01*
X0322635Y0038103D01*
X0323102Y0037636D01*
X0323102Y0036702D01*
X0322635Y0036235D01*
X0353900Y0033855D02*
X0356702Y0033855D01*
X0355301Y0032453D01*
X0355301Y0034322D01*
X0380900Y0036402D02*
X0381367Y0035935D01*
X0380900Y0036402D02*
X0380900Y0037336D01*
X0381367Y0037803D01*
X0381834Y0037803D01*
X0382301Y0037336D01*
X0382301Y0036869D01*
X0382301Y0037336D02*
X0382768Y0037803D01*
X0383235Y0037803D01*
X0383702Y0037336D01*
X0383702Y0036402D01*
X0383235Y0035935D01*
X0413600Y0034655D02*
X0416402Y0034655D01*
X0415001Y0033253D01*
X0415001Y0035122D01*
X0440600Y0037202D02*
X0441067Y0036735D01*
X0440600Y0037202D02*
X0440600Y0038136D01*
X0441067Y0038603D01*
X0441534Y0038603D01*
X0442001Y0038136D01*
X0442001Y0037669D01*
X0442001Y0038136D02*
X0442468Y0038603D01*
X0442935Y0038603D01*
X0443402Y0038136D01*
X0443402Y0037202D01*
X0442935Y0036735D01*
X0442972Y0045835D02*
X0443439Y0046302D01*
X0443439Y0047236D01*
X0442972Y0047703D01*
X0442505Y0047703D01*
X0440637Y0045835D01*
X0440637Y0047703D01*
X0440600Y0054346D02*
X0440600Y0056215D01*
X0440600Y0055281D02*
X0443402Y0055281D01*
X0442468Y0054346D01*
X0465701Y0061653D02*
X0465701Y0063522D01*
X0464300Y0063055D02*
X0467102Y0063055D01*
X0465701Y0061653D01*
X0491300Y0065602D02*
X0491767Y0065135D01*
X0491300Y0065602D02*
X0491300Y0066536D01*
X0491767Y0067003D01*
X0492234Y0067003D01*
X0492701Y0066536D01*
X0492701Y0066069D01*
X0492701Y0066536D02*
X0493168Y0067003D01*
X0493635Y0067003D01*
X0494102Y0066536D01*
X0494102Y0065602D01*
X0493635Y0065135D01*
X0493672Y0074235D02*
X0494139Y0074702D01*
X0494139Y0075636D01*
X0493672Y0076103D01*
X0493205Y0076103D01*
X0491337Y0074235D01*
X0491337Y0076103D01*
X0491300Y0082746D02*
X0491300Y0084615D01*
X0491300Y0083681D02*
X0494102Y0083681D01*
X0493168Y0082746D01*
X0441902Y0085102D02*
X0441435Y0084635D01*
X0441902Y0085102D02*
X0441902Y0086036D01*
X0441435Y0086503D01*
X0440968Y0086503D01*
X0440501Y0086036D01*
X0440034Y0086503D01*
X0439567Y0086503D01*
X0439100Y0086036D01*
X0439100Y0085102D01*
X0439567Y0084635D01*
X0440501Y0085569D02*
X0440501Y0086036D01*
X0414902Y0082555D02*
X0413501Y0081153D01*
X0413501Y0083022D01*
X0412100Y0082555D02*
X0414902Y0082555D01*
X0383602Y0082836D02*
X0383602Y0081902D01*
X0383135Y0081435D01*
X0382201Y0082369D02*
X0382201Y0082836D01*
X0381734Y0083303D01*
X0381267Y0083303D01*
X0380800Y0082836D01*
X0380800Y0081902D01*
X0381267Y0081435D01*
X0382201Y0082836D02*
X0382668Y0083303D01*
X0383135Y0083303D01*
X0383602Y0082836D01*
X0356602Y0079355D02*
X0355201Y0077953D01*
X0355201Y0079822D01*
X0353800Y0079355D02*
X0356602Y0079355D01*
X0323402Y0081702D02*
X0323402Y0082636D01*
X0322935Y0083103D01*
X0322468Y0083103D01*
X0322001Y0082636D01*
X0321534Y0083103D01*
X0321067Y0083103D01*
X0320600Y0082636D01*
X0320600Y0081702D01*
X0321067Y0081235D01*
X0322001Y0082169D02*
X0322001Y0082636D01*
X0322935Y0081235D02*
X0323402Y0081702D01*
X0296402Y0079155D02*
X0295001Y0077753D01*
X0295001Y0079622D01*
X0293600Y0079155D02*
X0296402Y0079155D01*
X0320637Y0090335D02*
X0322505Y0092203D01*
X0322972Y0092203D01*
X0323439Y0091736D01*
X0323439Y0090802D01*
X0322972Y0090335D01*
X0320637Y0090335D02*
X0320637Y0092203D01*
X0320600Y0098846D02*
X0320600Y0100715D01*
X0320600Y0099781D02*
X0323402Y0099781D01*
X0322468Y0098846D01*
X0380800Y0099046D02*
X0380800Y0100915D01*
X0380800Y0099981D02*
X0383602Y0099981D01*
X0382668Y0099046D01*
X0382705Y0092403D02*
X0383172Y0092403D01*
X0383639Y0091936D01*
X0383639Y0091002D01*
X0383172Y0090535D01*
X0382705Y0092403D02*
X0380837Y0090535D01*
X0380837Y0092403D01*
X0439137Y0093735D02*
X0441005Y0095603D01*
X0441472Y0095603D01*
X0441939Y0095136D01*
X0441939Y0094202D01*
X0441472Y0093735D01*
X0439137Y0093735D02*
X0439137Y0095603D01*
X0439100Y0102246D02*
X0439100Y0104115D01*
X0439100Y0103181D02*
X0441902Y0103181D01*
X0440968Y0102246D01*
X0380900Y0055415D02*
X0380900Y0053546D01*
X0380900Y0054481D02*
X0383702Y0054481D01*
X0382768Y0053546D01*
X0382805Y0046903D02*
X0383272Y0046903D01*
X0383739Y0046436D01*
X0383739Y0045502D01*
X0383272Y0045035D01*
X0382805Y0046903D02*
X0380937Y0045035D01*
X0380937Y0046903D01*
X0323139Y0046736D02*
X0323139Y0045802D01*
X0322672Y0045335D01*
X0323139Y0046736D02*
X0322672Y0047203D01*
X0322205Y0047203D01*
X0320337Y0045335D01*
X0320337Y0047203D01*
X0320300Y0053846D02*
X0320300Y0055715D01*
X0320300Y0054781D02*
X0323102Y0054781D01*
X0322168Y0053846D01*
M02*
