G75*
%MOIN*%
%OFA0B0*%
%FSLAX25Y25*%
%IPPOS*%
%LPD*%
%AMOC8*
5,1,8,0,0,1.08239X$1,22.5*
%
%ADD10C,0.00039*%
%ADD11C,0.00000*%
%ADD12OC8,0.08500*%
%ADD13C,0.06000*%
%ADD14R,0.08110X0.05000*%
%ADD15R,0.05000X0.08110*%
%ADD16R,0.05900X0.05900*%
%ADD17C,0.05900*%
%ADD18R,0.03937X0.04331*%
%ADD19R,0.04331X0.03937*%
%ADD20C,0.07400*%
%ADD21R,0.04724X0.04724*%
%ADD22R,0.06299X0.05906*%
%ADD23R,0.08700X0.02400*%
%ADD24R,0.08800X0.04800*%
%ADD25R,0.08661X0.14173*%
%ADD26C,0.05600*%
%ADD27C,0.00800*%
%ADD28C,0.03200*%
%ADD29C,0.03562*%
%ADD30C,0.01600*%
D10*
X0001846Y0002245D02*
X0549091Y0002245D01*
X0549091Y0132742D01*
X0549591Y0132742D01*
X0549091Y0132742D02*
X0001846Y0132742D01*
X0001846Y0002245D01*
X0535509Y0119035D02*
X0535511Y0119175D01*
X0535517Y0119315D01*
X0535527Y0119454D01*
X0535541Y0119593D01*
X0535559Y0119732D01*
X0535580Y0119870D01*
X0535606Y0120008D01*
X0535636Y0120145D01*
X0535669Y0120280D01*
X0535707Y0120415D01*
X0535748Y0120549D01*
X0535793Y0120682D01*
X0535841Y0120813D01*
X0535894Y0120942D01*
X0535950Y0121071D01*
X0536009Y0121197D01*
X0536073Y0121322D01*
X0536139Y0121445D01*
X0536210Y0121566D01*
X0536283Y0121685D01*
X0536360Y0121802D01*
X0536441Y0121916D01*
X0536524Y0122028D01*
X0536611Y0122138D01*
X0536701Y0122246D01*
X0536793Y0122350D01*
X0536889Y0122452D01*
X0536988Y0122552D01*
X0537089Y0122648D01*
X0537193Y0122742D01*
X0537300Y0122832D01*
X0537409Y0122919D01*
X0537521Y0123004D01*
X0537635Y0123085D01*
X0537751Y0123163D01*
X0537869Y0123237D01*
X0537990Y0123308D01*
X0538112Y0123376D01*
X0538237Y0123440D01*
X0538363Y0123501D01*
X0538490Y0123558D01*
X0538620Y0123611D01*
X0538751Y0123661D01*
X0538883Y0123706D01*
X0539016Y0123749D01*
X0539151Y0123787D01*
X0539286Y0123821D01*
X0539423Y0123852D01*
X0539560Y0123879D01*
X0539698Y0123901D01*
X0539837Y0123920D01*
X0539976Y0123935D01*
X0540115Y0123946D01*
X0540255Y0123953D01*
X0540395Y0123956D01*
X0540535Y0123955D01*
X0540675Y0123950D01*
X0540814Y0123941D01*
X0540954Y0123928D01*
X0541093Y0123911D01*
X0541231Y0123890D01*
X0541369Y0123866D01*
X0541506Y0123837D01*
X0541642Y0123805D01*
X0541777Y0123768D01*
X0541911Y0123728D01*
X0542044Y0123684D01*
X0542175Y0123636D01*
X0542305Y0123585D01*
X0542434Y0123530D01*
X0542561Y0123471D01*
X0542686Y0123408D01*
X0542809Y0123343D01*
X0542931Y0123273D01*
X0543050Y0123200D01*
X0543168Y0123124D01*
X0543283Y0123045D01*
X0543396Y0122962D01*
X0543506Y0122876D01*
X0543614Y0122787D01*
X0543719Y0122695D01*
X0543822Y0122600D01*
X0543922Y0122502D01*
X0544019Y0122402D01*
X0544113Y0122298D01*
X0544205Y0122192D01*
X0544293Y0122084D01*
X0544378Y0121973D01*
X0544460Y0121859D01*
X0544539Y0121743D01*
X0544614Y0121626D01*
X0544686Y0121506D01*
X0544754Y0121384D01*
X0544819Y0121260D01*
X0544881Y0121134D01*
X0544939Y0121007D01*
X0544993Y0120878D01*
X0545044Y0120747D01*
X0545090Y0120615D01*
X0545133Y0120482D01*
X0545173Y0120348D01*
X0545208Y0120213D01*
X0545240Y0120076D01*
X0545267Y0119939D01*
X0545291Y0119801D01*
X0545311Y0119663D01*
X0545327Y0119524D01*
X0545339Y0119384D01*
X0545347Y0119245D01*
X0545351Y0119105D01*
X0545351Y0118965D01*
X0545347Y0118825D01*
X0545339Y0118686D01*
X0545327Y0118546D01*
X0545311Y0118407D01*
X0545291Y0118269D01*
X0545267Y0118131D01*
X0545240Y0117994D01*
X0545208Y0117857D01*
X0545173Y0117722D01*
X0545133Y0117588D01*
X0545090Y0117455D01*
X0545044Y0117323D01*
X0544993Y0117192D01*
X0544939Y0117063D01*
X0544881Y0116936D01*
X0544819Y0116810D01*
X0544754Y0116686D01*
X0544686Y0116564D01*
X0544614Y0116444D01*
X0544539Y0116327D01*
X0544460Y0116211D01*
X0544378Y0116097D01*
X0544293Y0115986D01*
X0544205Y0115878D01*
X0544113Y0115772D01*
X0544019Y0115668D01*
X0543922Y0115568D01*
X0543822Y0115470D01*
X0543719Y0115375D01*
X0543614Y0115283D01*
X0543506Y0115194D01*
X0543396Y0115108D01*
X0543283Y0115025D01*
X0543168Y0114946D01*
X0543050Y0114870D01*
X0542931Y0114797D01*
X0542809Y0114727D01*
X0542686Y0114662D01*
X0542561Y0114599D01*
X0542434Y0114540D01*
X0542305Y0114485D01*
X0542175Y0114434D01*
X0542044Y0114386D01*
X0541911Y0114342D01*
X0541777Y0114302D01*
X0541642Y0114265D01*
X0541506Y0114233D01*
X0541369Y0114204D01*
X0541231Y0114180D01*
X0541093Y0114159D01*
X0540954Y0114142D01*
X0540814Y0114129D01*
X0540675Y0114120D01*
X0540535Y0114115D01*
X0540395Y0114114D01*
X0540255Y0114117D01*
X0540115Y0114124D01*
X0539976Y0114135D01*
X0539837Y0114150D01*
X0539698Y0114169D01*
X0539560Y0114191D01*
X0539423Y0114218D01*
X0539286Y0114249D01*
X0539151Y0114283D01*
X0539016Y0114321D01*
X0538883Y0114364D01*
X0538751Y0114409D01*
X0538620Y0114459D01*
X0538490Y0114512D01*
X0538363Y0114569D01*
X0538237Y0114630D01*
X0538112Y0114694D01*
X0537990Y0114762D01*
X0537869Y0114833D01*
X0537751Y0114907D01*
X0537635Y0114985D01*
X0537521Y0115066D01*
X0537409Y0115151D01*
X0537300Y0115238D01*
X0537193Y0115328D01*
X0537089Y0115422D01*
X0536988Y0115518D01*
X0536889Y0115618D01*
X0536793Y0115720D01*
X0536701Y0115824D01*
X0536611Y0115932D01*
X0536524Y0116042D01*
X0536441Y0116154D01*
X0536360Y0116268D01*
X0536283Y0116385D01*
X0536210Y0116504D01*
X0536139Y0116625D01*
X0536073Y0116748D01*
X0536009Y0116873D01*
X0535950Y0116999D01*
X0535894Y0117128D01*
X0535841Y0117257D01*
X0535793Y0117388D01*
X0535748Y0117521D01*
X0535707Y0117655D01*
X0535669Y0117790D01*
X0535636Y0117925D01*
X0535606Y0118062D01*
X0535580Y0118200D01*
X0535559Y0118338D01*
X0535541Y0118477D01*
X0535527Y0118616D01*
X0535517Y0118755D01*
X0535511Y0118895D01*
X0535509Y0119035D01*
D11*
X0535475Y0119000D02*
X0535477Y0119140D01*
X0535483Y0119280D01*
X0535493Y0119420D01*
X0535507Y0119559D01*
X0535525Y0119698D01*
X0535546Y0119836D01*
X0535572Y0119974D01*
X0535602Y0120111D01*
X0535635Y0120246D01*
X0535673Y0120381D01*
X0535714Y0120515D01*
X0535759Y0120648D01*
X0535808Y0120779D01*
X0535860Y0120909D01*
X0535916Y0121037D01*
X0535976Y0121164D01*
X0536039Y0121289D01*
X0536106Y0121412D01*
X0536176Y0121533D01*
X0536250Y0121652D01*
X0536327Y0121769D01*
X0536407Y0121884D01*
X0536491Y0121996D01*
X0536578Y0122106D01*
X0536668Y0122213D01*
X0536760Y0122318D01*
X0536856Y0122420D01*
X0536955Y0122519D01*
X0537056Y0122616D01*
X0537160Y0122710D01*
X0537267Y0122800D01*
X0537376Y0122888D01*
X0537488Y0122972D01*
X0537602Y0123053D01*
X0537719Y0123131D01*
X0537837Y0123206D01*
X0537958Y0123277D01*
X0538080Y0123344D01*
X0538205Y0123409D01*
X0538331Y0123469D01*
X0538459Y0123526D01*
X0538588Y0123580D01*
X0538719Y0123629D01*
X0538851Y0123675D01*
X0538985Y0123717D01*
X0539120Y0123756D01*
X0539255Y0123790D01*
X0539392Y0123821D01*
X0539529Y0123847D01*
X0539668Y0123870D01*
X0539806Y0123889D01*
X0539946Y0123904D01*
X0540085Y0123915D01*
X0540225Y0123922D01*
X0540365Y0123925D01*
X0540505Y0123924D01*
X0540645Y0123919D01*
X0540785Y0123910D01*
X0540924Y0123897D01*
X0541063Y0123880D01*
X0541202Y0123859D01*
X0541339Y0123835D01*
X0541476Y0123806D01*
X0541613Y0123773D01*
X0541748Y0123737D01*
X0541882Y0123697D01*
X0542015Y0123653D01*
X0542146Y0123605D01*
X0542277Y0123553D01*
X0542405Y0123498D01*
X0542532Y0123439D01*
X0542658Y0123377D01*
X0542781Y0123311D01*
X0542903Y0123242D01*
X0543022Y0123169D01*
X0543140Y0123093D01*
X0543255Y0123013D01*
X0543368Y0122930D01*
X0543479Y0122844D01*
X0543587Y0122755D01*
X0543692Y0122663D01*
X0543795Y0122568D01*
X0543895Y0122470D01*
X0543992Y0122369D01*
X0544086Y0122266D01*
X0544178Y0122160D01*
X0544266Y0122051D01*
X0544351Y0121940D01*
X0544433Y0121826D01*
X0544512Y0121711D01*
X0544587Y0121593D01*
X0544659Y0121473D01*
X0544728Y0121351D01*
X0544793Y0121227D01*
X0544854Y0121101D01*
X0544912Y0120973D01*
X0544967Y0120844D01*
X0545017Y0120714D01*
X0545064Y0120582D01*
X0545107Y0120448D01*
X0545146Y0120314D01*
X0545182Y0120179D01*
X0545213Y0120042D01*
X0545241Y0119905D01*
X0545265Y0119767D01*
X0545285Y0119628D01*
X0545301Y0119489D01*
X0545313Y0119350D01*
X0545321Y0119210D01*
X0545325Y0119070D01*
X0545325Y0118930D01*
X0545321Y0118790D01*
X0545313Y0118650D01*
X0545301Y0118511D01*
X0545285Y0118372D01*
X0545265Y0118233D01*
X0545241Y0118095D01*
X0545213Y0117958D01*
X0545182Y0117821D01*
X0545146Y0117686D01*
X0545107Y0117552D01*
X0545064Y0117418D01*
X0545017Y0117286D01*
X0544967Y0117156D01*
X0544912Y0117027D01*
X0544854Y0116899D01*
X0544793Y0116773D01*
X0544728Y0116649D01*
X0544659Y0116527D01*
X0544587Y0116407D01*
X0544512Y0116289D01*
X0544433Y0116174D01*
X0544351Y0116060D01*
X0544266Y0115949D01*
X0544178Y0115840D01*
X0544086Y0115734D01*
X0543992Y0115631D01*
X0543895Y0115530D01*
X0543795Y0115432D01*
X0543692Y0115337D01*
X0543587Y0115245D01*
X0543479Y0115156D01*
X0543368Y0115070D01*
X0543255Y0114987D01*
X0543140Y0114907D01*
X0543022Y0114831D01*
X0542903Y0114758D01*
X0542781Y0114689D01*
X0542658Y0114623D01*
X0542532Y0114561D01*
X0542405Y0114502D01*
X0542277Y0114447D01*
X0542146Y0114395D01*
X0542015Y0114347D01*
X0541882Y0114303D01*
X0541748Y0114263D01*
X0541613Y0114227D01*
X0541476Y0114194D01*
X0541339Y0114165D01*
X0541202Y0114141D01*
X0541063Y0114120D01*
X0540924Y0114103D01*
X0540785Y0114090D01*
X0540645Y0114081D01*
X0540505Y0114076D01*
X0540365Y0114075D01*
X0540225Y0114078D01*
X0540085Y0114085D01*
X0539946Y0114096D01*
X0539806Y0114111D01*
X0539668Y0114130D01*
X0539529Y0114153D01*
X0539392Y0114179D01*
X0539255Y0114210D01*
X0539120Y0114244D01*
X0538985Y0114283D01*
X0538851Y0114325D01*
X0538719Y0114371D01*
X0538588Y0114420D01*
X0538459Y0114474D01*
X0538331Y0114531D01*
X0538205Y0114591D01*
X0538080Y0114656D01*
X0537958Y0114723D01*
X0537837Y0114794D01*
X0537719Y0114869D01*
X0537602Y0114947D01*
X0537488Y0115028D01*
X0537376Y0115112D01*
X0537267Y0115200D01*
X0537160Y0115290D01*
X0537056Y0115384D01*
X0536955Y0115481D01*
X0536856Y0115580D01*
X0536760Y0115682D01*
X0536668Y0115787D01*
X0536578Y0115894D01*
X0536491Y0116004D01*
X0536407Y0116116D01*
X0536327Y0116231D01*
X0536250Y0116348D01*
X0536176Y0116467D01*
X0536106Y0116588D01*
X0536039Y0116711D01*
X0535976Y0116836D01*
X0535916Y0116963D01*
X0535860Y0117091D01*
X0535808Y0117221D01*
X0535759Y0117352D01*
X0535714Y0117485D01*
X0535673Y0117619D01*
X0535635Y0117754D01*
X0535602Y0117889D01*
X0535572Y0118026D01*
X0535546Y0118164D01*
X0535525Y0118302D01*
X0535507Y0118441D01*
X0535493Y0118580D01*
X0535483Y0118720D01*
X0535477Y0118860D01*
X0535475Y0119000D01*
X0231975Y0119100D02*
X0231977Y0119240D01*
X0231983Y0119380D01*
X0231993Y0119520D01*
X0232007Y0119659D01*
X0232025Y0119798D01*
X0232046Y0119936D01*
X0232072Y0120074D01*
X0232102Y0120211D01*
X0232135Y0120346D01*
X0232173Y0120481D01*
X0232214Y0120615D01*
X0232259Y0120748D01*
X0232308Y0120879D01*
X0232360Y0121009D01*
X0232416Y0121137D01*
X0232476Y0121264D01*
X0232539Y0121389D01*
X0232606Y0121512D01*
X0232676Y0121633D01*
X0232750Y0121752D01*
X0232827Y0121869D01*
X0232907Y0121984D01*
X0232991Y0122096D01*
X0233078Y0122206D01*
X0233168Y0122313D01*
X0233260Y0122418D01*
X0233356Y0122520D01*
X0233455Y0122619D01*
X0233556Y0122716D01*
X0233660Y0122810D01*
X0233767Y0122900D01*
X0233876Y0122988D01*
X0233988Y0123072D01*
X0234102Y0123153D01*
X0234219Y0123231D01*
X0234337Y0123306D01*
X0234458Y0123377D01*
X0234580Y0123444D01*
X0234705Y0123509D01*
X0234831Y0123569D01*
X0234959Y0123626D01*
X0235088Y0123680D01*
X0235219Y0123729D01*
X0235351Y0123775D01*
X0235485Y0123817D01*
X0235620Y0123856D01*
X0235755Y0123890D01*
X0235892Y0123921D01*
X0236029Y0123947D01*
X0236168Y0123970D01*
X0236306Y0123989D01*
X0236446Y0124004D01*
X0236585Y0124015D01*
X0236725Y0124022D01*
X0236865Y0124025D01*
X0237005Y0124024D01*
X0237145Y0124019D01*
X0237285Y0124010D01*
X0237424Y0123997D01*
X0237563Y0123980D01*
X0237702Y0123959D01*
X0237839Y0123935D01*
X0237976Y0123906D01*
X0238113Y0123873D01*
X0238248Y0123837D01*
X0238382Y0123797D01*
X0238515Y0123753D01*
X0238646Y0123705D01*
X0238777Y0123653D01*
X0238905Y0123598D01*
X0239032Y0123539D01*
X0239158Y0123477D01*
X0239281Y0123411D01*
X0239403Y0123342D01*
X0239522Y0123269D01*
X0239640Y0123193D01*
X0239755Y0123113D01*
X0239868Y0123030D01*
X0239979Y0122944D01*
X0240087Y0122855D01*
X0240192Y0122763D01*
X0240295Y0122668D01*
X0240395Y0122570D01*
X0240492Y0122469D01*
X0240586Y0122366D01*
X0240678Y0122260D01*
X0240766Y0122151D01*
X0240851Y0122040D01*
X0240933Y0121926D01*
X0241012Y0121811D01*
X0241087Y0121693D01*
X0241159Y0121573D01*
X0241228Y0121451D01*
X0241293Y0121327D01*
X0241354Y0121201D01*
X0241412Y0121073D01*
X0241467Y0120944D01*
X0241517Y0120814D01*
X0241564Y0120682D01*
X0241607Y0120548D01*
X0241646Y0120414D01*
X0241682Y0120279D01*
X0241713Y0120142D01*
X0241741Y0120005D01*
X0241765Y0119867D01*
X0241785Y0119728D01*
X0241801Y0119589D01*
X0241813Y0119450D01*
X0241821Y0119310D01*
X0241825Y0119170D01*
X0241825Y0119030D01*
X0241821Y0118890D01*
X0241813Y0118750D01*
X0241801Y0118611D01*
X0241785Y0118472D01*
X0241765Y0118333D01*
X0241741Y0118195D01*
X0241713Y0118058D01*
X0241682Y0117921D01*
X0241646Y0117786D01*
X0241607Y0117652D01*
X0241564Y0117518D01*
X0241517Y0117386D01*
X0241467Y0117256D01*
X0241412Y0117127D01*
X0241354Y0116999D01*
X0241293Y0116873D01*
X0241228Y0116749D01*
X0241159Y0116627D01*
X0241087Y0116507D01*
X0241012Y0116389D01*
X0240933Y0116274D01*
X0240851Y0116160D01*
X0240766Y0116049D01*
X0240678Y0115940D01*
X0240586Y0115834D01*
X0240492Y0115731D01*
X0240395Y0115630D01*
X0240295Y0115532D01*
X0240192Y0115437D01*
X0240087Y0115345D01*
X0239979Y0115256D01*
X0239868Y0115170D01*
X0239755Y0115087D01*
X0239640Y0115007D01*
X0239522Y0114931D01*
X0239403Y0114858D01*
X0239281Y0114789D01*
X0239158Y0114723D01*
X0239032Y0114661D01*
X0238905Y0114602D01*
X0238777Y0114547D01*
X0238646Y0114495D01*
X0238515Y0114447D01*
X0238382Y0114403D01*
X0238248Y0114363D01*
X0238113Y0114327D01*
X0237976Y0114294D01*
X0237839Y0114265D01*
X0237702Y0114241D01*
X0237563Y0114220D01*
X0237424Y0114203D01*
X0237285Y0114190D01*
X0237145Y0114181D01*
X0237005Y0114176D01*
X0236865Y0114175D01*
X0236725Y0114178D01*
X0236585Y0114185D01*
X0236446Y0114196D01*
X0236306Y0114211D01*
X0236168Y0114230D01*
X0236029Y0114253D01*
X0235892Y0114279D01*
X0235755Y0114310D01*
X0235620Y0114344D01*
X0235485Y0114383D01*
X0235351Y0114425D01*
X0235219Y0114471D01*
X0235088Y0114520D01*
X0234959Y0114574D01*
X0234831Y0114631D01*
X0234705Y0114691D01*
X0234580Y0114756D01*
X0234458Y0114823D01*
X0234337Y0114894D01*
X0234219Y0114969D01*
X0234102Y0115047D01*
X0233988Y0115128D01*
X0233876Y0115212D01*
X0233767Y0115300D01*
X0233660Y0115390D01*
X0233556Y0115484D01*
X0233455Y0115581D01*
X0233356Y0115680D01*
X0233260Y0115782D01*
X0233168Y0115887D01*
X0233078Y0115994D01*
X0232991Y0116104D01*
X0232907Y0116216D01*
X0232827Y0116331D01*
X0232750Y0116448D01*
X0232676Y0116567D01*
X0232606Y0116688D01*
X0232539Y0116811D01*
X0232476Y0116936D01*
X0232416Y0117063D01*
X0232360Y0117191D01*
X0232308Y0117321D01*
X0232259Y0117452D01*
X0232214Y0117585D01*
X0232173Y0117719D01*
X0232135Y0117854D01*
X0232102Y0117989D01*
X0232072Y0118126D01*
X0232046Y0118264D01*
X0232025Y0118402D01*
X0232007Y0118541D01*
X0231993Y0118680D01*
X0231983Y0118820D01*
X0231977Y0118960D01*
X0231975Y0119100D01*
D12*
X0250500Y0124100D03*
X0260500Y0124100D03*
X0270500Y0124100D03*
X0285600Y0124000D03*
X0347400Y0119300D03*
X0117500Y0125100D03*
X0027500Y0099200D03*
X0015000Y0099100D03*
X0017500Y0054600D03*
X0029500Y0054600D03*
X0350900Y0012800D03*
D13*
X0330500Y0010600D02*
X0330500Y0016600D01*
X0320500Y0016600D02*
X0320500Y0010600D01*
X0310500Y0010600D02*
X0310500Y0016600D01*
X0300500Y0016600D02*
X0300500Y0010600D01*
X0290500Y0010600D02*
X0290500Y0016600D01*
X0280500Y0016600D02*
X0280500Y0010600D01*
X0266000Y0011100D02*
X0266000Y0017100D01*
X0256000Y0017100D02*
X0256000Y0011100D01*
X0246000Y0011100D02*
X0246000Y0017100D01*
X0236000Y0017100D02*
X0236000Y0011100D01*
X0226000Y0011100D02*
X0226000Y0017100D01*
X0216000Y0017100D02*
X0216000Y0011100D01*
X0206000Y0011100D02*
X0206000Y0017100D01*
X0196000Y0017100D02*
X0196000Y0011100D01*
X0394500Y0010100D02*
X0394500Y0016100D01*
X0404500Y0016100D02*
X0404500Y0010100D01*
X0414500Y0010100D02*
X0414500Y0016100D01*
X0424500Y0016100D02*
X0424500Y0010100D01*
X0434500Y0010100D02*
X0434500Y0016100D01*
X0444500Y0016100D02*
X0444500Y0010100D01*
X0454500Y0010100D02*
X0454500Y0016100D01*
X0521000Y0016100D02*
X0521000Y0010100D01*
X0531000Y0010100D02*
X0531000Y0016100D01*
X0541000Y0016100D02*
X0541000Y0010100D01*
X0516500Y0116100D02*
X0516500Y0122100D01*
X0506500Y0122100D02*
X0506500Y0116100D01*
X0496500Y0116100D02*
X0496500Y0122100D01*
X0486500Y0122100D02*
X0486500Y0116100D01*
X0476500Y0116100D02*
X0476500Y0122100D01*
X0466500Y0122100D02*
X0466500Y0116100D01*
X0456500Y0116100D02*
X0456500Y0122100D01*
X0446500Y0122100D02*
X0446500Y0116100D01*
X0436500Y0116100D02*
X0436500Y0122100D01*
X0426500Y0122100D02*
X0426500Y0116100D01*
X0416500Y0116100D02*
X0416500Y0122100D01*
X0406500Y0122100D02*
X0406500Y0116100D01*
X0396500Y0116100D02*
X0396500Y0122100D01*
X0386500Y0122100D02*
X0386500Y0116100D01*
X0376500Y0116100D02*
X0376500Y0122100D01*
X0366500Y0122100D02*
X0366500Y0116100D01*
X0310700Y0119900D02*
X0310700Y0125900D01*
X0300700Y0125900D02*
X0300700Y0119900D01*
X0056000Y0123600D02*
X0050000Y0123600D01*
X0050000Y0113600D02*
X0056000Y0113600D01*
X0056000Y0103600D02*
X0050000Y0103600D01*
X0050000Y0093600D02*
X0056000Y0093600D01*
X0056000Y0083600D02*
X0050000Y0083600D01*
D14*
X0116000Y0083509D03*
X0116000Y0069691D03*
D15*
X0168091Y0077100D03*
X0181909Y0077100D03*
X0181409Y0097100D03*
X0167591Y0097100D03*
X0106909Y0099600D03*
X0093091Y0099600D03*
X0083409Y0099600D03*
X0069591Y0099600D03*
X0064909Y0070600D03*
X0051091Y0070600D03*
D16*
X0062000Y0040100D03*
D17*
X0052000Y0040100D03*
X0057000Y0030100D03*
D18*
X0053000Y0051754D03*
X0063500Y0051754D03*
X0083500Y0053254D03*
X0091500Y0053254D03*
X0112500Y0053754D03*
X0122500Y0053754D03*
X0122500Y0060446D03*
X0112500Y0060446D03*
X0091500Y0059946D03*
X0083500Y0059946D03*
X0063500Y0058446D03*
X0053000Y0058446D03*
X0168000Y0059946D03*
X0178500Y0059946D03*
X0178500Y0053254D03*
X0168000Y0053254D03*
D19*
X0226154Y0076100D03*
X0232846Y0076100D03*
X0232846Y0091100D03*
X0226154Y0091100D03*
D20*
X0217300Y0085500D03*
X0191700Y0085500D03*
X0158300Y0085500D03*
X0132700Y0085500D03*
X0099300Y0085500D03*
X0073700Y0085500D03*
X0040300Y0085500D03*
X0014700Y0085500D03*
X0014700Y0067700D03*
X0040300Y0067700D03*
X0073700Y0067700D03*
X0099300Y0067700D03*
X0132700Y0067700D03*
X0158300Y0067700D03*
X0191700Y0067700D03*
X0217300Y0067700D03*
X0217300Y0044500D03*
X0191700Y0044500D03*
X0158300Y0045500D03*
X0132700Y0045500D03*
X0099300Y0045500D03*
X0073700Y0045500D03*
X0040300Y0045500D03*
X0014700Y0045500D03*
X0014700Y0027700D03*
X0040300Y0027700D03*
X0073700Y0027700D03*
X0099300Y0027700D03*
X0132700Y0027700D03*
X0158300Y0027700D03*
X0191700Y0026700D03*
X0217300Y0026700D03*
D21*
X0167315Y0019037D03*
X0167315Y0011163D03*
X0107815Y0012663D03*
X0107815Y0020537D03*
X0207685Y0100663D03*
X0207685Y0108537D03*
X0173685Y0118163D03*
X0173685Y0126037D03*
D22*
X0160594Y0122100D03*
X0194594Y0104600D03*
X0120906Y0016600D03*
X0180406Y0015100D03*
D23*
X0151300Y0096100D03*
X0151300Y0101100D03*
X0151300Y0106100D03*
X0151300Y0111100D03*
X0130700Y0111100D03*
X0130700Y0106100D03*
X0130700Y0101100D03*
X0130700Y0096100D03*
D24*
X0318800Y0097100D03*
X0318800Y0088000D03*
X0318800Y0078900D03*
X0379000Y0079100D03*
X0379000Y0088200D03*
X0379000Y0097300D03*
X0437300Y0100500D03*
X0437300Y0091400D03*
X0437300Y0082300D03*
X0489500Y0081000D03*
X0489500Y0071900D03*
X0489500Y0062800D03*
X0438800Y0052600D03*
X0438800Y0043500D03*
X0438800Y0034400D03*
X0379100Y0033600D03*
X0379100Y0042700D03*
X0379100Y0051800D03*
X0318500Y0052100D03*
X0318500Y0043000D03*
X0318500Y0033900D03*
D25*
X0294099Y0043000D03*
X0354699Y0042700D03*
X0414399Y0043500D03*
X0465099Y0071900D03*
X0412899Y0091400D03*
X0354599Y0088200D03*
X0294399Y0088000D03*
D26*
X0475300Y0015900D02*
X0475300Y0010300D01*
X0485300Y0010300D02*
X0485300Y0015900D01*
X0496700Y0015900D02*
X0496700Y0010300D01*
X0506700Y0010300D02*
X0506700Y0015900D01*
D27*
X0506700Y0013100D02*
X0506900Y0013100D01*
X0470100Y0049900D01*
X0463700Y0047500D02*
X0475700Y0059500D01*
X0479700Y0059500D01*
X0489300Y0062700D02*
X0489500Y0062800D01*
X0489300Y0062700D02*
X0466900Y0062700D01*
X0438900Y0034700D01*
X0438800Y0034400D01*
X0438900Y0033900D01*
X0438900Y0018700D01*
X0444500Y0013100D01*
X0451700Y0005900D01*
X0456500Y0005900D01*
X0463700Y0013100D01*
X0475300Y0013100D01*
X0475700Y0013100D01*
X0484500Y0004300D01*
X0509300Y0004300D01*
X0518100Y0013100D01*
X0521000Y0013100D01*
X0521300Y0013100D01*
X0521300Y0037900D01*
X0524500Y0041100D01*
X0524500Y0110700D01*
X0516500Y0118700D01*
X0516500Y0119100D01*
X0514760Y0126300D02*
X0507560Y0119100D01*
X0506500Y0119100D01*
X0496500Y0119100D02*
X0496100Y0118700D01*
X0496100Y0104600D01*
X0488600Y0097100D01*
X0472500Y0097100D01*
X0449300Y0073900D01*
X0410100Y0073900D01*
X0392500Y0056300D01*
X0374900Y0056300D01*
X0370100Y0051500D01*
X0363700Y0051500D01*
X0359700Y0051500D02*
X0318900Y0051500D01*
X0318500Y0052100D01*
X0323700Y0048300D02*
X0325300Y0049900D01*
X0331700Y0049900D01*
X0338900Y0042700D01*
X0354699Y0042700D01*
X0379100Y0042700D01*
X0386100Y0041100D02*
X0386100Y0031500D01*
X0384500Y0029900D01*
X0271400Y0029900D01*
X0271400Y0030500D01*
X0260000Y0041900D01*
X0248500Y0041900D01*
X0238100Y0052300D01*
X0217300Y0052300D01*
X0222100Y0057100D02*
X0206100Y0057100D01*
X0203700Y0059500D01*
X0178900Y0059500D01*
X0178500Y0059946D01*
X0178100Y0060300D01*
X0176500Y0060300D01*
X0166900Y0069900D01*
X0163700Y0069900D01*
X0160500Y0073100D01*
X0130900Y0073100D01*
X0127700Y0069900D01*
X0127700Y0060300D01*
X0167700Y0060300D01*
X0168000Y0059946D01*
X0171700Y0060300D02*
X0171700Y0062700D01*
X0170900Y0063500D01*
X0161300Y0063500D01*
X0160500Y0062700D01*
X0138100Y0062700D01*
X0133300Y0067500D01*
X0132700Y0067700D01*
X0116000Y0069691D02*
X0115700Y0069900D01*
X0094900Y0049100D01*
X0089300Y0049100D01*
X0085300Y0053100D01*
X0083700Y0053100D01*
X0083500Y0053254D01*
X0091500Y0053254D02*
X0091700Y0053900D01*
X0100500Y0062700D01*
X0101300Y0062700D01*
X0104500Y0065900D01*
X0104500Y0069900D01*
X0101300Y0073100D01*
X0067700Y0073100D01*
X0065300Y0070700D01*
X0064909Y0070600D01*
X0051700Y0070700D02*
X0051091Y0070600D01*
X0051700Y0070700D02*
X0051700Y0082700D01*
X0052500Y0083500D01*
X0053000Y0083600D01*
X0045300Y0080300D02*
X0040500Y0085100D01*
X0040300Y0085500D01*
X0045300Y0080300D02*
X0045300Y0073100D01*
X0038100Y0073100D01*
X0023700Y0058700D01*
X0023700Y0037100D01*
X0056500Y0004300D01*
X0271000Y0004300D01*
X0271000Y0005784D01*
X0272535Y0007319D01*
X0275700Y0009100D02*
X0278900Y0005900D01*
X0312500Y0005900D01*
X0315700Y0009100D01*
X0315700Y0017900D01*
X0321300Y0023500D01*
X0323700Y0023500D01*
X0309440Y0013600D02*
X0302240Y0020800D01*
X0278600Y0020800D01*
X0277900Y0021500D01*
X0276300Y0023100D01*
X0276200Y0023100D01*
X0276300Y0023100D02*
X0277900Y0021500D01*
X0270900Y0023500D02*
X0270900Y0028137D01*
X0269800Y0029237D01*
X0269800Y0029400D01*
X0258900Y0040300D01*
X0246100Y0040300D01*
X0243700Y0042700D01*
X0245300Y0042700D01*
X0249300Y0043500D02*
X0242100Y0050700D01*
X0251700Y0060300D01*
X0255100Y0060600D01*
X0258081Y0059065D02*
X0258081Y0064019D01*
X0257400Y0064700D01*
X0256640Y0064700D01*
X0256240Y0065100D01*
X0248500Y0065100D01*
X0246700Y0063300D01*
X0257800Y0067500D02*
X0232500Y0067500D01*
X0232500Y0075500D01*
X0232846Y0076100D01*
X0230100Y0079500D02*
X0226900Y0076300D01*
X0226154Y0076100D01*
X0226100Y0075500D01*
X0226100Y0065100D01*
X0232500Y0067500D02*
X0222100Y0057100D01*
X0217300Y0067500D02*
X0208500Y0058700D01*
X0206900Y0058700D01*
X0206900Y0058740D01*
X0204900Y0060740D01*
X0204900Y0061500D01*
X0189300Y0077100D01*
X0182100Y0077100D01*
X0181909Y0077100D01*
X0176500Y0077100D01*
X0170900Y0071500D01*
X0164500Y0071500D01*
X0150900Y0085100D01*
X0133300Y0085100D01*
X0132700Y0085500D01*
X0132500Y0085100D01*
X0126900Y0079500D01*
X0111700Y0079500D01*
X0110100Y0081100D01*
X0110100Y0085900D01*
X0111700Y0087500D01*
X0124500Y0087500D01*
X0130100Y0093100D01*
X0135700Y0093100D01*
X0136500Y0093900D01*
X0136500Y0108300D01*
X0134100Y0110700D01*
X0130900Y0110700D01*
X0130700Y0111100D01*
X0138100Y0111500D02*
X0124500Y0125100D01*
X0117500Y0125100D01*
X0117300Y0125100D01*
X0107700Y0115500D01*
X0107700Y0113900D01*
X0053300Y0113900D01*
X0053000Y0113600D01*
X0075700Y0100300D02*
X0080500Y0105100D01*
X0096500Y0105100D01*
X0102900Y0098700D01*
X0102900Y0094700D01*
X0103700Y0093900D01*
X0112500Y0093900D01*
X0124500Y0105900D01*
X0130100Y0105900D01*
X0130700Y0106100D01*
X0130700Y0101100D02*
X0123700Y0101100D01*
X0107700Y0100300D02*
X0106909Y0099600D01*
X0107700Y0100300D02*
X0107700Y0113900D01*
X0138100Y0111500D02*
X0138100Y0093100D01*
X0136500Y0091500D01*
X0131700Y0091500D01*
X0124500Y0084300D01*
X0116500Y0084300D01*
X0116000Y0083509D01*
X0126900Y0092300D02*
X0102900Y0092300D01*
X0095700Y0099500D01*
X0093300Y0099500D01*
X0093091Y0099600D01*
X0083409Y0099600D02*
X0082900Y0099500D01*
X0078100Y0099500D01*
X0072500Y0093900D01*
X0053300Y0093900D01*
X0053000Y0093600D01*
X0069591Y0099600D02*
X0070100Y0100300D01*
X0075700Y0100300D01*
X0027500Y0099200D02*
X0026900Y0098700D01*
X0026900Y0072300D01*
X0018100Y0063500D01*
X0018100Y0054700D01*
X0017500Y0054600D01*
X0034900Y0051500D02*
X0039700Y0056300D01*
X0039700Y0067500D01*
X0040300Y0067700D01*
X0045300Y0073100D02*
X0045300Y0059500D01*
X0052500Y0052300D01*
X0053000Y0051754D01*
X0053300Y0045900D02*
X0058900Y0051500D01*
X0062900Y0051500D01*
X0063500Y0051754D01*
X0066900Y0054700D02*
X0066900Y0045100D01*
X0071700Y0040300D01*
X0114900Y0040300D01*
X0126100Y0051500D01*
X0126100Y0060300D01*
X0127700Y0060300D01*
X0126100Y0060300D02*
X0122900Y0060300D01*
X0122500Y0060446D01*
X0122100Y0060300D01*
X0112500Y0060300D01*
X0112500Y0060446D01*
X0098900Y0067500D02*
X0091700Y0060300D01*
X0091500Y0059946D01*
X0090900Y0060300D01*
X0083700Y0060300D01*
X0083500Y0059946D01*
X0066900Y0054700D02*
X0063700Y0057900D01*
X0063500Y0058446D01*
X0062900Y0058700D01*
X0053300Y0058700D01*
X0053000Y0058446D01*
X0034900Y0051500D02*
X0034900Y0043500D01*
X0039700Y0038700D01*
X0039700Y0028300D01*
X0040300Y0027700D01*
X0052500Y0028300D02*
X0052500Y0031500D01*
X0061300Y0040300D01*
X0062000Y0040100D01*
X0062100Y0040300D01*
X0066900Y0045100D01*
X0053300Y0045900D02*
X0040500Y0045900D01*
X0040300Y0045500D01*
X0087700Y0037100D02*
X0246900Y0037100D01*
X0248200Y0038400D01*
X0256800Y0038400D01*
X0260700Y0034500D01*
X0260700Y0033900D01*
X0272500Y0033900D02*
X0300500Y0033900D01*
X0305300Y0038700D01*
X0322900Y0038700D01*
X0330900Y0046700D01*
X0323700Y0048300D02*
X0302100Y0048300D01*
X0301300Y0049100D01*
X0298950Y0051450D01*
X0297000Y0053400D01*
X0293359Y0053400D01*
X0287300Y0059459D01*
X0287300Y0068100D01*
X0280900Y0074500D01*
X0268300Y0074500D01*
X0266100Y0072300D01*
X0262900Y0069100D01*
X0261000Y0069100D01*
X0250700Y0079400D01*
X0235800Y0079400D01*
X0235700Y0079500D01*
X0230100Y0079500D01*
X0225300Y0081100D02*
X0217300Y0073100D01*
X0217300Y0067700D01*
X0217300Y0067500D01*
X0216500Y0074700D02*
X0226100Y0084300D01*
X0250100Y0084300D01*
X0263700Y0081100D02*
X0225300Y0081100D01*
X0217300Y0085500D02*
X0217300Y0085900D01*
X0222100Y0090700D01*
X0226100Y0090700D01*
X0226154Y0091100D01*
X0226900Y0090700D01*
X0230100Y0087500D01*
X0294100Y0087500D01*
X0294399Y0088000D01*
X0294900Y0088300D01*
X0318100Y0088300D01*
X0318800Y0088000D01*
X0326200Y0091800D02*
X0326200Y0080200D01*
X0326900Y0079500D01*
X0343887Y0096487D01*
X0359427Y0096487D01*
X0362814Y0093100D01*
X0382900Y0093100D01*
X0385300Y0090700D01*
X0385300Y0085100D01*
X0379700Y0079500D01*
X0379000Y0079100D01*
X0375700Y0075500D02*
X0421300Y0075500D01*
X0431700Y0085900D01*
X0448500Y0085900D01*
X0466100Y0103500D01*
X0466100Y0118700D01*
X0466500Y0119100D01*
X0463700Y0128300D02*
X0456500Y0121100D01*
X0456500Y0119100D01*
X0451700Y0123500D02*
X0451700Y0114700D01*
X0446900Y0109900D01*
X0430100Y0109900D01*
X0447700Y0087500D02*
X0461300Y0101100D01*
X0461300Y0123500D01*
X0464500Y0126700D01*
X0468500Y0126700D01*
X0470900Y0124300D01*
X0470900Y0115500D01*
X0479700Y0106700D01*
X0479700Y0100300D01*
X0456500Y0100300D02*
X0437300Y0100300D01*
X0437300Y0100500D01*
X0437300Y0091500D02*
X0413300Y0091500D01*
X0412899Y0091400D01*
X0412500Y0091500D01*
X0404500Y0091500D01*
X0381300Y0114700D01*
X0381300Y0123500D01*
X0376500Y0128300D01*
X0330900Y0128300D01*
X0326900Y0124300D01*
X0318900Y0124300D01*
X0312500Y0130700D01*
X0284500Y0130700D01*
X0276500Y0122700D01*
X0276500Y0121900D01*
X0262300Y0107700D01*
X0262300Y0101500D01*
X0255500Y0094700D01*
X0218900Y0094700D01*
X0210900Y0086700D01*
X0207700Y0087500D02*
X0207700Y0061900D01*
X0180500Y0055500D02*
X0178900Y0053900D01*
X0178500Y0053254D01*
X0178100Y0053900D01*
X0171700Y0060300D01*
X0180500Y0055500D02*
X0237300Y0055500D01*
X0242100Y0050700D01*
X0255700Y0054419D02*
X0255700Y0056684D01*
X0258081Y0059065D01*
X0277200Y0065600D02*
X0279825Y0062975D01*
X0279825Y0049275D01*
X0281700Y0047400D01*
X0293300Y0043500D02*
X0294099Y0043000D01*
X0294100Y0043500D01*
X0318100Y0043500D01*
X0318500Y0043000D01*
X0293300Y0043500D02*
X0249300Y0043500D01*
X0292900Y0056640D02*
X0294540Y0055000D01*
X0296860Y0055000D01*
X0298500Y0056640D01*
X0298500Y0056700D01*
X0302100Y0060300D01*
X0309300Y0060300D01*
X0312500Y0063500D01*
X0320500Y0063500D01*
X0324500Y0059500D01*
X0383700Y0059500D01*
X0376500Y0072300D02*
X0366900Y0062700D01*
X0345300Y0062700D01*
X0359700Y0065900D02*
X0326100Y0065900D01*
X0323700Y0068300D01*
X0294100Y0068300D01*
X0290100Y0064300D01*
X0295700Y0062100D02*
X0295700Y0057800D01*
X0292900Y0058075D02*
X0292900Y0056640D01*
X0292900Y0058075D02*
X0291294Y0059681D01*
X0295700Y0062100D02*
X0297200Y0063600D01*
X0301160Y0063600D01*
X0301300Y0063460D01*
X0301300Y0063500D01*
X0308500Y0063500D01*
X0311700Y0066700D01*
X0321300Y0066700D01*
X0324500Y0063500D01*
X0314100Y0069900D02*
X0359700Y0069900D01*
X0373300Y0073100D02*
X0375700Y0075500D01*
X0373300Y0073100D02*
X0313300Y0073100D01*
X0310100Y0076300D01*
X0262100Y0076300D01*
X0264500Y0077900D02*
X0310900Y0077900D01*
X0314100Y0074700D01*
X0341300Y0074700D01*
X0354100Y0087500D01*
X0354599Y0088200D01*
X0354900Y0088300D01*
X0378900Y0088300D01*
X0379000Y0088200D01*
X0381300Y0097100D02*
X0395700Y0082700D01*
X0418100Y0082700D01*
X0422900Y0087500D01*
X0447700Y0087500D01*
X0437300Y0091400D02*
X0437300Y0091500D01*
X0467700Y0088300D02*
X0438900Y0059500D01*
X0438900Y0053100D01*
X0438800Y0052600D01*
X0443700Y0048300D02*
X0422900Y0048300D01*
X0410900Y0060300D01*
X0406900Y0060300D01*
X0389300Y0042700D01*
X0389300Y0032300D01*
X0361300Y0004300D01*
X0271000Y0004300D01*
X0267700Y0006700D02*
X0272500Y0011500D01*
X0275700Y0009100D02*
X0275700Y0013900D01*
X0267700Y0021900D01*
X0262400Y0021900D01*
X0253400Y0030900D01*
X0249100Y0030900D01*
X0247700Y0032300D01*
X0190100Y0032300D01*
X0180500Y0022700D01*
X0142900Y0022700D01*
X0137300Y0017100D01*
X0121300Y0017100D01*
X0120906Y0016600D01*
X0117300Y0012300D02*
X0116500Y0013100D01*
X0116500Y0021100D01*
X0133300Y0021100D01*
X0139700Y0027500D01*
X0158100Y0027500D01*
X0158300Y0027700D01*
X0166900Y0018700D02*
X0167315Y0019037D01*
X0167700Y0019500D01*
X0191700Y0019500D01*
X0198900Y0026700D01*
X0217300Y0026700D01*
X0251400Y0023700D02*
X0254030Y0021070D01*
X0254260Y0021300D01*
X0257740Y0021300D01*
X0264940Y0014100D01*
X0266000Y0014100D01*
X0270900Y0023500D02*
X0280500Y0013900D01*
X0280500Y0013600D01*
X0267700Y0006700D02*
X0194100Y0006700D01*
X0186100Y0014700D01*
X0180500Y0014700D01*
X0180406Y0015100D01*
X0166900Y0018700D02*
X0141300Y0018700D01*
X0134900Y0012300D01*
X0117300Y0012300D01*
X0116500Y0010700D02*
X0114900Y0012300D01*
X0108500Y0012300D01*
X0107815Y0012663D01*
X0107700Y0013100D01*
X0067700Y0013100D01*
X0052500Y0028300D01*
X0057000Y0030100D02*
X0057300Y0030700D01*
X0069300Y0030700D01*
X0071700Y0033100D01*
X0094100Y0033100D01*
X0098900Y0028300D01*
X0099300Y0027700D01*
X0099700Y0027500D01*
X0106100Y0021100D01*
X0107700Y0021100D01*
X0107815Y0020537D01*
X0108500Y0021100D01*
X0116500Y0021100D01*
X0116500Y0010700D02*
X0166900Y0010700D01*
X0167315Y0011163D01*
X0284500Y0026700D02*
X0355700Y0026700D01*
X0378900Y0033900D02*
X0379100Y0033600D01*
X0378900Y0033900D02*
X0325300Y0033900D01*
X0325300Y0034700D01*
X0325300Y0033900D02*
X0318500Y0033900D01*
X0304500Y0033900D01*
X0359700Y0051500D02*
X0363700Y0047500D01*
X0388500Y0047500D01*
X0402900Y0061900D01*
X0411700Y0061900D01*
X0412500Y0061100D01*
X0435700Y0061100D01*
X0438900Y0064300D02*
X0402900Y0064300D01*
X0390900Y0052300D01*
X0379700Y0052300D01*
X0379100Y0051800D01*
X0401300Y0046700D02*
X0401300Y0033100D01*
X0394900Y0026700D01*
X0394900Y0013100D01*
X0394500Y0013100D01*
X0400500Y0017100D02*
X0404500Y0013100D01*
X0406900Y0005900D02*
X0414100Y0013100D01*
X0414500Y0013100D01*
X0400500Y0017100D02*
X0400500Y0029900D01*
X0406900Y0036300D01*
X0406900Y0046700D01*
X0414100Y0043500D02*
X0414399Y0043500D01*
X0438800Y0043500D01*
X0443700Y0048300D02*
X0464500Y0069100D01*
X0464500Y0071500D01*
X0465099Y0071900D01*
X0465300Y0072300D01*
X0489300Y0072300D01*
X0489500Y0071900D01*
X0489500Y0081000D02*
X0489300Y0081100D01*
X0488500Y0081900D01*
X0467700Y0081900D01*
X0437300Y0082300D02*
X0437300Y0077100D01*
X0381300Y0097100D02*
X0379700Y0097100D01*
X0379000Y0097300D01*
X0379503Y0103500D02*
X0379503Y0103703D01*
X0382800Y0107000D01*
X0371700Y0107500D02*
X0371700Y0123500D01*
X0368500Y0126700D01*
X0364500Y0126700D01*
X0340500Y0102700D01*
X0304500Y0102700D01*
X0301300Y0105900D01*
X0274900Y0105900D01*
X0271100Y0102700D02*
X0271100Y0109100D01*
X0274500Y0112500D01*
X0323960Y0112500D01*
X0334260Y0122800D01*
X0335100Y0122800D01*
X0330100Y0129900D02*
X0327700Y0127500D01*
X0325300Y0127500D01*
X0330100Y0129900D02*
X0395700Y0129900D01*
X0406500Y0119100D01*
X0396500Y0119100D02*
X0388800Y0126800D01*
X0382500Y0126800D01*
X0366500Y0119100D02*
X0359260Y0119100D01*
X0334460Y0094300D01*
X0328700Y0094300D01*
X0326200Y0091800D01*
X0333300Y0097100D02*
X0318800Y0097100D01*
X0302100Y0093900D02*
X0299700Y0096300D01*
X0289300Y0096300D01*
X0284500Y0091500D01*
X0242900Y0091500D01*
X0233300Y0091500D01*
X0232846Y0091100D01*
X0244098Y0096300D02*
X0216500Y0096300D01*
X0207700Y0087500D01*
X0209300Y0094100D02*
X0204300Y0094100D01*
X0209300Y0094100D02*
X0214700Y0099500D01*
X0238763Y0099500D01*
X0243022Y0103759D01*
X0247341Y0103759D01*
X0250322Y0103922D02*
X0250322Y0102524D01*
X0244098Y0096300D01*
X0264000Y0100800D02*
X0265300Y0099500D01*
X0296500Y0099500D01*
X0300500Y0102700D02*
X0281600Y0102600D01*
X0267700Y0109100D02*
X0264000Y0105400D01*
X0264000Y0100800D01*
X0250322Y0103922D02*
X0270500Y0124100D01*
X0270100Y0123500D01*
X0267700Y0123500D01*
X0260500Y0123500D02*
X0260500Y0124100D01*
X0260500Y0123500D02*
X0238100Y0101100D01*
X0207700Y0101100D01*
X0207685Y0100663D01*
X0206900Y0101100D01*
X0202900Y0105100D01*
X0182100Y0084300D01*
X0182100Y0077100D01*
X0168091Y0077100D02*
X0167700Y0077100D01*
X0167700Y0083500D01*
X0155700Y0095500D01*
X0151700Y0095500D01*
X0151300Y0096100D01*
X0157300Y0106700D02*
X0166900Y0097100D01*
X0167591Y0097100D01*
X0181409Y0097100D02*
X0182100Y0097100D01*
X0182100Y0100300D01*
X0186900Y0105100D01*
X0174100Y0117900D01*
X0173685Y0118163D01*
X0160594Y0122100D02*
X0160500Y0121900D01*
X0154100Y0121900D01*
X0145300Y0113100D01*
X0145300Y0109100D01*
X0147700Y0106700D01*
X0150900Y0106700D01*
X0151300Y0106100D01*
X0154100Y0110700D02*
X0157300Y0107500D01*
X0157300Y0106700D01*
X0154100Y0110700D02*
X0151700Y0110700D01*
X0151300Y0111100D01*
X0186900Y0105100D02*
X0190900Y0109100D01*
X0198900Y0109100D01*
X0202900Y0105100D01*
X0194594Y0104600D02*
X0194100Y0104300D01*
X0194100Y0101100D01*
X0184500Y0091500D01*
X0163700Y0091500D01*
X0154100Y0101100D01*
X0151300Y0101100D01*
X0130700Y0096100D02*
X0126900Y0092300D01*
X0207685Y0108537D02*
X0207700Y0109100D01*
X0242100Y0109100D01*
X0284500Y0109400D02*
X0334100Y0109400D01*
X0334800Y0108700D01*
X0342100Y0108700D01*
X0334900Y0108800D02*
X0334800Y0108700D01*
X0349600Y0103500D02*
X0379503Y0103500D01*
X0322800Y0115300D02*
X0294300Y0115300D01*
X0285600Y0124000D01*
X0194100Y0125900D02*
X0174100Y0125900D01*
X0173685Y0126037D01*
X0263700Y0081100D02*
X0265300Y0079500D01*
X0318100Y0079500D01*
X0318800Y0078900D01*
X0318900Y0079500D01*
X0326900Y0079500D01*
X0314100Y0069900D02*
X0310900Y0073100D01*
X0293300Y0073100D01*
X0264500Y0077900D02*
X0262900Y0079500D01*
X0261300Y0079500D01*
X0258900Y0077100D01*
X0258900Y0075500D01*
X0262100Y0072300D01*
X0216500Y0074700D02*
X0214900Y0074700D01*
X0168000Y0053254D02*
X0167700Y0053100D01*
X0166100Y0053100D01*
X0158900Y0045900D01*
X0158300Y0045500D01*
X0122500Y0053754D02*
X0122100Y0053100D01*
X0120500Y0053100D01*
X0113300Y0045900D01*
X0099700Y0045900D01*
X0099300Y0045500D01*
X0112500Y0049100D02*
X0112500Y0053754D01*
X0099300Y0067700D02*
X0098900Y0067500D01*
X0309440Y0013600D02*
X0310500Y0013600D01*
X0390100Y0017900D02*
X0390100Y0008300D01*
X0392500Y0005900D01*
X0406900Y0005900D01*
X0390900Y0018700D02*
X0390100Y0017900D01*
X0390900Y0018700D02*
X0390900Y0040300D01*
X0403700Y0053100D01*
X0414100Y0053100D01*
X0414100Y0043500D02*
X0414100Y0039500D01*
X0403700Y0029100D01*
X0454900Y0013100D02*
X0462100Y0020300D01*
X0486900Y0020300D01*
X0494100Y0013100D01*
X0496700Y0013100D01*
X0492500Y0005900D02*
X0485300Y0013100D01*
X0492500Y0005900D02*
X0508500Y0005900D01*
X0513300Y0010700D01*
X0513300Y0025100D01*
X0524281Y0035800D02*
X0524281Y0038618D01*
X0526100Y0040437D01*
X0526100Y0118440D01*
X0518240Y0126300D01*
X0514760Y0126300D01*
X0486500Y0119100D02*
X0475700Y0129900D01*
X0458100Y0129900D01*
X0451700Y0123500D01*
X0463700Y0128300D02*
X0469300Y0128300D01*
X0476500Y0121100D01*
X0476500Y0119100D01*
X0463700Y0047500D02*
X0463700Y0029900D01*
X0454900Y0013100D02*
X0454500Y0013100D01*
D28*
X0513300Y0025100D03*
X0463700Y0029900D03*
X0403700Y0029100D03*
X0386100Y0041100D03*
X0401300Y0046700D03*
X0406900Y0046700D03*
X0414100Y0053100D03*
X0435700Y0061100D03*
X0438900Y0064300D03*
X0479700Y0059500D03*
X0470100Y0049900D03*
X0383700Y0059500D03*
X0359700Y0065900D03*
X0359700Y0069900D03*
X0376500Y0072300D03*
X0345300Y0062700D03*
X0324500Y0063500D03*
X0320500Y0063500D03*
X0308500Y0063500D03*
X0302100Y0060300D03*
X0295700Y0057800D03*
X0290100Y0064300D03*
X0266100Y0072300D03*
X0262100Y0072300D03*
X0262100Y0076300D03*
X0257800Y0067500D03*
X0226100Y0065100D03*
X0207700Y0061900D03*
X0217300Y0052300D03*
X0243700Y0042700D03*
X0260700Y0033900D03*
X0272500Y0033900D03*
X0284500Y0026700D03*
X0304500Y0033900D03*
X0325300Y0034700D03*
X0355700Y0026700D03*
X0323700Y0023500D03*
X0272500Y0011500D03*
X0330900Y0046700D03*
X0363700Y0051500D03*
X0293300Y0073100D03*
X0250100Y0084300D03*
X0242900Y0091500D03*
X0210900Y0086700D03*
X0214900Y0074700D03*
X0302100Y0093900D03*
X0296500Y0099500D03*
X0300500Y0102700D03*
X0281600Y0102600D03*
X0274900Y0105900D03*
X0267700Y0109100D03*
X0242100Y0109100D03*
X0194100Y0125900D03*
X0123700Y0101100D03*
X0322800Y0115300D03*
X0325300Y0127500D03*
X0371700Y0107500D03*
X0333300Y0097100D03*
X0430100Y0109900D03*
X0456500Y0100300D03*
X0479700Y0100300D03*
X0467700Y0088300D03*
X0467700Y0081900D03*
X0437300Y0077100D03*
X0112500Y0049100D03*
X0087700Y0037100D03*
D29*
X0246700Y0063300D03*
X0255100Y0060600D03*
X0277200Y0065600D03*
X0291294Y0059681D03*
X0255700Y0054419D03*
X0281700Y0047400D03*
X0276200Y0023100D03*
X0251400Y0023700D03*
X0272535Y0007319D03*
X0524281Y0035800D03*
X0349600Y0103500D03*
X0342100Y0108700D03*
X0382800Y0107000D03*
X0335100Y0122800D03*
X0382500Y0126800D03*
X0284500Y0109400D03*
X0271100Y0102700D03*
X0247341Y0103759D03*
X0204300Y0094100D03*
D30*
X0201167Y0095370D02*
X0195999Y0095370D01*
X0194400Y0093772D02*
X0200919Y0093772D01*
X0200919Y0093427D02*
X0201434Y0092185D01*
X0202385Y0091234D01*
X0203627Y0090719D01*
X0204973Y0090719D01*
X0206215Y0091234D01*
X0207082Y0092100D01*
X0209472Y0092100D01*
X0206872Y0089500D01*
X0205700Y0088328D01*
X0205700Y0064425D01*
X0205251Y0063977D01*
X0191300Y0077928D01*
X0190128Y0079100D01*
X0186009Y0079100D01*
X0186009Y0081818D01*
X0185072Y0082755D01*
X0184100Y0082755D01*
X0184100Y0083472D01*
X0186400Y0085772D01*
X0186400Y0084446D01*
X0187207Y0082498D01*
X0188698Y0081007D01*
X0190646Y0080200D01*
X0192754Y0080200D01*
X0194702Y0081007D01*
X0196193Y0082498D01*
X0197000Y0084446D01*
X0197000Y0086554D01*
X0196193Y0088502D01*
X0194702Y0089993D01*
X0192754Y0090800D01*
X0191428Y0090800D01*
X0202900Y0102272D01*
X0203723Y0101449D01*
X0203723Y0097638D01*
X0203880Y0097481D01*
X0203627Y0097481D01*
X0202385Y0096966D01*
X0201434Y0096015D01*
X0200919Y0094773D01*
X0200919Y0093427D01*
X0201445Y0092173D02*
X0192802Y0092173D01*
X0193298Y0090575D02*
X0207947Y0090575D01*
X0206348Y0088976D02*
X0195719Y0088976D01*
X0196659Y0087378D02*
X0205700Y0087378D01*
X0205700Y0085779D02*
X0197000Y0085779D01*
X0196890Y0084181D02*
X0205700Y0084181D01*
X0205700Y0082582D02*
X0196228Y0082582D01*
X0194647Y0080984D02*
X0205700Y0080984D01*
X0209700Y0080984D02*
X0214353Y0080984D01*
X0214298Y0081007D02*
X0216246Y0080200D01*
X0218354Y0080200D01*
X0219750Y0080778D01*
X0216481Y0077509D01*
X0215537Y0077900D01*
X0214263Y0077900D01*
X0213087Y0077413D01*
X0212187Y0076513D01*
X0211700Y0075337D01*
X0211700Y0074063D01*
X0212187Y0072887D01*
X0213087Y0071987D01*
X0213798Y0071693D01*
X0212807Y0070702D01*
X0212000Y0068754D01*
X0212000Y0066646D01*
X0212474Y0065502D01*
X0210492Y0063521D01*
X0210413Y0063713D01*
X0209700Y0064425D01*
X0209700Y0083733D01*
X0210263Y0083500D01*
X0211537Y0083500D01*
X0212266Y0083802D01*
X0212807Y0082498D01*
X0214298Y0081007D01*
X0212772Y0082582D02*
X0209700Y0082582D01*
X0222022Y0083050D02*
X0224100Y0085128D01*
X0225272Y0086300D01*
X0228472Y0086300D01*
X0228100Y0086672D01*
X0227240Y0087531D01*
X0223325Y0087531D01*
X0222543Y0088314D01*
X0222068Y0087839D01*
X0222600Y0086554D01*
X0222600Y0084446D01*
X0222022Y0083050D01*
X0222490Y0084181D02*
X0223152Y0084181D01*
X0222600Y0085779D02*
X0224751Y0085779D01*
X0222259Y0087378D02*
X0227394Y0087378D01*
X0236612Y0089500D02*
X0236612Y0089500D01*
X0240375Y0089500D01*
X0240375Y0089500D01*
X0236612Y0089500D01*
X0245425Y0089500D02*
X0245425Y0089500D01*
X0288469Y0089500D01*
X0288469Y0092640D01*
X0285328Y0089500D01*
X0245425Y0089500D01*
X0253067Y0085500D02*
X0288469Y0085500D01*
X0288469Y0081500D01*
X0266128Y0081500D01*
X0265700Y0081928D01*
X0264528Y0083100D01*
X0253067Y0083100D01*
X0253300Y0083663D01*
X0253300Y0084937D01*
X0253067Y0085500D01*
X0253300Y0084181D02*
X0288469Y0084181D01*
X0288469Y0082582D02*
X0265046Y0082582D01*
X0258072Y0079100D02*
X0253828Y0079100D01*
X0256900Y0076028D01*
X0256900Y0077928D01*
X0258072Y0079100D01*
X0256900Y0077787D02*
X0255142Y0077787D01*
X0256740Y0076188D02*
X0256900Y0076188D01*
X0252682Y0074590D02*
X0236612Y0074590D01*
X0236612Y0073469D02*
X0236612Y0077400D01*
X0249872Y0077400D01*
X0256745Y0070527D01*
X0255987Y0070213D01*
X0255275Y0069500D01*
X0234500Y0069500D01*
X0234500Y0072531D01*
X0235675Y0072531D01*
X0236612Y0073469D01*
X0236134Y0072991D02*
X0254280Y0072991D01*
X0255879Y0071393D02*
X0234500Y0071393D01*
X0230500Y0071393D02*
X0228100Y0071393D01*
X0228100Y0072531D02*
X0228982Y0072531D01*
X0229500Y0073050D01*
X0230018Y0072531D01*
X0230500Y0072531D01*
X0230500Y0068328D01*
X0228892Y0066721D01*
X0228813Y0066913D01*
X0228100Y0067625D01*
X0228100Y0072531D01*
X0229441Y0072991D02*
X0229559Y0072991D01*
X0224100Y0072531D02*
X0224100Y0067625D01*
X0223387Y0066913D01*
X0222900Y0065737D01*
X0222900Y0064463D01*
X0223387Y0063287D01*
X0224287Y0062387D01*
X0224479Y0062308D01*
X0221272Y0059100D01*
X0211728Y0059100D01*
X0215385Y0062757D01*
X0216246Y0062400D01*
X0218354Y0062400D01*
X0220302Y0063207D01*
X0221793Y0064698D01*
X0222600Y0066646D01*
X0222600Y0068754D01*
X0221793Y0070702D01*
X0220302Y0072193D01*
X0219538Y0072510D01*
X0222388Y0075360D01*
X0222388Y0073469D01*
X0223325Y0072531D01*
X0224100Y0072531D01*
X0224100Y0071393D02*
X0221102Y0071393D01*
X0220020Y0072991D02*
X0222866Y0072991D01*
X0222388Y0074590D02*
X0221618Y0074590D01*
X0216758Y0077787D02*
X0215810Y0077787D01*
X0213990Y0077787D02*
X0209700Y0077787D01*
X0209700Y0079385D02*
X0218357Y0079385D01*
X0212053Y0076188D02*
X0209700Y0076188D01*
X0209700Y0074590D02*
X0211700Y0074590D01*
X0212144Y0072991D02*
X0209700Y0072991D01*
X0209700Y0071393D02*
X0213497Y0071393D01*
X0205700Y0071393D02*
X0197836Y0071393D01*
X0196237Y0072991D02*
X0205700Y0072991D01*
X0205700Y0074590D02*
X0194639Y0074590D01*
X0193040Y0076188D02*
X0205700Y0076188D01*
X0205700Y0077787D02*
X0191442Y0077787D01*
X0186009Y0079385D02*
X0205700Y0079385D01*
X0190593Y0072978D02*
X0188472Y0075100D01*
X0186009Y0075100D01*
X0186009Y0072382D01*
X0185072Y0071445D01*
X0178747Y0071445D01*
X0177809Y0072382D01*
X0177809Y0075100D01*
X0177328Y0075100D01*
X0172900Y0070672D01*
X0171728Y0069500D01*
X0170128Y0069500D01*
X0175917Y0063712D01*
X0181131Y0063712D01*
X0182068Y0062775D01*
X0182068Y0061500D01*
X0202072Y0061500D01*
X0196978Y0066593D01*
X0196193Y0064698D01*
X0194702Y0063207D01*
X0192754Y0062400D01*
X0190646Y0062400D01*
X0188698Y0063207D01*
X0187207Y0064698D01*
X0186400Y0066646D01*
X0186400Y0068754D01*
X0187207Y0070702D01*
X0188698Y0072193D01*
X0190593Y0072978D01*
X0190580Y0072991D02*
X0186009Y0072991D01*
X0186009Y0074590D02*
X0188982Y0074590D01*
X0187897Y0071393D02*
X0173621Y0071393D01*
X0175220Y0072991D02*
X0177809Y0072991D01*
X0177809Y0074590D02*
X0176818Y0074590D01*
X0172760Y0076188D02*
X0172191Y0076188D01*
X0172191Y0075619D02*
X0172191Y0081818D01*
X0171253Y0082755D01*
X0169700Y0082755D01*
X0169700Y0084328D01*
X0164528Y0089500D01*
X0164528Y0089500D01*
X0184472Y0089500D01*
X0180100Y0085128D01*
X0180100Y0082755D01*
X0178747Y0082755D01*
X0177809Y0081818D01*
X0177809Y0079100D01*
X0175672Y0079100D01*
X0172191Y0075619D01*
X0172191Y0077787D02*
X0174358Y0077787D01*
X0172191Y0079385D02*
X0177809Y0079385D01*
X0177809Y0080984D02*
X0172191Y0080984D01*
X0171426Y0082582D02*
X0178574Y0082582D01*
X0180100Y0084181D02*
X0169700Y0084181D01*
X0168249Y0085779D02*
X0180751Y0085779D01*
X0182350Y0087378D02*
X0166650Y0087378D01*
X0165052Y0088976D02*
X0183948Y0088976D01*
X0177309Y0093500D02*
X0171691Y0093500D01*
X0171691Y0101818D01*
X0170753Y0102755D01*
X0164428Y0102755D01*
X0164251Y0102578D01*
X0159300Y0107528D01*
X0159300Y0108328D01*
X0157250Y0110378D01*
X0157250Y0112963D01*
X0156313Y0113900D01*
X0148928Y0113900D01*
X0154928Y0119900D01*
X0155845Y0119900D01*
X0155845Y0118484D01*
X0156782Y0117547D01*
X0164407Y0117547D01*
X0165344Y0118484D01*
X0165344Y0125715D01*
X0164407Y0126653D01*
X0156782Y0126653D01*
X0155845Y0125715D01*
X0155845Y0123900D01*
X0153272Y0123900D01*
X0144472Y0115100D01*
X0143300Y0113928D01*
X0143300Y0108272D01*
X0145350Y0106222D01*
X0145350Y0104237D01*
X0145987Y0103600D01*
X0145350Y0102963D01*
X0145350Y0099237D01*
X0145987Y0098600D01*
X0145350Y0097963D01*
X0145350Y0094237D01*
X0146287Y0093300D01*
X0155072Y0093300D01*
X0157572Y0090800D01*
X0157246Y0090800D01*
X0155298Y0089993D01*
X0153807Y0088502D01*
X0153000Y0086554D01*
X0153000Y0085828D01*
X0152900Y0085928D01*
X0151728Y0087100D01*
X0137774Y0087100D01*
X0137193Y0088502D01*
X0136195Y0089500D01*
X0137328Y0089500D01*
X0138928Y0091100D01*
X0140100Y0092272D01*
X0140100Y0112328D01*
X0126500Y0125928D01*
X0125328Y0127100D01*
X0123350Y0127100D01*
X0123350Y0127523D01*
X0119951Y0130922D01*
X0281894Y0130922D01*
X0276350Y0125378D01*
X0276350Y0126523D01*
X0272923Y0129950D01*
X0268077Y0129950D01*
X0265500Y0127373D01*
X0262923Y0129950D01*
X0258077Y0129950D01*
X0255500Y0127373D01*
X0252923Y0129950D01*
X0248077Y0129950D01*
X0244650Y0126523D01*
X0244650Y0121677D01*
X0248077Y0118250D01*
X0252422Y0118250D01*
X0244892Y0110721D01*
X0244813Y0110913D01*
X0243913Y0111813D01*
X0242737Y0112300D01*
X0241463Y0112300D01*
X0240287Y0111813D01*
X0239575Y0111100D01*
X0211647Y0111100D01*
X0211647Y0111562D01*
X0210710Y0112499D01*
X0204660Y0112499D01*
X0203723Y0111562D01*
X0203723Y0107106D01*
X0200900Y0109928D01*
X0200900Y0109928D01*
X0199728Y0111100D01*
X0190072Y0111100D01*
X0186900Y0107928D01*
X0177647Y0117181D01*
X0177647Y0121188D01*
X0176735Y0122100D01*
X0177647Y0123012D01*
X0177647Y0123900D01*
X0191575Y0123900D01*
X0192287Y0123187D01*
X0193463Y0122700D01*
X0194737Y0122700D01*
X0195913Y0123187D01*
X0196813Y0124087D01*
X0197300Y0125263D01*
X0197300Y0126537D01*
X0196813Y0127713D01*
X0195913Y0128613D01*
X0194737Y0129100D01*
X0193463Y0129100D01*
X0192287Y0128613D01*
X0191575Y0127900D01*
X0177647Y0127900D01*
X0177647Y0129062D01*
X0176710Y0129999D01*
X0170660Y0129999D01*
X0169723Y0129062D01*
X0169723Y0123012D01*
X0170635Y0122100D01*
X0169723Y0121188D01*
X0169723Y0115138D01*
X0170660Y0114201D01*
X0174971Y0114201D01*
X0184072Y0105100D01*
X0181727Y0102755D01*
X0178247Y0102755D01*
X0177309Y0101818D01*
X0177309Y0093500D01*
X0177309Y0093772D02*
X0171691Y0093772D01*
X0171691Y0095370D02*
X0177309Y0095370D01*
X0185509Y0095370D02*
X0185542Y0095370D01*
X0185509Y0095338D02*
X0185509Y0100881D01*
X0187728Y0103100D01*
X0187728Y0103100D01*
X0188900Y0104272D01*
X0189845Y0105216D01*
X0189845Y0100984D01*
X0190500Y0100329D01*
X0185509Y0095338D01*
X0185509Y0096969D02*
X0187141Y0096969D01*
X0188739Y0098568D02*
X0185509Y0098568D01*
X0185509Y0100166D02*
X0190338Y0100166D01*
X0189845Y0101765D02*
X0186393Y0101765D01*
X0187991Y0103363D02*
X0189845Y0103363D01*
X0188900Y0104272D02*
X0188900Y0104272D01*
X0189590Y0104962D02*
X0189845Y0104962D01*
X0183933Y0104962D02*
X0161867Y0104962D01*
X0163465Y0103363D02*
X0182335Y0103363D01*
X0177309Y0101765D02*
X0171691Y0101765D01*
X0171691Y0100166D02*
X0177309Y0100166D01*
X0177309Y0098568D02*
X0171691Y0098568D01*
X0171691Y0096969D02*
X0177309Y0096969D01*
X0163491Y0096969D02*
X0161059Y0096969D01*
X0162604Y0098568D02*
X0159461Y0098568D01*
X0161006Y0100166D02*
X0157862Y0100166D01*
X0157250Y0100778D02*
X0157250Y0102963D01*
X0156613Y0103600D01*
X0157092Y0104079D01*
X0163491Y0097681D01*
X0163491Y0094538D01*
X0157250Y0100778D01*
X0157250Y0101765D02*
X0159407Y0101765D01*
X0157809Y0103363D02*
X0156850Y0103363D01*
X0145750Y0103363D02*
X0140100Y0103363D01*
X0140100Y0101765D02*
X0145350Y0101765D01*
X0145350Y0100166D02*
X0140100Y0100166D01*
X0140100Y0098568D02*
X0145955Y0098568D01*
X0145350Y0096969D02*
X0140100Y0096969D01*
X0140100Y0095370D02*
X0145350Y0095370D01*
X0145815Y0093772D02*
X0140100Y0093772D01*
X0140002Y0092173D02*
X0156198Y0092173D01*
X0156702Y0090575D02*
X0138403Y0090575D01*
X0136719Y0088976D02*
X0154281Y0088976D01*
X0153341Y0087378D02*
X0137659Y0087378D01*
X0127874Y0083302D02*
X0127422Y0084393D01*
X0125328Y0082300D01*
X0121655Y0082300D01*
X0121655Y0081500D01*
X0126072Y0081500D01*
X0127874Y0083302D01*
X0127510Y0084181D02*
X0127209Y0084181D01*
X0127154Y0082582D02*
X0125611Y0082582D01*
X0127728Y0077500D02*
X0130785Y0080557D01*
X0131646Y0080200D01*
X0133754Y0080200D01*
X0135702Y0081007D01*
X0137193Y0082498D01*
X0137443Y0083100D01*
X0150072Y0083100D01*
X0158072Y0075100D01*
X0130072Y0075100D01*
X0126872Y0071900D01*
X0125700Y0070728D01*
X0125700Y0063643D01*
X0125131Y0064212D01*
X0119869Y0064212D01*
X0118931Y0063275D01*
X0118931Y0062300D01*
X0116068Y0062300D01*
X0116068Y0063275D01*
X0115131Y0064212D01*
X0112840Y0064212D01*
X0114219Y0065591D01*
X0120718Y0065591D01*
X0121655Y0066528D01*
X0121655Y0072853D01*
X0120718Y0073791D01*
X0111282Y0073791D01*
X0110345Y0072853D01*
X0110345Y0067373D01*
X0095068Y0052097D01*
X0095068Y0054440D01*
X0101328Y0060700D01*
X0102128Y0060700D01*
X0105328Y0063900D01*
X0106500Y0065072D01*
X0106500Y0070728D01*
X0103300Y0073928D01*
X0102128Y0075100D01*
X0069009Y0075100D01*
X0069009Y0075318D01*
X0068072Y0076255D01*
X0061747Y0076255D01*
X0060809Y0075318D01*
X0060809Y0065882D01*
X0061747Y0064945D01*
X0068072Y0064945D01*
X0068802Y0065675D01*
X0069207Y0064698D01*
X0070698Y0063207D01*
X0072646Y0062400D01*
X0074754Y0062400D01*
X0076702Y0063207D01*
X0078193Y0064698D01*
X0079000Y0066646D01*
X0079000Y0068754D01*
X0078193Y0070702D01*
X0077795Y0071100D01*
X0095205Y0071100D01*
X0094807Y0070702D01*
X0094000Y0068754D01*
X0094000Y0066646D01*
X0094357Y0065785D01*
X0092283Y0063712D01*
X0088869Y0063712D01*
X0087931Y0062775D01*
X0087931Y0062300D01*
X0087068Y0062300D01*
X0087068Y0062775D01*
X0086131Y0063712D01*
X0080869Y0063712D01*
X0079931Y0062775D01*
X0079931Y0057118D01*
X0080450Y0056600D01*
X0079931Y0056082D01*
X0079931Y0050425D01*
X0080869Y0049488D01*
X0086083Y0049488D01*
X0087300Y0048272D01*
X0088472Y0047100D01*
X0094226Y0047100D01*
X0094000Y0046554D01*
X0094000Y0044446D01*
X0094807Y0042498D01*
X0095005Y0042300D01*
X0077995Y0042300D01*
X0078193Y0042498D01*
X0079000Y0044446D01*
X0079000Y0046554D01*
X0078193Y0048502D01*
X0076702Y0049993D01*
X0074754Y0050800D01*
X0072646Y0050800D01*
X0070698Y0049993D01*
X0069207Y0048502D01*
X0068900Y0047761D01*
X0068900Y0055528D01*
X0067728Y0056700D01*
X0067068Y0057360D01*
X0067068Y0061275D01*
X0066131Y0062212D01*
X0060869Y0062212D01*
X0059931Y0061275D01*
X0059931Y0060700D01*
X0056568Y0060700D01*
X0056568Y0061275D01*
X0055631Y0062212D01*
X0050369Y0062212D01*
X0049431Y0061275D01*
X0049431Y0058197D01*
X0047300Y0060328D01*
X0047300Y0065573D01*
X0047928Y0064945D01*
X0054253Y0064945D01*
X0055191Y0065882D01*
X0055191Y0075318D01*
X0054253Y0076255D01*
X0053700Y0076255D01*
X0053700Y0079000D01*
X0056915Y0079000D01*
X0058606Y0079700D01*
X0059900Y0080994D01*
X0060600Y0082685D01*
X0060600Y0084515D01*
X0059900Y0086206D01*
X0058606Y0087500D01*
X0056915Y0088200D01*
X0049085Y0088200D01*
X0047394Y0087500D01*
X0046100Y0086206D01*
X0045600Y0084998D01*
X0045600Y0086554D01*
X0044793Y0088502D01*
X0043302Y0089993D01*
X0041354Y0090800D01*
X0039246Y0090800D01*
X0037298Y0089993D01*
X0035807Y0088502D01*
X0035000Y0086554D01*
X0035000Y0084446D01*
X0035807Y0082498D01*
X0037298Y0081007D01*
X0039246Y0080200D01*
X0041354Y0080200D01*
X0042215Y0080557D01*
X0043300Y0079472D01*
X0043300Y0075100D01*
X0037272Y0075100D01*
X0036100Y0073928D01*
X0021700Y0059528D01*
X0021700Y0058673D01*
X0020100Y0060273D01*
X0020100Y0062672D01*
X0027728Y0070300D01*
X0028900Y0071472D01*
X0028900Y0093350D01*
X0029923Y0093350D01*
X0033350Y0096777D01*
X0033350Y0101623D01*
X0029923Y0105050D01*
X0025077Y0105050D01*
X0021650Y0101623D01*
X0021650Y0096777D01*
X0024900Y0093527D01*
X0024900Y0073128D01*
X0020000Y0068228D01*
X0020000Y0068754D01*
X0019193Y0070702D01*
X0017702Y0072193D01*
X0015754Y0073000D01*
X0013646Y0073000D01*
X0011698Y0072193D01*
X0010207Y0070702D01*
X0009400Y0068754D01*
X0009400Y0066646D01*
X0010207Y0064698D01*
X0011698Y0063207D01*
X0013646Y0062400D01*
X0015754Y0062400D01*
X0016100Y0062543D01*
X0016100Y0060450D01*
X0015077Y0060450D01*
X0011650Y0057023D01*
X0011650Y0052177D01*
X0013208Y0050619D01*
X0011698Y0049993D01*
X0010207Y0048502D01*
X0009400Y0046554D01*
X0009400Y0044446D01*
X0010207Y0042498D01*
X0011698Y0041007D01*
X0013646Y0040200D01*
X0015754Y0040200D01*
X0017702Y0041007D01*
X0019193Y0042498D01*
X0020000Y0044446D01*
X0020000Y0046554D01*
X0019193Y0048502D01*
X0018945Y0048750D01*
X0019923Y0048750D01*
X0021700Y0050527D01*
X0021700Y0036272D01*
X0022872Y0035100D01*
X0053907Y0004064D01*
X0003666Y0004064D01*
X0003666Y0130922D01*
X0115049Y0130922D01*
X0111650Y0127523D01*
X0111650Y0122677D01*
X0111849Y0122478D01*
X0105700Y0116328D01*
X0105700Y0115900D01*
X0060026Y0115900D01*
X0059900Y0116206D01*
X0058606Y0117500D01*
X0056915Y0118200D01*
X0049085Y0118200D01*
X0047394Y0117500D01*
X0046100Y0116206D01*
X0045400Y0114515D01*
X0045400Y0112685D01*
X0046100Y0110994D01*
X0047394Y0109700D01*
X0049085Y0109000D01*
X0056915Y0109000D01*
X0058606Y0109700D01*
X0059900Y0110994D01*
X0060275Y0111900D01*
X0105700Y0111900D01*
X0105700Y0105255D01*
X0103747Y0105255D01*
X0102809Y0104318D01*
X0102809Y0101619D01*
X0097328Y0107100D01*
X0079672Y0107100D01*
X0078500Y0105928D01*
X0074872Y0102300D01*
X0073691Y0102300D01*
X0073691Y0104318D01*
X0072753Y0105255D01*
X0066428Y0105255D01*
X0065491Y0104318D01*
X0065491Y0095900D01*
X0060026Y0095900D01*
X0059900Y0096206D01*
X0058606Y0097500D01*
X0056915Y0098200D01*
X0049085Y0098200D01*
X0047394Y0097500D01*
X0046100Y0096206D01*
X0045400Y0094515D01*
X0045400Y0092685D01*
X0046100Y0090994D01*
X0047394Y0089700D01*
X0049085Y0089000D01*
X0056915Y0089000D01*
X0058606Y0089700D01*
X0059900Y0090994D01*
X0060275Y0091900D01*
X0073328Y0091900D01*
X0074500Y0093072D01*
X0078928Y0097500D01*
X0079309Y0097500D01*
X0079309Y0094882D01*
X0080247Y0093945D01*
X0086572Y0093945D01*
X0087509Y0094882D01*
X0087509Y0103100D01*
X0088991Y0103100D01*
X0088991Y0094882D01*
X0089928Y0093945D01*
X0096253Y0093945D01*
X0097191Y0094882D01*
X0097191Y0095181D01*
X0100900Y0091472D01*
X0102072Y0090300D01*
X0124472Y0090300D01*
X0123672Y0089500D01*
X0110872Y0089500D01*
X0108100Y0086728D01*
X0108100Y0080272D01*
X0109700Y0078672D01*
X0109700Y0078672D01*
X0110872Y0077500D01*
X0127728Y0077500D01*
X0128015Y0077787D02*
X0155385Y0077787D01*
X0156983Y0076188D02*
X0068139Y0076188D01*
X0061680Y0076188D02*
X0054320Y0076188D01*
X0053700Y0077787D02*
X0110585Y0077787D01*
X0108986Y0079385D02*
X0057845Y0079385D01*
X0049700Y0079000D02*
X0049700Y0076255D01*
X0047928Y0076255D01*
X0047300Y0075627D01*
X0047300Y0079795D01*
X0047394Y0079700D01*
X0049085Y0079000D01*
X0049700Y0079000D01*
X0049700Y0077787D02*
X0047300Y0077787D01*
X0047300Y0079385D02*
X0048155Y0079385D01*
X0043300Y0079385D02*
X0028900Y0079385D01*
X0028900Y0077787D02*
X0043300Y0077787D01*
X0043300Y0076188D02*
X0028900Y0076188D01*
X0028900Y0074590D02*
X0036761Y0074590D01*
X0035163Y0072991D02*
X0028900Y0072991D01*
X0028821Y0071393D02*
X0033564Y0071393D01*
X0031966Y0069794D02*
X0027223Y0069794D01*
X0025624Y0068196D02*
X0030367Y0068196D01*
X0028769Y0066597D02*
X0024026Y0066597D01*
X0022427Y0064999D02*
X0027170Y0064999D01*
X0025572Y0063400D02*
X0020829Y0063400D01*
X0011504Y0063400D02*
X0003666Y0063400D01*
X0003666Y0064999D02*
X0010082Y0064999D01*
X0009420Y0066597D02*
X0003666Y0066597D01*
X0003666Y0068196D02*
X0009400Y0068196D01*
X0009831Y0069794D02*
X0003666Y0069794D01*
X0003666Y0071393D02*
X0010897Y0071393D01*
X0013625Y0072991D02*
X0003666Y0072991D01*
X0003666Y0074590D02*
X0024900Y0074590D01*
X0024900Y0076188D02*
X0003666Y0076188D01*
X0003666Y0077787D02*
X0024900Y0077787D01*
X0024900Y0079385D02*
X0003666Y0079385D01*
X0003666Y0080984D02*
X0011753Y0080984D01*
X0011698Y0081007D02*
X0013646Y0080200D01*
X0015754Y0080200D01*
X0017702Y0081007D01*
X0019193Y0082498D01*
X0020000Y0084446D01*
X0020000Y0086554D01*
X0019193Y0088502D01*
X0017702Y0089993D01*
X0015754Y0090800D01*
X0013646Y0090800D01*
X0011698Y0089993D01*
X0010207Y0088502D01*
X0009400Y0086554D01*
X0009400Y0084446D01*
X0010207Y0082498D01*
X0011698Y0081007D01*
X0010172Y0082582D02*
X0003666Y0082582D01*
X0003666Y0084181D02*
X0009510Y0084181D01*
X0009400Y0085779D02*
X0003666Y0085779D01*
X0003666Y0087378D02*
X0009741Y0087378D01*
X0010681Y0088976D02*
X0003666Y0088976D01*
X0003666Y0090575D02*
X0013102Y0090575D01*
X0016298Y0090575D02*
X0024900Y0090575D01*
X0024900Y0092173D02*
X0003666Y0092173D01*
X0003666Y0093772D02*
X0012055Y0093772D01*
X0012577Y0093250D02*
X0017423Y0093250D01*
X0020850Y0096677D01*
X0020850Y0101523D01*
X0017423Y0104950D01*
X0012577Y0104950D01*
X0009150Y0101523D01*
X0009150Y0096677D01*
X0012577Y0093250D01*
X0010456Y0095370D02*
X0003666Y0095370D01*
X0003666Y0096969D02*
X0009150Y0096969D01*
X0009150Y0098568D02*
X0003666Y0098568D01*
X0003666Y0100166D02*
X0009150Y0100166D01*
X0009391Y0101765D02*
X0003666Y0101765D01*
X0003666Y0103363D02*
X0010990Y0103363D01*
X0003666Y0104962D02*
X0024988Y0104962D01*
X0023390Y0103363D02*
X0019010Y0103363D01*
X0020609Y0101765D02*
X0021791Y0101765D01*
X0021650Y0100166D02*
X0020850Y0100166D01*
X0020850Y0098568D02*
X0021650Y0098568D01*
X0021650Y0096969D02*
X0020850Y0096969D01*
X0019544Y0095370D02*
X0023056Y0095370D01*
X0024655Y0093772D02*
X0017945Y0093772D01*
X0028900Y0092173D02*
X0045612Y0092173D01*
X0045400Y0093772D02*
X0030345Y0093772D01*
X0031944Y0095370D02*
X0045754Y0095370D01*
X0046864Y0096969D02*
X0033350Y0096969D01*
X0033350Y0098568D02*
X0065491Y0098568D01*
X0065491Y0100166D02*
X0059071Y0100166D01*
X0058606Y0099700D02*
X0059900Y0100994D01*
X0060600Y0102685D01*
X0060600Y0104515D01*
X0059900Y0106206D01*
X0058606Y0107500D01*
X0056915Y0108200D01*
X0049085Y0108200D01*
X0047394Y0107500D01*
X0046100Y0106206D01*
X0045400Y0104515D01*
X0045400Y0102685D01*
X0046100Y0100994D01*
X0047394Y0099700D01*
X0049085Y0099000D01*
X0056915Y0099000D01*
X0058606Y0099700D01*
X0060219Y0101765D02*
X0065491Y0101765D01*
X0065491Y0103363D02*
X0060600Y0103363D01*
X0060415Y0104962D02*
X0066134Y0104962D01*
X0073047Y0104962D02*
X0077533Y0104962D01*
X0075935Y0103363D02*
X0073691Y0103363D01*
X0087509Y0101765D02*
X0088991Y0101765D01*
X0088991Y0100166D02*
X0087509Y0100166D01*
X0087509Y0098568D02*
X0088991Y0098568D01*
X0088991Y0096969D02*
X0087509Y0096969D01*
X0079309Y0096969D02*
X0078397Y0096969D01*
X0074072Y0098300D02*
X0073691Y0097919D01*
X0073691Y0098300D01*
X0074072Y0098300D01*
X0065491Y0096969D02*
X0059136Y0096969D01*
X0046929Y0100166D02*
X0033350Y0100166D01*
X0033209Y0101765D02*
X0045781Y0101765D01*
X0045400Y0103363D02*
X0031610Y0103363D01*
X0030012Y0104962D02*
X0045585Y0104962D01*
X0046455Y0106560D02*
X0003666Y0106560D01*
X0003666Y0108159D02*
X0048985Y0108159D01*
X0047338Y0109757D02*
X0003666Y0109757D01*
X0003666Y0111356D02*
X0045951Y0111356D01*
X0045400Y0112954D02*
X0003666Y0112954D01*
X0003666Y0114553D02*
X0045416Y0114553D01*
X0046078Y0116151D02*
X0003666Y0116151D01*
X0003666Y0117750D02*
X0047998Y0117750D01*
X0048244Y0119348D02*
X0003666Y0119348D01*
X0003666Y0120947D02*
X0046148Y0120947D01*
X0046100Y0120994D02*
X0047394Y0119700D01*
X0049085Y0119000D01*
X0056915Y0119000D01*
X0058606Y0119700D01*
X0059900Y0120994D01*
X0060600Y0122685D01*
X0060600Y0124515D01*
X0059900Y0126206D01*
X0058606Y0127500D01*
X0056915Y0128200D01*
X0049085Y0128200D01*
X0047394Y0127500D01*
X0046100Y0126206D01*
X0045400Y0124515D01*
X0045400Y0122685D01*
X0046100Y0120994D01*
X0045458Y0122545D02*
X0003666Y0122545D01*
X0003666Y0124144D02*
X0045400Y0124144D01*
X0045908Y0125742D02*
X0003666Y0125742D01*
X0003666Y0127341D02*
X0047235Y0127341D01*
X0058765Y0127341D02*
X0111650Y0127341D01*
X0111650Y0125742D02*
X0060092Y0125742D01*
X0060600Y0124144D02*
X0111650Y0124144D01*
X0111782Y0122545D02*
X0060542Y0122545D01*
X0059852Y0120947D02*
X0110318Y0120947D01*
X0108720Y0119348D02*
X0057756Y0119348D01*
X0058002Y0117750D02*
X0107121Y0117750D01*
X0105700Y0116151D02*
X0059922Y0116151D01*
X0060049Y0111356D02*
X0105700Y0111356D01*
X0105700Y0109757D02*
X0058662Y0109757D01*
X0057015Y0108159D02*
X0105700Y0108159D01*
X0105700Y0106560D02*
X0097868Y0106560D01*
X0099467Y0104962D02*
X0103453Y0104962D01*
X0102809Y0103363D02*
X0101065Y0103363D01*
X0102664Y0101765D02*
X0102809Y0101765D01*
X0100900Y0097872D02*
X0097191Y0101581D01*
X0097191Y0100838D01*
X0100900Y0097128D01*
X0100900Y0097872D01*
X0100204Y0098568D02*
X0099461Y0098568D01*
X0098606Y0100166D02*
X0097862Y0100166D01*
X0111009Y0100166D02*
X0115938Y0100166D01*
X0117536Y0101765D02*
X0111009Y0101765D01*
X0111009Y0103363D02*
X0119135Y0103363D01*
X0120733Y0104962D02*
X0110366Y0104962D01*
X0110072Y0105255D02*
X0111009Y0104318D01*
X0111009Y0095900D01*
X0111672Y0095900D01*
X0122500Y0106728D01*
X0123672Y0107900D01*
X0124750Y0107900D01*
X0124750Y0107963D01*
X0125387Y0108600D01*
X0124750Y0109237D01*
X0124750Y0112963D01*
X0125687Y0113900D01*
X0132872Y0113900D01*
X0123672Y0123100D01*
X0123350Y0123100D01*
X0123350Y0122677D01*
X0119923Y0119250D01*
X0115077Y0119250D01*
X0114678Y0119649D01*
X0109700Y0114672D01*
X0109700Y0105255D01*
X0110072Y0105255D01*
X0109700Y0106560D02*
X0122332Y0106560D01*
X0124946Y0108159D02*
X0109700Y0108159D01*
X0109700Y0109757D02*
X0124750Y0109757D01*
X0124750Y0111356D02*
X0109700Y0111356D01*
X0109700Y0112954D02*
X0124750Y0112954D01*
X0132219Y0114553D02*
X0109700Y0114553D01*
X0111180Y0116151D02*
X0130620Y0116151D01*
X0129022Y0117750D02*
X0112778Y0117750D01*
X0114377Y0119348D02*
X0114979Y0119348D01*
X0120021Y0119348D02*
X0127423Y0119348D01*
X0125825Y0120947D02*
X0121620Y0120947D01*
X0131482Y0120947D02*
X0150318Y0120947D01*
X0148720Y0119348D02*
X0133080Y0119348D01*
X0134679Y0117750D02*
X0147121Y0117750D01*
X0145523Y0116151D02*
X0136277Y0116151D01*
X0137876Y0114553D02*
X0143924Y0114553D01*
X0149581Y0114553D02*
X0170308Y0114553D01*
X0169723Y0116151D02*
X0151180Y0116151D01*
X0152778Y0117750D02*
X0156580Y0117750D01*
X0155845Y0119348D02*
X0154377Y0119348D01*
X0164609Y0117750D02*
X0169723Y0117750D01*
X0169723Y0119348D02*
X0165344Y0119348D01*
X0165344Y0120947D02*
X0169723Y0120947D01*
X0170190Y0122545D02*
X0165344Y0122545D01*
X0165344Y0124144D02*
X0169723Y0124144D01*
X0169723Y0125742D02*
X0165317Y0125742D01*
X0169723Y0127341D02*
X0123350Y0127341D01*
X0121934Y0128939D02*
X0169723Y0128939D01*
X0177647Y0128939D02*
X0193075Y0128939D01*
X0195125Y0128939D02*
X0247066Y0128939D01*
X0245468Y0127341D02*
X0196967Y0127341D01*
X0197300Y0125742D02*
X0235362Y0125742D01*
X0235562Y0125825D02*
X0233091Y0124801D01*
X0231199Y0122909D01*
X0230175Y0120438D01*
X0230175Y0117762D01*
X0231199Y0115291D01*
X0233091Y0113399D01*
X0235562Y0112375D01*
X0238238Y0112375D01*
X0240709Y0113399D01*
X0242601Y0115291D01*
X0243625Y0117762D01*
X0243625Y0120438D01*
X0242601Y0122909D01*
X0240709Y0124801D01*
X0238238Y0125825D01*
X0235562Y0125825D01*
X0238438Y0125742D02*
X0244650Y0125742D01*
X0244650Y0124144D02*
X0241367Y0124144D01*
X0242752Y0122545D02*
X0244650Y0122545D01*
X0245380Y0120947D02*
X0243414Y0120947D01*
X0243625Y0119348D02*
X0246979Y0119348D01*
X0243620Y0117750D02*
X0251921Y0117750D01*
X0250323Y0116151D02*
X0242958Y0116151D01*
X0241863Y0114553D02*
X0248724Y0114553D01*
X0254381Y0114553D02*
X0258124Y0114553D01*
X0259723Y0116151D02*
X0255980Y0116151D01*
X0257578Y0117750D02*
X0261321Y0117750D01*
X0261822Y0118250D02*
X0249727Y0106155D01*
X0249256Y0106625D01*
X0248013Y0107140D01*
X0246969Y0107140D01*
X0258078Y0118250D01*
X0261822Y0118250D01*
X0265380Y0116151D02*
X0267923Y0116151D01*
X0266978Y0117750D02*
X0269521Y0117750D01*
X0270022Y0118250D02*
X0268077Y0118250D01*
X0267778Y0118549D01*
X0252322Y0103094D01*
X0252322Y0101696D01*
X0247326Y0096700D01*
X0254672Y0096700D01*
X0260300Y0102328D01*
X0260300Y0106872D01*
X0260300Y0108528D01*
X0270022Y0118250D01*
X0273580Y0116151D02*
X0290620Y0116151D01*
X0289022Y0117750D02*
X0275178Y0117750D01*
X0276777Y0119348D02*
X0281979Y0119348D01*
X0283177Y0118150D02*
X0288023Y0118150D01*
X0288322Y0118449D01*
X0292272Y0114500D01*
X0273672Y0114500D01*
X0270249Y0111077D01*
X0269513Y0111813D01*
X0269321Y0111892D01*
X0278500Y0121072D01*
X0278500Y0121872D01*
X0279750Y0123122D01*
X0279750Y0121577D01*
X0283177Y0118150D01*
X0280380Y0120947D02*
X0278375Y0120947D01*
X0279174Y0122545D02*
X0279750Y0122545D01*
X0276714Y0125742D02*
X0276350Y0125742D01*
X0275532Y0127341D02*
X0278312Y0127341D01*
X0279911Y0128939D02*
X0273934Y0128939D01*
X0267066Y0128939D02*
X0263934Y0128939D01*
X0257066Y0128939D02*
X0253934Y0128939D01*
X0232433Y0124144D02*
X0196836Y0124144D01*
X0177647Y0120947D02*
X0230386Y0120947D01*
X0230175Y0119348D02*
X0177647Y0119348D01*
X0177647Y0117750D02*
X0230180Y0117750D01*
X0230842Y0116151D02*
X0178677Y0116151D01*
X0180276Y0114553D02*
X0231937Y0114553D01*
X0234164Y0112954D02*
X0181874Y0112954D01*
X0183473Y0111356D02*
X0203723Y0111356D01*
X0203723Y0109757D02*
X0201071Y0109757D01*
X0202670Y0108159D02*
X0203723Y0108159D01*
X0200072Y0105100D02*
X0199344Y0104372D01*
X0199344Y0105827D01*
X0200072Y0105100D01*
X0199933Y0104962D02*
X0199344Y0104962D01*
X0202393Y0101765D02*
X0203407Y0101765D01*
X0203723Y0100166D02*
X0200794Y0100166D01*
X0199196Y0098568D02*
X0203723Y0098568D01*
X0202391Y0096969D02*
X0197597Y0096969D01*
X0206481Y0096701D02*
X0209072Y0096701D01*
X0208472Y0096100D01*
X0207082Y0096100D01*
X0206481Y0096701D01*
X0217828Y0090800D02*
X0219728Y0092700D01*
X0222388Y0092700D01*
X0222388Y0092700D01*
X0221272Y0092700D01*
X0219074Y0090502D01*
X0218354Y0090800D01*
X0217828Y0090800D01*
X0218898Y0090575D02*
X0219147Y0090575D01*
X0219202Y0092173D02*
X0220745Y0092173D01*
X0247595Y0096969D02*
X0254941Y0096969D01*
X0256539Y0098568D02*
X0249194Y0098568D01*
X0250792Y0100166D02*
X0258138Y0100166D01*
X0259736Y0101765D02*
X0252322Y0101765D01*
X0252591Y0103363D02*
X0260300Y0103363D01*
X0260300Y0104962D02*
X0254190Y0104962D01*
X0255788Y0106560D02*
X0260300Y0106560D01*
X0260300Y0108159D02*
X0257387Y0108159D01*
X0258985Y0109757D02*
X0261529Y0109757D01*
X0260584Y0111356D02*
X0263127Y0111356D01*
X0262183Y0112954D02*
X0264726Y0112954D01*
X0269970Y0111356D02*
X0270527Y0111356D01*
X0270383Y0112954D02*
X0272126Y0112954D01*
X0275328Y0110500D02*
X0281296Y0110500D01*
X0281119Y0110073D01*
X0281119Y0108727D01*
X0281462Y0107900D01*
X0277425Y0107900D01*
X0276713Y0108613D01*
X0275537Y0109100D01*
X0274263Y0109100D01*
X0273691Y0108863D01*
X0275328Y0110500D01*
X0274586Y0109757D02*
X0281119Y0109757D01*
X0281355Y0108159D02*
X0277167Y0108159D01*
X0269100Y0106216D02*
X0269100Y0105482D01*
X0268234Y0104615D01*
X0267719Y0103373D01*
X0267719Y0102027D01*
X0267937Y0101500D01*
X0266128Y0101500D01*
X0266000Y0101628D01*
X0266000Y0104572D01*
X0267328Y0105900D01*
X0268337Y0105900D01*
X0269100Y0106216D01*
X0268580Y0104962D02*
X0266390Y0104962D01*
X0266000Y0103363D02*
X0267719Y0103363D01*
X0267828Y0101765D02*
X0266000Y0101765D01*
X0274263Y0101500D02*
X0274481Y0102027D01*
X0274481Y0102700D01*
X0275537Y0102700D01*
X0276713Y0103187D01*
X0277425Y0103900D01*
X0278675Y0103900D01*
X0278400Y0103237D01*
X0278400Y0101963D01*
X0278592Y0101500D01*
X0274263Y0101500D01*
X0274372Y0101765D02*
X0278482Y0101765D01*
X0278452Y0103363D02*
X0276889Y0103363D01*
X0264472Y0097500D02*
X0263300Y0098672D01*
X0262800Y0099172D01*
X0257128Y0093500D01*
X0283672Y0093500D01*
X0287300Y0097128D01*
X0287672Y0097500D01*
X0264472Y0097500D01*
X0263404Y0098568D02*
X0262196Y0098568D01*
X0260597Y0096969D02*
X0287141Y0096969D01*
X0285542Y0095370D02*
X0258999Y0095370D01*
X0257400Y0093772D02*
X0283944Y0093772D01*
X0288002Y0092173D02*
X0288469Y0092173D01*
X0288469Y0090575D02*
X0286403Y0090575D01*
X0300330Y0090575D02*
X0312800Y0090575D01*
X0312800Y0090300D02*
X0300330Y0090300D01*
X0300330Y0091170D01*
X0301463Y0090700D01*
X0302737Y0090700D01*
X0303913Y0091187D01*
X0304813Y0092087D01*
X0305300Y0093263D01*
X0305300Y0094537D01*
X0304813Y0095713D01*
X0303913Y0096613D01*
X0302737Y0097100D01*
X0301728Y0097100D01*
X0300528Y0098300D01*
X0299467Y0098300D01*
X0299700Y0098863D01*
X0299700Y0099568D01*
X0299863Y0099500D01*
X0301137Y0099500D01*
X0302313Y0099987D01*
X0303213Y0100887D01*
X0303292Y0101079D01*
X0303672Y0100700D01*
X0313337Y0100700D01*
X0312800Y0100163D01*
X0312800Y0094037D01*
X0313737Y0093100D01*
X0323863Y0093100D01*
X0324800Y0094037D01*
X0324800Y0095100D01*
X0326672Y0095100D01*
X0325372Y0093800D01*
X0324200Y0092628D01*
X0324200Y0091663D01*
X0323863Y0092000D01*
X0313737Y0092000D01*
X0312800Y0091063D01*
X0312800Y0090300D01*
X0304848Y0092173D02*
X0324200Y0092173D01*
X0324535Y0093772D02*
X0325344Y0093772D01*
X0328200Y0090972D02*
X0329528Y0092300D01*
X0335288Y0092300D01*
X0346219Y0103231D01*
X0346219Y0102827D01*
X0346734Y0101585D01*
X0347685Y0100634D01*
X0348927Y0100119D01*
X0350273Y0100119D01*
X0351515Y0100634D01*
X0352382Y0101500D01*
X0380331Y0101500D01*
X0381503Y0102672D01*
X0381503Y0102874D01*
X0382247Y0103619D01*
X0383473Y0103619D01*
X0384715Y0104134D01*
X0385666Y0105085D01*
X0386181Y0106327D01*
X0386181Y0106990D01*
X0403672Y0089500D01*
X0406969Y0089500D01*
X0406969Y0084700D01*
X0396528Y0084700D01*
X0385000Y0096228D01*
X0385000Y0100363D01*
X0384063Y0101300D01*
X0373937Y0101300D01*
X0373000Y0100363D01*
X0373000Y0095100D01*
X0363642Y0095100D01*
X0361427Y0097315D01*
X0360255Y0098487D01*
X0343058Y0098487D01*
X0328200Y0083628D01*
X0328200Y0090972D01*
X0328200Y0090575D02*
X0335147Y0090575D01*
X0336745Y0092173D02*
X0329402Y0092173D01*
X0328200Y0088976D02*
X0333548Y0088976D01*
X0339205Y0088976D02*
X0348669Y0088976D01*
X0348669Y0090575D02*
X0340803Y0090575D01*
X0342402Y0092173D02*
X0348669Y0092173D01*
X0348669Y0093772D02*
X0344000Y0093772D01*
X0344715Y0094487D02*
X0348669Y0094487D01*
X0348669Y0084897D01*
X0340472Y0076700D01*
X0324800Y0076700D01*
X0324800Y0077500D01*
X0327728Y0077500D01*
X0344715Y0094487D01*
X0339942Y0095370D02*
X0338359Y0095370D01*
X0338344Y0093772D02*
X0336760Y0093772D01*
X0339957Y0096969D02*
X0341541Y0096969D01*
X0341556Y0098568D02*
X0373000Y0098568D01*
X0373000Y0100166D02*
X0350386Y0100166D01*
X0348814Y0100166D02*
X0343154Y0100166D01*
X0344753Y0101765D02*
X0346659Y0101765D01*
X0338031Y0100700D02*
X0336081Y0098749D01*
X0336013Y0098913D01*
X0335113Y0099813D01*
X0333937Y0100300D01*
X0332663Y0100300D01*
X0331487Y0099813D01*
X0330775Y0099100D01*
X0324800Y0099100D01*
X0324800Y0100163D01*
X0324263Y0100700D01*
X0338031Y0100700D01*
X0337497Y0100166D02*
X0334260Y0100166D01*
X0332340Y0100166D02*
X0324797Y0100166D01*
X0312803Y0100166D02*
X0302491Y0100166D01*
X0299577Y0098568D02*
X0312800Y0098568D01*
X0312800Y0096969D02*
X0303053Y0096969D01*
X0304955Y0095370D02*
X0312800Y0095370D01*
X0313065Y0093772D02*
X0305300Y0093772D01*
X0300330Y0086300D02*
X0312800Y0086300D01*
X0312800Y0084937D01*
X0313737Y0084000D01*
X0323863Y0084000D01*
X0324200Y0084337D01*
X0324200Y0082563D01*
X0323863Y0082900D01*
X0313737Y0082900D01*
X0312800Y0081963D01*
X0312800Y0081500D01*
X0300330Y0081500D01*
X0300330Y0086300D01*
X0300330Y0085779D02*
X0312800Y0085779D01*
X0313556Y0084181D02*
X0300330Y0084181D01*
X0300330Y0082582D02*
X0313420Y0082582D01*
X0324044Y0084181D02*
X0324200Y0084181D01*
X0324180Y0082582D02*
X0324200Y0082582D01*
X0328200Y0084181D02*
X0328752Y0084181D01*
X0328200Y0085779D02*
X0330351Y0085779D01*
X0331950Y0087378D02*
X0328200Y0087378D01*
X0336008Y0085779D02*
X0348669Y0085779D01*
X0348669Y0087378D02*
X0337606Y0087378D01*
X0334409Y0084181D02*
X0347952Y0084181D01*
X0346354Y0082582D02*
X0332811Y0082582D01*
X0331212Y0080984D02*
X0344755Y0080984D01*
X0349274Y0079845D02*
X0349606Y0079513D01*
X0359593Y0079513D01*
X0360530Y0080451D01*
X0360530Y0086300D01*
X0373000Y0086300D01*
X0373000Y0085137D01*
X0373937Y0084200D01*
X0381572Y0084200D01*
X0380472Y0083100D01*
X0373937Y0083100D01*
X0373000Y0082163D01*
X0373000Y0076037D01*
X0373204Y0075833D01*
X0372472Y0075100D01*
X0344528Y0075100D01*
X0349274Y0079845D01*
X0348814Y0079385D02*
X0373000Y0079385D01*
X0373000Y0077787D02*
X0347215Y0077787D01*
X0345617Y0076188D02*
X0373000Y0076188D01*
X0379467Y0073500D02*
X0406872Y0073500D01*
X0391672Y0058300D01*
X0386667Y0058300D01*
X0386900Y0058863D01*
X0386900Y0060137D01*
X0386413Y0061313D01*
X0385513Y0062213D01*
X0384337Y0062700D01*
X0383063Y0062700D01*
X0381887Y0062213D01*
X0381175Y0061500D01*
X0368528Y0061500D01*
X0376128Y0069100D01*
X0377137Y0069100D01*
X0378313Y0069587D01*
X0379213Y0070487D01*
X0379700Y0071663D01*
X0379700Y0072937D01*
X0379467Y0073500D01*
X0379677Y0072991D02*
X0406363Y0072991D01*
X0404764Y0071393D02*
X0379588Y0071393D01*
X0372472Y0071100D02*
X0366072Y0064700D01*
X0362667Y0064700D01*
X0362900Y0065263D01*
X0362900Y0066537D01*
X0362413Y0067713D01*
X0362225Y0067900D01*
X0362413Y0068087D01*
X0362900Y0069263D01*
X0362900Y0070537D01*
X0362667Y0071100D01*
X0372472Y0071100D01*
X0371166Y0069794D02*
X0362900Y0069794D01*
X0362458Y0068196D02*
X0369567Y0068196D01*
X0367969Y0066597D02*
X0362875Y0066597D01*
X0362790Y0064999D02*
X0366370Y0064999D01*
X0370429Y0063400D02*
X0396772Y0063400D01*
X0398370Y0064999D02*
X0372027Y0064999D01*
X0373626Y0066597D02*
X0399969Y0066597D01*
X0401567Y0068196D02*
X0375224Y0068196D01*
X0378520Y0069794D02*
X0403166Y0069794D01*
X0407224Y0068196D02*
X0444767Y0068196D01*
X0443169Y0066597D02*
X0441128Y0066597D01*
X0440713Y0067013D02*
X0441613Y0066113D01*
X0441927Y0065355D01*
X0448472Y0071900D01*
X0410928Y0071900D01*
X0405328Y0066300D01*
X0436375Y0066300D01*
X0437087Y0067013D01*
X0438263Y0067500D01*
X0439537Y0067500D01*
X0440713Y0067013D01*
X0436672Y0066597D02*
X0405626Y0066597D01*
X0408823Y0069794D02*
X0446366Y0069794D01*
X0450424Y0068196D02*
X0459169Y0068196D01*
X0459169Y0069794D02*
X0452023Y0069794D01*
X0453621Y0071393D02*
X0459169Y0071393D01*
X0459169Y0072991D02*
X0455220Y0072991D01*
X0456818Y0074590D02*
X0459169Y0074590D01*
X0459169Y0076188D02*
X0458417Y0076188D01*
X0459169Y0076940D02*
X0459169Y0066597D01*
X0444800Y0052228D01*
X0444800Y0055663D01*
X0443863Y0056600D01*
X0440900Y0056600D01*
X0440900Y0058672D01*
X0459169Y0076940D01*
X0451957Y0079385D02*
X0443300Y0079385D01*
X0443300Y0079237D02*
X0443300Y0083900D01*
X0449328Y0083900D01*
X0466928Y0101500D01*
X0468100Y0102672D01*
X0468100Y0111784D01*
X0469106Y0112200D01*
X0470238Y0113333D01*
X0477700Y0105872D01*
X0477700Y0102825D01*
X0476987Y0102113D01*
X0476500Y0100937D01*
X0476500Y0099663D01*
X0476733Y0099100D01*
X0471672Y0099100D01*
X0448472Y0075900D01*
X0440267Y0075900D01*
X0440500Y0076463D01*
X0440500Y0077737D01*
X0440267Y0078300D01*
X0442363Y0078300D01*
X0443300Y0079237D01*
X0440479Y0077787D02*
X0450358Y0077787D01*
X0448760Y0076188D02*
X0440386Y0076188D01*
X0434333Y0075900D02*
X0424528Y0075900D01*
X0431300Y0082672D01*
X0431300Y0079237D01*
X0432237Y0078300D01*
X0434333Y0078300D01*
X0434100Y0077737D01*
X0434100Y0076463D01*
X0434333Y0075900D01*
X0434214Y0076188D02*
X0424817Y0076188D01*
X0426415Y0077787D02*
X0434121Y0077787D01*
X0431300Y0079385D02*
X0428014Y0079385D01*
X0422357Y0079385D02*
X0385000Y0079385D01*
X0385000Y0077787D02*
X0420758Y0077787D01*
X0420472Y0077500D02*
X0385000Y0077500D01*
X0385000Y0081972D01*
X0386128Y0083100D01*
X0387300Y0084272D01*
X0387300Y0088272D01*
X0394872Y0080700D01*
X0418928Y0080700D01*
X0420100Y0081872D01*
X0423728Y0085500D01*
X0428472Y0085500D01*
X0420472Y0077500D01*
X0419212Y0080984D02*
X0423955Y0080984D01*
X0425554Y0082582D02*
X0420811Y0082582D01*
X0422409Y0084181D02*
X0427152Y0084181D01*
X0431211Y0082582D02*
X0431300Y0082582D01*
X0431300Y0080984D02*
X0429612Y0080984D01*
X0443300Y0080984D02*
X0453555Y0080984D01*
X0455154Y0082582D02*
X0443300Y0082582D01*
X0449609Y0084181D02*
X0456752Y0084181D01*
X0458351Y0085779D02*
X0451208Y0085779D01*
X0452806Y0087378D02*
X0459950Y0087378D01*
X0467328Y0085100D02*
X0467328Y0085100D01*
X0468337Y0085100D01*
X0469513Y0085587D01*
X0470413Y0086487D01*
X0470900Y0087663D01*
X0470900Y0088937D01*
X0470413Y0090113D01*
X0469513Y0091013D01*
X0469321Y0091092D01*
X0473328Y0095100D01*
X0489428Y0095100D01*
X0490600Y0096272D01*
X0495700Y0101372D01*
X0495700Y0041269D01*
X0496169Y0040800D01*
X0521372Y0040800D01*
X0519300Y0038728D01*
X0519300Y0020375D01*
X0518394Y0020000D01*
X0517100Y0018706D01*
X0516400Y0017015D01*
X0516400Y0014228D01*
X0515300Y0013128D01*
X0515300Y0022575D01*
X0516013Y0023287D01*
X0516500Y0024463D01*
X0516500Y0025737D01*
X0516013Y0026913D01*
X0515113Y0027813D01*
X0513937Y0028300D01*
X0512663Y0028300D01*
X0511487Y0027813D01*
X0510587Y0026913D01*
X0510100Y0025737D01*
X0510100Y0024463D01*
X0510587Y0023287D01*
X0511300Y0022575D01*
X0511300Y0011528D01*
X0511100Y0011328D01*
X0511100Y0016775D01*
X0510430Y0018392D01*
X0509192Y0019630D01*
X0507575Y0020300D01*
X0505825Y0020300D01*
X0504208Y0019630D01*
X0503703Y0019125D01*
X0473300Y0049528D01*
X0473300Y0050537D01*
X0472813Y0051713D01*
X0471913Y0052613D01*
X0471721Y0052692D01*
X0476528Y0057500D01*
X0477175Y0057500D01*
X0477887Y0056787D01*
X0479063Y0056300D01*
X0480337Y0056300D01*
X0481513Y0056787D01*
X0482413Y0057687D01*
X0482900Y0058863D01*
X0482900Y0060137D01*
X0482667Y0060700D01*
X0483500Y0060700D01*
X0483500Y0059737D01*
X0484437Y0058800D01*
X0494563Y0058800D01*
X0495500Y0059737D01*
X0495500Y0065863D01*
X0494563Y0066800D01*
X0484437Y0066800D01*
X0483500Y0065863D01*
X0483500Y0064700D01*
X0471030Y0064700D01*
X0471030Y0070300D01*
X0483500Y0070300D01*
X0483500Y0068837D01*
X0484437Y0067900D01*
X0494563Y0067900D01*
X0495500Y0068837D01*
X0495500Y0074963D01*
X0494563Y0075900D01*
X0484437Y0075900D01*
X0483500Y0074963D01*
X0483500Y0074300D01*
X0471030Y0074300D01*
X0471030Y0079649D01*
X0470779Y0079900D01*
X0483500Y0079900D01*
X0483500Y0077937D01*
X0484437Y0077000D01*
X0494563Y0077000D01*
X0495500Y0077937D01*
X0495500Y0084063D01*
X0494563Y0085000D01*
X0484437Y0085000D01*
X0483500Y0084063D01*
X0483500Y0083900D01*
X0470225Y0083900D01*
X0469513Y0084613D01*
X0468337Y0085100D01*
X0467328Y0085100D01*
X0469705Y0085779D02*
X0495700Y0085779D01*
X0495700Y0084181D02*
X0495382Y0084181D01*
X0495500Y0082582D02*
X0495700Y0082582D01*
X0495700Y0080984D02*
X0495500Y0080984D01*
X0495500Y0079385D02*
X0495700Y0079385D01*
X0495700Y0077787D02*
X0495350Y0077787D01*
X0495700Y0076188D02*
X0471030Y0076188D01*
X0471030Y0074590D02*
X0483500Y0074590D01*
X0483650Y0077787D02*
X0471030Y0077787D01*
X0471030Y0079385D02*
X0483500Y0079385D01*
X0495500Y0074590D02*
X0495700Y0074590D01*
X0495700Y0072991D02*
X0495500Y0072991D01*
X0495500Y0071393D02*
X0495700Y0071393D01*
X0495700Y0069794D02*
X0495500Y0069794D01*
X0495700Y0068196D02*
X0494859Y0068196D01*
X0494765Y0066597D02*
X0495700Y0066597D01*
X0495700Y0064999D02*
X0495500Y0064999D01*
X0495500Y0063400D02*
X0495700Y0063400D01*
X0495700Y0061802D02*
X0495500Y0061802D01*
X0495500Y0060203D02*
X0495700Y0060203D01*
X0495700Y0058605D02*
X0482793Y0058605D01*
X0482872Y0060203D02*
X0483500Y0060203D01*
X0474072Y0060700D02*
X0473700Y0060328D01*
X0461700Y0048328D01*
X0461700Y0032425D01*
X0460987Y0031713D01*
X0460500Y0030537D01*
X0460500Y0029263D01*
X0460987Y0028087D01*
X0461887Y0027187D01*
X0463063Y0026700D01*
X0464337Y0026700D01*
X0465513Y0027187D01*
X0466413Y0028087D01*
X0466900Y0029263D01*
X0466900Y0030537D01*
X0466413Y0031713D01*
X0465700Y0032425D01*
X0465700Y0046672D01*
X0467308Y0048279D01*
X0467387Y0048087D01*
X0468287Y0047187D01*
X0469463Y0046700D01*
X0470472Y0046700D01*
X0496872Y0020300D01*
X0495825Y0020300D01*
X0494208Y0019630D01*
X0492970Y0018392D01*
X0492579Y0017449D01*
X0488900Y0021128D01*
X0487728Y0022300D01*
X0461272Y0022300D01*
X0458038Y0019067D01*
X0457106Y0020000D01*
X0455415Y0020700D01*
X0453585Y0020700D01*
X0451894Y0020000D01*
X0450600Y0018706D01*
X0449900Y0017015D01*
X0449900Y0010528D01*
X0449100Y0011328D01*
X0449100Y0017015D01*
X0448400Y0018706D01*
X0447106Y0020000D01*
X0445415Y0020700D01*
X0443585Y0020700D01*
X0441894Y0020000D01*
X0441162Y0019267D01*
X0440900Y0019528D01*
X0440900Y0030400D01*
X0443863Y0030400D01*
X0444800Y0031337D01*
X0444800Y0037463D01*
X0444646Y0037617D01*
X0467728Y0060700D01*
X0474072Y0060700D01*
X0473575Y0060203D02*
X0467232Y0060203D01*
X0465633Y0058605D02*
X0471976Y0058605D01*
X0470378Y0057006D02*
X0464035Y0057006D01*
X0462436Y0055408D02*
X0468779Y0055408D01*
X0474436Y0055408D02*
X0495700Y0055408D01*
X0495700Y0057006D02*
X0481732Y0057006D01*
X0477668Y0057006D02*
X0476035Y0057006D01*
X0472838Y0053809D02*
X0495700Y0053809D01*
X0495700Y0052211D02*
X0472315Y0052211D01*
X0473269Y0050612D02*
X0495700Y0050612D01*
X0495700Y0049014D02*
X0473815Y0049014D01*
X0475413Y0047415D02*
X0495700Y0047415D01*
X0495700Y0045817D02*
X0477012Y0045817D01*
X0471355Y0045817D02*
X0465700Y0045817D01*
X0466444Y0047415D02*
X0468059Y0047415D01*
X0462385Y0049014D02*
X0456042Y0049014D01*
X0457641Y0050612D02*
X0463984Y0050612D01*
X0465582Y0052211D02*
X0459239Y0052211D01*
X0460838Y0053809D02*
X0467181Y0053809D01*
X0456779Y0055408D02*
X0453636Y0055408D01*
X0455235Y0057006D02*
X0458378Y0057006D01*
X0456833Y0058605D02*
X0459976Y0058605D01*
X0458432Y0060203D02*
X0461575Y0060203D01*
X0460030Y0061802D02*
X0463173Y0061802D01*
X0464585Y0063213D02*
X0461442Y0063213D01*
X0445700Y0047472D01*
X0444796Y0046567D01*
X0444800Y0046563D01*
X0444800Y0043428D01*
X0464585Y0063213D01*
X0471030Y0064999D02*
X0483500Y0064999D01*
X0484235Y0066597D02*
X0471030Y0066597D01*
X0471030Y0068196D02*
X0484141Y0068196D01*
X0483500Y0069794D02*
X0471030Y0069794D01*
X0459169Y0066597D02*
X0448826Y0066597D01*
X0447227Y0064999D02*
X0457570Y0064999D01*
X0455972Y0063400D02*
X0445629Y0063400D01*
X0444030Y0061802D02*
X0454373Y0061802D01*
X0452775Y0060203D02*
X0442432Y0060203D01*
X0440900Y0058605D02*
X0451176Y0058605D01*
X0449578Y0057006D02*
X0440900Y0057006D01*
X0436900Y0057006D02*
X0417022Y0057006D01*
X0418621Y0055408D02*
X0432800Y0055408D01*
X0432800Y0055663D02*
X0432800Y0050300D01*
X0423728Y0050300D01*
X0414928Y0059100D01*
X0433175Y0059100D01*
X0433887Y0058387D01*
X0435063Y0057900D01*
X0436337Y0057900D01*
X0436900Y0058133D01*
X0436900Y0056600D01*
X0433737Y0056600D01*
X0432800Y0055663D01*
X0432800Y0053809D02*
X0420219Y0053809D01*
X0421818Y0052211D02*
X0432800Y0052211D01*
X0432800Y0050612D02*
X0423416Y0050612D01*
X0420330Y0048042D02*
X0422072Y0046300D01*
X0432800Y0046300D01*
X0432800Y0045500D01*
X0420330Y0045500D01*
X0420330Y0048042D01*
X0420330Y0047415D02*
X0420956Y0047415D01*
X0420330Y0045817D02*
X0432800Y0045817D01*
X0444800Y0045817D02*
X0447188Y0045817D01*
X0445644Y0047415D02*
X0448787Y0047415D01*
X0447242Y0049014D02*
X0450385Y0049014D01*
X0448841Y0050612D02*
X0451984Y0050612D01*
X0450439Y0052211D02*
X0453582Y0052211D01*
X0452038Y0053809D02*
X0455181Y0053809D01*
X0446381Y0053809D02*
X0444800Y0053809D01*
X0444800Y0055408D02*
X0447979Y0055408D01*
X0433670Y0058605D02*
X0415424Y0058605D01*
X0412479Y0055892D02*
X0410072Y0058300D01*
X0407728Y0058300D01*
X0404528Y0055100D01*
X0411575Y0055100D01*
X0412287Y0055813D01*
X0412479Y0055892D01*
X0411882Y0055408D02*
X0404836Y0055408D01*
X0406435Y0057006D02*
X0411365Y0057006D01*
X0395173Y0061802D02*
X0385924Y0061802D01*
X0386872Y0060203D02*
X0393575Y0060203D01*
X0391976Y0058605D02*
X0386793Y0058605D01*
X0381476Y0061802D02*
X0368830Y0061802D01*
X0373272Y0057500D02*
X0372900Y0057128D01*
X0369272Y0053500D01*
X0366225Y0053500D01*
X0365513Y0054213D01*
X0364337Y0054700D01*
X0363063Y0054700D01*
X0361887Y0054213D01*
X0360987Y0053313D01*
X0360908Y0053121D01*
X0360528Y0053500D01*
X0324500Y0053500D01*
X0324500Y0055163D01*
X0323563Y0056100D01*
X0313437Y0056100D01*
X0312500Y0055163D01*
X0312500Y0050300D01*
X0302928Y0050300D01*
X0302128Y0051100D01*
X0300950Y0052278D01*
X0300950Y0052278D01*
X0299000Y0054228D01*
X0298958Y0054270D01*
X0299328Y0054640D01*
X0300500Y0055812D01*
X0300500Y0055872D01*
X0301728Y0057100D01*
X0302737Y0057100D01*
X0303913Y0057587D01*
X0304625Y0058300D01*
X0310128Y0058300D01*
X0313328Y0061500D01*
X0317975Y0061500D01*
X0318687Y0060787D01*
X0319863Y0060300D01*
X0320872Y0060300D01*
X0323672Y0057500D01*
X0373272Y0057500D01*
X0372778Y0057006D02*
X0301635Y0057006D01*
X0300096Y0055408D02*
X0312745Y0055408D01*
X0312500Y0053809D02*
X0299419Y0053809D01*
X0301018Y0052211D02*
X0312500Y0052211D01*
X0312500Y0050612D02*
X0302616Y0050612D01*
X0292244Y0051687D02*
X0289106Y0051687D01*
X0288169Y0050749D01*
X0288169Y0045500D01*
X0284573Y0045500D01*
X0285081Y0046727D01*
X0285081Y0048073D01*
X0284566Y0049315D01*
X0283615Y0050266D01*
X0282373Y0050781D01*
X0281825Y0050781D01*
X0281825Y0063803D01*
X0280654Y0064975D01*
X0280581Y0065047D01*
X0280581Y0066273D01*
X0280066Y0067515D01*
X0279115Y0068466D01*
X0277873Y0068981D01*
X0276527Y0068981D01*
X0275285Y0068466D01*
X0274334Y0067515D01*
X0273819Y0066273D01*
X0273819Y0064927D01*
X0274334Y0063685D01*
X0275285Y0062734D01*
X0276527Y0062219D01*
X0277753Y0062219D01*
X0277825Y0062146D01*
X0277825Y0048446D01*
X0278319Y0047953D01*
X0278319Y0046727D01*
X0278827Y0045500D01*
X0250128Y0045500D01*
X0244928Y0050700D01*
X0252573Y0058345D01*
X0253185Y0057734D01*
X0253705Y0057518D01*
X0253700Y0057512D01*
X0253700Y0057200D01*
X0252834Y0056334D01*
X0252319Y0055091D01*
X0252319Y0053746D01*
X0252834Y0052504D01*
X0253785Y0051553D01*
X0255027Y0051038D01*
X0256373Y0051038D01*
X0257615Y0051553D01*
X0258566Y0052504D01*
X0259081Y0053746D01*
X0259081Y0055091D01*
X0258566Y0056334D01*
X0258372Y0056528D01*
X0258910Y0057065D01*
X0260081Y0058237D01*
X0260081Y0064847D01*
X0259877Y0065051D01*
X0260513Y0065687D01*
X0261000Y0066863D01*
X0261000Y0067100D01*
X0263728Y0067100D01*
X0264900Y0068272D01*
X0265728Y0069100D01*
X0266737Y0069100D01*
X0267913Y0069587D01*
X0268813Y0070487D01*
X0269300Y0071663D01*
X0269300Y0072500D01*
X0280072Y0072500D01*
X0285300Y0067272D01*
X0285300Y0058631D01*
X0291359Y0052572D01*
X0292244Y0051687D01*
X0291720Y0052211D02*
X0281825Y0052211D01*
X0281825Y0053809D02*
X0290122Y0053809D01*
X0288523Y0055408D02*
X0281825Y0055408D01*
X0281825Y0057006D02*
X0286925Y0057006D01*
X0285326Y0058605D02*
X0281825Y0058605D01*
X0281825Y0060203D02*
X0285300Y0060203D01*
X0285300Y0061802D02*
X0281825Y0061802D01*
X0277825Y0061802D02*
X0260081Y0061802D01*
X0260081Y0060203D02*
X0277825Y0060203D01*
X0277825Y0058605D02*
X0260081Y0058605D01*
X0258851Y0057006D02*
X0277825Y0057006D01*
X0277825Y0055408D02*
X0258950Y0055408D01*
X0253506Y0057006D02*
X0251235Y0057006D01*
X0252450Y0055408D02*
X0249636Y0055408D01*
X0245578Y0057006D02*
X0238622Y0057006D01*
X0238128Y0057500D02*
X0225328Y0057500D01*
X0233328Y0065500D01*
X0244118Y0065500D01*
X0243834Y0065215D01*
X0243319Y0063973D01*
X0243319Y0062627D01*
X0243834Y0061385D01*
X0244785Y0060434D01*
X0246027Y0059919D01*
X0247373Y0059919D01*
X0248615Y0060434D01*
X0249566Y0061385D01*
X0250081Y0062627D01*
X0250081Y0063100D01*
X0252818Y0063100D01*
X0252234Y0062515D01*
X0252165Y0062349D01*
X0251612Y0062300D01*
X0250872Y0062300D01*
X0250800Y0062228D01*
X0250699Y0062219D01*
X0250224Y0061652D01*
X0242100Y0053528D01*
X0239300Y0056328D01*
X0238128Y0057500D01*
X0240221Y0055408D02*
X0243979Y0055408D01*
X0242381Y0053809D02*
X0241819Y0053809D01*
X0246439Y0052211D02*
X0253127Y0052211D01*
X0252319Y0053809D02*
X0248038Y0053809D01*
X0258273Y0052211D02*
X0277825Y0052211D01*
X0277825Y0053809D02*
X0259081Y0053809D01*
X0246615Y0049014D02*
X0277825Y0049014D01*
X0277825Y0050612D02*
X0245016Y0050612D01*
X0242079Y0045492D02*
X0237272Y0050300D01*
X0219825Y0050300D01*
X0219113Y0049587D01*
X0218990Y0049537D01*
X0220302Y0048993D01*
X0221793Y0047502D01*
X0222600Y0045554D01*
X0222600Y0043446D01*
X0221793Y0041498D01*
X0220302Y0040007D01*
X0218354Y0039200D01*
X0216246Y0039200D01*
X0214298Y0040007D01*
X0212807Y0041498D01*
X0212000Y0043446D01*
X0212000Y0045554D01*
X0212807Y0047502D01*
X0214298Y0048993D01*
X0215610Y0049537D01*
X0215487Y0049587D01*
X0214587Y0050487D01*
X0214100Y0051663D01*
X0214100Y0052937D01*
X0214333Y0053500D01*
X0182068Y0053500D01*
X0182068Y0050425D01*
X0181131Y0049488D01*
X0175869Y0049488D01*
X0174931Y0050425D01*
X0174931Y0054240D01*
X0171568Y0057603D01*
X0171568Y0057118D01*
X0171050Y0056600D01*
X0171568Y0056082D01*
X0171568Y0050425D01*
X0170631Y0049488D01*
X0165369Y0049488D01*
X0165343Y0049514D01*
X0163243Y0047415D01*
X0163600Y0046554D01*
X0163600Y0044446D01*
X0162793Y0042498D01*
X0161302Y0041007D01*
X0159354Y0040200D01*
X0157246Y0040200D01*
X0155298Y0041007D01*
X0153807Y0042498D01*
X0153000Y0044446D01*
X0153000Y0046554D01*
X0153807Y0048502D01*
X0155298Y0049993D01*
X0157246Y0050800D01*
X0159354Y0050800D01*
X0160498Y0050326D01*
X0164431Y0054260D01*
X0164431Y0056082D01*
X0164950Y0056600D01*
X0164431Y0057118D01*
X0164431Y0058300D01*
X0128100Y0058300D01*
X0128100Y0050672D01*
X0126928Y0049500D01*
X0116528Y0039100D01*
X0244472Y0039100D01*
X0244100Y0039472D01*
X0244072Y0039500D01*
X0243063Y0039500D01*
X0241887Y0039987D01*
X0240987Y0040887D01*
X0240500Y0042063D01*
X0240500Y0043337D01*
X0240987Y0044513D01*
X0241887Y0045413D01*
X0242079Y0045492D01*
X0241755Y0045817D02*
X0222491Y0045817D01*
X0221829Y0047415D02*
X0240156Y0047415D01*
X0238558Y0049014D02*
X0220253Y0049014D01*
X0214347Y0049014D02*
X0194653Y0049014D01*
X0194702Y0048993D02*
X0192754Y0049800D01*
X0190646Y0049800D01*
X0188698Y0048993D01*
X0187207Y0047502D01*
X0186400Y0045554D01*
X0186400Y0043446D01*
X0187207Y0041498D01*
X0188698Y0040007D01*
X0190646Y0039200D01*
X0192754Y0039200D01*
X0194702Y0040007D01*
X0196193Y0041498D01*
X0197000Y0043446D01*
X0197000Y0045554D01*
X0196193Y0047502D01*
X0194702Y0048993D01*
X0196229Y0047415D02*
X0212771Y0047415D01*
X0212109Y0045817D02*
X0196891Y0045817D01*
X0197000Y0044218D02*
X0212000Y0044218D01*
X0212342Y0042620D02*
X0196658Y0042620D01*
X0195716Y0041021D02*
X0213284Y0041021D01*
X0215708Y0039423D02*
X0193292Y0039423D01*
X0190108Y0039423D02*
X0116851Y0039423D01*
X0118450Y0041021D02*
X0129684Y0041021D01*
X0129698Y0041007D02*
X0131646Y0040200D01*
X0133754Y0040200D01*
X0135702Y0041007D01*
X0137193Y0042498D01*
X0138000Y0044446D01*
X0138000Y0046554D01*
X0137193Y0048502D01*
X0135702Y0049993D01*
X0133754Y0050800D01*
X0131646Y0050800D01*
X0129698Y0049993D01*
X0128207Y0048502D01*
X0127400Y0046554D01*
X0127400Y0044446D01*
X0128207Y0042498D01*
X0129698Y0041007D01*
X0128156Y0042620D02*
X0120048Y0042620D01*
X0121647Y0044218D02*
X0127494Y0044218D01*
X0137244Y0042620D02*
X0153756Y0042620D01*
X0153094Y0044218D02*
X0137906Y0044218D01*
X0138000Y0045817D02*
X0153000Y0045817D01*
X0153357Y0047415D02*
X0137643Y0047415D01*
X0136682Y0049014D02*
X0154318Y0049014D01*
X0156792Y0050612D02*
X0134208Y0050612D01*
X0131192Y0050612D02*
X0128041Y0050612D01*
X0128100Y0052211D02*
X0162382Y0052211D01*
X0163981Y0053809D02*
X0128100Y0053809D01*
X0128100Y0055408D02*
X0164431Y0055408D01*
X0164544Y0057006D02*
X0128100Y0057006D01*
X0119450Y0057100D02*
X0118931Y0056582D01*
X0118931Y0054360D01*
X0116068Y0051497D01*
X0116068Y0056582D01*
X0115550Y0057100D01*
X0116068Y0057618D01*
X0116068Y0058300D01*
X0118931Y0058300D01*
X0118931Y0057618D01*
X0119450Y0057100D01*
X0119356Y0057006D02*
X0115644Y0057006D01*
X0116068Y0055408D02*
X0118931Y0055408D01*
X0118381Y0053809D02*
X0116068Y0053809D01*
X0116068Y0052211D02*
X0116782Y0052211D01*
X0120217Y0049988D02*
X0121760Y0049988D01*
X0114072Y0042300D01*
X0103595Y0042300D01*
X0103793Y0042498D01*
X0104374Y0043900D01*
X0114128Y0043900D01*
X0115300Y0045072D01*
X0120217Y0049988D01*
X0120785Y0049014D02*
X0119242Y0049014D01*
X0119187Y0047415D02*
X0117644Y0047415D01*
X0117588Y0045817D02*
X0116045Y0045817D01*
X0123245Y0045817D02*
X0127400Y0045817D01*
X0127757Y0047415D02*
X0124844Y0047415D01*
X0126442Y0049014D02*
X0128718Y0049014D01*
X0115990Y0044218D02*
X0114447Y0044218D01*
X0114391Y0042620D02*
X0103844Y0042620D01*
X0094756Y0042620D02*
X0078244Y0042620D01*
X0078906Y0044218D02*
X0094094Y0044218D01*
X0094000Y0045817D02*
X0079000Y0045817D01*
X0078643Y0047415D02*
X0088156Y0047415D01*
X0086558Y0049014D02*
X0077682Y0049014D01*
X0079931Y0050612D02*
X0075208Y0050612D01*
X0072192Y0050612D02*
X0068900Y0050612D01*
X0068900Y0049014D02*
X0069718Y0049014D01*
X0064900Y0047988D02*
X0064900Y0045928D01*
X0063622Y0044650D01*
X0058387Y0044650D01*
X0057450Y0043713D01*
X0057450Y0039278D01*
X0055973Y0037801D01*
X0056550Y0039195D01*
X0056550Y0041005D01*
X0055857Y0042677D01*
X0054577Y0043957D01*
X0054300Y0044072D01*
X0055300Y0045072D01*
X0059728Y0049500D01*
X0059931Y0049500D01*
X0059931Y0048925D01*
X0060869Y0047988D01*
X0064900Y0047988D01*
X0064900Y0047415D02*
X0057644Y0047415D01*
X0059242Y0049014D02*
X0059931Y0049014D01*
X0052560Y0047988D02*
X0052472Y0047900D01*
X0045043Y0047900D01*
X0044793Y0048502D01*
X0043302Y0049993D01*
X0041354Y0050800D01*
X0039246Y0050800D01*
X0037298Y0049993D01*
X0036900Y0049595D01*
X0036900Y0050672D01*
X0040528Y0054300D01*
X0041700Y0055472D01*
X0041700Y0062543D01*
X0043300Y0063206D01*
X0043300Y0058672D01*
X0044472Y0057500D01*
X0049431Y0052540D01*
X0049431Y0048925D01*
X0050369Y0047988D01*
X0052560Y0047988D01*
X0049431Y0049014D02*
X0044282Y0049014D01*
X0041808Y0050612D02*
X0049431Y0050612D01*
X0049431Y0052211D02*
X0038439Y0052211D01*
X0038792Y0050612D02*
X0036900Y0050612D01*
X0032900Y0049727D02*
X0032900Y0042672D01*
X0034072Y0041500D01*
X0037700Y0037872D01*
X0037700Y0032360D01*
X0037298Y0032193D01*
X0035807Y0030702D01*
X0035000Y0028754D01*
X0035000Y0028628D01*
X0025700Y0037928D01*
X0025700Y0050127D01*
X0027077Y0048750D01*
X0031923Y0048750D01*
X0032900Y0049727D01*
X0032900Y0049014D02*
X0032187Y0049014D01*
X0032900Y0047415D02*
X0025700Y0047415D01*
X0025700Y0045817D02*
X0032900Y0045817D01*
X0032900Y0044218D02*
X0025700Y0044218D01*
X0025700Y0042620D02*
X0032952Y0042620D01*
X0034550Y0041021D02*
X0025700Y0041021D01*
X0025700Y0039423D02*
X0036149Y0039423D01*
X0037700Y0037824D02*
X0025804Y0037824D01*
X0021700Y0037824D02*
X0003666Y0037824D01*
X0003666Y0039423D02*
X0021700Y0039423D01*
X0021700Y0041021D02*
X0017716Y0041021D01*
X0019244Y0042620D02*
X0021700Y0042620D01*
X0021700Y0044218D02*
X0019906Y0044218D01*
X0020000Y0045817D02*
X0021700Y0045817D01*
X0021700Y0047415D02*
X0019643Y0047415D01*
X0020187Y0049014D02*
X0021700Y0049014D01*
X0025700Y0049014D02*
X0026813Y0049014D01*
X0013192Y0050612D02*
X0003666Y0050612D01*
X0003666Y0049014D02*
X0010718Y0049014D01*
X0009757Y0047415D02*
X0003666Y0047415D01*
X0003666Y0045817D02*
X0009400Y0045817D01*
X0009494Y0044218D02*
X0003666Y0044218D01*
X0003666Y0042620D02*
X0010156Y0042620D01*
X0011684Y0041021D02*
X0003666Y0041021D01*
X0003666Y0036226D02*
X0021746Y0036226D01*
X0023345Y0034627D02*
X0003666Y0034627D01*
X0003666Y0033029D02*
X0024943Y0033029D01*
X0026542Y0031430D02*
X0018465Y0031430D01*
X0019193Y0030702D02*
X0017702Y0032193D01*
X0015754Y0033000D01*
X0013646Y0033000D01*
X0011698Y0032193D01*
X0010207Y0030702D01*
X0009400Y0028754D01*
X0009400Y0026646D01*
X0010207Y0024698D01*
X0011698Y0023207D01*
X0013646Y0022400D01*
X0015754Y0022400D01*
X0017702Y0023207D01*
X0019193Y0024698D01*
X0020000Y0026646D01*
X0020000Y0028754D01*
X0019193Y0030702D01*
X0019554Y0029832D02*
X0028140Y0029832D01*
X0032198Y0031430D02*
X0036535Y0031430D01*
X0035446Y0029832D02*
X0033797Y0029832D01*
X0041700Y0032857D02*
X0043302Y0032193D01*
X0044793Y0030702D01*
X0045600Y0028754D01*
X0045600Y0026646D01*
X0044793Y0024698D01*
X0043302Y0023207D01*
X0041354Y0022400D01*
X0041228Y0022400D01*
X0057328Y0006300D01*
X0191672Y0006300D01*
X0185272Y0012700D01*
X0185155Y0012700D01*
X0185155Y0011484D01*
X0184218Y0010547D01*
X0176593Y0010547D01*
X0175656Y0011484D01*
X0175656Y0017500D01*
X0171277Y0017500D01*
X0171277Y0016012D01*
X0170365Y0015100D01*
X0171277Y0014188D01*
X0171277Y0008138D01*
X0170340Y0007201D01*
X0164290Y0007201D01*
X0163353Y0008138D01*
X0163353Y0008700D01*
X0115672Y0008700D01*
X0114500Y0009872D01*
X0114072Y0010300D01*
X0111777Y0010300D01*
X0111777Y0009638D01*
X0110840Y0008701D01*
X0104790Y0008701D01*
X0103853Y0009638D01*
X0103853Y0011100D01*
X0066872Y0011100D01*
X0051672Y0026300D01*
X0050500Y0027472D01*
X0050500Y0032328D01*
X0054299Y0036127D01*
X0052905Y0035550D01*
X0051095Y0035550D01*
X0049423Y0036243D01*
X0048143Y0037523D01*
X0047450Y0039195D01*
X0047450Y0041005D01*
X0048143Y0042677D01*
X0049365Y0043900D01*
X0045374Y0043900D01*
X0044793Y0042498D01*
X0043302Y0041007D01*
X0041354Y0040200D01*
X0041028Y0040200D01*
X0041700Y0039528D01*
X0041700Y0032857D01*
X0041700Y0033029D02*
X0051200Y0033029D01*
X0050500Y0031430D02*
X0044065Y0031430D01*
X0045154Y0029832D02*
X0050500Y0029832D01*
X0050500Y0028233D02*
X0045600Y0028233D01*
X0045595Y0026634D02*
X0051337Y0026634D01*
X0052936Y0025036D02*
X0044933Y0025036D01*
X0043533Y0023437D02*
X0054534Y0023437D01*
X0056133Y0021839D02*
X0041789Y0021839D01*
X0043388Y0020240D02*
X0057731Y0020240D01*
X0061789Y0021839D02*
X0102533Y0021839D01*
X0101498Y0022874D02*
X0103853Y0020519D01*
X0103853Y0017512D01*
X0104765Y0016600D01*
X0103853Y0015688D01*
X0103853Y0015100D01*
X0068528Y0015100D01*
X0058028Y0025601D01*
X0059577Y0026243D01*
X0060857Y0027523D01*
X0061345Y0028700D01*
X0068400Y0028700D01*
X0068400Y0026646D01*
X0069207Y0024698D01*
X0070698Y0023207D01*
X0072646Y0022400D01*
X0074754Y0022400D01*
X0076702Y0023207D01*
X0078193Y0024698D01*
X0079000Y0026646D01*
X0079000Y0028754D01*
X0078193Y0030702D01*
X0077795Y0031100D01*
X0093272Y0031100D01*
X0094474Y0029898D01*
X0094000Y0028754D01*
X0094000Y0026646D01*
X0094807Y0024698D01*
X0096298Y0023207D01*
X0098246Y0022400D01*
X0100354Y0022400D01*
X0101498Y0022874D01*
X0103853Y0020240D02*
X0063388Y0020240D01*
X0064986Y0018642D02*
X0103853Y0018642D01*
X0104321Y0017043D02*
X0066585Y0017043D01*
X0068183Y0015445D02*
X0103853Y0015445D01*
X0110865Y0016600D02*
X0111777Y0017512D01*
X0111777Y0019100D01*
X0114500Y0019100D01*
X0114500Y0014300D01*
X0111777Y0014300D01*
X0111777Y0015688D01*
X0110865Y0016600D01*
X0111309Y0017043D02*
X0114500Y0017043D01*
X0114500Y0015445D02*
X0111777Y0015445D01*
X0111777Y0018642D02*
X0114500Y0018642D01*
X0125655Y0019100D02*
X0134128Y0019100D01*
X0135300Y0020272D01*
X0140528Y0025500D01*
X0153475Y0025500D01*
X0153806Y0024700D01*
X0142072Y0024700D01*
X0140900Y0023528D01*
X0136472Y0019100D01*
X0125655Y0019100D01*
X0125655Y0019100D01*
X0135269Y0020240D02*
X0137612Y0020240D01*
X0136867Y0021839D02*
X0139211Y0021839D01*
X0138466Y0023437D02*
X0140809Y0023437D01*
X0140064Y0025036D02*
X0153667Y0025036D01*
X0162794Y0024700D02*
X0163600Y0026646D01*
X0163600Y0028754D01*
X0162793Y0030702D01*
X0161302Y0032193D01*
X0159354Y0033000D01*
X0157246Y0033000D01*
X0155298Y0032193D01*
X0153807Y0030702D01*
X0153309Y0029500D01*
X0138872Y0029500D01*
X0138000Y0028628D01*
X0138000Y0028754D01*
X0137193Y0030702D01*
X0135702Y0032193D01*
X0133754Y0033000D01*
X0131646Y0033000D01*
X0129698Y0032193D01*
X0128207Y0030702D01*
X0127400Y0028754D01*
X0127400Y0026646D01*
X0128207Y0024698D01*
X0129698Y0023207D01*
X0129956Y0023100D01*
X0111777Y0023100D01*
X0111777Y0023562D01*
X0110840Y0024499D01*
X0105529Y0024499D01*
X0104243Y0025785D01*
X0104600Y0026646D01*
X0104600Y0028754D01*
X0103793Y0030702D01*
X0102302Y0032193D01*
X0100354Y0033000D01*
X0098246Y0033000D01*
X0097385Y0032643D01*
X0094928Y0035100D01*
X0090225Y0035100D01*
X0090225Y0035100D01*
X0247728Y0035100D01*
X0249028Y0036400D01*
X0255972Y0036400D01*
X0257598Y0034773D01*
X0257500Y0034537D01*
X0257500Y0033263D01*
X0257987Y0032087D01*
X0258887Y0031187D01*
X0260063Y0030700D01*
X0261337Y0030700D01*
X0262513Y0031187D01*
X0263413Y0032087D01*
X0263668Y0032704D01*
X0267800Y0028572D01*
X0267800Y0028409D01*
X0268900Y0027309D01*
X0268900Y0023528D01*
X0268528Y0023900D01*
X0263228Y0023900D01*
X0254228Y0032900D01*
X0249928Y0032900D01*
X0249700Y0033128D01*
X0249700Y0033128D01*
X0248528Y0034300D01*
X0189272Y0034300D01*
X0188100Y0033128D01*
X0179672Y0024700D01*
X0162794Y0024700D01*
X0162933Y0025036D02*
X0180008Y0025036D01*
X0181606Y0026634D02*
X0163595Y0026634D01*
X0163600Y0028233D02*
X0183205Y0028233D01*
X0186400Y0025772D02*
X0186400Y0025646D01*
X0187207Y0023698D01*
X0188698Y0022207D01*
X0190404Y0021500D01*
X0182128Y0021500D01*
X0186400Y0025772D01*
X0186653Y0025036D02*
X0185664Y0025036D01*
X0184066Y0023437D02*
X0187467Y0023437D01*
X0189586Y0021839D02*
X0182467Y0021839D01*
X0196728Y0021700D02*
X0199728Y0024700D01*
X0212392Y0024700D01*
X0212807Y0023698D01*
X0214298Y0022207D01*
X0215522Y0021700D01*
X0215085Y0021700D01*
X0213394Y0021000D01*
X0212100Y0019706D01*
X0211400Y0018015D01*
X0211400Y0010185D01*
X0212015Y0008700D01*
X0209985Y0008700D01*
X0210600Y0010185D01*
X0210600Y0018015D01*
X0209900Y0019706D01*
X0208606Y0021000D01*
X0206915Y0021700D01*
X0205085Y0021700D01*
X0203394Y0021000D01*
X0202100Y0019706D01*
X0201400Y0018015D01*
X0201400Y0010185D01*
X0202015Y0008700D01*
X0199985Y0008700D01*
X0200600Y0010185D01*
X0200600Y0018015D01*
X0199900Y0019706D01*
X0198606Y0021000D01*
X0196915Y0021700D01*
X0196728Y0021700D01*
X0196867Y0021839D02*
X0215186Y0021839D01*
X0217639Y0021400D02*
X0218354Y0021400D01*
X0220302Y0022207D01*
X0221793Y0023698D01*
X0222600Y0025646D01*
X0222600Y0027754D01*
X0221793Y0029702D01*
X0221195Y0030300D01*
X0246872Y0030300D01*
X0247100Y0030072D01*
X0248272Y0028900D01*
X0252572Y0028900D01*
X0258172Y0023300D01*
X0254781Y0023300D01*
X0254781Y0024373D01*
X0254266Y0025615D01*
X0253315Y0026566D01*
X0252073Y0027081D01*
X0250727Y0027081D01*
X0249485Y0026566D01*
X0248534Y0025615D01*
X0248019Y0024373D01*
X0248019Y0023027D01*
X0248534Y0021785D01*
X0249485Y0020834D01*
X0250727Y0020319D01*
X0251953Y0020319D01*
X0252333Y0019938D01*
X0252100Y0019706D01*
X0251400Y0018015D01*
X0251400Y0010185D01*
X0252015Y0008700D01*
X0249985Y0008700D01*
X0250600Y0010185D01*
X0250600Y0018015D01*
X0249900Y0019706D01*
X0248606Y0021000D01*
X0246915Y0021700D01*
X0245085Y0021700D01*
X0243394Y0021000D01*
X0242100Y0019706D01*
X0241400Y0018015D01*
X0241400Y0010185D01*
X0242015Y0008700D01*
X0239985Y0008700D01*
X0240600Y0010185D01*
X0240600Y0018015D01*
X0239900Y0019706D01*
X0238606Y0021000D01*
X0236915Y0021700D01*
X0235085Y0021700D01*
X0233394Y0021000D01*
X0232100Y0019706D01*
X0231400Y0018015D01*
X0231400Y0010185D01*
X0232015Y0008700D01*
X0229985Y0008700D01*
X0230600Y0010185D01*
X0230600Y0018015D01*
X0229900Y0019706D01*
X0228606Y0021000D01*
X0226915Y0021700D01*
X0225085Y0021700D01*
X0223394Y0021000D01*
X0222100Y0019706D01*
X0221400Y0018015D01*
X0221400Y0010185D01*
X0222015Y0008700D01*
X0219985Y0008700D01*
X0220600Y0010185D01*
X0220600Y0018015D01*
X0219900Y0019706D01*
X0218606Y0021000D01*
X0217639Y0021400D01*
X0219414Y0021839D02*
X0248511Y0021839D01*
X0248019Y0023437D02*
X0221533Y0023437D01*
X0222347Y0025036D02*
X0248294Y0025036D01*
X0249649Y0026634D02*
X0222600Y0026634D01*
X0222402Y0028233D02*
X0253239Y0028233D01*
X0253151Y0026634D02*
X0254837Y0026634D01*
X0254506Y0025036D02*
X0256436Y0025036D01*
X0258034Y0023437D02*
X0254781Y0023437D01*
X0262092Y0025036D02*
X0268900Y0025036D01*
X0268900Y0026634D02*
X0260494Y0026634D01*
X0258895Y0028233D02*
X0267976Y0028233D01*
X0272900Y0027900D02*
X0281533Y0027900D01*
X0281300Y0027337D01*
X0281300Y0026063D01*
X0281787Y0024887D01*
X0282687Y0023987D01*
X0283863Y0023500D01*
X0285137Y0023500D01*
X0286313Y0023987D01*
X0287025Y0024700D01*
X0319672Y0024700D01*
X0319300Y0024328D01*
X0314288Y0019317D01*
X0313106Y0020500D01*
X0311415Y0021200D01*
X0309585Y0021200D01*
X0307894Y0020500D01*
X0306631Y0019237D01*
X0304240Y0021628D01*
X0303068Y0022800D01*
X0279581Y0022800D01*
X0279581Y0023773D01*
X0279066Y0025015D01*
X0278115Y0025966D01*
X0276873Y0026481D01*
X0275527Y0026481D01*
X0274285Y0025966D01*
X0273334Y0025015D01*
X0273005Y0024223D01*
X0272900Y0024328D01*
X0272900Y0027900D01*
X0272900Y0026634D02*
X0281300Y0026634D01*
X0281726Y0025036D02*
X0279046Y0025036D01*
X0279581Y0023437D02*
X0318409Y0023437D01*
X0316811Y0021839D02*
X0304029Y0021839D01*
X0305628Y0020240D02*
X0307635Y0020240D01*
X0313365Y0020240D02*
X0315212Y0020240D01*
X0323305Y0020300D02*
X0324400Y0019206D01*
X0325100Y0017515D01*
X0325100Y0009685D01*
X0324400Y0007994D01*
X0323106Y0006700D01*
X0322139Y0006300D01*
X0328861Y0006300D01*
X0327894Y0006700D01*
X0326600Y0007994D01*
X0325900Y0009685D01*
X0325900Y0017515D01*
X0326600Y0019206D01*
X0327894Y0020500D01*
X0329585Y0021200D01*
X0331415Y0021200D01*
X0333106Y0020500D01*
X0334400Y0019206D01*
X0335100Y0017515D01*
X0335100Y0009685D01*
X0334400Y0007994D01*
X0333106Y0006700D01*
X0332139Y0006300D01*
X0360472Y0006300D01*
X0382072Y0027900D01*
X0358667Y0027900D01*
X0358900Y0027337D01*
X0358900Y0026063D01*
X0358413Y0024887D01*
X0357513Y0023987D01*
X0356337Y0023500D01*
X0355063Y0023500D01*
X0353887Y0023987D01*
X0353175Y0024700D01*
X0326667Y0024700D01*
X0326900Y0024137D01*
X0326900Y0022863D01*
X0326413Y0021687D01*
X0325513Y0020787D01*
X0324337Y0020300D01*
X0323305Y0020300D01*
X0323365Y0020240D02*
X0327635Y0020240D01*
X0326476Y0021839D02*
X0376011Y0021839D01*
X0377609Y0023437D02*
X0326900Y0023437D01*
X0333365Y0020240D02*
X0374412Y0020240D01*
X0380069Y0020240D02*
X0388900Y0020240D01*
X0388900Y0019528D02*
X0388900Y0029072D01*
X0363893Y0004064D01*
X0391507Y0004064D01*
X0390500Y0005072D01*
X0388100Y0007472D01*
X0388100Y0018728D01*
X0388900Y0019528D01*
X0388100Y0018642D02*
X0378470Y0018642D01*
X0376872Y0017043D02*
X0388100Y0017043D01*
X0388100Y0015445D02*
X0375273Y0015445D01*
X0373675Y0013846D02*
X0388100Y0013846D01*
X0388100Y0012248D02*
X0372076Y0012248D01*
X0368018Y0013846D02*
X0356750Y0013846D01*
X0356750Y0015223D02*
X0353323Y0018650D01*
X0348477Y0018650D01*
X0345050Y0015223D01*
X0345050Y0010377D01*
X0348477Y0006950D01*
X0353323Y0006950D01*
X0356750Y0010377D01*
X0356750Y0015223D01*
X0356528Y0015445D02*
X0369617Y0015445D01*
X0371215Y0017043D02*
X0354930Y0017043D01*
X0353331Y0018642D02*
X0372814Y0018642D01*
X0381667Y0021839D02*
X0388900Y0021839D01*
X0388900Y0023437D02*
X0383266Y0023437D01*
X0384864Y0025036D02*
X0388900Y0025036D01*
X0388900Y0026634D02*
X0386463Y0026634D01*
X0388061Y0028233D02*
X0388900Y0028233D01*
X0392900Y0028233D02*
X0393605Y0028233D01*
X0394072Y0028700D02*
X0392900Y0027528D01*
X0392900Y0020416D01*
X0392900Y0039472D01*
X0398508Y0045079D01*
X0398587Y0044887D01*
X0399300Y0044175D01*
X0399300Y0033928D01*
X0394072Y0028700D01*
X0395203Y0029832D02*
X0392900Y0029832D01*
X0392900Y0031430D02*
X0396802Y0031430D01*
X0398400Y0033029D02*
X0392900Y0033029D01*
X0392900Y0034627D02*
X0399300Y0034627D01*
X0399300Y0036226D02*
X0392900Y0036226D01*
X0392900Y0037824D02*
X0399300Y0037824D01*
X0399300Y0039423D02*
X0392900Y0039423D01*
X0394450Y0041021D02*
X0399300Y0041021D01*
X0399300Y0042620D02*
X0396048Y0042620D01*
X0397647Y0044218D02*
X0399256Y0044218D01*
X0403300Y0044175D02*
X0404013Y0044887D01*
X0404100Y0045098D01*
X0404187Y0044887D01*
X0404900Y0044175D01*
X0404900Y0037128D01*
X0403300Y0035528D01*
X0403300Y0044175D01*
X0403344Y0044218D02*
X0404856Y0044218D01*
X0404900Y0042620D02*
X0403300Y0042620D01*
X0403300Y0041021D02*
X0404900Y0041021D01*
X0404900Y0039423D02*
X0403300Y0039423D01*
X0403300Y0037824D02*
X0404900Y0037824D01*
X0403997Y0036226D02*
X0403300Y0036226D01*
X0406900Y0029472D02*
X0412242Y0034813D01*
X0419393Y0034813D01*
X0420330Y0035751D01*
X0420330Y0041500D01*
X0432800Y0041500D01*
X0432800Y0040437D01*
X0433737Y0039500D01*
X0440872Y0039500D01*
X0439772Y0038400D01*
X0433737Y0038400D01*
X0432800Y0037463D01*
X0432800Y0031337D01*
X0433737Y0030400D01*
X0436900Y0030400D01*
X0436900Y0020085D01*
X0435415Y0020700D01*
X0433585Y0020700D01*
X0431894Y0020000D01*
X0430600Y0018706D01*
X0429900Y0017015D01*
X0429900Y0009185D01*
X0430600Y0007494D01*
X0431894Y0006200D01*
X0433585Y0005500D01*
X0435415Y0005500D01*
X0437106Y0006200D01*
X0438400Y0007494D01*
X0439100Y0009185D01*
X0439100Y0015672D01*
X0439900Y0014872D01*
X0439900Y0009185D01*
X0440600Y0007494D01*
X0441894Y0006200D01*
X0443585Y0005500D01*
X0445415Y0005500D01*
X0447106Y0006200D01*
X0447838Y0006933D01*
X0450707Y0004064D01*
X0407893Y0004064D01*
X0410962Y0007133D01*
X0411894Y0006200D01*
X0413585Y0005500D01*
X0415415Y0005500D01*
X0417106Y0006200D01*
X0418400Y0007494D01*
X0419100Y0009185D01*
X0419100Y0017015D01*
X0418400Y0018706D01*
X0417106Y0020000D01*
X0415415Y0020700D01*
X0413585Y0020700D01*
X0411894Y0020000D01*
X0410600Y0018706D01*
X0409900Y0017015D01*
X0409900Y0011728D01*
X0409100Y0010928D01*
X0409100Y0017015D01*
X0408400Y0018706D01*
X0407106Y0020000D01*
X0405415Y0020700D01*
X0403585Y0020700D01*
X0402500Y0020251D01*
X0402500Y0026133D01*
X0403063Y0025900D01*
X0404337Y0025900D01*
X0405513Y0026387D01*
X0406413Y0027287D01*
X0406900Y0028463D01*
X0406900Y0029472D01*
X0407260Y0029832D02*
X0436900Y0029832D01*
X0440900Y0029832D02*
X0460500Y0029832D01*
X0460870Y0031430D02*
X0444800Y0031430D01*
X0444800Y0033029D02*
X0461700Y0033029D01*
X0461700Y0034627D02*
X0444800Y0034627D01*
X0444800Y0036226D02*
X0461700Y0036226D01*
X0465700Y0036226D02*
X0480946Y0036226D01*
X0482545Y0034627D02*
X0465700Y0034627D01*
X0465700Y0033029D02*
X0484143Y0033029D01*
X0485742Y0031430D02*
X0466530Y0031430D01*
X0466900Y0029832D02*
X0487340Y0029832D01*
X0491398Y0031430D02*
X0519300Y0031430D01*
X0519300Y0029832D02*
X0492997Y0029832D01*
X0494595Y0028233D02*
X0512502Y0028233D01*
X0514098Y0028233D02*
X0519300Y0028233D01*
X0519300Y0026634D02*
X0516128Y0026634D01*
X0516500Y0025036D02*
X0519300Y0025036D01*
X0519300Y0023437D02*
X0516075Y0023437D01*
X0515300Y0021839D02*
X0519300Y0021839D01*
X0518976Y0020240D02*
X0515300Y0020240D01*
X0511300Y0020240D02*
X0507719Y0020240D01*
X0505681Y0020240D02*
X0502588Y0020240D01*
X0500989Y0021839D02*
X0511300Y0021839D01*
X0510525Y0023437D02*
X0499391Y0023437D01*
X0497792Y0025036D02*
X0510100Y0025036D01*
X0510472Y0026634D02*
X0496194Y0026634D01*
X0492136Y0025036D02*
X0440900Y0025036D01*
X0440900Y0026634D02*
X0490537Y0026634D01*
X0488939Y0028233D02*
X0466473Y0028233D01*
X0460927Y0028233D02*
X0440900Y0028233D01*
X0436900Y0028233D02*
X0406805Y0028233D01*
X0405760Y0026634D02*
X0436900Y0026634D01*
X0436900Y0025036D02*
X0402500Y0025036D01*
X0402500Y0023437D02*
X0436900Y0023437D01*
X0436900Y0021839D02*
X0402500Y0021839D01*
X0398500Y0021839D02*
X0396900Y0021839D01*
X0396900Y0023437D02*
X0398500Y0023437D01*
X0398500Y0025036D02*
X0396900Y0025036D01*
X0396900Y0025872D02*
X0398500Y0027472D01*
X0398500Y0018463D01*
X0398400Y0018706D01*
X0397106Y0020000D01*
X0396900Y0020085D01*
X0396900Y0025872D01*
X0397663Y0026634D02*
X0398500Y0026634D01*
X0392900Y0026634D02*
X0392900Y0026634D01*
X0392900Y0025036D02*
X0392900Y0025036D01*
X0392900Y0023437D02*
X0392900Y0023437D01*
X0392900Y0021839D02*
X0392900Y0021839D01*
X0392900Y0020416D02*
X0392900Y0020416D01*
X0396900Y0020240D02*
X0398500Y0020240D01*
X0406524Y0020240D02*
X0412476Y0020240D01*
X0416524Y0020240D02*
X0422476Y0020240D01*
X0421894Y0020000D02*
X0423585Y0020700D01*
X0425415Y0020700D01*
X0427106Y0020000D01*
X0428400Y0018706D01*
X0429100Y0017015D01*
X0429100Y0009185D01*
X0428400Y0007494D01*
X0427106Y0006200D01*
X0425415Y0005500D01*
X0423585Y0005500D01*
X0421894Y0006200D01*
X0420600Y0007494D01*
X0419900Y0009185D01*
X0419900Y0017015D01*
X0420600Y0018706D01*
X0421894Y0020000D01*
X0420574Y0018642D02*
X0418426Y0018642D01*
X0419088Y0017043D02*
X0419912Y0017043D01*
X0419900Y0015445D02*
X0419100Y0015445D01*
X0419100Y0013846D02*
X0419900Y0013846D01*
X0419900Y0012248D02*
X0419100Y0012248D01*
X0429100Y0012248D02*
X0429900Y0012248D01*
X0429900Y0013846D02*
X0429100Y0013846D01*
X0429100Y0015445D02*
X0429900Y0015445D01*
X0429912Y0017043D02*
X0429088Y0017043D01*
X0428426Y0018642D02*
X0430574Y0018642D01*
X0432476Y0020240D02*
X0426524Y0020240D01*
X0436524Y0020240D02*
X0436900Y0020240D01*
X0440900Y0020240D02*
X0442476Y0020240D01*
X0440900Y0021839D02*
X0460811Y0021839D01*
X0459212Y0020240D02*
X0456524Y0020240D01*
X0452476Y0020240D02*
X0446524Y0020240D01*
X0448426Y0018642D02*
X0450574Y0018642D01*
X0449912Y0017043D02*
X0449088Y0017043D01*
X0449100Y0015445D02*
X0449900Y0015445D01*
X0449900Y0013846D02*
X0449100Y0013846D01*
X0449100Y0012248D02*
X0449900Y0012248D01*
X0449900Y0010649D02*
X0449779Y0010649D01*
X0459100Y0011328D02*
X0459100Y0014472D01*
X0462928Y0018300D01*
X0471532Y0018300D01*
X0470900Y0016775D01*
X0470900Y0015100D01*
X0462872Y0015100D01*
X0459100Y0011328D01*
X0459100Y0012248D02*
X0460019Y0012248D01*
X0459100Y0013846D02*
X0461618Y0013846D01*
X0460073Y0015445D02*
X0470900Y0015445D01*
X0471011Y0017043D02*
X0461672Y0017043D01*
X0479068Y0018300D02*
X0481532Y0018300D01*
X0480900Y0016775D01*
X0480900Y0010728D01*
X0479700Y0011928D01*
X0479700Y0016775D01*
X0479068Y0018300D01*
X0479589Y0017043D02*
X0481011Y0017043D01*
X0480900Y0015445D02*
X0479700Y0015445D01*
X0479700Y0013846D02*
X0480900Y0013846D01*
X0480900Y0012248D02*
X0479700Y0012248D01*
X0489700Y0012248D02*
X0492124Y0012248D01*
X0492300Y0012072D02*
X0489700Y0014672D01*
X0489700Y0011528D01*
X0492651Y0008577D01*
X0492300Y0009425D01*
X0492300Y0012072D01*
X0492300Y0010649D02*
X0490579Y0010649D01*
X0492178Y0009051D02*
X0492455Y0009051D01*
X0489272Y0006300D02*
X0488397Y0007175D01*
X0487792Y0006570D01*
X0487141Y0006300D01*
X0489272Y0006300D01*
X0481907Y0004064D02*
X0457493Y0004064D01*
X0464528Y0011100D01*
X0470900Y0011100D01*
X0470900Y0009425D01*
X0471570Y0007808D01*
X0472808Y0006570D01*
X0474425Y0005900D01*
X0476175Y0005900D01*
X0477792Y0006570D01*
X0478597Y0007375D01*
X0481907Y0004064D01*
X0481716Y0004255D02*
X0457684Y0004255D01*
X0459282Y0005854D02*
X0480118Y0005854D01*
X0471925Y0007452D02*
X0460881Y0007452D01*
X0462479Y0009051D02*
X0471055Y0009051D01*
X0470900Y0010649D02*
X0464078Y0010649D01*
X0448918Y0005854D02*
X0446269Y0005854D01*
X0442731Y0005854D02*
X0436269Y0005854D01*
X0438358Y0007452D02*
X0440642Y0007452D01*
X0439956Y0009051D02*
X0439044Y0009051D01*
X0439100Y0010649D02*
X0439900Y0010649D01*
X0429900Y0010649D02*
X0429100Y0010649D01*
X0429044Y0009051D02*
X0429956Y0009051D01*
X0430642Y0007452D02*
X0428358Y0007452D01*
X0426269Y0005854D02*
X0432731Y0005854D01*
X0422731Y0005854D02*
X0416269Y0005854D01*
X0418358Y0007452D02*
X0420642Y0007452D01*
X0419956Y0009051D02*
X0419044Y0009051D01*
X0419100Y0010649D02*
X0419900Y0010649D01*
X0409900Y0012248D02*
X0409100Y0012248D01*
X0409100Y0013846D02*
X0409900Y0013846D01*
X0409900Y0015445D02*
X0409100Y0015445D01*
X0409088Y0017043D02*
X0409912Y0017043D01*
X0410574Y0018642D02*
X0408426Y0018642D01*
X0399900Y0014872D02*
X0399900Y0009185D01*
X0400432Y0007900D01*
X0398568Y0007900D01*
X0399100Y0009185D01*
X0399100Y0015672D01*
X0399900Y0014872D01*
X0399327Y0015445D02*
X0399100Y0015445D01*
X0399100Y0013846D02*
X0399900Y0013846D01*
X0399900Y0012248D02*
X0399100Y0012248D01*
X0399100Y0010649D02*
X0399900Y0010649D01*
X0399956Y0009051D02*
X0399044Y0009051D01*
X0389718Y0005854D02*
X0365682Y0005854D01*
X0364084Y0004255D02*
X0391316Y0004255D01*
X0388119Y0007452D02*
X0367281Y0007452D01*
X0368879Y0009051D02*
X0388100Y0009051D01*
X0388100Y0010649D02*
X0370478Y0010649D01*
X0364821Y0010649D02*
X0356750Y0010649D01*
X0355424Y0009051D02*
X0363222Y0009051D01*
X0361624Y0007452D02*
X0353826Y0007452D01*
X0347974Y0007452D02*
X0333858Y0007452D01*
X0334837Y0009051D02*
X0346376Y0009051D01*
X0345050Y0010649D02*
X0335100Y0010649D01*
X0326163Y0009051D02*
X0324837Y0009051D01*
X0325100Y0010649D02*
X0325900Y0010649D01*
X0325900Y0012248D02*
X0325100Y0012248D01*
X0325100Y0013846D02*
X0325900Y0013846D01*
X0325900Y0015445D02*
X0325100Y0015445D01*
X0325100Y0017043D02*
X0325900Y0017043D01*
X0326367Y0018642D02*
X0324633Y0018642D01*
X0334633Y0018642D02*
X0348469Y0018642D01*
X0346870Y0017043D02*
X0335100Y0017043D01*
X0335100Y0015445D02*
X0345272Y0015445D01*
X0345050Y0013846D02*
X0335100Y0013846D01*
X0335100Y0012248D02*
X0345050Y0012248D01*
X0356750Y0012248D02*
X0366419Y0012248D01*
X0398426Y0018642D02*
X0398500Y0018642D01*
X0379208Y0025036D02*
X0358474Y0025036D01*
X0358900Y0026634D02*
X0380806Y0026634D01*
X0373100Y0031900D02*
X0326902Y0031900D01*
X0326902Y0031900D01*
X0373100Y0031900D01*
X0373100Y0031900D01*
X0373100Y0035900D02*
X0360630Y0035900D01*
X0360630Y0040700D01*
X0373100Y0040700D01*
X0373100Y0039637D01*
X0374037Y0038700D01*
X0383975Y0038700D01*
X0384100Y0038575D01*
X0384100Y0037600D01*
X0374037Y0037600D01*
X0373100Y0036663D01*
X0373100Y0035900D01*
X0373100Y0036226D02*
X0360630Y0036226D01*
X0360630Y0037824D02*
X0384100Y0037824D01*
X0373315Y0039423D02*
X0360630Y0039423D01*
X0348769Y0039423D02*
X0326451Y0039423D01*
X0325937Y0037900D02*
X0324928Y0037900D01*
X0330528Y0043500D01*
X0331537Y0043500D01*
X0332713Y0043987D01*
X0333613Y0044887D01*
X0333692Y0045079D01*
X0338072Y0040700D01*
X0348769Y0040700D01*
X0348769Y0035900D01*
X0328267Y0035900D01*
X0328013Y0036513D01*
X0327113Y0037413D01*
X0325937Y0037900D01*
X0326120Y0037824D02*
X0348769Y0037824D01*
X0348769Y0036226D02*
X0328132Y0036226D01*
X0312500Y0036226D02*
X0306700Y0036226D01*
X0307025Y0035900D02*
X0306313Y0036613D01*
X0306121Y0036692D01*
X0306128Y0036700D01*
X0312500Y0036700D01*
X0312500Y0035900D01*
X0307025Y0035900D01*
X0303300Y0039528D02*
X0300030Y0036258D01*
X0300030Y0041500D01*
X0312500Y0041500D01*
X0312500Y0040700D01*
X0304472Y0040700D01*
X0303300Y0039528D01*
X0303194Y0039423D02*
X0300030Y0039423D01*
X0300030Y0041021D02*
X0312500Y0041021D01*
X0301596Y0037824D02*
X0300030Y0037824D01*
X0288169Y0037824D02*
X0266904Y0037824D01*
X0265306Y0039423D02*
X0288169Y0039423D01*
X0288169Y0041021D02*
X0263707Y0041021D01*
X0263228Y0041500D02*
X0269561Y0035167D01*
X0269787Y0035713D01*
X0270687Y0036613D01*
X0271863Y0037100D01*
X0273137Y0037100D01*
X0274313Y0036613D01*
X0275025Y0035900D01*
X0288169Y0035900D01*
X0288169Y0041500D01*
X0263228Y0041500D01*
X0244149Y0039423D02*
X0218892Y0039423D01*
X0221316Y0041021D02*
X0240932Y0041021D01*
X0240500Y0042620D02*
X0222258Y0042620D01*
X0222600Y0044218D02*
X0240865Y0044218D01*
X0249812Y0045817D02*
X0278696Y0045817D01*
X0278319Y0047415D02*
X0248213Y0047415D01*
X0282780Y0050612D02*
X0288169Y0050612D01*
X0288169Y0049014D02*
X0284691Y0049014D01*
X0285081Y0047415D02*
X0288169Y0047415D01*
X0288169Y0045817D02*
X0284704Y0045817D01*
X0300030Y0045817D02*
X0312500Y0045817D01*
X0312500Y0046063D02*
X0312500Y0045500D01*
X0300030Y0045500D01*
X0300030Y0047542D01*
X0301272Y0046300D01*
X0302928Y0046300D01*
X0312737Y0046300D01*
X0312500Y0046063D01*
X0324263Y0046300D02*
X0324528Y0046300D01*
X0325700Y0047472D01*
X0326128Y0047900D01*
X0327933Y0047900D01*
X0327700Y0047337D01*
X0327700Y0046328D01*
X0324500Y0043128D01*
X0324500Y0046063D01*
X0324263Y0046300D01*
X0324500Y0045817D02*
X0327188Y0045817D01*
X0327733Y0047415D02*
X0325644Y0047415D01*
X0334928Y0049500D02*
X0348769Y0049500D01*
X0348769Y0044700D01*
X0339728Y0044700D01*
X0334928Y0049500D01*
X0335415Y0049014D02*
X0348769Y0049014D01*
X0348769Y0047415D02*
X0337013Y0047415D01*
X0338612Y0045817D02*
X0348769Y0045817D01*
X0360630Y0045817D02*
X0362555Y0045817D01*
X0362872Y0045500D02*
X0373100Y0045500D01*
X0373100Y0044700D01*
X0360630Y0044700D01*
X0360630Y0047742D01*
X0362872Y0045500D01*
X0360956Y0047415D02*
X0360630Y0047415D01*
X0366225Y0049500D02*
X0366225Y0049500D01*
X0373100Y0049500D01*
X0373100Y0051672D01*
X0370928Y0049500D01*
X0366225Y0049500D01*
X0372041Y0050612D02*
X0373100Y0050612D01*
X0369581Y0053809D02*
X0365916Y0053809D01*
X0361484Y0053809D02*
X0324500Y0053809D01*
X0324255Y0055408D02*
X0371179Y0055408D01*
X0385100Y0054300D02*
X0385100Y0054300D01*
X0390072Y0054300D01*
X0390072Y0054300D01*
X0385100Y0054300D01*
X0385100Y0050300D02*
X0388472Y0050300D01*
X0387672Y0049500D01*
X0385100Y0049500D01*
X0385100Y0050300D01*
X0385100Y0045500D02*
X0389272Y0045500D01*
X0388472Y0044700D01*
X0387681Y0043909D01*
X0386737Y0044300D01*
X0385463Y0044300D01*
X0385100Y0044149D01*
X0385100Y0045500D01*
X0385100Y0044218D02*
X0385266Y0044218D01*
X0386934Y0044218D02*
X0387990Y0044218D01*
X0404013Y0048513D02*
X0404100Y0048302D01*
X0404187Y0048513D01*
X0405087Y0049413D01*
X0406263Y0049900D01*
X0407537Y0049900D01*
X0408469Y0049514D01*
X0408469Y0051100D01*
X0404528Y0051100D01*
X0402921Y0049492D01*
X0403113Y0049413D01*
X0404013Y0048513D01*
X0403512Y0049014D02*
X0404688Y0049014D01*
X0404041Y0050612D02*
X0408469Y0050612D01*
X0444800Y0044218D02*
X0445590Y0044218D01*
X0449648Y0042620D02*
X0461700Y0042620D01*
X0461700Y0044218D02*
X0451247Y0044218D01*
X0452845Y0045817D02*
X0461700Y0045817D01*
X0461700Y0047415D02*
X0454444Y0047415D01*
X0465700Y0044218D02*
X0472953Y0044218D01*
X0474552Y0042620D02*
X0465700Y0042620D01*
X0465700Y0041021D02*
X0476150Y0041021D01*
X0477749Y0039423D02*
X0465700Y0039423D01*
X0465700Y0037824D02*
X0479347Y0037824D01*
X0483406Y0039423D02*
X0519994Y0039423D01*
X0519300Y0037824D02*
X0485004Y0037824D01*
X0486603Y0036226D02*
X0519300Y0036226D01*
X0519300Y0034627D02*
X0488201Y0034627D01*
X0489800Y0033029D02*
X0519300Y0033029D01*
X0523300Y0032547D02*
X0523609Y0032419D01*
X0524954Y0032419D01*
X0526196Y0032934D01*
X0527147Y0033885D01*
X0527662Y0035127D01*
X0527662Y0036473D01*
X0527147Y0037715D01*
X0526677Y0038186D01*
X0526928Y0038437D01*
X0528100Y0039609D01*
X0528100Y0119268D01*
X0526928Y0120440D01*
X0520240Y0127128D01*
X0520240Y0127128D01*
X0519068Y0128300D01*
X0513932Y0128300D01*
X0512760Y0127128D01*
X0510369Y0124737D01*
X0509106Y0126000D01*
X0507415Y0126700D01*
X0505585Y0126700D01*
X0503894Y0126000D01*
X0502600Y0124706D01*
X0501900Y0123015D01*
X0501900Y0115185D01*
X0502600Y0113494D01*
X0503894Y0112200D01*
X0505585Y0111500D01*
X0507415Y0111500D01*
X0509106Y0112200D01*
X0510400Y0113494D01*
X0511100Y0115185D01*
X0511100Y0119811D01*
X0511900Y0120611D01*
X0511900Y0115185D01*
X0512600Y0113494D01*
X0513894Y0112200D01*
X0515585Y0111500D01*
X0517415Y0111500D01*
X0519106Y0112200D01*
X0519638Y0112733D01*
X0522500Y0109872D01*
X0522500Y0107400D01*
X0498100Y0107400D01*
X0498100Y0111784D01*
X0499106Y0112200D01*
X0500400Y0113494D01*
X0501100Y0115185D01*
X0501100Y0123015D01*
X0500400Y0124706D01*
X0499106Y0126000D01*
X0497415Y0126700D01*
X0495585Y0126700D01*
X0493894Y0126000D01*
X0492600Y0124706D01*
X0491900Y0123015D01*
X0491900Y0115185D01*
X0492600Y0113494D01*
X0493894Y0112200D01*
X0494100Y0112115D01*
X0494100Y0105428D01*
X0487772Y0099100D01*
X0482667Y0099100D01*
X0482900Y0099663D01*
X0482900Y0100937D01*
X0482413Y0102113D01*
X0481700Y0102825D01*
X0481700Y0107528D01*
X0477637Y0111592D01*
X0479106Y0112200D01*
X0480400Y0113494D01*
X0481100Y0115185D01*
X0481100Y0121672D01*
X0481900Y0120872D01*
X0481900Y0115185D01*
X0482600Y0113494D01*
X0483894Y0112200D01*
X0485585Y0111500D01*
X0487415Y0111500D01*
X0489106Y0112200D01*
X0490400Y0113494D01*
X0491100Y0115185D01*
X0491100Y0123015D01*
X0490400Y0124706D01*
X0489106Y0126000D01*
X0487415Y0126700D01*
X0485585Y0126700D01*
X0483894Y0126000D01*
X0483162Y0125267D01*
X0477506Y0130922D01*
X0547271Y0130922D01*
X0547271Y0004064D01*
X0511893Y0004064D01*
X0516580Y0008751D01*
X0517100Y0007494D01*
X0518394Y0006200D01*
X0520085Y0005500D01*
X0521915Y0005500D01*
X0523606Y0006200D01*
X0524900Y0007494D01*
X0525600Y0009185D01*
X0525600Y0017015D01*
X0524900Y0018706D01*
X0523606Y0020000D01*
X0523300Y0020126D01*
X0523300Y0032547D01*
X0523300Y0031430D02*
X0547271Y0031430D01*
X0547271Y0029832D02*
X0523300Y0029832D01*
X0523300Y0028233D02*
X0547271Y0028233D01*
X0547271Y0026634D02*
X0523300Y0026634D01*
X0523300Y0025036D02*
X0547271Y0025036D01*
X0547271Y0023437D02*
X0523300Y0023437D01*
X0523300Y0021839D02*
X0547271Y0021839D01*
X0547271Y0020240D02*
X0543024Y0020240D01*
X0543606Y0020000D02*
X0541915Y0020700D01*
X0540085Y0020700D01*
X0538394Y0020000D01*
X0537100Y0018706D01*
X0536400Y0017015D01*
X0536400Y0009185D01*
X0537100Y0007494D01*
X0538394Y0006200D01*
X0540085Y0005500D01*
X0541915Y0005500D01*
X0543606Y0006200D01*
X0544900Y0007494D01*
X0545600Y0009185D01*
X0545600Y0017015D01*
X0544900Y0018706D01*
X0543606Y0020000D01*
X0544926Y0018642D02*
X0547271Y0018642D01*
X0547271Y0017043D02*
X0545588Y0017043D01*
X0545600Y0015445D02*
X0547271Y0015445D01*
X0547271Y0013846D02*
X0545600Y0013846D01*
X0545600Y0012248D02*
X0547271Y0012248D01*
X0547271Y0010649D02*
X0545600Y0010649D01*
X0545544Y0009051D02*
X0547271Y0009051D01*
X0547271Y0007452D02*
X0544858Y0007452D01*
X0542769Y0005854D02*
X0547271Y0005854D01*
X0547271Y0004255D02*
X0512084Y0004255D01*
X0513682Y0005854D02*
X0519231Y0005854D01*
X0517142Y0007452D02*
X0515281Y0007452D01*
X0522769Y0005854D02*
X0529231Y0005854D01*
X0528394Y0006200D02*
X0530085Y0005500D01*
X0531915Y0005500D01*
X0533606Y0006200D01*
X0534900Y0007494D01*
X0535600Y0009185D01*
X0535600Y0017015D01*
X0534900Y0018706D01*
X0533606Y0020000D01*
X0531915Y0020700D01*
X0530085Y0020700D01*
X0528394Y0020000D01*
X0527100Y0018706D01*
X0526400Y0017015D01*
X0526400Y0009185D01*
X0527100Y0007494D01*
X0528394Y0006200D01*
X0527142Y0007452D02*
X0524858Y0007452D01*
X0525544Y0009051D02*
X0526456Y0009051D01*
X0526400Y0010649D02*
X0525600Y0010649D01*
X0525600Y0012248D02*
X0526400Y0012248D01*
X0526400Y0013846D02*
X0525600Y0013846D01*
X0525600Y0015445D02*
X0526400Y0015445D01*
X0526412Y0017043D02*
X0525588Y0017043D01*
X0524926Y0018642D02*
X0527074Y0018642D01*
X0528976Y0020240D02*
X0523300Y0020240D01*
X0517074Y0018642D02*
X0515300Y0018642D01*
X0515300Y0017043D02*
X0516412Y0017043D01*
X0516400Y0015445D02*
X0515300Y0015445D01*
X0515300Y0013846D02*
X0516018Y0013846D01*
X0511300Y0013846D02*
X0511100Y0013846D01*
X0511100Y0012248D02*
X0511300Y0012248D01*
X0502300Y0012248D02*
X0501100Y0012248D01*
X0501100Y0013846D02*
X0502300Y0013846D01*
X0502300Y0014872D02*
X0501100Y0016072D01*
X0501100Y0009425D01*
X0500468Y0007900D01*
X0502932Y0007900D01*
X0502300Y0009425D01*
X0502300Y0014872D01*
X0501727Y0015445D02*
X0501100Y0015445D01*
X0490525Y0013846D02*
X0489700Y0013846D01*
X0491386Y0018642D02*
X0493219Y0018642D01*
X0495681Y0020240D02*
X0489788Y0020240D01*
X0488189Y0021839D02*
X0495333Y0021839D01*
X0493734Y0023437D02*
X0440900Y0023437D01*
X0439327Y0015445D02*
X0439100Y0015445D01*
X0439100Y0013846D02*
X0439900Y0013846D01*
X0439900Y0012248D02*
X0439100Y0012248D01*
X0412731Y0005854D02*
X0409682Y0005854D01*
X0408084Y0004255D02*
X0450516Y0004255D01*
X0500945Y0009051D02*
X0502455Y0009051D01*
X0502300Y0010649D02*
X0501100Y0010649D01*
X0511100Y0015445D02*
X0511300Y0015445D01*
X0511300Y0017043D02*
X0510989Y0017043D01*
X0511300Y0018642D02*
X0510181Y0018642D01*
X0533024Y0020240D02*
X0538976Y0020240D01*
X0537074Y0018642D02*
X0534926Y0018642D01*
X0535588Y0017043D02*
X0536412Y0017043D01*
X0536400Y0015445D02*
X0535600Y0015445D01*
X0535600Y0013846D02*
X0536400Y0013846D01*
X0536400Y0012248D02*
X0535600Y0012248D01*
X0535600Y0010649D02*
X0536400Y0010649D01*
X0536456Y0009051D02*
X0535544Y0009051D01*
X0534858Y0007452D02*
X0537142Y0007452D01*
X0539231Y0005854D02*
X0532769Y0005854D01*
X0432800Y0031430D02*
X0408858Y0031430D01*
X0410457Y0033029D02*
X0432800Y0033029D01*
X0432800Y0034627D02*
X0412055Y0034627D01*
X0420330Y0036226D02*
X0432800Y0036226D01*
X0433161Y0037824D02*
X0420330Y0037824D01*
X0420330Y0039423D02*
X0440794Y0039423D01*
X0444852Y0037824D02*
X0461700Y0037824D01*
X0461700Y0039423D02*
X0446451Y0039423D01*
X0448050Y0041021D02*
X0461700Y0041021D01*
X0478610Y0044218D02*
X0495700Y0044218D01*
X0495700Y0042620D02*
X0480209Y0042620D01*
X0481807Y0041021D02*
X0495948Y0041021D01*
X0526928Y0038437D02*
X0526928Y0038437D01*
X0527039Y0037824D02*
X0547271Y0037824D01*
X0547271Y0039423D02*
X0527914Y0039423D01*
X0528100Y0041021D02*
X0547271Y0041021D01*
X0547271Y0042620D02*
X0528100Y0042620D01*
X0528100Y0044218D02*
X0547271Y0044218D01*
X0547271Y0045817D02*
X0528100Y0045817D01*
X0528100Y0047415D02*
X0547271Y0047415D01*
X0547271Y0049014D02*
X0528100Y0049014D01*
X0528100Y0050612D02*
X0547271Y0050612D01*
X0547271Y0052211D02*
X0528100Y0052211D01*
X0528100Y0053809D02*
X0547271Y0053809D01*
X0547271Y0055408D02*
X0528100Y0055408D01*
X0528100Y0057006D02*
X0547271Y0057006D01*
X0547271Y0058605D02*
X0528100Y0058605D01*
X0528100Y0060203D02*
X0547271Y0060203D01*
X0547271Y0061802D02*
X0528100Y0061802D01*
X0528100Y0063400D02*
X0547271Y0063400D01*
X0547271Y0064999D02*
X0528100Y0064999D01*
X0528100Y0066597D02*
X0547271Y0066597D01*
X0547271Y0068196D02*
X0528100Y0068196D01*
X0528100Y0069794D02*
X0547271Y0069794D01*
X0547271Y0071393D02*
X0528100Y0071393D01*
X0528100Y0072991D02*
X0547271Y0072991D01*
X0547271Y0074590D02*
X0528100Y0074590D01*
X0528100Y0076188D02*
X0547271Y0076188D01*
X0547271Y0077787D02*
X0528100Y0077787D01*
X0528100Y0079385D02*
X0547271Y0079385D01*
X0547271Y0080984D02*
X0528100Y0080984D01*
X0528100Y0082582D02*
X0547271Y0082582D01*
X0547271Y0084181D02*
X0528100Y0084181D01*
X0528100Y0085779D02*
X0547271Y0085779D01*
X0547271Y0087378D02*
X0528100Y0087378D01*
X0528100Y0088976D02*
X0547271Y0088976D01*
X0547271Y0090575D02*
X0528100Y0090575D01*
X0528100Y0092173D02*
X0547271Y0092173D01*
X0547271Y0093772D02*
X0528100Y0093772D01*
X0528100Y0095370D02*
X0547271Y0095370D01*
X0547271Y0096969D02*
X0528100Y0096969D01*
X0528100Y0098568D02*
X0547271Y0098568D01*
X0547271Y0100166D02*
X0528100Y0100166D01*
X0528100Y0101765D02*
X0547271Y0101765D01*
X0547271Y0103363D02*
X0528100Y0103363D01*
X0528100Y0104962D02*
X0547271Y0104962D01*
X0547271Y0106560D02*
X0528100Y0106560D01*
X0528100Y0108159D02*
X0547271Y0108159D01*
X0547271Y0109757D02*
X0528100Y0109757D01*
X0528100Y0111356D02*
X0547271Y0111356D01*
X0547271Y0112954D02*
X0543377Y0112954D01*
X0544209Y0113299D02*
X0541738Y0112275D01*
X0539062Y0112275D01*
X0536591Y0113299D01*
X0534699Y0115191D01*
X0533675Y0117662D01*
X0533675Y0120338D01*
X0534699Y0122809D01*
X0536591Y0124701D01*
X0539062Y0125725D01*
X0541738Y0125725D01*
X0544209Y0124701D01*
X0544580Y0124330D01*
X0544633Y0124305D01*
X0544633Y0124305D01*
X0544742Y0124169D01*
X0546101Y0122809D01*
X0546399Y0122091D01*
X0546504Y0121959D01*
X0546504Y0121959D01*
X0546566Y0121688D01*
X0547125Y0120338D01*
X0547125Y0119237D01*
X0547171Y0119035D01*
X0547125Y0118832D01*
X0547125Y0117662D01*
X0546530Y0116227D01*
X0546504Y0116110D01*
X0546504Y0116110D01*
X0546458Y0116053D01*
X0546101Y0115191D01*
X0544209Y0113299D01*
X0545463Y0114553D02*
X0547271Y0114553D01*
X0547271Y0116151D02*
X0546513Y0116151D01*
X0547125Y0117750D02*
X0547271Y0117750D01*
X0547271Y0119348D02*
X0547125Y0119348D01*
X0547271Y0120947D02*
X0546873Y0120947D01*
X0547271Y0122545D02*
X0546211Y0122545D01*
X0547271Y0124144D02*
X0544767Y0124144D01*
X0547271Y0125742D02*
X0521626Y0125742D01*
X0523224Y0124144D02*
X0536033Y0124144D01*
X0534589Y0122545D02*
X0524823Y0122545D01*
X0526421Y0120947D02*
X0533927Y0120947D01*
X0533675Y0119348D02*
X0528020Y0119348D01*
X0528100Y0117750D02*
X0533675Y0117750D01*
X0534301Y0116151D02*
X0528100Y0116151D01*
X0528100Y0114553D02*
X0535337Y0114553D01*
X0537423Y0112954D02*
X0528100Y0112954D01*
X0524100Y0113928D02*
X0521100Y0116928D01*
X0521100Y0120611D01*
X0524100Y0117611D01*
X0524100Y0113928D01*
X0524100Y0114553D02*
X0523476Y0114553D01*
X0524100Y0116151D02*
X0521877Y0116151D01*
X0521100Y0117750D02*
X0523962Y0117750D01*
X0522363Y0119348D02*
X0521100Y0119348D01*
X0511900Y0119348D02*
X0511100Y0119348D01*
X0511100Y0117750D02*
X0511900Y0117750D01*
X0511900Y0116151D02*
X0511100Y0116151D01*
X0510838Y0114553D02*
X0512162Y0114553D01*
X0502162Y0114553D02*
X0500838Y0114553D01*
X0501100Y0116151D02*
X0501900Y0116151D01*
X0501900Y0117750D02*
X0501100Y0117750D01*
X0501100Y0119348D02*
X0501900Y0119348D01*
X0501900Y0120947D02*
X0501100Y0120947D01*
X0491900Y0120947D02*
X0491100Y0120947D01*
X0491100Y0119348D02*
X0491900Y0119348D01*
X0491900Y0117750D02*
X0491100Y0117750D01*
X0491100Y0116151D02*
X0491900Y0116151D01*
X0492162Y0114553D02*
X0490838Y0114553D01*
X0489859Y0112954D02*
X0493141Y0112954D01*
X0494100Y0111356D02*
X0477873Y0111356D01*
X0479471Y0109757D02*
X0494100Y0109757D01*
X0494100Y0108159D02*
X0481070Y0108159D01*
X0481700Y0106560D02*
X0494100Y0106560D01*
X0498100Y0108159D02*
X0522500Y0108159D01*
X0522500Y0109757D02*
X0498100Y0109757D01*
X0498100Y0111356D02*
X0521016Y0111356D01*
X0513141Y0112954D02*
X0509859Y0112954D01*
X0503141Y0112954D02*
X0499859Y0112954D01*
X0483141Y0112954D02*
X0479859Y0112954D01*
X0480838Y0114553D02*
X0482162Y0114553D01*
X0481900Y0116151D02*
X0481100Y0116151D01*
X0481100Y0117750D02*
X0481900Y0117750D01*
X0481900Y0119348D02*
X0481100Y0119348D01*
X0481100Y0120947D02*
X0481825Y0120947D01*
X0491100Y0122545D02*
X0491900Y0122545D01*
X0492368Y0124144D02*
X0490632Y0124144D01*
X0489363Y0125742D02*
X0493637Y0125742D01*
X0499363Y0125742D02*
X0503637Y0125742D01*
X0502368Y0124144D02*
X0500632Y0124144D01*
X0501100Y0122545D02*
X0501900Y0122545D01*
X0509363Y0125742D02*
X0511374Y0125742D01*
X0512760Y0127128D02*
X0512760Y0127128D01*
X0512973Y0127341D02*
X0481088Y0127341D01*
X0482686Y0125742D02*
X0483637Y0125742D01*
X0476072Y0126700D02*
X0475585Y0126700D01*
X0474272Y0126156D01*
X0472528Y0127900D01*
X0474872Y0127900D01*
X0476072Y0126700D01*
X0475431Y0127341D02*
X0473088Y0127341D01*
X0477891Y0130538D02*
X0547271Y0130538D01*
X0547271Y0128939D02*
X0479489Y0128939D01*
X0460472Y0127900D02*
X0458728Y0126156D01*
X0457637Y0126608D01*
X0458928Y0127900D01*
X0460472Y0127900D01*
X0459912Y0127341D02*
X0458369Y0127341D01*
X0454311Y0128939D02*
X0399489Y0128939D01*
X0401088Y0127341D02*
X0452712Y0127341D01*
X0451114Y0125742D02*
X0449363Y0125742D01*
X0449106Y0126000D02*
X0447415Y0126700D01*
X0445585Y0126700D01*
X0443894Y0126000D01*
X0442600Y0124706D01*
X0441900Y0123015D01*
X0441900Y0115185D01*
X0442600Y0113494D01*
X0443894Y0112200D01*
X0444619Y0111900D01*
X0438381Y0111900D01*
X0439106Y0112200D01*
X0440400Y0113494D01*
X0441100Y0115185D01*
X0441100Y0123015D01*
X0440400Y0124706D01*
X0439106Y0126000D01*
X0437415Y0126700D01*
X0435585Y0126700D01*
X0433894Y0126000D01*
X0432600Y0124706D01*
X0431900Y0123015D01*
X0431900Y0115185D01*
X0432600Y0113494D01*
X0433894Y0112200D01*
X0434619Y0111900D01*
X0432625Y0111900D01*
X0431913Y0112613D01*
X0430737Y0113100D01*
X0430005Y0113100D01*
X0430400Y0113494D01*
X0431100Y0115185D01*
X0431100Y0123015D01*
X0430400Y0124706D01*
X0429106Y0126000D01*
X0427415Y0126700D01*
X0425585Y0126700D01*
X0423894Y0126000D01*
X0422600Y0124706D01*
X0421900Y0123015D01*
X0421900Y0115185D01*
X0422600Y0113494D01*
X0423894Y0112200D01*
X0425585Y0111500D01*
X0427299Y0111500D01*
X0426900Y0110537D01*
X0426900Y0109263D01*
X0427387Y0108087D01*
X0428287Y0107187D01*
X0429463Y0106700D01*
X0430737Y0106700D01*
X0431913Y0107187D01*
X0432625Y0107900D01*
X0447728Y0107900D01*
X0452528Y0112700D01*
X0452962Y0113133D01*
X0453894Y0112200D01*
X0455585Y0111500D01*
X0457415Y0111500D01*
X0459106Y0112200D01*
X0459300Y0112395D01*
X0459300Y0101928D01*
X0459292Y0101921D01*
X0459213Y0102113D01*
X0458313Y0103013D01*
X0457137Y0103500D01*
X0455863Y0103500D01*
X0454687Y0103013D01*
X0453975Y0102300D01*
X0443300Y0102300D01*
X0443300Y0103563D01*
X0442363Y0104500D01*
X0432237Y0104500D01*
X0431300Y0103563D01*
X0431300Y0097437D01*
X0432237Y0096500D01*
X0442363Y0096500D01*
X0443300Y0097437D01*
X0443300Y0098300D01*
X0453975Y0098300D01*
X0454687Y0097587D01*
X0454879Y0097508D01*
X0446872Y0089500D01*
X0443300Y0089500D01*
X0443300Y0094463D01*
X0442363Y0095400D01*
X0432237Y0095400D01*
X0431300Y0094463D01*
X0431300Y0093500D01*
X0418830Y0093500D01*
X0418830Y0099149D01*
X0417893Y0100087D01*
X0407906Y0100087D01*
X0406969Y0099149D01*
X0406969Y0093500D01*
X0405328Y0093500D01*
X0387328Y0111500D01*
X0387415Y0111500D01*
X0389106Y0112200D01*
X0390400Y0113494D01*
X0391100Y0115185D01*
X0391100Y0121672D01*
X0391900Y0120872D01*
X0391900Y0115185D01*
X0392600Y0113494D01*
X0393894Y0112200D01*
X0395585Y0111500D01*
X0397415Y0111500D01*
X0399106Y0112200D01*
X0400400Y0113494D01*
X0401100Y0115185D01*
X0401100Y0121672D01*
X0401900Y0120872D01*
X0401900Y0115185D01*
X0402600Y0113494D01*
X0403894Y0112200D01*
X0405585Y0111500D01*
X0407415Y0111500D01*
X0409106Y0112200D01*
X0410400Y0113494D01*
X0411100Y0115185D01*
X0411100Y0123015D01*
X0410400Y0124706D01*
X0409106Y0126000D01*
X0407415Y0126700D01*
X0405585Y0126700D01*
X0403894Y0126000D01*
X0403162Y0125267D01*
X0397506Y0130922D01*
X0456294Y0130922D01*
X0456100Y0130728D01*
X0450238Y0124867D01*
X0449106Y0126000D01*
X0443637Y0125742D02*
X0439363Y0125742D01*
X0440632Y0124144D02*
X0442368Y0124144D01*
X0441900Y0122545D02*
X0441100Y0122545D01*
X0441100Y0120947D02*
X0441900Y0120947D01*
X0441900Y0119348D02*
X0441100Y0119348D01*
X0441100Y0117750D02*
X0441900Y0117750D01*
X0441900Y0116151D02*
X0441100Y0116151D01*
X0440838Y0114553D02*
X0442162Y0114553D01*
X0443141Y0112954D02*
X0439859Y0112954D01*
X0433141Y0112954D02*
X0431089Y0112954D01*
X0427239Y0111356D02*
X0387473Y0111356D01*
X0389071Y0109757D02*
X0426900Y0109757D01*
X0427358Y0108159D02*
X0390670Y0108159D01*
X0392268Y0106560D02*
X0459300Y0106560D01*
X0459300Y0108159D02*
X0447987Y0108159D01*
X0449586Y0109757D02*
X0459300Y0109757D01*
X0459300Y0111356D02*
X0451184Y0111356D01*
X0452783Y0112954D02*
X0453141Y0112954D01*
X0463300Y0112795D02*
X0463894Y0112200D01*
X0464100Y0112115D01*
X0464100Y0104328D01*
X0463300Y0103528D01*
X0463300Y0112795D01*
X0463300Y0111356D02*
X0464100Y0111356D01*
X0464100Y0109757D02*
X0463300Y0109757D01*
X0463300Y0108159D02*
X0464100Y0108159D01*
X0464100Y0106560D02*
X0463300Y0106560D01*
X0468100Y0106560D02*
X0477012Y0106560D01*
X0475413Y0108159D02*
X0468100Y0108159D01*
X0468100Y0109757D02*
X0473814Y0109757D01*
X0472216Y0111356D02*
X0468100Y0111356D01*
X0469859Y0112954D02*
X0470617Y0112954D01*
X0468100Y0104962D02*
X0477700Y0104962D01*
X0477700Y0103363D02*
X0468100Y0103363D01*
X0467193Y0101765D02*
X0476843Y0101765D01*
X0476500Y0100166D02*
X0465594Y0100166D01*
X0463996Y0098568D02*
X0471139Y0098568D01*
X0469541Y0096969D02*
X0462397Y0096969D01*
X0454341Y0096969D02*
X0442832Y0096969D01*
X0442392Y0095370D02*
X0452742Y0095370D01*
X0451144Y0093772D02*
X0443300Y0093772D01*
X0443300Y0092173D02*
X0449545Y0092173D01*
X0447947Y0090575D02*
X0443300Y0090575D01*
X0454405Y0088976D02*
X0461548Y0088976D01*
X0463147Y0090575D02*
X0456003Y0090575D01*
X0457602Y0092173D02*
X0464745Y0092173D01*
X0466344Y0093772D02*
X0459200Y0093772D01*
X0460799Y0095370D02*
X0467942Y0095370D01*
X0472000Y0093772D02*
X0495700Y0093772D01*
X0495700Y0095370D02*
X0489699Y0095370D01*
X0490600Y0096272D02*
X0490600Y0096272D01*
X0491297Y0096969D02*
X0495700Y0096969D01*
X0495700Y0098568D02*
X0492896Y0098568D01*
X0494494Y0100166D02*
X0495700Y0100166D01*
X0490436Y0101765D02*
X0482557Y0101765D01*
X0482900Y0100166D02*
X0488838Y0100166D01*
X0492035Y0103363D02*
X0481700Y0103363D01*
X0481700Y0104962D02*
X0493633Y0104962D01*
X0464100Y0104962D02*
X0463300Y0104962D01*
X0459300Y0104962D02*
X0393867Y0104962D01*
X0395465Y0103363D02*
X0431300Y0103363D01*
X0431300Y0101765D02*
X0397064Y0101765D01*
X0398662Y0100166D02*
X0431300Y0100166D01*
X0431300Y0098568D02*
X0418830Y0098568D01*
X0418830Y0096969D02*
X0431768Y0096969D01*
X0432208Y0095370D02*
X0418830Y0095370D01*
X0418830Y0093772D02*
X0431300Y0093772D01*
X0431300Y0089500D02*
X0418830Y0089500D01*
X0418830Y0086258D01*
X0422072Y0089500D01*
X0431300Y0089500D01*
X0431300Y0089500D01*
X0421548Y0088976D02*
X0418830Y0088976D01*
X0418830Y0087378D02*
X0419950Y0087378D01*
X0406969Y0087378D02*
X0393850Y0087378D01*
X0395449Y0085779D02*
X0406969Y0085779D01*
X0392989Y0082582D02*
X0385611Y0082582D01*
X0385000Y0080984D02*
X0394588Y0080984D01*
X0391391Y0084181D02*
X0387209Y0084181D01*
X0387300Y0085779D02*
X0389792Y0085779D01*
X0388194Y0087378D02*
X0387300Y0087378D01*
X0392252Y0088976D02*
X0406969Y0088976D01*
X0402597Y0090575D02*
X0390653Y0090575D01*
X0389055Y0092173D02*
X0400998Y0092173D01*
X0399400Y0093772D02*
X0387456Y0093772D01*
X0385858Y0095370D02*
X0397801Y0095370D01*
X0403458Y0095370D02*
X0406969Y0095370D01*
X0406969Y0093772D02*
X0405056Y0093772D01*
X0406969Y0096969D02*
X0401859Y0096969D01*
X0400261Y0098568D02*
X0406969Y0098568D01*
X0396203Y0096969D02*
X0385000Y0096969D01*
X0385000Y0098568D02*
X0394604Y0098568D01*
X0393006Y0100166D02*
X0385000Y0100166D01*
X0380596Y0101765D02*
X0391407Y0101765D01*
X0389809Y0103363D02*
X0381991Y0103363D01*
X0385543Y0104962D02*
X0388210Y0104962D01*
X0386612Y0106560D02*
X0386181Y0106560D01*
X0382127Y0110381D02*
X0380885Y0109866D01*
X0379934Y0108915D01*
X0379419Y0107673D01*
X0379419Y0106447D01*
X0378472Y0105500D01*
X0374225Y0105500D01*
X0374413Y0105687D01*
X0374900Y0106863D01*
X0374900Y0108137D01*
X0374413Y0109313D01*
X0373700Y0110025D01*
X0373700Y0112395D01*
X0373894Y0112200D01*
X0375585Y0111500D01*
X0377415Y0111500D01*
X0379106Y0112200D01*
X0380038Y0113133D01*
X0380472Y0112700D01*
X0382790Y0110381D01*
X0382127Y0110381D01*
X0381816Y0111356D02*
X0373700Y0111356D01*
X0373968Y0109757D02*
X0380775Y0109757D01*
X0379620Y0108159D02*
X0374891Y0108159D01*
X0374774Y0106560D02*
X0379419Y0106560D01*
X0369175Y0105500D02*
X0352382Y0105500D01*
X0351515Y0106366D01*
X0350273Y0106881D01*
X0349869Y0106881D01*
X0360088Y0117100D01*
X0361900Y0117100D01*
X0361900Y0115185D01*
X0362600Y0113494D01*
X0363894Y0112200D01*
X0365585Y0111500D01*
X0367415Y0111500D01*
X0369106Y0112200D01*
X0369700Y0112795D01*
X0369700Y0110025D01*
X0368987Y0109313D01*
X0368500Y0108137D01*
X0368500Y0106863D01*
X0368987Y0105687D01*
X0369175Y0105500D01*
X0368626Y0106560D02*
X0351048Y0106560D01*
X0351147Y0108159D02*
X0368509Y0108159D01*
X0369432Y0109757D02*
X0352745Y0109757D01*
X0354344Y0111356D02*
X0369700Y0111356D01*
X0379859Y0112954D02*
X0380217Y0112954D01*
X0389859Y0112954D02*
X0393141Y0112954D01*
X0399859Y0112954D02*
X0403141Y0112954D01*
X0409859Y0112954D02*
X0413141Y0112954D01*
X0412600Y0113494D02*
X0413894Y0112200D01*
X0415585Y0111500D01*
X0417415Y0111500D01*
X0419106Y0112200D01*
X0420400Y0113494D01*
X0421100Y0115185D01*
X0421100Y0123015D01*
X0420400Y0124706D01*
X0419106Y0126000D01*
X0417415Y0126700D01*
X0415585Y0126700D01*
X0413894Y0126000D01*
X0412600Y0124706D01*
X0411900Y0123015D01*
X0411900Y0115185D01*
X0412600Y0113494D01*
X0412162Y0114553D02*
X0410838Y0114553D01*
X0411100Y0116151D02*
X0411900Y0116151D01*
X0411900Y0117750D02*
X0411100Y0117750D01*
X0411100Y0119348D02*
X0411900Y0119348D01*
X0411900Y0120947D02*
X0411100Y0120947D01*
X0411100Y0122545D02*
X0411900Y0122545D01*
X0412368Y0124144D02*
X0410632Y0124144D01*
X0409363Y0125742D02*
X0413637Y0125742D01*
X0419363Y0125742D02*
X0423637Y0125742D01*
X0422368Y0124144D02*
X0420632Y0124144D01*
X0421100Y0122545D02*
X0421900Y0122545D01*
X0421900Y0120947D02*
X0421100Y0120947D01*
X0421100Y0119348D02*
X0421900Y0119348D01*
X0421900Y0117750D02*
X0421100Y0117750D01*
X0421100Y0116151D02*
X0421900Y0116151D01*
X0422162Y0114553D02*
X0420838Y0114553D01*
X0419859Y0112954D02*
X0423141Y0112954D01*
X0430838Y0114553D02*
X0432162Y0114553D01*
X0431900Y0116151D02*
X0431100Y0116151D01*
X0431100Y0117750D02*
X0431900Y0117750D01*
X0431900Y0119348D02*
X0431100Y0119348D01*
X0431100Y0120947D02*
X0431900Y0120947D01*
X0431900Y0122545D02*
X0431100Y0122545D01*
X0430632Y0124144D02*
X0432368Y0124144D01*
X0433637Y0125742D02*
X0429363Y0125742D01*
X0403637Y0125742D02*
X0402686Y0125742D01*
X0396072Y0126700D02*
X0394872Y0127900D01*
X0390528Y0127900D01*
X0390800Y0127628D01*
X0393162Y0125267D01*
X0393894Y0126000D01*
X0395585Y0126700D01*
X0396072Y0126700D01*
X0395431Y0127341D02*
X0391088Y0127341D01*
X0392686Y0125742D02*
X0393637Y0125742D01*
X0397891Y0130538D02*
X0455909Y0130538D01*
X0401825Y0120947D02*
X0401100Y0120947D01*
X0401100Y0119348D02*
X0401900Y0119348D01*
X0401900Y0117750D02*
X0401100Y0117750D01*
X0401100Y0116151D02*
X0401900Y0116151D01*
X0402162Y0114553D02*
X0400838Y0114553D01*
X0392162Y0114553D02*
X0390838Y0114553D01*
X0391100Y0116151D02*
X0391900Y0116151D01*
X0391900Y0117750D02*
X0391100Y0117750D01*
X0391100Y0119348D02*
X0391900Y0119348D01*
X0391825Y0120947D02*
X0391100Y0120947D01*
X0373894Y0126000D02*
X0372962Y0125067D01*
X0372528Y0125500D01*
X0371728Y0126300D01*
X0374619Y0126300D01*
X0373894Y0126000D01*
X0373637Y0125742D02*
X0372286Y0125742D01*
X0361272Y0126300D02*
X0353250Y0118278D01*
X0353250Y0121723D01*
X0349823Y0125150D01*
X0344977Y0125150D01*
X0341550Y0121723D01*
X0341550Y0116877D01*
X0344977Y0113450D01*
X0348422Y0113450D01*
X0345148Y0110176D01*
X0344966Y0110615D01*
X0344015Y0111566D01*
X0342773Y0112081D01*
X0341427Y0112081D01*
X0340185Y0111566D01*
X0339318Y0110700D01*
X0335828Y0110700D01*
X0335728Y0110800D01*
X0335528Y0110800D01*
X0334928Y0111400D01*
X0325688Y0111400D01*
X0333918Y0119630D01*
X0334427Y0119419D01*
X0335773Y0119419D01*
X0337015Y0119934D01*
X0337966Y0120885D01*
X0338481Y0122127D01*
X0338481Y0123473D01*
X0337966Y0124715D01*
X0337015Y0125666D01*
X0335773Y0126181D01*
X0334427Y0126181D01*
X0333185Y0125666D01*
X0332234Y0124715D01*
X0331719Y0123473D01*
X0331719Y0123087D01*
X0325581Y0116949D01*
X0325513Y0117113D01*
X0324613Y0118013D01*
X0323437Y0118500D01*
X0322163Y0118500D01*
X0320987Y0118013D01*
X0320275Y0117300D01*
X0314602Y0117300D01*
X0315300Y0118985D01*
X0315300Y0125072D01*
X0318072Y0122300D01*
X0327728Y0122300D01*
X0328900Y0123472D01*
X0331728Y0126300D01*
X0361272Y0126300D01*
X0360714Y0125742D02*
X0336832Y0125742D01*
X0338203Y0124144D02*
X0343971Y0124144D01*
X0342372Y0122545D02*
X0338481Y0122545D01*
X0331997Y0124144D02*
X0329572Y0124144D01*
X0328900Y0123472D02*
X0328900Y0123472D01*
X0327974Y0122545D02*
X0331177Y0122545D01*
X0329578Y0120947D02*
X0315300Y0120947D01*
X0315300Y0119348D02*
X0327980Y0119348D01*
X0326381Y0117750D02*
X0324876Y0117750D01*
X0320724Y0117750D02*
X0314788Y0117750D01*
X0306798Y0117300D02*
X0304602Y0117300D01*
X0305300Y0118985D01*
X0305300Y0126815D01*
X0304600Y0128506D01*
X0304405Y0128700D01*
X0306995Y0128700D01*
X0306800Y0128506D01*
X0306100Y0126815D01*
X0306100Y0118985D01*
X0306798Y0117300D01*
X0306612Y0117750D02*
X0304788Y0117750D01*
X0305300Y0119348D02*
X0306100Y0119348D01*
X0306100Y0120947D02*
X0305300Y0120947D01*
X0305300Y0122545D02*
X0306100Y0122545D01*
X0306100Y0124144D02*
X0305300Y0124144D01*
X0305300Y0125742D02*
X0306100Y0125742D01*
X0306318Y0127341D02*
X0305082Y0127341D01*
X0296995Y0128700D02*
X0296800Y0128506D01*
X0296100Y0126815D01*
X0296100Y0118985D01*
X0296798Y0117300D01*
X0295128Y0117300D01*
X0291151Y0121278D01*
X0291450Y0121577D01*
X0291450Y0126423D01*
X0289173Y0128700D01*
X0296995Y0128700D01*
X0296318Y0127341D02*
X0290532Y0127341D01*
X0291450Y0125742D02*
X0296100Y0125742D01*
X0296100Y0124144D02*
X0291450Y0124144D01*
X0291450Y0122545D02*
X0296100Y0122545D01*
X0296100Y0120947D02*
X0291482Y0120947D01*
X0293080Y0119348D02*
X0296100Y0119348D01*
X0296612Y0117750D02*
X0294679Y0117750D01*
X0292219Y0114553D02*
X0271981Y0114553D01*
X0266324Y0114553D02*
X0263781Y0114553D01*
X0256526Y0112954D02*
X0252783Y0112954D01*
X0251184Y0111356D02*
X0254927Y0111356D01*
X0253329Y0109757D02*
X0249585Y0109757D01*
X0247987Y0108159D02*
X0251730Y0108159D01*
X0250132Y0106560D02*
X0249322Y0106560D01*
X0240479Y0106308D02*
X0237272Y0103100D01*
X0211647Y0103100D01*
X0211647Y0103688D01*
X0210735Y0104600D01*
X0211647Y0105512D01*
X0211647Y0107100D01*
X0239575Y0107100D01*
X0240287Y0106387D01*
X0240479Y0106308D01*
X0240114Y0106560D02*
X0211647Y0106560D01*
X0211097Y0104962D02*
X0239133Y0104962D01*
X0237535Y0103363D02*
X0211647Y0103363D01*
X0188729Y0109757D02*
X0185071Y0109757D01*
X0186670Y0108159D02*
X0187130Y0108159D01*
X0182612Y0106560D02*
X0160268Y0106560D01*
X0159300Y0108159D02*
X0181013Y0108159D01*
X0179414Y0109757D02*
X0157871Y0109757D01*
X0157250Y0111356D02*
X0177816Y0111356D01*
X0176217Y0112954D02*
X0157250Y0112954D01*
X0143300Y0112954D02*
X0139474Y0112954D01*
X0140100Y0111356D02*
X0143300Y0111356D01*
X0143300Y0109757D02*
X0140100Y0109757D01*
X0140100Y0108159D02*
X0143413Y0108159D01*
X0145012Y0106560D02*
X0140100Y0106560D01*
X0140100Y0104962D02*
X0145350Y0104962D01*
X0123063Y0097900D02*
X0121887Y0098387D01*
X0120987Y0099287D01*
X0120908Y0099479D01*
X0115728Y0094300D01*
X0124750Y0094300D01*
X0124750Y0097963D01*
X0124935Y0098148D01*
X0124337Y0097900D01*
X0123063Y0097900D01*
X0121707Y0098568D02*
X0119996Y0098568D01*
X0118397Y0096969D02*
X0124750Y0096969D01*
X0124750Y0095370D02*
X0116799Y0095370D01*
X0112741Y0096969D02*
X0111009Y0096969D01*
X0111009Y0098568D02*
X0114339Y0098568D01*
X0098600Y0093772D02*
X0075200Y0093772D01*
X0073602Y0092173D02*
X0100198Y0092173D01*
X0100354Y0090800D02*
X0098246Y0090800D01*
X0096298Y0089993D01*
X0094807Y0088502D01*
X0094000Y0086554D01*
X0094000Y0084446D01*
X0094807Y0082498D01*
X0096298Y0081007D01*
X0098246Y0080200D01*
X0100354Y0080200D01*
X0102302Y0081007D01*
X0103793Y0082498D01*
X0104600Y0084446D01*
X0104600Y0086554D01*
X0103793Y0088502D01*
X0102302Y0089993D01*
X0100354Y0090800D01*
X0100898Y0090575D02*
X0101797Y0090575D01*
X0103319Y0088976D02*
X0110348Y0088976D01*
X0108750Y0087378D02*
X0104259Y0087378D01*
X0104600Y0085779D02*
X0108100Y0085779D01*
X0108100Y0084181D02*
X0104490Y0084181D01*
X0103828Y0082582D02*
X0108100Y0082582D01*
X0108100Y0080984D02*
X0102247Y0080984D01*
X0096353Y0080984D02*
X0076647Y0080984D01*
X0076702Y0081007D02*
X0078193Y0082498D01*
X0079000Y0084446D01*
X0079000Y0086554D01*
X0078193Y0088502D01*
X0076702Y0089993D01*
X0074754Y0090800D01*
X0072646Y0090800D01*
X0070698Y0089993D01*
X0069207Y0088502D01*
X0068400Y0086554D01*
X0068400Y0084446D01*
X0069207Y0082498D01*
X0070698Y0081007D01*
X0072646Y0080200D01*
X0074754Y0080200D01*
X0076702Y0081007D01*
X0078228Y0082582D02*
X0094772Y0082582D01*
X0094110Y0084181D02*
X0078890Y0084181D01*
X0079000Y0085779D02*
X0094000Y0085779D01*
X0094341Y0087378D02*
X0078659Y0087378D01*
X0077719Y0088976D02*
X0095281Y0088976D01*
X0097702Y0090575D02*
X0075298Y0090575D01*
X0072102Y0090575D02*
X0059480Y0090575D01*
X0069681Y0088976D02*
X0044319Y0088976D01*
X0046520Y0090575D02*
X0041898Y0090575D01*
X0038702Y0090575D02*
X0028900Y0090575D01*
X0028900Y0088976D02*
X0036281Y0088976D01*
X0035341Y0087378D02*
X0028900Y0087378D01*
X0028900Y0085779D02*
X0035000Y0085779D01*
X0035110Y0084181D02*
X0028900Y0084181D01*
X0028900Y0082582D02*
X0035772Y0082582D01*
X0037353Y0080984D02*
X0028900Y0080984D01*
X0024900Y0080984D02*
X0017647Y0080984D01*
X0019228Y0082582D02*
X0024900Y0082582D01*
X0024900Y0084181D02*
X0019890Y0084181D01*
X0020000Y0085779D02*
X0024900Y0085779D01*
X0024900Y0087378D02*
X0019659Y0087378D01*
X0018719Y0088976D02*
X0024900Y0088976D01*
X0045259Y0087378D02*
X0047273Y0087378D01*
X0045924Y0085779D02*
X0045600Y0085779D01*
X0045400Y0083963D02*
X0045126Y0083302D01*
X0045400Y0083028D01*
X0045400Y0083963D01*
X0058727Y0087378D02*
X0068741Y0087378D01*
X0068400Y0085779D02*
X0060076Y0085779D01*
X0060600Y0084181D02*
X0068510Y0084181D01*
X0069172Y0082582D02*
X0060557Y0082582D01*
X0059889Y0080984D02*
X0070753Y0080984D01*
X0047861Y0076188D02*
X0047300Y0076188D01*
X0055191Y0074590D02*
X0060809Y0074590D01*
X0060809Y0072991D02*
X0055191Y0072991D01*
X0055191Y0071393D02*
X0060809Y0071393D01*
X0069009Y0071100D02*
X0069605Y0071100D01*
X0069207Y0070702D01*
X0069009Y0070226D01*
X0069009Y0071100D01*
X0060809Y0069794D02*
X0055191Y0069794D01*
X0055191Y0068196D02*
X0060809Y0068196D01*
X0060809Y0066597D02*
X0055191Y0066597D01*
X0054307Y0064999D02*
X0061693Y0064999D01*
X0068126Y0064999D02*
X0069082Y0064999D01*
X0070504Y0063400D02*
X0047300Y0063400D01*
X0047300Y0064999D02*
X0047874Y0064999D01*
X0037700Y0063040D02*
X0037700Y0057128D01*
X0035350Y0054778D01*
X0035350Y0057023D01*
X0031923Y0060450D01*
X0028278Y0060450D01*
X0035000Y0067172D01*
X0035000Y0066646D01*
X0035807Y0064698D01*
X0037298Y0063207D01*
X0037700Y0063040D01*
X0037104Y0063400D02*
X0031229Y0063400D01*
X0032827Y0064999D02*
X0035682Y0064999D01*
X0035020Y0066597D02*
X0034426Y0066597D01*
X0021566Y0069794D02*
X0019569Y0069794D01*
X0018502Y0071393D02*
X0023164Y0071393D01*
X0024763Y0072991D02*
X0015775Y0072991D01*
X0016100Y0061802D02*
X0003666Y0061802D01*
X0003666Y0060203D02*
X0014830Y0060203D01*
X0013232Y0058605D02*
X0003666Y0058605D01*
X0003666Y0057006D02*
X0011650Y0057006D01*
X0011650Y0055408D02*
X0003666Y0055408D01*
X0003666Y0053809D02*
X0011650Y0053809D01*
X0011650Y0052211D02*
X0003666Y0052211D01*
X0020170Y0060203D02*
X0022375Y0060203D01*
X0023973Y0061802D02*
X0020100Y0061802D01*
X0029630Y0061802D02*
X0037700Y0061802D01*
X0037700Y0060203D02*
X0032170Y0060203D01*
X0033768Y0058605D02*
X0037700Y0058605D01*
X0037578Y0057006D02*
X0035350Y0057006D01*
X0035350Y0055408D02*
X0035979Y0055408D01*
X0041636Y0055408D02*
X0046564Y0055408D01*
X0044965Y0057006D02*
X0041700Y0057006D01*
X0041700Y0058605D02*
X0043367Y0058605D01*
X0043300Y0060203D02*
X0041700Y0060203D01*
X0041700Y0061802D02*
X0043300Y0061802D01*
X0047300Y0061802D02*
X0049959Y0061802D01*
X0049431Y0060203D02*
X0047425Y0060203D01*
X0049024Y0058605D02*
X0049431Y0058605D01*
X0056041Y0061802D02*
X0060459Y0061802D01*
X0066541Y0061802D02*
X0079931Y0061802D01*
X0079931Y0060203D02*
X0067068Y0060203D01*
X0067068Y0058605D02*
X0079931Y0058605D01*
X0080044Y0057006D02*
X0067422Y0057006D01*
X0068900Y0055408D02*
X0079931Y0055408D01*
X0086550Y0056600D02*
X0087068Y0057118D01*
X0087068Y0058300D01*
X0087931Y0058300D01*
X0087931Y0057118D01*
X0088450Y0056600D01*
X0087931Y0056082D01*
X0087931Y0053297D01*
X0087068Y0054160D01*
X0087068Y0056082D01*
X0086550Y0056600D01*
X0086956Y0057006D02*
X0088044Y0057006D01*
X0087931Y0055408D02*
X0087068Y0055408D01*
X0087419Y0053809D02*
X0087931Y0053809D01*
X0079931Y0053809D02*
X0068900Y0053809D01*
X0068900Y0052211D02*
X0079931Y0052211D01*
X0095068Y0052211D02*
X0095182Y0052211D01*
X0095068Y0053809D02*
X0096781Y0053809D01*
X0100839Y0052211D02*
X0108931Y0052211D01*
X0108931Y0050925D02*
X0109540Y0050317D01*
X0109300Y0049737D01*
X0109300Y0048463D01*
X0109533Y0047900D01*
X0104043Y0047900D01*
X0103793Y0048502D01*
X0102302Y0049993D01*
X0100354Y0050800D01*
X0099428Y0050800D01*
X0108931Y0060303D01*
X0108931Y0057618D01*
X0109450Y0057100D01*
X0108931Y0056582D01*
X0108931Y0050925D01*
X0109245Y0050612D02*
X0100808Y0050612D01*
X0103282Y0049014D02*
X0109300Y0049014D01*
X0108931Y0053809D02*
X0102438Y0053809D01*
X0104036Y0055408D02*
X0108931Y0055408D01*
X0109356Y0057006D02*
X0105635Y0057006D01*
X0107233Y0058605D02*
X0108931Y0058605D01*
X0108931Y0060203D02*
X0108832Y0060203D01*
X0104773Y0061802D02*
X0103230Y0061802D01*
X0103175Y0060203D02*
X0100832Y0060203D01*
X0101576Y0058605D02*
X0099233Y0058605D01*
X0099978Y0057006D02*
X0097635Y0057006D01*
X0098379Y0055408D02*
X0096036Y0055408D01*
X0095068Y0060097D02*
X0095068Y0060840D01*
X0097102Y0062874D01*
X0097628Y0062656D01*
X0095068Y0060097D01*
X0095068Y0060203D02*
X0095175Y0060203D01*
X0096030Y0061802D02*
X0096773Y0061802D01*
X0104829Y0063400D02*
X0106372Y0063400D01*
X0106427Y0064999D02*
X0107970Y0064999D01*
X0106500Y0066597D02*
X0109569Y0066597D01*
X0110345Y0068196D02*
X0106500Y0068196D01*
X0106500Y0069794D02*
X0110345Y0069794D01*
X0110345Y0071393D02*
X0105836Y0071393D01*
X0104237Y0072991D02*
X0110483Y0072991D01*
X0102639Y0074590D02*
X0129561Y0074590D01*
X0127963Y0072991D02*
X0121517Y0072991D01*
X0121655Y0071393D02*
X0126364Y0071393D01*
X0125700Y0069794D02*
X0121655Y0069794D01*
X0121655Y0068196D02*
X0125700Y0068196D01*
X0125700Y0066597D02*
X0121655Y0066597D01*
X0125700Y0064999D02*
X0113627Y0064999D01*
X0115943Y0063400D02*
X0119057Y0063400D01*
X0129700Y0063206D02*
X0131646Y0062400D01*
X0133754Y0062400D01*
X0135039Y0062932D01*
X0135672Y0062300D01*
X0129700Y0062300D01*
X0129700Y0063206D01*
X0137702Y0065926D02*
X0138000Y0066646D01*
X0138000Y0068754D01*
X0137193Y0070702D01*
X0136795Y0071100D01*
X0154205Y0071100D01*
X0153807Y0070702D01*
X0153000Y0068754D01*
X0153000Y0066646D01*
X0153806Y0064700D01*
X0138928Y0064700D01*
X0137702Y0065926D01*
X0137980Y0066597D02*
X0153020Y0066597D01*
X0153000Y0068196D02*
X0138000Y0068196D01*
X0137569Y0069794D02*
X0153431Y0069794D01*
X0163600Y0067900D02*
X0163600Y0066646D01*
X0163125Y0065500D01*
X0168472Y0065500D01*
X0166072Y0067900D01*
X0163600Y0067900D01*
X0163580Y0066597D02*
X0167374Y0066597D01*
X0171433Y0068196D02*
X0186400Y0068196D01*
X0186420Y0066597D02*
X0173031Y0066597D01*
X0174630Y0064999D02*
X0187082Y0064999D01*
X0188504Y0063400D02*
X0181443Y0063400D01*
X0182068Y0061802D02*
X0201770Y0061802D01*
X0200171Y0063400D02*
X0194896Y0063400D01*
X0196318Y0064999D02*
X0198573Y0064999D01*
X0202631Y0066597D02*
X0205700Y0066597D01*
X0205700Y0064999D02*
X0204230Y0064999D01*
X0209700Y0064999D02*
X0211970Y0064999D01*
X0212020Y0066597D02*
X0209700Y0066597D01*
X0209700Y0068196D02*
X0212000Y0068196D01*
X0212431Y0069794D02*
X0209700Y0069794D01*
X0205700Y0069794D02*
X0199434Y0069794D01*
X0201033Y0068196D02*
X0205700Y0068196D01*
X0220496Y0063400D02*
X0223340Y0063400D01*
X0222900Y0064999D02*
X0221918Y0064999D01*
X0222580Y0066597D02*
X0223257Y0066597D01*
X0222600Y0068196D02*
X0224100Y0068196D01*
X0224100Y0069794D02*
X0222169Y0069794D01*
X0228100Y0069794D02*
X0230500Y0069794D01*
X0230367Y0068196D02*
X0228100Y0068196D01*
X0234500Y0069794D02*
X0255569Y0069794D01*
X0260890Y0066597D02*
X0273953Y0066597D01*
X0273819Y0064999D02*
X0259930Y0064999D01*
X0260081Y0063400D02*
X0274618Y0063400D01*
X0280630Y0064999D02*
X0285300Y0064999D01*
X0285300Y0066597D02*
X0280447Y0066597D01*
X0279386Y0068196D02*
X0284376Y0068196D01*
X0282777Y0069794D02*
X0268120Y0069794D01*
X0264900Y0068272D02*
X0264900Y0068272D01*
X0264824Y0068196D02*
X0275014Y0068196D01*
X0269188Y0071393D02*
X0281179Y0071393D01*
X0283928Y0074300D02*
X0288128Y0070100D01*
X0289300Y0068928D01*
X0289300Y0067432D01*
X0289463Y0067500D01*
X0290472Y0067500D01*
X0292872Y0069900D01*
X0292663Y0069900D01*
X0291487Y0070387D01*
X0290587Y0071287D01*
X0290100Y0072463D01*
X0290100Y0073737D01*
X0290333Y0074300D01*
X0283928Y0074300D01*
X0285237Y0072991D02*
X0290100Y0072991D01*
X0290543Y0071393D02*
X0286836Y0071393D01*
X0294902Y0070300D02*
X0295113Y0070387D01*
X0295825Y0071100D01*
X0310072Y0071100D01*
X0310872Y0070300D01*
X0294902Y0070300D01*
X0292766Y0069794D02*
X0288434Y0069794D01*
X0289300Y0068196D02*
X0291167Y0068196D01*
X0293300Y0064672D02*
X0294928Y0066300D01*
X0306898Y0066300D01*
X0306687Y0066213D01*
X0305975Y0065500D01*
X0302088Y0065500D01*
X0301988Y0065600D01*
X0296372Y0065600D01*
X0294872Y0064100D01*
X0293700Y0062928D01*
X0293700Y0062057D01*
X0293209Y0062547D01*
X0292892Y0062679D01*
X0293300Y0063663D01*
X0293300Y0064672D01*
X0293627Y0064999D02*
X0295770Y0064999D01*
X0294172Y0063400D02*
X0293191Y0063400D01*
X0297700Y0061272D02*
X0298028Y0061600D01*
X0299175Y0061600D01*
X0298900Y0060937D01*
X0298900Y0059928D01*
X0298463Y0059491D01*
X0298413Y0059613D01*
X0297700Y0060325D01*
X0297700Y0061272D01*
X0297822Y0060203D02*
X0298900Y0060203D01*
X0310433Y0058605D02*
X0322567Y0058605D01*
X0320968Y0060203D02*
X0312032Y0060203D01*
X0327025Y0061500D02*
X0342333Y0061500D01*
X0342100Y0062063D01*
X0342100Y0063337D01*
X0342333Y0063900D01*
X0327700Y0063900D01*
X0327700Y0062863D01*
X0327213Y0061687D01*
X0327025Y0061500D01*
X0327260Y0061802D02*
X0342208Y0061802D01*
X0342126Y0063400D02*
X0327700Y0063400D01*
X0326928Y0067900D02*
X0326928Y0067900D01*
X0357175Y0067900D01*
X0326928Y0067900D01*
X0357175Y0067900D02*
X0357175Y0067900D01*
X0341558Y0077787D02*
X0328015Y0077787D01*
X0329614Y0079385D02*
X0343157Y0079385D01*
X0360530Y0080984D02*
X0373000Y0080984D01*
X0373420Y0082582D02*
X0360530Y0082582D01*
X0360530Y0084181D02*
X0381552Y0084181D01*
X0373000Y0085779D02*
X0360530Y0085779D01*
X0360530Y0090300D02*
X0360530Y0092555D01*
X0360814Y0092272D01*
X0361985Y0091100D01*
X0373000Y0091100D01*
X0373000Y0090300D01*
X0360530Y0090300D01*
X0360530Y0090575D02*
X0373000Y0090575D01*
X0360912Y0092173D02*
X0360530Y0092173D01*
X0363372Y0095370D02*
X0373000Y0095370D01*
X0373000Y0096969D02*
X0361773Y0096969D01*
X0340623Y0105652D02*
X0339672Y0104700D01*
X0305328Y0104700D01*
X0302628Y0107400D01*
X0333272Y0107400D01*
X0333972Y0106700D01*
X0339318Y0106700D01*
X0340185Y0105834D01*
X0340623Y0105652D01*
X0339933Y0104962D02*
X0305067Y0104962D01*
X0303468Y0106560D02*
X0339458Y0106560D01*
X0339974Y0111356D02*
X0334973Y0111356D01*
X0327242Y0112954D02*
X0347926Y0112954D01*
X0346327Y0111356D02*
X0344226Y0111356D01*
X0355942Y0112954D02*
X0363141Y0112954D01*
X0362162Y0114553D02*
X0357541Y0114553D01*
X0359139Y0116151D02*
X0361900Y0116151D01*
X0354320Y0119348D02*
X0353250Y0119348D01*
X0353250Y0120947D02*
X0355918Y0120947D01*
X0361728Y0121100D02*
X0361900Y0121272D01*
X0361900Y0121100D01*
X0361728Y0121100D01*
X0357517Y0122545D02*
X0352428Y0122545D01*
X0350829Y0124144D02*
X0359115Y0124144D01*
X0341550Y0120947D02*
X0337992Y0120947D01*
X0341550Y0119348D02*
X0333636Y0119348D01*
X0332038Y0117750D02*
X0341550Y0117750D01*
X0342276Y0116151D02*
X0330439Y0116151D01*
X0328841Y0114553D02*
X0343874Y0114553D01*
X0317826Y0122545D02*
X0315300Y0122545D01*
X0315300Y0124144D02*
X0316228Y0124144D01*
X0319728Y0126300D02*
X0322333Y0126300D01*
X0322100Y0126863D01*
X0322100Y0128137D01*
X0322587Y0129313D01*
X0323487Y0130213D01*
X0324663Y0130700D01*
X0325937Y0130700D01*
X0327113Y0130213D01*
X0327349Y0129977D01*
X0328100Y0130728D01*
X0328294Y0130922D01*
X0315106Y0130922D01*
X0319728Y0126300D01*
X0318688Y0127341D02*
X0322100Y0127341D01*
X0322432Y0128939D02*
X0317089Y0128939D01*
X0315491Y0130538D02*
X0324272Y0130538D01*
X0326328Y0130538D02*
X0327909Y0130538D01*
X0331171Y0125742D02*
X0333368Y0125742D01*
X0281509Y0130538D02*
X0120335Y0130538D01*
X0114665Y0130538D02*
X0003666Y0130538D01*
X0003666Y0128939D02*
X0113066Y0128939D01*
X0126686Y0125742D02*
X0155872Y0125742D01*
X0155845Y0124144D02*
X0128285Y0124144D01*
X0129883Y0122545D02*
X0151917Y0122545D01*
X0177180Y0122545D02*
X0231048Y0122545D01*
X0239636Y0112954D02*
X0247126Y0112954D01*
X0245527Y0111356D02*
X0244370Y0111356D01*
X0239830Y0111356D02*
X0211647Y0111356D01*
X0240763Y0098672D02*
X0243850Y0101759D01*
X0244559Y0101759D01*
X0245426Y0100893D01*
X0245734Y0100765D01*
X0243269Y0098300D01*
X0240391Y0098300D01*
X0240763Y0098672D01*
X0240659Y0098568D02*
X0243537Y0098568D01*
X0242257Y0100166D02*
X0245135Y0100166D01*
X0186510Y0084181D02*
X0184809Y0084181D01*
X0185245Y0082582D02*
X0187172Y0082582D01*
X0186009Y0080984D02*
X0188753Y0080984D01*
X0165616Y0082755D02*
X0164928Y0082755D01*
X0163991Y0081818D01*
X0163991Y0074838D01*
X0158628Y0080200D01*
X0159354Y0080200D01*
X0161302Y0081007D01*
X0162793Y0082498D01*
X0163600Y0084446D01*
X0163600Y0084772D01*
X0165616Y0082755D01*
X0164755Y0082582D02*
X0162828Y0082582D01*
X0163490Y0084181D02*
X0164191Y0084181D01*
X0163991Y0080984D02*
X0161247Y0080984D01*
X0159443Y0079385D02*
X0163991Y0079385D01*
X0163991Y0077787D02*
X0161042Y0077787D01*
X0162640Y0076188D02*
X0163991Y0076188D01*
X0153786Y0079385D02*
X0129614Y0079385D01*
X0135647Y0080984D02*
X0152188Y0080984D01*
X0150589Y0082582D02*
X0137228Y0082582D01*
X0162658Y0095370D02*
X0163491Y0095370D01*
X0088991Y0095370D02*
X0087509Y0095370D01*
X0079309Y0095370D02*
X0076799Y0095370D01*
X0079132Y0106560D02*
X0059545Y0106560D01*
X0123218Y0122545D02*
X0124226Y0122545D01*
X0236612Y0076188D02*
X0251083Y0076188D01*
X0243744Y0064999D02*
X0232827Y0064999D01*
X0231229Y0063400D02*
X0243319Y0063400D01*
X0243661Y0061802D02*
X0229630Y0061802D01*
X0228032Y0060203D02*
X0245341Y0060203D01*
X0247176Y0058605D02*
X0226433Y0058605D01*
X0222375Y0060203D02*
X0212832Y0060203D01*
X0214430Y0061802D02*
X0223973Y0061802D01*
X0202872Y0057500D02*
X0182068Y0057500D01*
X0182068Y0057500D01*
X0202872Y0057500D01*
X0202872Y0057500D01*
X0214100Y0052211D02*
X0182068Y0052211D01*
X0182068Y0050612D02*
X0214535Y0050612D01*
X0188747Y0049014D02*
X0164842Y0049014D01*
X0163244Y0047415D02*
X0187171Y0047415D01*
X0186509Y0045817D02*
X0163600Y0045817D01*
X0163506Y0044218D02*
X0186400Y0044218D01*
X0186742Y0042620D02*
X0162844Y0042620D01*
X0161316Y0041021D02*
X0187684Y0041021D01*
X0188000Y0033029D02*
X0097000Y0033029D01*
X0095401Y0034627D02*
X0257538Y0034627D01*
X0257597Y0033029D02*
X0249800Y0033029D01*
X0255698Y0031430D02*
X0258644Y0031430D01*
X0257297Y0029832D02*
X0266540Y0029832D01*
X0264942Y0031430D02*
X0262756Y0031430D01*
X0275025Y0031900D02*
X0275025Y0031900D01*
X0301975Y0031900D01*
X0301787Y0032087D01*
X0301708Y0032279D01*
X0301328Y0031900D01*
X0275025Y0031900D01*
X0274700Y0036226D02*
X0288169Y0036226D01*
X0270300Y0036226D02*
X0268503Y0036226D01*
X0256146Y0036226D02*
X0248854Y0036226D01*
X0247340Y0029832D02*
X0221664Y0029832D01*
X0213405Y0030300D02*
X0212807Y0029702D01*
X0212392Y0028700D01*
X0198072Y0028700D01*
X0197000Y0027628D01*
X0197000Y0027754D01*
X0196193Y0029702D01*
X0195595Y0030300D01*
X0213405Y0030300D01*
X0212936Y0029832D02*
X0196064Y0029832D01*
X0196802Y0028233D02*
X0197605Y0028233D01*
X0184803Y0029832D02*
X0163154Y0029832D01*
X0162065Y0031430D02*
X0186402Y0031430D01*
X0154535Y0031430D02*
X0136465Y0031430D01*
X0137554Y0029832D02*
X0153446Y0029832D01*
X0128935Y0031430D02*
X0103065Y0031430D01*
X0104154Y0029832D02*
X0127846Y0029832D01*
X0127400Y0028233D02*
X0104600Y0028233D01*
X0104595Y0026634D02*
X0127405Y0026634D01*
X0128067Y0025036D02*
X0104992Y0025036D01*
X0111777Y0023437D02*
X0129467Y0023437D01*
X0143728Y0020700D02*
X0143728Y0020700D01*
X0163353Y0020700D01*
X0163353Y0020700D01*
X0143728Y0020700D01*
X0142128Y0016700D02*
X0138128Y0012700D01*
X0163353Y0012700D01*
X0163353Y0014188D01*
X0164265Y0015100D01*
X0163353Y0016012D01*
X0163353Y0016700D01*
X0142128Y0016700D01*
X0140873Y0015445D02*
X0163920Y0015445D01*
X0163353Y0013846D02*
X0139275Y0013846D01*
X0134872Y0015100D02*
X0134072Y0014300D01*
X0125655Y0014300D01*
X0125655Y0015100D01*
X0134872Y0015100D01*
X0115321Y0009051D02*
X0111190Y0009051D01*
X0104440Y0009051D02*
X0054578Y0009051D01*
X0056176Y0007452D02*
X0164038Y0007452D01*
X0170591Y0007452D02*
X0190519Y0007452D01*
X0188921Y0009051D02*
X0171277Y0009051D01*
X0171277Y0010649D02*
X0176491Y0010649D01*
X0184320Y0010649D02*
X0187322Y0010649D01*
X0185724Y0012248D02*
X0185155Y0012248D01*
X0186928Y0016700D02*
X0191400Y0012228D01*
X0191400Y0017500D01*
X0185155Y0017500D01*
X0185155Y0016700D01*
X0185272Y0016700D01*
X0186928Y0016700D01*
X0188183Y0015445D02*
X0191400Y0015445D01*
X0191400Y0017043D02*
X0185155Y0017043D01*
X0189782Y0013846D02*
X0191400Y0013846D01*
X0191381Y0012248D02*
X0191400Y0012248D01*
X0200600Y0012248D02*
X0201400Y0012248D01*
X0201400Y0013846D02*
X0200600Y0013846D01*
X0200600Y0015445D02*
X0201400Y0015445D01*
X0201400Y0017043D02*
X0200600Y0017043D01*
X0200340Y0018642D02*
X0201660Y0018642D01*
X0202635Y0020240D02*
X0199365Y0020240D01*
X0209365Y0020240D02*
X0212635Y0020240D01*
X0219365Y0020240D02*
X0222635Y0020240D01*
X0229365Y0020240D02*
X0232635Y0020240D01*
X0239365Y0020240D02*
X0242635Y0020240D01*
X0249365Y0020240D02*
X0252031Y0020240D01*
X0251660Y0018642D02*
X0250340Y0018642D01*
X0250600Y0017043D02*
X0251400Y0017043D01*
X0251400Y0015445D02*
X0250600Y0015445D01*
X0250600Y0013846D02*
X0251400Y0013846D01*
X0251400Y0012248D02*
X0250600Y0012248D01*
X0250600Y0010649D02*
X0251400Y0010649D01*
X0251870Y0009051D02*
X0250130Y0009051D01*
X0241870Y0009051D02*
X0240130Y0009051D01*
X0240600Y0010649D02*
X0241400Y0010649D01*
X0231870Y0009051D02*
X0230130Y0009051D01*
X0230600Y0010649D02*
X0231400Y0010649D01*
X0221870Y0009051D02*
X0220130Y0009051D01*
X0220600Y0010649D02*
X0221400Y0010649D01*
X0221400Y0012248D02*
X0220600Y0012248D01*
X0220600Y0013846D02*
X0221400Y0013846D01*
X0221400Y0015445D02*
X0220600Y0015445D01*
X0220600Y0017043D02*
X0221400Y0017043D01*
X0221660Y0018642D02*
X0220340Y0018642D01*
X0211660Y0018642D02*
X0210340Y0018642D01*
X0210600Y0017043D02*
X0211400Y0017043D01*
X0211400Y0015445D02*
X0210600Y0015445D01*
X0210600Y0013846D02*
X0211400Y0013846D01*
X0211400Y0012248D02*
X0210600Y0012248D01*
X0210600Y0010649D02*
X0211400Y0010649D01*
X0211870Y0009051D02*
X0210130Y0009051D01*
X0201870Y0009051D02*
X0200130Y0009051D01*
X0200600Y0010649D02*
X0201400Y0010649D01*
X0175656Y0012248D02*
X0171277Y0012248D01*
X0171277Y0013846D02*
X0175656Y0013846D01*
X0175656Y0015445D02*
X0170710Y0015445D01*
X0171277Y0017043D02*
X0175656Y0017043D01*
X0198466Y0023437D02*
X0213067Y0023437D01*
X0230340Y0018642D02*
X0231660Y0018642D01*
X0231400Y0017043D02*
X0230600Y0017043D01*
X0230600Y0015445D02*
X0231400Y0015445D01*
X0231400Y0013846D02*
X0230600Y0013846D01*
X0230600Y0012248D02*
X0231400Y0012248D01*
X0240600Y0012248D02*
X0241400Y0012248D01*
X0241400Y0013846D02*
X0240600Y0013846D01*
X0240600Y0015445D02*
X0241400Y0015445D01*
X0241400Y0017043D02*
X0240600Y0017043D01*
X0240340Y0018642D02*
X0241660Y0018642D01*
X0260600Y0015611D02*
X0261400Y0014811D01*
X0261400Y0010185D01*
X0262015Y0008700D01*
X0259985Y0008700D01*
X0260600Y0010185D01*
X0260600Y0015611D01*
X0260600Y0015445D02*
X0260766Y0015445D01*
X0260600Y0013846D02*
X0261400Y0013846D01*
X0261400Y0012248D02*
X0260600Y0012248D01*
X0260600Y0010649D02*
X0261400Y0010649D01*
X0261870Y0009051D02*
X0260130Y0009051D01*
X0270600Y0014125D02*
X0270600Y0016172D01*
X0272072Y0014700D01*
X0271863Y0014700D01*
X0270687Y0014213D01*
X0270600Y0014125D01*
X0270600Y0015445D02*
X0271327Y0015445D01*
X0284568Y0018800D02*
X0286432Y0018800D01*
X0285900Y0017515D01*
X0285900Y0009685D01*
X0286600Y0007994D01*
X0286695Y0007900D01*
X0284305Y0007900D01*
X0284400Y0007994D01*
X0285100Y0009685D01*
X0285100Y0017515D01*
X0284568Y0018800D01*
X0284633Y0018642D02*
X0286367Y0018642D01*
X0285900Y0017043D02*
X0285100Y0017043D01*
X0285100Y0015445D02*
X0285900Y0015445D01*
X0285900Y0013846D02*
X0285100Y0013846D01*
X0285100Y0012248D02*
X0285900Y0012248D01*
X0285900Y0010649D02*
X0285100Y0010649D01*
X0284837Y0009051D02*
X0286163Y0009051D01*
X0294305Y0007900D02*
X0294400Y0007994D01*
X0295100Y0009685D01*
X0295100Y0017515D01*
X0294568Y0018800D01*
X0296432Y0018800D01*
X0295900Y0017515D01*
X0295900Y0009685D01*
X0296600Y0007994D01*
X0296695Y0007900D01*
X0294305Y0007900D01*
X0294837Y0009051D02*
X0296163Y0009051D01*
X0295900Y0010649D02*
X0295100Y0010649D01*
X0295100Y0012248D02*
X0295900Y0012248D01*
X0295900Y0013846D02*
X0295100Y0013846D01*
X0295100Y0015445D02*
X0295900Y0015445D01*
X0295900Y0017043D02*
X0295100Y0017043D01*
X0294633Y0018642D02*
X0296367Y0018642D01*
X0305100Y0015111D02*
X0305900Y0014311D01*
X0305900Y0009685D01*
X0306600Y0007994D01*
X0306695Y0007900D01*
X0304305Y0007900D01*
X0304400Y0007994D01*
X0305100Y0009685D01*
X0305100Y0015111D01*
X0305100Y0013846D02*
X0305900Y0013846D01*
X0305900Y0012248D02*
X0305100Y0012248D01*
X0305100Y0010649D02*
X0305900Y0010649D01*
X0306163Y0009051D02*
X0304837Y0009051D01*
X0315728Y0006300D02*
X0316528Y0007100D01*
X0317012Y0007583D01*
X0317894Y0006700D01*
X0318861Y0006300D01*
X0315728Y0006300D01*
X0316881Y0007452D02*
X0317142Y0007452D01*
X0323858Y0007452D02*
X0327142Y0007452D01*
X0262295Y0019900D02*
X0261968Y0019900D01*
X0262131Y0019737D01*
X0262295Y0019900D01*
X0272900Y0025036D02*
X0273354Y0025036D01*
X0307025Y0031900D02*
X0307025Y0031900D01*
X0312500Y0031900D01*
X0312500Y0031900D01*
X0307025Y0031900D01*
X0328050Y0041021D02*
X0337750Y0041021D01*
X0336152Y0042620D02*
X0329648Y0042620D01*
X0332944Y0044218D02*
X0334553Y0044218D01*
X0325590Y0044218D02*
X0324500Y0044218D01*
X0300156Y0047415D02*
X0300030Y0047415D01*
X0248775Y0060203D02*
X0248059Y0060203D01*
X0249739Y0061802D02*
X0250349Y0061802D01*
X0281825Y0063400D02*
X0285300Y0063400D01*
X0186831Y0069794D02*
X0172023Y0069794D01*
X0153682Y0064999D02*
X0138630Y0064999D01*
X0171456Y0057006D02*
X0172165Y0057006D01*
X0171568Y0055408D02*
X0173764Y0055408D01*
X0174931Y0053809D02*
X0171568Y0053809D01*
X0171568Y0052211D02*
X0174931Y0052211D01*
X0174931Y0050612D02*
X0171568Y0050612D01*
X0160784Y0050612D02*
X0159808Y0050612D01*
X0155284Y0041021D02*
X0135716Y0041021D01*
X0094446Y0029832D02*
X0078554Y0029832D01*
X0079000Y0028233D02*
X0094000Y0028233D01*
X0094005Y0026634D02*
X0078995Y0026634D01*
X0078333Y0025036D02*
X0094667Y0025036D01*
X0096067Y0023437D02*
X0076933Y0023437D01*
X0070467Y0023437D02*
X0060191Y0023437D01*
X0058592Y0025036D02*
X0069067Y0025036D01*
X0068405Y0026634D02*
X0059969Y0026634D01*
X0061152Y0028233D02*
X0068400Y0028233D01*
X0068472Y0032700D02*
X0060835Y0032700D01*
X0059577Y0033957D01*
X0058310Y0034482D01*
X0059378Y0035550D01*
X0065613Y0035550D01*
X0066550Y0036487D01*
X0066550Y0041922D01*
X0066900Y0042272D01*
X0069700Y0039472D01*
X0070872Y0038300D01*
X0084733Y0038300D01*
X0084500Y0037737D01*
X0084500Y0036463D01*
X0084987Y0035287D01*
X0085175Y0035100D01*
X0070872Y0035100D01*
X0069700Y0033928D01*
X0068472Y0032700D01*
X0068800Y0033029D02*
X0060506Y0033029D01*
X0058455Y0034627D02*
X0070399Y0034627D01*
X0066288Y0036226D02*
X0084599Y0036226D01*
X0084536Y0037824D02*
X0066550Y0037824D01*
X0066550Y0039423D02*
X0069749Y0039423D01*
X0068150Y0041021D02*
X0066550Y0041021D01*
X0057450Y0041021D02*
X0056543Y0041021D01*
X0056550Y0039423D02*
X0057450Y0039423D01*
X0055996Y0037824D02*
X0055982Y0037824D01*
X0049464Y0036226D02*
X0041700Y0036226D01*
X0041700Y0034627D02*
X0052799Y0034627D01*
X0048018Y0037824D02*
X0041700Y0037824D01*
X0041700Y0039423D02*
X0047450Y0039423D01*
X0047457Y0041021D02*
X0043316Y0041021D01*
X0044844Y0042620D02*
X0048119Y0042620D01*
X0054447Y0044218D02*
X0057955Y0044218D01*
X0057450Y0042620D02*
X0055881Y0042620D01*
X0056045Y0045817D02*
X0064788Y0045817D01*
X0058072Y0053500D02*
X0056568Y0051997D01*
X0056568Y0054582D01*
X0056050Y0055100D01*
X0056568Y0055618D01*
X0056568Y0056700D01*
X0059931Y0056700D01*
X0059931Y0055618D01*
X0060450Y0055100D01*
X0059931Y0054582D01*
X0059931Y0053500D01*
X0058072Y0053500D01*
X0056568Y0053809D02*
X0059931Y0053809D01*
X0056782Y0052211D02*
X0056568Y0052211D01*
X0048162Y0053809D02*
X0040038Y0053809D01*
X0056358Y0055408D02*
X0060142Y0055408D01*
X0076896Y0063400D02*
X0080557Y0063400D01*
X0078318Y0064999D02*
X0093570Y0064999D01*
X0094020Y0066597D02*
X0078980Y0066597D01*
X0079000Y0068196D02*
X0094000Y0068196D01*
X0094431Y0069794D02*
X0078569Y0069794D01*
X0086443Y0063400D02*
X0088557Y0063400D01*
X0037700Y0036226D02*
X0027403Y0036226D01*
X0029001Y0034627D02*
X0037700Y0034627D01*
X0037700Y0033029D02*
X0030600Y0033029D01*
X0029739Y0028233D02*
X0020000Y0028233D01*
X0019995Y0026634D02*
X0031337Y0026634D01*
X0032936Y0025036D02*
X0019333Y0025036D01*
X0017933Y0023437D02*
X0034534Y0023437D01*
X0036133Y0021839D02*
X0003666Y0021839D01*
X0003666Y0023437D02*
X0011467Y0023437D01*
X0010067Y0025036D02*
X0003666Y0025036D01*
X0003666Y0026634D02*
X0009405Y0026634D01*
X0009400Y0028233D02*
X0003666Y0028233D01*
X0003666Y0029832D02*
X0009846Y0029832D01*
X0010935Y0031430D02*
X0003666Y0031430D01*
X0003666Y0020240D02*
X0037731Y0020240D01*
X0039330Y0018642D02*
X0003666Y0018642D01*
X0003666Y0017043D02*
X0040928Y0017043D01*
X0042527Y0015445D02*
X0003666Y0015445D01*
X0003666Y0013846D02*
X0044125Y0013846D01*
X0045724Y0012248D02*
X0003666Y0012248D01*
X0003666Y0010649D02*
X0047322Y0010649D01*
X0048921Y0009051D02*
X0003666Y0009051D01*
X0003666Y0007452D02*
X0050519Y0007452D01*
X0052118Y0005854D02*
X0003666Y0005854D01*
X0003666Y0004255D02*
X0053716Y0004255D01*
X0052979Y0010649D02*
X0103853Y0010649D01*
X0065724Y0012248D02*
X0051381Y0012248D01*
X0049782Y0013846D02*
X0064125Y0013846D01*
X0062527Y0015445D02*
X0048183Y0015445D01*
X0046585Y0017043D02*
X0060928Y0017043D01*
X0059330Y0018642D02*
X0044986Y0018642D01*
X0410421Y0071393D02*
X0447964Y0071393D01*
X0462815Y0080587D02*
X0464780Y0080587D01*
X0464500Y0081263D01*
X0464500Y0082272D01*
X0462815Y0080587D01*
X0463212Y0080984D02*
X0464616Y0080984D01*
X0469945Y0084181D02*
X0483618Y0084181D01*
X0495700Y0087378D02*
X0470782Y0087378D01*
X0470883Y0088976D02*
X0495700Y0088976D01*
X0495700Y0090575D02*
X0469951Y0090575D01*
X0470402Y0092173D02*
X0495700Y0092173D01*
X0459300Y0103363D02*
X0457467Y0103363D01*
X0455533Y0103363D02*
X0443300Y0103363D01*
X0520027Y0127341D02*
X0547271Y0127341D01*
X0432800Y0041021D02*
X0420330Y0041021D01*
X0526291Y0033029D02*
X0547271Y0033029D01*
X0547271Y0034627D02*
X0527455Y0034627D01*
X0527662Y0036226D02*
X0547271Y0036226D01*
M02*
